<svg 
     version="1.1"
     baseProfile="full"
     xmlns="http://www.w3.org/2000/svg"
     xmlns:xlink="http://www.w3.org/1999/xlink"
     viewBox="0 0 1440 770"
     >
<rect class="bg" />
<style>
* {
  opacity: 1;
  stroke: white;
  stroke-opacity: 0.5;
  stroke-width: 2;
  stroke-linejoin: round;
  stroke-linecap: butt;
  fill: white;
  fill-opacity: 0;
  fill-rule: nonzero;
  transition-property: opacity, stroke-width, stroke-opacity;
  transition-duration: 0.5s;
}

.bg {
  width: 100vw;
  height: 100vh;
  stroke: none;
  fill: black;
}

text {
  stroke: none;
  fill: #ffcc66;
  fill-opacity: 1;
  font-size: 1em;
  opacity: 0;
  x: 0;
  y: 0;
}

path {
  transition-property: opacity, stroke-width, stroke-opacity;
  transition-duration: 2s;
}

.select {
  stroke-opacity: 1;
  fill-opacity: 0.7;
}
.select path {
  fill-opacity: 0.2;
}

.fade path {
  stroke-opacity: 0.2;
  transition-property: opacity, stroke-width, stroke-opacity;
  transition-duration: 2s;
}

.point {
  transform: translate(-5px, 0);
  transition-property: opacity, stroke-width, stroke-opacity;
  transition-duration: 0.25s;
}
.point circle {
  stroke: black;
  stroke-opacity: 1;
  stroke-width: 3;
  fill: white;
  fill-opacity: 1;
  /* vector-effect: non-scaling-stroke; */
  r: 3;
}
.point.highlight .bottom {
  stroke: #FC0;
  stroke-width: 12;
  stroke-opacity: 0.5;
  /* r: 20; */
}
.point.select .bottom {
  stroke: #69F;
  stroke-width: 10;
  stroke-opacity: 0.8;
  /* r: 20; */
}

.line {
  transition-property: opacity, stroke-width, stroke-opacity;
  transition-duration: 2s;
}
.line.fade path {
  stroke-opacity: 0.2;
}

.circle {
  fill-opacity: 0;
}

.polygon path {
  stroke-width: 0;
  fill: #CCF;
  fill-opacity: 0.2;
}

.bisector {
  stroke-dasharray: 13, 5, 3, 5;
}

.segment path {
  stroke: #C90;
  stroke-width: 5;
  stroke-opacity: 1;
}

.a path {
  stroke-width: 3;
}

.b path {
  stroke-width: 5;
}

[class~="a+b"] path {
  stroke-width: 8;
}

[class~="a+2b"] path {
  stroke-width: 13;
}

.golden path {
  stroke-opacity: 0.8;
}

.golden text {
  opacity: 0.8;
}

.s-ff6699 path {
  stroke: #ff6699;
  fill: #ff6699;
}

.s-66ccff path {
  stroke: #66ccff;
  fill: #66ccff;
}

.s-cc66ff path {
  stroke: #cc66ff;
  fill: #cc66ff;
}

.s-99ff00 path {
  stroke: #99ff00;
  fill: #99ff00;
}

.s-33ffcc path {
  stroke: #33ffcc;
  fill: #33ffcc;
}

.s-ffff66 path {
  stroke: #ffff66;
  fill: #ffff66;
}

/*# sourceMappingURL=construction.css.map */
</style>
<g stroke-linejoin="miter" stroke-dashoffset="0.0000" stroke-dasharray="none" stroke-width="1.0000" stroke-miterlimit="10.000" stroke-linecap="square">
<g id="misc">
</g>
<g id="base">
<g id="b" class="circle s-a0a0a0">
<g>
  <path d="M 784.17 385.00 C 784.17 455.88 726.71 513.33 655.83 513.33 C 584.96 513.33 527.50 455.88 527.50 385.00 C 527.50 314.12 584.96 256.67 655.83 256.67 C 726.71 256.67 784.17 314.12 784.17 385.00 z"/>
<title>Circle b</title>
<desc>Circle b: Circle through B with center A</desc>
</g> 
</g> 
<g id="c" class="circle s-a0a0a0">
<g>
  <path d="M 912.50 385.00 C 912.50 455.88 855.04 513.33 784.17 513.33 C 713.29 513.33 655.83 455.88 655.83 385.00 C 655.83 314.12 713.29 256.67 784.17 256.67 C 855.04 256.67 912.50 314.12 912.50 385.00 z"/>
<title>Circle c</title>
<desc>Circle c: Circle through A with center B</desc>
</g> 
</g> 
<g id="a" class="line s-a0a0a0">
<g>
  <path d="M -5.0000 385.00 L 1445.0 385.00"/>
<title>Line a</title>
<desc>Line a: Line A, B</desc>
</g> 
</g> 
<g id="d" class="line s-a0a0a0">
<g>
  <path d="M 720.00 775.00 L 720.00 -5.0000"/>
<title>Line d</title>
<desc>Line d: Line E, F</desc>
</g> 
</g> 
</g>
<g id="layer1">
<g id="f" class="line s-ff6699">
<g>
  <path d="M 430.67 775.00 L 881.00 -5.0000"/>
<title>Line f</title>
<desc>Line f: Line A, E</desc>
</g> 
</g> 
<g id="g" class="line s-ff6699">
<g>
  <path d="M 1009.3 775.00 L 559.00 -5.0000"/>
<title>Line g</title>
<desc>Line g: Line B, E</desc>
</g> 
</g> 
<g id="h" class="line s-ff6699">
<g>
  <path d="M 881.00 775.00 L 430.67 -5.0000"/>
<title>Line h</title>
<desc>Line h: Line A, F</desc>
</g> 
</g> 
<g id="i" class="line s-ff6699">
<g>
  <path d="M 559.00 775.00 L 1009.3 -5.0000"/>
<title>Line i</title>
<desc>Line i: Line B, F</desc>
</g> 
</g> 
<g id="j" class="line s-ff6699">
<g>
  <path d="M -5.0000 273.86 L 1445.0 273.86"/>
<title>Line j</title>
<desc>Line j: Line J, M</desc>
</g> 
</g> 
<g id="k" class="line s-ff6699">
<g>
  <path d="M -5.0000 496.14 L 1445.0 496.14"/>
<title>Line k</title>
<desc>Line k: Line I, K</desc>
</g> 
</g> 
</g>
<g id="layer2">
<g id="e" class="circle s-ff6699">
<g>
  <path d="M 868.19 422.05 C 868.19 503.89 801.84 570.23 720.00 570.23 C 638.16 570.23 571.81 503.89 571.81 422.05 C 571.81 340.21 638.16 273.86 720.00 273.86 C 801.84 273.86 868.19 340.21 868.19 422.05 z"/>
<title>Circle e</title>
<desc>Circle e: Circle through K with center H</desc>
</g> 
</g> 
<g id="l" class="line s-ff6699">
<g>
  <path d="M -5.0000 3.4677 L 1331.3 775.00"/>
<title>Line l</title>
<desc>Line l: Line A, K</desc>
</g> 
</g> 
</g>
<g id="layer3">
</g>
<g id="layer4">
</g>
<g id="layer5">
</g>
<g id="layer6">
</g>
<g id="graphics">
</g>
<g id="sections">
<g id="t1" class="polygon s-ff6699">
<g>
  <path d="M 655.83 385.00 L 720.00 273.86 L 784.17 385.00 z"/>
<title>Polygon t1</title>
<desc>Triangle t1: Polygon A, E, B</desc>
</g> 
</g> 
<g id="t2" class="polygon s-ff6699">
<g>
  <path d="M 655.83 385.00 L 720.00 496.14 L 784.17 385.00 z"/>
<title>Polygon t2</title>
<desc>Triangle t2: Polygon A, F, B</desc>
</g> 
</g> 
<g id="t3" class="polygon s-ff6699">
<g>
  <path d="M 720.00 273.86 L 591.67 496.14 L 848.33 496.14 z"/>
<title>Polygon t3</title>
<desc>Triangle t3: Polygon E, I, K</desc>
</g> 
</g> 
<g id="q2" class="polygon s-99ff00">
<g>
  <path d="M 655.83 256.67 L 784.17 256.67 L 784.17 385.00 L 655.83 385.00 z"/>
<title>Quadrilateral q2</title>
<desc>Quadrilateral q2: Polygon S, U, B, A</desc>
</g> 
</g> 
<g id="q4" class="polygon s-99ff00">
<g>
  <path d="M 655.83 385.00 L 784.17 385.00 L 784.17 513.33 L 655.83 513.33 z"/>
<title>Quadrilateral q4</title>
<desc>Quadrilateral q4: Polygon A, B, V, T</desc>
</g> 
</g> 
<g id="q5" class="polygon s-cc66ff">
<g>
  <path d="M 527.50 513.33 L 720.00 320.83 L 912.50 513.33 L 720.00 705.83 z"/>
<title>Quadrilateral q5</title>
<desc>Quadrilateral q5: Polygon W, A_1, Z, D_1</desc>
</g> 
</g> 
<g id="q6" class="polygon s-33ffcc">
<g>
  <path d="M 720.00 273.86 L 784.17 385.00 L 895.31 320.83 L 831.14 209.69 z"/>
<title>Quadrilateral q6</title>
<desc>Quadrilateral q6: Polygon E, B, E_1, F_1</desc>
</g> 
</g> 
<g id="q7" class="polygon s-33ffcc">
<g>
  <path d="M 655.83 385.00 L 720.00 273.86 L 608.86 209.69 L 544.69 320.83 z"/>
<title>Quadrilateral q7</title>
<desc>Quadrilateral q7: Polygon A, E, C_1, G_1</desc>
</g> 
</g> 
<g id="q8" class="polygon s-ffff66">
<g>
  <path d="M 576.52 305.69 L 863.48 305.69 L 863.48 592.65 L 576.52 592.65 z"/>
<title>Quadrilateral q8</title>
<desc>Quadrilateral q8: Polygon J_1, L_1, I_1, K_1</desc>
</g> 
</g> 
<g id="poly1" class="polygon s-66ccff">
<g>
  <path d="M 720.00 422.05 L 976.67 273.86 L 976.67 -22.513 L 720.00 -170.70 L 463.33 -22.513 L 463.33 273.86 z"/>
<title>Hexagon poly1</title>
<desc>Hexagon poly1: Polygon H, N_1, T_1, Q_2, R_1, M_1</desc>
</g> 
</g> 
<g id="p" class="circle s-99ff00">
<g>
  <path d="M 1040.8 385.00 C 1040.8 526.75 925.92 641.67 784.17 641.67 C 642.41 641.67 527.50 526.75 527.50 385.00 C 527.50 243.25 642.41 128.33 784.17 128.33 C 925.92 128.33 1040.8 243.25 1040.8 385.00 z"/>
<title>Circle p</title>
<desc>Circle p: Circle through C with center B</desc>
</g> 
</g> 
<g id="q" class="circle s-99ff00">
<g>
  <path d="M 912.50 385.00 C 912.50 526.75 797.59 641.67 655.83 641.67 C 514.08 641.67 399.17 526.75 399.17 385.00 C 399.17 243.25 514.08 128.33 655.83 128.33 C 797.59 128.33 912.50 243.25 912.50 385.00 z"/>
<title>Circle q</title>
<desc>Circle q: Circle through D with center A</desc>
</g> 
</g> 
<g id="r" class="circle s-99ff00">
<g>
  <path d="M 784.17 385.00 C 784.17 526.75 669.25 641.67 527.50 641.67 C 385.75 641.67 270.83 526.75 270.83 385.00 C 270.83 243.25 385.75 128.33 527.50 128.33 C 669.25 128.33 784.17 243.25 784.17 385.00 z"/>
<title>Circle r</title>
<desc>Circle r: Circle through B with center C</desc>
</g> 
</g> 
<g id="s" class="circle s-99ff00">
<g>
  <path d="M 1169.2 385.00 C 1169.2 526.75 1054.3 641.67 912.50 641.67 C 770.75 641.67 655.83 526.75 655.83 385.00 C 655.83 243.25 770.75 128.33 912.50 128.33 C 1054.3 128.33 1169.2 243.25 1169.2 385.00 z"/>
<title>Circle s</title>
<desc>Circle s: Circle through A with center D</desc>
</g> 
</g> 
<g id="c_1" class="circle s-99ff00">
<g>
  <path d="M 863.48 385.00 C 863.48 464.24 799.24 528.48 720.00 528.48 C 640.76 528.48 576.52 464.24 576.52 385.00 C 576.52 305.76 640.76 241.52 720.00 241.52 C 799.24 241.52 863.48 305.76 863.48 385.00 z"/>
<title>Circle c_1</title>
<desc>Circle c_1: Circle through U with center G</desc>
</g> 
</g> 
<g id="d_2" class="circle s-cc66ff">
<g>
  <path d="M 912.50 513.33 C 912.50 619.65 826.31 705.83 720.00 705.83 C 613.69 705.83 527.50 619.65 527.50 513.33 C 527.50 407.02 613.69 320.83 720.00 320.83 C 826.31 320.83 912.50 407.02 912.50 513.33 z"/>
<title>Circle d_2</title>
<desc>Circle d_2: Circle through Z with center B_1</desc>
</g> 
</g> 
<g id="c_2" class="circle s-33ffcc">
<g>
  <path d="M 901.49 273.86 C 901.49 374.09 820.23 455.35 720.00 455.35 C 619.77 455.35 538.51 374.09 538.51 273.86 C 538.51 173.63 619.77 92.369 720.00 92.369 C 820.23 92.369 901.49 173.63 901.49 273.86 z"/>
<title>Circle c_2</title>
<desc>Circle c_2: Circle through E_1 with center E</desc>
</g> 
</g> 
<g id="c_3" class="circle s-ffff66">
<g>
  <path d="M 922.91 449.17 C 922.91 561.23 832.07 652.08 720.00 652.08 C 607.93 652.08 517.09 561.23 517.09 449.17 C 517.09 337.10 607.93 246.25 720.00 246.25 C 832.07 246.25 922.91 337.10 922.91 449.17 z"/>
<title>Circle c_3</title>
<desc>Circle c_3: Circle through D with center H_1</desc>
</g> 
</g> 
<g id="d_3" class="circle s-66ccff">
<g>
  <path d="M 759.71 273.86 C 759.71 437.54 627.02 570.23 463.33 570.23 C 299.65 570.23 166.96 437.54 166.96 273.86 C 166.96 110.18 299.65 -22.513 463.33 -22.513 C 627.02 -22.513 759.71 110.18 759.71 273.86 z"/>
<title>Circle d_3</title>
<desc>Circle d_3: Circle through H with center M_1</desc>
</g> 
</g> 
<g id="s_3" class="circle s-66ccff">
<g>
  <path d="M 1273.0 273.86 C 1273.0 437.54 1140.3 570.23 976.67 570.23 C 812.98 570.23 680.29 437.54 680.29 273.86 C 680.29 110.18 812.98 -22.513 976.67 -22.513 C 1140.3 -22.513 1273.0 110.18 1273.0 273.86 z"/>
<title>Circle s_3</title>
<desc>Circle s_3: Circle through H with center N_1</desc>
</g> 
</g> 
<g id="r_3" class="circle s-66ccff">
<g>
  <path d="M 1016.4 125.67 C 1016.4 289.36 883.68 422.05 720.00 422.05 C 556.32 422.05 423.63 289.36 423.63 125.67 C 423.63 -38.009 556.32 -170.70 720.00 -170.70 C 883.68 -170.70 1016.4 -38.009 1016.4 125.67 z"/>
<title>Circle r_3</title>
<desc>Circle r_3: Circle through M_1 with center P_1</desc>
</g> 
</g> 
<g id="h_2" class="line s-ff6699">
<g>
  <path d="M 108.67 775.00 L 1445.0 3.4677"/>
<title>Line h_2</title>
<desc>Line h_2: Line I, B</desc>
</g> 
</g> 
<g id="n" class="line s-99ff00">
<g>
  <path d="M 655.83 775.00 L 655.83 -5.0000"/>
<title>Line n</title>
<desc>Line n: Line P, O</desc>
</g> 
</g> 
<g id="t" class="line s-99ff00">
<g>
  <path d="M 784.17 775.00 L 784.17 -5.0000"/>
<title>Line t</title>
<desc>Line t: Line R, Q</desc>
</g> 
</g> 
<g id="g_1" class="line s-99ff00">
<g>
  <path d="M -5.0000 256.67 L 1445.0 256.67"/>
<title>Line g_1</title>
<desc>Line g_1: Line S, U</desc>
</g> 
</g> 
<g id="h_1" class="line s-99ff00">
<g>
  <path d="M -5.0000 513.33 L 1445.0 513.33"/>
<title>Line h_1</title>
<desc>Line h_1: Line T, V</desc>
</g> 
</g> 
<g id="j_1" class="line s-99ff00">
<g>
  <path d="M 525.00 775.00 L 915.00 -5.0000"/>
<title>Line j_1</title>
<desc>Line j_1: Line T, U</desc>
</g> 
</g> 
<g id="l_1" class="line s-99ff00">
<g>
  <path d="M 915.00 775.00 L 525.00 -5.0000"/>
<title>Line l_1</title>
<desc>Line l_1: Line V, S</desc>
</g> 
</g> 
<g id="q_1" class="line s-cc66ff">
<g>
  <path d="M 265.83 775.00 L 1045.8 -5.0000"/>
<title>Line q_1</title>
<desc>Line q_1: Line U, A</desc>
</g> 
</g> 
<g id="r_1" class="line s-cc66ff">
<g>
  <path d="M 1174.2 775.00 L 394.17 -5.0000"/>
<title>Line r_1</title>
<desc>Line r_1: Line S, B</desc>
</g> 
</g> 
<g id="i_2" class="line s-ff6699">
<g>
  <path d="M -5.0000 692.44 L 1203.0 -5.0000"/>
<title>Line i_2</title>
<desc>Line i_2: Line C, E</desc>
</g> 
</g> 
<g id="j_2" class="line s-ff6699">
<g>
  <path d="M 237.00 -5.0000 L 1445.0 692.44"/>
<title>Line j_2</title>
<desc>Line j_2: Line D, E</desc>
</g> 
</g> 
<g id="p_2" class="line s-33ffcc">
<g>
  <path d="M -5.0000 79.597 L 1445.0 468.12"/>
<title>Line p_2</title>
<desc>Line p_2: Line E, E_1</desc>
</g> 
</g> 
<g id="q_2" class="line s-33ffcc">
<g>
  <path d="M -5.0000 468.12 L 1445.0 79.597"/>
<title>Line q_2</title>
<desc>Line q_2: Line E, G_1</desc>
</g> 
</g> 
<g id="s_2" class="line s-ffff66">
<g>
  <path d="M 394.17 775.00 L 1174.2 -5.0000"/>
<title>Line s_2</title>
<desc>Line s_2: Line T, B</desc>
</g> 
</g> 
<g id="t_2" class="line s-ffff66">
<g>
  <path d="M 1045.8 775.00 L 265.83 -5.0000"/>
<title>Line t_2</title>
<desc>Line t_2: Line V, A</desc>
</g> 
</g> 
<g id="m_3" class="line s-ffff66">
<g>
  <path d="M -5.0000 690.83 L 1445.0 207.50"/>
<title>Line m_3</title>
<desc>Line m_3: Line H_1, D</desc>
</g> 
</g> 
<g id="n_3" class="line s-ffff66">
<g>
  <path d="M -5.0000 207.50 L 1445.0 690.83"/>
<title>Line n_3</title>
<desc>Line n_3: Line H_1, Z</desc>
</g> 
</g> 
<g id="f_3" class="line s-ffff66">
<g>
  <path d="M 576.52 775.00 L 576.52 -5.0000"/>
<title>Line f_3</title>
<desc>Line f_3: Line J_1, K_1</desc>
</g> 
</g> 
<g id="g_3" class="line s-ffff66">
<g>
  <path d="M 863.48 775.00 L 863.48 -5.0000"/>
<title>Line g_3</title>
<desc>Line g_3: Line L_1, I_1</desc>
</g> 
</g> 
<g id="p_3" class="line s-ffff66">
<g>
  <path d="M -5.0000 305.69 L 1445.0 305.69"/>
<title>Line p_3</title>
<desc>Line p_3: Line J_1, L_1</desc>
</g> 
</g> 
<g id="q_3" class="line s-ffff66">
<g>
  <path d="M -5.0000 592.65 L 1445.0 592.65"/>
<title>Line q_3</title>
<desc>Line q_3: Line K_1, I_1</desc>
</g> 
</g> 
<g id="q1" class="segment">
<g class="segment s-ffffff">
  <path d="M 655.83 385.00 L 784.17 385.00"/>
<title>Segment q1</title>
<desc>Segment q1: Segment A, B</desc>
</g> 
</g> 
<g id="m" class="segment">
<g class="segment s-ff6699">
  <path d="M 720.00 422.05 L 848.33 496.14"/>
<title>Segment m</title>
<desc>Segment m: Segment H, K</desc>
</g> 
</g> 
<g id="g0101c" class="segment">
<g class="segment s-ffcc66 a+b">
  <path d="M 655.83 385.00 L 784.17 385.00"/>
<title>Segment g0101c</title>
<desc>Segment g0101c: ABCBAsection(C, L, A, B, N, D)</desc>
</g>
<g transform="matrix(1.0000, 0.0000, 0.0000, 1.0000, 708.00, 365.00)">
<text>a+b</text>
</g> 
</g> 
<g id="g0101b_2" class="segment">
<g class="segment s-ffcc66 b">
  <path d="M 784.17 385.00 L 863.48 385.00"/>
<title>Segment g0101b_2</title>
<desc>Segment g0101b_2: ABCBAsection(C, L, A, B, N, D)</desc>
</g>
<g transform="matrix(1.0000, 0.0000, 0.0000, 1.0000, 818.00, 369.00)">
<text>b</text>
</g> 
</g> 
<g id="g0101b_1" class="segment">
<g class="segment s-ffcc66 b">
  <path d="M 655.83 385.00 L 576.52 385.00"/>
<title>Segment g0101b_1</title>
<desc>Segment g0101b_1: ABCBAsection(C, L, A, B, N, D)</desc>
</g>
<g transform="matrix(1.0000, 0.0000, 0.0000, 1.0000, 616.00, 368.00)">
<text>b</text>
</g> 
</g> 
<g id="g0101a_2" class="segment">
<g class="segment s-ffcc66 a">
  <path d="M 863.48 385.00 L 912.50 385.00"/>
<title>Segment g0101a_2</title>
<desc>Segment g0101a_2: ABCBAsection(C, L, A, B, N, D)</desc>
</g>
<g transform="matrix(1.0000, 0.0000, 0.0000, 1.0000, 885.00, 367.00)">
<text>a</text>
</g> 
</g> 
<g id="g0101a_1" class="segment">
<g class="segment s-ffcc66 a">
  <path d="M 576.52 385.00 L 527.50 385.00"/>
<title>Segment g0101a_1</title>
<desc>Segment g0101a_1: ABCBAsection(C, L, A, B, N, D)</desc>
</g>
<g transform="matrix(1.0000, 0.0000, 0.0000, 1.0000, 552.00, 368.00)">
<text>a</text>
</g> 
</g> 
<g id="n_1" class="segment">
<g class="segment s-99ff00">
  <path d="M 784.17 385.00 L 527.50 385.00"/>
<title>Segment n_1</title>
<desc>Segment n_1: Segment B, C</desc>
</g> 
</g> 
<g id="p_1" class="segment">
<g class="segment s-99ff00">
  <path d="M 655.83 385.00 L 912.50 385.00"/>
<title>Segment p_1</title>
<desc>Segment p_1: Segment A, D</desc>
</g> 
</g> 
<g id="m_1" class="segment">
<g class="segment s-99ff00">
  <path d="M 720.00 385.00 L 784.17 256.67"/>
<title>Segment m_1</title>
<desc>Segment m_1: Segment G, U</desc>
</g> 
</g> 
<g id="d_1" class="segment">
<g class="segment s-cc66ff">
  <path d="M 720.00 513.33 L 912.50 513.33"/>
<title>Segment d_1</title>
<desc>Segment d_1: Segment B_1, Z</desc>
</g> 
</g> 
<g id="r_2" class="segment">
<g class="segment s-33ffcc">
  <path d="M 720.00 273.86 L 895.31 320.83"/>
<title>Segment r_2</title>
<desc>Segment r_2: Segment E, E_1</desc>
</g> 
</g> 
<g id="h_3" class="segment">
<g class="segment s-ffff66">
  <path d="M 720.00 449.17 L 912.50 385.00"/>
<title>Segment h_3</title>
<desc>Segment h_3: Segment H_1, D</desc>
</g> 
</g> 
<g id="f_4" class="segment">
<g class="segment s-66ccff">
  <path d="M 720.00 125.67 L 976.67 273.86"/>
<title>Segment f_4</title>
<desc>Segment f_4: Segment P_1, N_1</desc>
</g> 
</g> 
<g id="O" class="point">
  <circle class="bottom" cx="660.83" cy="607.28" r="5" />
  <circle class="top" cx="660.83" cy="607.28" r="5" />
<title>Point O</title>
<desc>Point O: Intersection point of p, r</desc>
</g> 
<g id="P" class="point">
  <circle class="bottom" cx="660.83" cy="162.72" r="5" />
  <circle class="top" cx="660.83" cy="162.72" r="5" />
<title>Point P</title>
<desc>Point P: Intersection point of p, r</desc>
</g> 
<g id="Q" class="point">
  <circle class="bottom" cx="789.17" cy="607.28" r="5" />
  <circle class="top" cx="789.17" cy="607.28" r="5" />
<title>Point Q</title>
<desc>Point Q: Intersection point of s, q</desc>
</g> 
<g id="R" class="point">
  <circle class="bottom" cx="789.17" cy="162.72" r="5" />
  <circle class="top" cx="789.17" cy="162.72" r="5" />
<title>Point R</title>
<desc>Point R: Intersection point of s, q</desc>
</g> 
<g id="S" class="point">
  <circle class="bottom" cx="660.83" cy="256.67" r="5" />
  <circle class="top" cx="660.83" cy="256.67" r="5" />
<title>Point S</title>
<desc>Point S: Intersection point of b, n</desc>
</g> 
<g id="T" class="point">
  <circle class="bottom" cx="660.83" cy="513.33" r="5" />
  <circle class="top" cx="660.83" cy="513.33" r="5" />
<title>Point T</title>
<desc>Point T: Intersection point of b, n</desc>
</g> 
<g id="U" class="point">
  <circle class="bottom" cx="789.17" cy="256.67" r="5" />
  <circle class="top" cx="789.17" cy="256.67" r="5" />
<title>Point U</title>
<desc>Point U: Intersection point of c, t</desc>
</g> 
<g id="V" class="point">
  <circle class="bottom" cx="789.17" cy="513.33" r="5" />
  <circle class="top" cx="789.17" cy="513.33" r="5" />
<title>Point V</title>
<desc>Point V: Intersection point of c, t</desc>
</g> 
<g id="W" class="point">
  <circle class="bottom" cx="532.50" cy="513.33" r="5" />
  <circle class="top" cx="532.50" cy="513.33" r="5" />
<title>Point W</title>
<desc>Point W: Intersection of h_1 and q_1</desc>
</g> 
<g id="Z" class="point">
  <circle class="bottom" cx="917.50" cy="513.33" r="5" />
  <circle class="top" cx="917.50" cy="513.33" r="5" />
<title>Point Z</title>
<desc>Point Z: Intersection of h_1 and r_1</desc>
</g> 
<g id="A_1" class="point">
  <circle class="bottom" cx="725.00" cy="320.83" r="5" />
  <circle class="top" cx="725.00" cy="320.83" r="5" />
<title>Point A_1</title>
<desc>Point A_1: Intersection of q_1 and r_1</desc>
</g> 
<g id="B_1" class="point">
  <circle class="bottom" cx="725.00" cy="513.33" r="5" />
  <circle class="top" cx="725.00" cy="513.33" r="5" />
<title>Point B_1</title>
<desc>Point B_1: Intersection of h_1 and d</desc>
</g> 
<g id="D_1" class="point">
  <circle class="bottom" cx="725.00" cy="705.83" r="5" />
  <circle class="top" cx="725.00" cy="705.83" r="5" />
<title>Point D_1</title>
<desc>Point D_1: Intersection of d_2 and d</desc>
</g> 
<g id="E_1" class="point">
  <circle class="bottom" cx="900.31" cy="320.83" r="5" />
  <circle class="top" cx="900.31" cy="320.83" r="5" />
<title>Point E_1</title>
<desc>Point E_1: Intersection of c and h_2</desc>
</g> 
<g id="G_1" class="point">
  <circle class="bottom" cx="549.69" cy="320.83" r="5" />
  <circle class="top" cx="549.69" cy="320.83" r="5" />
<title>Point G_1</title>
<desc>Point G_1: Intersection of b and l</desc>
</g> 
<g id="C_1" class="point">
  <circle class="bottom" cx="613.86" cy="209.69" r="5" />
  <circle class="top" cx="613.86" cy="209.69" r="5" />
<title>Point C_1</title>
<desc>Point C_1: Intersection of r_1 and j_2</desc>
</g> 
<g id="F_1" class="point">
  <circle class="bottom" cx="836.14" cy="209.69" r="5" />
  <circle class="top" cx="836.14" cy="209.69" r="5" />
<title>Point F_1</title>
<desc>Point F_1: Intersection of q_1 and i_2</desc>
</g> 
<g id="H_1" class="point">
  <circle class="bottom" cx="725.00" cy="449.17" r="5" />
  <circle class="top" cx="725.00" cy="449.17" r="5" />
<title>Point H_1</title>
<desc>Point H_1: Intersection of t_2 and s_2</desc>
</g> 
<g id="I_1" class="point">
  <circle class="bottom" cx="868.48" cy="592.65" r="5" />
  <circle class="top" cx="868.48" cy="592.65" r="5" />
<title>Point I_1</title>
<desc>Point I_1: Intersection point of c_3, t_2</desc>
</g> 
<g id="J_1" class="point">
  <circle class="bottom" cx="581.52" cy="305.69" r="5" />
  <circle class="top" cx="581.52" cy="305.69" r="5" />
<title>Point J_1</title>
<desc>Point J_1: Intersection point of c_3, t_2</desc>
</g> 
<g id="K_1" class="point">
  <circle class="bottom" cx="581.52" cy="592.65" r="5" />
  <circle class="top" cx="581.52" cy="592.65" r="5" />
<title>Point K_1</title>
<desc>Point K_1: Intersection point of c_3, s_2</desc>
</g> 
<g id="L_1" class="point">
  <circle class="bottom" cx="868.48" cy="305.69" r="5" />
  <circle class="top" cx="868.48" cy="305.69" r="5" />
<title>Point L_1</title>
<desc>Point L_1: Intersection point of c_3, s_2</desc>
</g> 
<g id="M_1" class="point">
  <circle class="bottom" cx="468.33" cy="273.86" r="5" />
  <circle class="top" cx="468.33" cy="273.86" r="5" />
<title>Point M_1</title>
<desc>Point M_1: Intersection of l and j</desc>
</g> 
<g id="N_1" class="point">
  <circle class="bottom" cx="981.67" cy="273.86" r="5" />
  <circle class="top" cx="981.67" cy="273.86" r="5" />
<title>Point N_1</title>
<desc>Point N_1: Intersection of j and h_2</desc>
</g> 
<g id="O_1" class="point">
  <circle class="bottom" cx="725.00" cy="422.05" r="5" />
  <circle class="top" cx="725.00" cy="422.05" r="5" />
<title>Point O_1</title>
<desc>Point O_1: Intersection point of d_3, d</desc>
</g> 
<g id="P_1" class="point">
  <circle class="bottom" cx="725.00" cy="125.67" r="5" />
  <circle class="top" cx="725.00" cy="125.67" r="5" />
<title>Point P_1</title>
<desc>Point P_1: Intersection point of d_3, d</desc>
</g> 
</g>
<g id="points">
<g id="A" class="point">
  <circle class="bottom" cx="660.83" cy="385.00" r="5" />
  <circle class="top" cx="660.83" cy="385.00" r="5" />
<title>Point A</title>
<desc>Point A: Point on xAxis</desc>
</g> 
<g id="B" class="point">
  <circle class="bottom" cx="789.17" cy="385.00" r="5" />
  <circle class="top" cx="789.17" cy="385.00" r="5" />
<title>Point B</title>
<desc>Point B: Point on xAxis</desc>
</g> 
<g id="C" class="point">
  <circle class="bottom" cx="532.50" cy="385.00" r="5" />
  <circle class="top" cx="532.50" cy="385.00" r="5" />
<title>Point C</title>
<desc>Point C: Intersection of b and a</desc>
</g> 
<g id="D" class="point">
  <circle class="bottom" cx="917.50" cy="385.00" r="5" />
  <circle class="top" cx="917.50" cy="385.00" r="5" />
<title>Point D</title>
<desc>Point D: Intersection of c and a</desc>
</g> 
<g id="E" class="point">
  <circle class="bottom" cx="725.00" cy="273.86" r="5" />
  <circle class="top" cx="725.00" cy="273.86" r="5" />
<title>Point E</title>
<desc>Point E: Intersection point of b, c</desc>
</g> 
<g id="F" class="point">
  <circle class="bottom" cx="725.00" cy="496.14" r="5" />
  <circle class="top" cx="725.00" cy="496.14" r="5" />
<title>Point F</title>
<desc>Point F: Intersection point of b, c</desc>
</g> 
<g id="G" class="point">
  <circle class="bottom" cx="725.00" cy="385.00" r="5" />
  <circle class="top" cx="725.00" cy="385.00" r="5" />
<title>Point G</title>
<desc>Point G: Intersection of a and d</desc>
</g> 
<g id="I" class="point">
  <circle class="bottom" cx="596.67" cy="496.14" r="5" />
  <circle class="top" cx="596.67" cy="496.14" r="5" />
<title>Point I</title>
<desc>Point I: Intersection of b and f</desc>
</g> 
<g id="K" class="point">
  <circle class="bottom" cx="853.33" cy="496.14" r="5" />
  <circle class="top" cx="853.33" cy="496.14" r="5" />
<title>Point K</title>
<desc>Point K: Intersection of c and g</desc>
</g> 
<g id="M" class="point">
  <circle class="bottom" cx="853.33" cy="273.86" r="5" />
  <circle class="top" cx="853.33" cy="273.86" r="5" />
<title>Point M</title>
<desc>Point M: Intersection of c and i</desc>
</g> 
<g id="J" class="point">
  <circle class="bottom" cx="596.67" cy="273.86" r="5" />
  <circle class="top" cx="596.67" cy="273.86" r="5" />
<title>Point J</title>
<desc>Point J: Intersection of b and h</desc>
</g> 
<g id="H" class="point">
  <circle class="bottom" cx="725.00" cy="422.05" r="5" />
  <circle class="top" cx="725.00" cy="422.05" r="5" />
<title>Point H</title>
<desc>Point H: Intersection of l and d</desc>
</g> 
<g id="L" class="point">
  <circle class="bottom" cx="581.52" cy="385.00" r="5" />
  <circle class="top" cx="581.52" cy="385.00" r="5" />
<title>Point L</title>
<desc>Point L: Intersection point of e, a</desc>
</g> 
<g id="N" class="point">
  <circle class="bottom" cx="868.48" cy="385.00" r="5" />
  <circle class="top" cx="868.48" cy="385.00" r="5" />
<title>Point N</title>
<desc>Point N: Intersection point of e, a</desc>
</g> 
</g>
</g> 
</svg> 
