<svg baseProfile="full" xmlns="http://www.w3.org/2000/svg" width="1610.667" height="1092" viewBox="0 0 1208 819">
  <g stroke-miterlimit="10" stroke-linecap="square">
    <g clip-path="url(#clip1)">
      <path d="M0 0h1208v819H0V0z"/>
    </g>
    <g stroke-linejoin="round" stroke-width="1.5" stroke-linecap="round" fill="none" stroke="gray" clip-path="url(#clip2)">
      <path d="M668.25 388.66c0 68.33-55.4 123.72-123.73 123.72-68.33 0-123.72-55.39-123.72-123.72s55.39-123.73 123.72-123.73 123.73 55.4 123.73 123.73z"/>
    </g>
    <g stroke-linejoin="round" stroke-width="1.5" stroke-linecap="round" fill="none" stroke="gray" clip-path="url(#clip3)">
      <path d="M791.97 388.66c0 68.33-55.39 123.72-123.72 123.72s-123.73-55.39-123.73-123.72 55.4-123.73 123.73-123.73c68.33 0 123.72 55.4 123.72 123.73z"/>
    </g>
    <g stroke-linejoin="round" stroke-width="1.5" stroke-linecap="round" fill="none" stroke="gray" clip-path="url(#clip4)">
      <path d="M-5 388.66h1218"/>
    </g>
    <g stroke-linejoin="round" stroke-dasharray="9.5000,4.0000,1.5000,4.0000" stroke-width="1.5" stroke-linecap="butt" fill="none" stroke="gray" clip-path="url(#clip5)">
      <path d="M606.38 824V-5"/>
    </g>
    <g>
      <g stroke-linejoin="round" stroke-width="1.5" stroke-linecap="round" fill="none" stroke="#f69" clip-path="url(#clip6)">
        <path d="M749.25 424.37c0 78.9-63.96 142.87-142.87 142.87-78.9 0-142.86-63.97-142.86-142.87s63.96-142.86 142.86-142.86c78.91 0 142.87 63.96 142.87 142.86z"/>
      </g>
      <g stroke-linejoin="round" stroke-width="1.5" stroke-linecap="round" fill="none" stroke="#f69" clip-path="url(#clip7)">
        <path d="M293.18 824L771.8-5"/>
      </g>
      <g stroke-linejoin="round" stroke-width="1.5" stroke-linecap="round" fill="none" stroke="#f69" clip-path="url(#clip8)">
        <path d="M919.59 824L440.97-5"/>
      </g>
      <g stroke-linejoin="round" stroke-width="1.5" stroke-linecap="round" fill="none" stroke="#f69" clip-path="url(#clip9)">
        <path d="M795.87 824L317.24-5"/>
      </g>
      <g stroke-linejoin="round" stroke-width="1.5" stroke-linecap="round" fill="none" stroke="#f69" clip-path="url(#clip10)">
        <path d="M416.9 824L895.52-5"/>
      </g>
      <g stroke-linejoin="round" stroke-width="1.5" stroke-linecap="round" fill="none" stroke="#f69" clip-path="url(#clip11)">
        <path d="M-5 495.8h1218"/>
      </g>
      <g stroke-linejoin="round" stroke-dasharray="9.5000,4.0000,1.5000,4.0000" stroke-width="1.5" stroke-linecap="butt" fill="none" stroke="#f69" clip-path="url(#clip12)">
        <path d="M-5 281.51h1218"/>
      </g>
      <g stroke-linejoin="round" stroke-dasharray="9.5000,4.0000,1.5000,4.0000" stroke-width="1.5" stroke-linecap="butt" fill="none" stroke="#f69" clip-path="url(#clip13)">
        <path d="M-5 777.36L1213 74.143"/>
      </g>
      <g stroke-linejoin="round" stroke-dasharray="9.5000,4.0000,1.5000,4.0000" stroke-width="1.5" stroke-linecap="butt" fill="none" stroke="#f69" clip-path="url(#clip14)">
        <path d="M-5 71.39L1213 774.6"/>
      </g>
      <g stroke-linejoin="round" stroke-dasharray="1.5000,3.0000" stroke-width="1.5" stroke-linecap="butt" fill="none" stroke="#f69" clip-path="url(#clip15)">
        <path d="M-5 531.49L1213 33.474"/>
      </g>
      <g stroke-linejoin="round" stroke-dasharray="1.5000,3.0000" stroke-width="1.5" stroke-linecap="butt" fill="none" stroke="#f69" clip-path="url(#clip16)">
        <path d="M-5 755.08L976.26-5"/>
      </g>
      <g stroke-linejoin="round" stroke-dasharray="1.5000,3.0000" stroke-width="1.5" stroke-linecap="butt" fill="none" stroke="#f69" clip-path="url(#clip17)">
        <path d="M532.45 824L645.43-5"/>
      </g>
      <g stroke-linejoin="round" stroke-dasharray="1.5000,3.0000" stroke-width="1.5" stroke-linecap="butt" fill="none" stroke="#f69" clip-path="url(#clip18)">
        <path d="M680.32 824L567.33-5"/>
      </g>
      <g stroke-linejoin="round" stroke-dasharray="1.5000,3.0000" stroke-width="1.5" stroke-linecap="butt" fill="none" stroke="#f69" clip-path="url(#clip19)">
        <path d="M236.5-5L1213 751.39"/>
      </g>
      <g stroke-linejoin="round" stroke-dasharray="1.5000,3.0000" stroke-width="1.5" stroke-linecap="butt" fill="none" stroke="#f69" clip-path="url(#clip20)">
        <path d="M-5 31.524L1213 529.54"/>
      </g>
    </g>
    <g>
      <g stroke-linejoin="round" stroke-width="4" stroke-linecap="round" fill="none" stroke-opacity=".749" stroke="#fc6" clip-path="url(#clip21)">
        <path d="M482.66 495.8H329.73"/>
      </g>
      <g stroke-linejoin="round" stroke-width="6.5" stroke-linecap="round" fill="none" stroke-opacity=".749" stroke="#fc6" clip-path="url(#clip22)">
        <path d="M329.73 495.8H82.279"/>
      </g>
      <g stroke-linejoin="round" stroke-width="4" stroke-linecap="round" fill="none" stroke-opacity=".749" stroke="#fc6" clip-path="url(#clip23)">
        <path d="M730.11 495.8h152.93"/>
      </g>
      <g stroke-linejoin="round" stroke-width="6.5" stroke-linecap="round" fill="none" stroke-opacity=".749" stroke="#fc6" clip-path="url(#clip24)">
        <path d="M883.04 495.8h247.46"/>
      </g>
      <g stroke-linejoin="round" stroke-width="6.5" stroke-linecap="round" fill="none" stroke-opacity=".749" stroke="#fc6" clip-path="url(#clip25)">
        <path d="M482.66 495.8h94.52"/>
      </g>
      <g stroke-linejoin="round" stroke-width="4" stroke-linecap="round" fill="none" stroke-opacity=".749" stroke="#fc6" clip-path="url(#clip26)">
        <path d="M577.18 495.8h58.41"/>
      </g>
      <g stroke-linejoin="round" stroke-width="6.5" stroke-linecap="round" fill="none" stroke-opacity=".749" stroke="#fc6" clip-path="url(#clip27)">
        <path d="M635.59 495.8h94.52"/>
      </g>
      <g fill="#fff" clip-path="url(#clip28)">
        <path d="M548.52 388.66c0 2.21-1.79 4-4 4s-4-1.79-4-4 1.79-4 4-4 4 1.79 4 4z"/>
      </g>
      <g stroke-linejoin="round" stroke-linecap="round" fill="none" stroke="#000" clip-path="url(#clip29)">
        <path d="M548.52 388.66c0 2.21-1.79 4-4 4s-4-1.79-4-4 1.79-4 4-4 4 1.79 4 4z"/>
      </g>
      <g fill="#fff" clip-path="url(#clip30)">
        <path d="M672.25 388.66c0 2.21-1.79 4-4 4s-4-1.79-4-4 1.79-4 4-4 4 1.79 4 4z"/>
      </g>
      <g stroke-linejoin="round" stroke-linecap="round" fill="none" stroke="#000" clip-path="url(#clip31)">
        <path d="M672.25 388.66c0 2.21-1.79 4-4 4s-4-1.79-4-4 1.79-4 4-4 4 1.79 4 4z"/>
      </g>
      <g fill="#fff" clip-path="url(#clip32)">
        <path d="M610.38 281.51c0 2.21-1.79 4-4 4s-4-1.79-4-4 1.79-4 4-4 4 1.79 4 4z"/>
      </g>
      <g stroke-linejoin="round" stroke-linecap="round" fill="none" stroke="#000" clip-path="url(#clip33)">
        <path d="M610.38 281.51c0 2.21-1.79 4-4 4s-4-1.79-4-4 1.79-4 4-4 4 1.79 4 4z"/>
      </g>
      <g fill="#fff" clip-path="url(#clip34)">
        <path d="M610.38 495.8c0 2.21-1.79 4-4 4a3.999 3.999 0 110-8c2.21 0 4 1.8 4 4z"/>
      </g>
      <g stroke-linejoin="round" stroke-linecap="round" fill="none" stroke="#000" clip-path="url(#clip35)">
        <path d="M610.38 495.8c0 2.21-1.79 4-4 4a3.999 3.999 0 110-8c2.21 0 4 1.8 4 4z"/>
      </g>
      <g fill="#fff" clip-path="url(#clip36)">
        <path d="M610.38 388.66c0 2.21-1.79 4-4 4s-4-1.79-4-4 1.79-4 4-4 4 1.79 4 4z"/>
      </g>
      <g stroke-linejoin="round" stroke-linecap="round" fill="none" stroke="#000" clip-path="url(#clip37)">
        <path d="M610.38 388.66c0 2.21-1.79 4-4 4s-4-1.79-4-4 1.79-4 4-4 4 1.79 4 4z"/>
      </g>
      <g fill="#fff" clip-path="url(#clip38)">
        <path d="M424.8 388.66c0 2.21-1.79 4-4 4s-4-1.79-4-4 1.79-4 4-4 4 1.79 4 4z"/>
      </g>
      <g stroke-linejoin="round" stroke-linecap="round" fill="none" stroke="#000" clip-path="url(#clip39)">
        <path d="M424.8 388.66c0 2.21-1.79 4-4 4s-4-1.79-4-4 1.79-4 4-4 4 1.79 4 4z"/>
      </g>
      <g fill="#fff" clip-path="url(#clip40)">
        <path d="M795.97 388.66c0 2.21-1.79 4-4 4s-4-1.79-4-4 1.79-4 4-4 4 1.79 4 4z"/>
      </g>
      <g stroke-linejoin="round" stroke-linecap="round" fill="none" stroke="#000" clip-path="url(#clip41)">
        <path d="M795.97 388.66c0 2.21-1.79 4-4 4s-4-1.79-4-4 1.79-4 4-4 4 1.79 4 4z"/>
      </g>
      <g fill="#fff" clip-path="url(#clip42)">
        <path d="M486.66 281.51c0 2.21-1.79 4-4 4s-4-1.79-4-4 1.79-4 4-4 4 1.79 4 4z"/>
      </g>
      <g stroke-linejoin="round" stroke-linecap="round" fill="none" stroke="#000" clip-path="url(#clip43)">
        <path d="M486.66 281.51c0 2.21-1.79 4-4 4s-4-1.79-4-4 1.79-4 4-4 4 1.79 4 4z"/>
      </g>
      <g fill="#fff" clip-path="url(#clip44)">
        <path d="M734.11 281.51c0 2.21-1.79 4-4 4s-4-1.79-4-4 1.79-4 4-4 4 1.79 4 4z"/>
      </g>
      <g stroke-linejoin="round" stroke-linecap="round" fill="none" stroke="#000" clip-path="url(#clip45)">
        <path d="M734.11 281.51c0 2.21-1.79 4-4 4s-4-1.79-4-4 1.79-4 4-4 4 1.79 4 4z"/>
      </g>
      <g fill="#fff" clip-path="url(#clip46)">
        <path d="M486.66 495.8c0 2.21-1.79 4-4 4a3.999 3.999 0 110-8c2.21 0 4 1.8 4 4z"/>
      </g>
      <g stroke-linejoin="round" stroke-linecap="round" fill="none" stroke="#000" clip-path="url(#clip47)">
        <path d="M486.66 495.8c0 2.21-1.79 4-4 4a3.999 3.999 0 110-8c2.21 0 4 1.8 4 4z"/>
      </g>
      <g fill="#fff" clip-path="url(#clip48)">
        <path d="M734.11 495.8c0 2.21-1.79 4-4 4a3.999 3.999 0 110-8c2.21 0 4 1.8 4 4z"/>
      </g>
      <g stroke-linejoin="round" stroke-linecap="round" fill="none" stroke="#000" clip-path="url(#clip49)">
        <path d="M734.11 495.8c0 2.21-1.79 4-4 4a3.999 3.999 0 110-8c2.21 0 4 1.8 4 4z"/>
      </g>
      <g fill="#fff" clip-path="url(#clip50)">
        <path d="M610.38 424.37c0 2.21-1.79 4-4 4s-4-1.79-4-4 1.79-4 4-4 4 1.79 4 4z"/>
      </g>
      <g stroke-linejoin="round" stroke-linecap="round" fill="none" stroke="#000" clip-path="url(#clip51)">
        <path d="M610.38 424.37c0 2.21-1.79 4-4 4s-4-1.79-4-4 1.79-4 4-4 4 1.79 4 4z"/>
      </g>
      <g fill="#fff" clip-path="url(#clip52)">
        <path d="M472.06 388.66c0 2.21-1.79 4-4 4s-4-1.79-4-4 1.79-4 4-4 4 1.79 4 4z"/>
      </g>
      <g stroke-linejoin="round" stroke-linecap="round" fill="none" stroke="#000" clip-path="url(#clip53)">
        <path d="M472.06 388.66c0 2.21-1.79 4-4 4s-4-1.79-4-4 1.79-4 4-4 4 1.79 4 4z"/>
      </g>
      <g fill="#fff" clip-path="url(#clip54)">
        <path d="M748.71 388.66c0 2.21-1.79 4-4 4s-4-1.79-4-4 1.79-4 4-4 4 1.79 4 4z"/>
      </g>
      <g stroke-linejoin="round" stroke-linecap="round" fill="none" stroke="#000" clip-path="url(#clip55)">
        <path d="M748.71 388.66c0 2.21-1.79 4-4 4s-4-1.79-4-4 1.79-4 4-4 4 1.79 4 4z"/>
      </g>
      <g fill="#fff" clip-path="url(#clip56)">
        <path d="M510.29 322.43c0 2.21-1.79 4-4 4a3.999 3.999 0 110-8c2.21 0 4 1.8 4 4z"/>
      </g>
      <g stroke-linejoin="round" stroke-linecap="round" fill="none" stroke="#000" clip-path="url(#clip57)">
        <path d="M510.29 322.43c0 2.21-1.79 4-4 4a3.999 3.999 0 110-8c2.21 0 4 1.8 4 4z"/>
      </g>
      <g fill="#fff" clip-path="url(#clip58)">
        <path d="M648.62 562.03c0 2.21-1.79 4-4 4s-4-1.79-4-4 1.79-4 4-4 4 1.79 4 4z"/>
      </g>
      <g stroke-linejoin="round" stroke-linecap="round" fill="none" stroke="#000" clip-path="url(#clip59)">
        <path d="M648.62 562.03c0 2.21-1.79 4-4 4s-4-1.79-4-4 1.79-4 4-4 4 1.79 4 4z"/>
      </g>
      <g fill="#fff" clip-path="url(#clip60)">
        <path d="M710.48 322.43c0 2.21-1.79 4-4 4a3.999 3.999 0 110-8c2.21 0 4 1.8 4 4z"/>
      </g>
      <g stroke-linejoin="round" stroke-linecap="round" fill="none" stroke="#000" clip-path="url(#clip61)">
        <path d="M710.48 322.43c0 2.21-1.79 4-4 4a3.999 3.999 0 110-8c2.21 0 4 1.8 4 4z"/>
      </g>
      <g fill="#fff" clip-path="url(#clip62)">
        <path d="M572.15 562.03c0 2.21-1.79 4-4 4s-4-1.79-4-4 1.79-4 4-4 4 1.79 4 4z"/>
      </g>
      <g stroke-linejoin="round" stroke-linecap="round" fill="none" stroke="#000" clip-path="url(#clip63)">
        <path d="M572.15 562.03c0 2.21-1.79 4-4 4s-4-1.79-4-4 1.79-4 4-4 4 1.79 4 4z"/>
      </g>
      <g fill="#fff" clip-path="url(#clip64)">
        <path d="M86.279 495.8a4 4 0 11-8 0 4 4 0 018 0z"/>
      </g>
      <g stroke-linejoin="round" stroke-linecap="round" fill="none" stroke="#000" clip-path="url(#clip65)">
        <path d="M86.279 495.8a4 4 0 11-8 0 4 4 0 018 0z"/>
      </g>
      <g fill="#fff" clip-path="url(#clip66)">
        <path d="M333.73 495.8c0 2.21-1.79 4-4 4a3.999 3.999 0 110-8c2.21 0 4 1.8 4 4z"/>
      </g>
      <g stroke-linejoin="round" stroke-linecap="round" fill="none" stroke="#000" clip-path="url(#clip67)">
        <path d="M333.73 495.8c0 2.21-1.79 4-4 4a3.999 3.999 0 110-8c2.21 0 4 1.8 4 4z"/>
      </g>
      <g fill="#fff" clip-path="url(#clip68)">
        <path d="M581.18 495.8c0 2.21-1.79 4-4 4a3.999 3.999 0 110-8c2.21 0 4 1.8 4 4z"/>
      </g>
      <g stroke-linejoin="round" stroke-linecap="round" fill="none" stroke="#000" clip-path="url(#clip69)">
        <path d="M581.18 495.8c0 2.21-1.79 4-4 4a3.999 3.999 0 110-8c2.21 0 4 1.8 4 4z"/>
      </g>
      <g fill="#fff" clip-path="url(#clip70)">
        <path d="M639.59 495.8c0 2.21-1.79 4-4 4a3.999 3.999 0 110-8c2.21 0 4 1.8 4 4z"/>
      </g>
      <g stroke-linejoin="round" stroke-linecap="round" fill="none" stroke="#000" clip-path="url(#clip71)">
        <path d="M639.59 495.8c0 2.21-1.79 4-4 4a3.999 3.999 0 110-8c2.21 0 4 1.8 4 4z"/>
      </g>
      <g fill="#fff" clip-path="url(#clip72)">
        <path d="M887.04 495.8c0 2.21-1.79 4-4 4a3.999 3.999 0 110-8c2.21 0 4 1.8 4 4z"/>
      </g>
      <g stroke-linejoin="round" stroke-linecap="round" fill="none" stroke="#000" clip-path="url(#clip73)">
        <path d="M887.04 495.8c0 2.21-1.79 4-4 4a3.999 3.999 0 110-8c2.21 0 4 1.8 4 4z"/>
      </g>
      <g fill="#fff" clip-path="url(#clip74)">
        <path d="M1134.5 495.8c0 2.21-1.8 4-4 4s-4-1.79-4-4c0-2.2 1.8-4 4-4s4 1.8 4 4z"/>
      </g>
      <g stroke-linejoin="round" stroke-linecap="round" fill="none" stroke="#000" clip-path="url(#clip75)">
        <path d="M1134.5 495.8c0 2.21-1.8 4-4 4s-4-1.79-4-4c0-2.2 1.8-4 4-4s4 1.8 4 4z"/>
      </g>
    </g>
  </g>
</svg>
