<?xml version="1.0" encoding="UTF-8" standalone="no"?>
<svg
   xmlns:dc="http://purl.org/dc/elements/1.1/"
   xmlns:cc="http://creativecommons.org/ns#"
   xmlns:rdf="http://www.w3.org/1999/02/22-rdf-syntax-ns#"
   xmlns:svg="http://www.w3.org/2000/svg"
   xmlns="http://www.w3.org/2000/svg"
   xmlns:sodipodi="http://sodipodi.sourceforge.net/DTD/sodipodi-0.dtd"
   xmlns:inkscape="http://www.inkscape.org/namespaces/inkscape"
   id="photon"
   height="4000.2114"
   width="4000.2366"
   viewBox="0 0 4000.2366 4000.2114"
   version="1.1"
   sodipodi:docname="photon-logo-inkscape.svg"
   inkscape:version="0.92.4 (5da689c313, 2019-01-14)"
   inkscape:export-filename="/home/phi/SITES/constructions/photon/photon-logo-inkscape.svg.png"
   inkscape:export-xdpi="96"
   inkscape:export-ydpi="96">
  <metadata
     id="metadata273">
    <rdf:RDF>
      <cc:Work
         rdf:about="">
        <dc:format>image/svg+xml</dc:format>
        <dc:type
           rdf:resource="http://purl.org/dc/dcmitype/StillImage" />
        <dc:title />
      </cc:Work>
    </rdf:RDF>
  </metadata>
  <defs
     id="defs271" />
  <sodipodi:namedview
     pagecolor="#ffffff"
     bordercolor="#666666"
     borderopacity="1"
     objecttolerance="10"
     gridtolerance="10"
     guidetolerance="10"
     inkscape:pageopacity="0"
     inkscape:pageshadow="2"
     inkscape:window-width="1920"
     inkscape:window-height="1016"
     id="namedview269"
     showgrid="false"
     inkscape:snap-page="true"
     inkscape:zoom="0.29415642"
     inkscape:cx="1237.7261"
     inkscape:cy="2229.3721"
     inkscape:window-x="0"
     inkscape:window-y="795"
     inkscape:window-maximized="1"
     inkscape:current-layer="photon"
     fit-margin-left="1000"
     fit-margin-right="1000"
     fit-margin-bottom="1000"
     fit-margin-top="1000" />
  <rect
     id="bg"
     style="fill:#000000;stroke-width:3.24182343"
     y="0"
     x="0.012451172"
     height="4000.2114"
     width="4000.2241"
     sodipodi:insensitive="true" />
  <g
     id="diamonds"
     transform="matrix(1,0,0,-1,1390.1182,2386.0607)">
    <g
       id="d01"
       style="fill:#ffffff">
      <path
         d="M 679.87304,52.699624 657.27232,296.58621 626.71269,337.05365 612.84,288.29623 Z"
         id="path3"
         inkscape:connector-curvature="0" />
      <path
         d="m 804.87305,101.13155 -109.17157,219.24726 -43.10745,26.69132 4.67829,-50.48392 z"
         id="path5"
         inkscape:connector-curvature="0" />
      <path
         d="m 903.89084,191.47187 -180.97887,164.99185 -49.81525,9.31181 22.60476,-45.39672 z"
         id="path7"
         inkscape:connector-curvature="0" />
      <path
         d="m 963.71604,311.45098 -228.39683,88.48056 -49.86266,-9.32107 37.45542,-34.14675 z"
         id="path9"
         inkscape:connector-curvature="0" />
      <path
         d="M 976.0899,444.94 H 731.13533 l -43.10417,-26.68914 47.28805,-18.31932 z"
         id="path11"
         inkscape:connector-curvature="0" />
      <path
         d="M 939.38353,573.88264 710.99847,485.40664 680.43943,444.94 h 50.6959 z"
         id="path13"
         inkscape:connector-curvature="0" />
      <path
         d="M 858.56794,680.81991 677.5793,515.83121 663.71048,467.08735 710.99847,485.40664 Z"
         id="path15"
         inkscape:connector-curvature="0" />
      <path
         d="M 744.60978,751.41882 635.44045,532.17607 640.12904,481.58106 677.5793,515.8312 Z"
         id="path17"
         inkscape:connector-curvature="0" />
      <path
         d="M 612.84,776.05983 590.23955,532.17606 612.84,486.78799 l 22.60045,45.38808 z"
         id="path19"
         inkscape:connector-curvature="0" />
      <path
         d="m 481.07022,751.41882 67.02986,-235.58544 37.46025,-34.15116 4.67922,50.49385 z"
         id="path21"
         inkscape:connector-curvature="0" />
      <path
         d="m 367.07893,680.86378 147.60306,-195.45774 47.28767,-18.31916 -13.86958,48.7465 z"
         id="path23"
         inkscape:connector-curvature="0" />
      <path
         d="M 286.26402,573.89479 494.53066,444.94 h 50.70991 l -30.55859,40.46604 z"
         id="path25"
         inkscape:connector-curvature="0" />
      <path
         d="m 249.5916,444.94 240.77235,-45.00681 47.27571,18.31453 -43.109,26.69228 z"
         id="path27"
         inkscape:connector-curvature="0" />
      <path
         d="m 261.9315,311.43883 240.81697,45.01711 37.47051,34.158 -49.85503,9.31925 z"
         id="path29"
         inkscape:connector-curvature="0" />
      <path
         d="m 321.74812,191.45656 208.23715,128.9358 22.59597,45.37907 -49.83277,-9.31549 z"
         id="path31"
         inkscape:connector-curvature="0" />
      <path
         d="m 420.80695,101.13155 147.60073,195.45466 5.97977,51.299 -44.40218,-27.49285 z"
         id="path33"
         inkscape:connector-curvature="0" />
      <path
         d="M 545.80696,52.699624 612.84,288.29623 598.96731,337.05364 568.40768,296.58621 Z"
         id="path35"
         inkscape:connector-curvature="0" />
    </g>
    <g
       id="d02"
       style="fill:#000000">
      <path
         d="m 612.84,288.29623 -13.87269,48.75741 13.87269,18.37038 13.87269,-18.37038 z"
         id="path38"
         inkscape:connector-curvature="0" />
      <path
         d="m 657.27232,296.58621 -30.55963,40.46744 6.29968,22.14108 19.58166,-12.1246 z"
         id="path40"
         inkscape:connector-curvature="0" />
      <path
         d="m 695.70148,320.37881 -43.10745,26.69132 -2.12538,22.93519 22.62807,-4.22979 z"
         id="path42"
         inkscape:connector-curvature="0" />
      <path
         d="m 722.91197,356.46372 -49.81525,9.31181 -10.2607,20.60637 22.62053,4.22857 z"
         id="path44"
         inkscape:connector-curvature="0" />
      <path
         d="m 735.31921,399.93154 -49.86266,-9.32107 -17.01433,15.51135 19.58894,12.12904 z"
         id="path46"
         inkscape:connector-curvature="0" />
      <path
         d="m 731.13533,444.94 -43.10417,-26.68914 -21.46645,8.31606 13.87472,18.37308 z"
         id="path48"
         inkscape:connector-curvature="0" />
      <path
         d="M 710.99847,485.40664 663.71048,467.08735 657.40901,444.94 h 23.03042 z"
         id="path50"
         inkscape:connector-curvature="0" />
      <path
         d="m 677.57931,515.83121 -37.45972,-34.14817 2.12325,-22.91222 21.46764,8.31653 z"
         id="path52"
         inkscape:connector-curvature="0" />
      <path
         d="M 635.44045,532.17607 612.84,486.78799 l 10.26513,-20.61528 17.02391,15.40835 z"
         id="path54"
         inkscape:connector-curvature="0" />
      <path
         d="m 590.23955,532.17607 -4.67922,-50.49385 17.01384,-15.5109 10.26583,20.61667 z"
         id="path56"
         inkscape:connector-curvature="0" />
      <path
         d="m 548.10008,515.83338 13.86958,-48.7465 21.46746,-8.31646 2.12321,22.9118 z"
         id="path58"
         inkscape:connector-curvature="0" />
      <path
         d="M 514.68198,485.40604 545.24057,444.94 h 23.03042 l -6.30133,22.14688 z"
         id="path60"
         inkscape:connector-curvature="0" />
      <path
         d="m 494.53066,444.94 43.109,-26.69228 21.47538,8.31953 -13.87447,18.37275 z"
         id="path62"
         inkscape:connector-curvature="0" />
      <path
         d="m 490.36395,399.93319 49.85503,-9.31925 17.0088,15.50518 -19.58812,12.1286 z"
         id="path64"
         inkscape:connector-curvature="0" />
      <path
         d="m 502.74847,356.45594 49.83277,9.31549 10.26402,20.61306 -22.62628,4.22945 z"
         id="path66"
         inkscape:connector-curvature="0" />
      <path
         d="m 529.98527,320.39236 43.10161,26.68756 2.12414,22.9218 -22.62978,-4.23029 z"
         id="path68"
         inkscape:connector-curvature="0" />
      <path
         d="m 568.40768,296.58621 30.55963,40.46743 -6.30189,22.14887 -19.57854,-12.12259 z"
         id="path70"
         inkscape:connector-curvature="0" />
    </g>
    <g
       id="d03"
       style="fill:#ffffff">
      <path
         d="m 626.71269,337.05365 6.29968,22.14108 -11.80502,7.30944 -8.36735,-11.08015 z"
         id="path73"
         inkscape:connector-curvature="0" />
      <path
         d="m 652.59403,347.07013 -2.12538,22.93519 -13.6542,2.55234 -3.80208,-13.36293 z"
         id="path75"
         inkscape:connector-curvature="0" />
      <path
         d="m 673.09672,365.77553 -10.2607,20.60637 -13.64854,-2.55139 1.28117,-13.82519 z"
         id="path77"
         inkscape:connector-curvature="0" />
      <path
         d="m 685.45655,390.61047 -17.01433,15.51135 -11.79799,-7.30505 6.19179,-12.43487 z"
         id="path79"
         inkscape:connector-curvature="0" />
      <path
         d="m 688.03116,418.25086 -21.46645,8.31606 -8.37857,-11.095 10.25608,-9.3501 z"
         id="path81"
         inkscape:connector-curvature="0" />
      <path
         d="m 680.43943,444.94 h -23.03042 l -3.7996,-13.35421 12.9553,-5.01887 z"
         id="path83"
         inkscape:connector-curvature="0" />
      <path
         d="m 663.71048,467.08735 -21.46764,-8.31653 1.28169,-13.83082 h 13.88448 z"
         id="path85"
         inkscape:connector-curvature="0" />
      <path
         d="m 640.11959,481.68304 -17.01446,-15.51033 6.18439,-12.41998 12.95332,5.01809 z"
         id="path87"
         inkscape:connector-curvature="0" />
      <path
         d="m 612.84,486.78799 -10.26583,-20.61667 10.26434,-9.35762 10.26662,9.35901 z"
         id="path89"
         inkscape:connector-curvature="0" />
      <path
         d="m 585.56033,481.68222 -2.12321,-22.9118 12.95319,-5.01805 6.18386,12.41895 z"
         id="path91"
         inkscape:connector-curvature="0" />
      <path
         d="M 561.96966,467.08688 568.27099,444.94 h 13.88448 l 1.28165,13.83042 z"
         id="path93"
         inkscape:connector-curvature="0" />
      <path
         d="m 545.24057,444.94 13.87447,-18.37275 12.95544,5.01892 -3.79949,13.35383 z"
         id="path95"
         inkscape:connector-curvature="0" />
      <path
         d="m 537.63966,418.24772 19.58812,-12.1286 10.26352,9.35619 -8.37626,11.09194 z"
         id="path97"
         inkscape:connector-curvature="0" />
      <path
         d="m 540.21898,390.61394 22.62628,-4.22945 6.18711,12.42545 -11.80459,7.30918 z"
         id="path99"
         inkscape:connector-curvature="0" />
      <path
         d="m 552.58124,365.77143 22.62978,4.23029 1.28177,13.83168 -13.64753,2.55109 z"
         id="path101"
         inkscape:connector-curvature="0" />
      <path
         d="m 573.08688,347.07992 19.57854,12.12259 -3.79895,13.3519 -13.65545,-2.55269 z"
         id="path103"
         inkscape:connector-curvature="0" />
      <path
         d="m 598.96731,337.05364 13.87269,18.37038 -8.37204,11.08636 -11.80254,-7.30787 z"
         id="path105"
         inkscape:connector-curvature="0" />
    </g>
    <g
       id="d04"
       style="fill:#000000">
      <path
         d="m 612.84,355.42402 8.36735,11.08015 -8.37469,5.18545 -8.3647,-5.17924 z"
         id="path108"
         inkscape:connector-curvature="0" />
      <path
         d="m 633.01237,359.19473 3.80208,13.36293 -9.6706,1.80769 -5.9365,-7.86118 z"
         id="path110"
         inkscape:connector-curvature="0" />
      <path
         d="m 650.46865,370.00532 -1.28117,13.82519 -9.68051,-1.80963 -2.69252,-9.46322 z"
         id="path112"
         inkscape:connector-curvature="0" />
      <path
         d="m 662.83602,386.3819 -6.19179,12.43487 -8.36551,-5.17974 0.90876,-9.80652 z"
         id="path114"
         inkscape:connector-curvature="0" />
      <path
         d="m 668.44222,406.12182 -10.25608,9.3501 -5.92702,-7.84862 4.38511,-8.80653 z"
         id="path116"
         inkscape:connector-curvature="0" />
      <path
         d="m 666.56471,426.56692 -12.9553,5.01887 -2.69784,-9.48192 7.27457,-6.63195 z"
         id="path118"
         inkscape:connector-curvature="0" />
      <path
         d="m 657.40901,444.94 h -13.88448 l 0.90807,-9.79914 9.17681,-3.55507 z"
         id="path120"
         inkscape:connector-curvature="0" />
      <path
         d="m 642.24284,458.77082 -12.95332,-5.01809 4.38819,-8.81273 h 9.84682 z"
         id="path122"
         inkscape:connector-curvature="0" />
      <path
         d="m 623.10513,466.17271 -10.26662,-9.35901 7.26221,-6.6207 9.1888,3.55973 z"
         id="path124"
         inkscape:connector-curvature="0" />
      <path
         d="m 602.57417,466.17132 -6.18386,-12.41895 9.18618,-3.55871 7.26202,6.62004 z"
         id="path126"
         inkscape:connector-curvature="0" />
      <path
         d="M 583.43712,458.77042 582.15547,444.94 h 9.84682 l 4.38802,8.81237 z"
         id="path128"
         inkscape:connector-curvature="0" />
      <path
         d="m 568.27099,444.94 3.79949,-13.35383 9.17696,3.55513 0.90803,9.7987 z"
         id="path130"
         inkscape:connector-curvature="0" />
      <path
         d="m 559.11504,426.56725 8.37626,-11.09194 7.27594,6.63273 -2.69676,9.47813 z"
         id="path132"
         inkscape:connector-curvature="0" />
      <path
         d="m 557.22778,406.11912 11.80459,-7.30918 4.38851,8.81336 -5.92958,7.85201 z"
         id="path134"
         inkscape:connector-curvature="0" />
      <path
         d="m 562.84526,386.38449 13.64753,-2.55109 0.9077,9.79516 -8.36812,5.18138 z"
         id="path136"
         inkscape:connector-curvature="0" />
      <path
         d="m 575.21102,370.00172 13.65545,2.55269 -2.69435,9.46966 -9.67933,1.80933 z"
         id="path138"
         inkscape:connector-curvature="0" />
      <path
         d="m 592.66542,359.20251 11.80254,7.30787 -5.9296,7.85204 -9.67189,-1.80801 z"
         id="path140"
         inkscape:connector-curvature="0" />
    </g>
    <g
       id="d05"
       style="fill:#ffffff">
      <path
         d="m 621.20735,366.50417 5.9365,7.86118 -7.67324,1.43434 -6.63795,-4.11007 z"
         id="path143"
         inkscape:connector-curvature="0" />
      <path
         d="m 636.81445,372.55766 2.69252,9.46322 -7.6638,-1.43263 -4.69932,-6.2229 z"
         id="path145"
         inkscape:connector-curvature="0" />
      <path
         d="m 649.18748,383.83051 -0.90876,9.80652 -6.63568,-4.10867 -2.13607,-7.50748 z"
         id="path147"
         inkscape:connector-curvature="0" />
      <path
         d="m 656.64423,398.81677 -4.38511,8.80653 -4.69977,-6.22349 0.71937,-7.76278 z"
         id="path149"
         inkscape:connector-curvature="0" />
      <path
         d="m 658.18614,415.47192 -7.27457,6.63195 -2.1319,-7.49285 3.47945,-6.98772 z"
         id="path151"
         inkscape:connector-curvature="0" />
      <path
         d="m 653.60941,431.58579 -9.17681,3.55507 0.72174,-7.78833 5.75723,-5.24866 z"
         id="path153"
         inkscape:connector-curvature="0" />
      <path
         d="m 643.52453,444.94 h -9.84682 l 3.47509,-6.97895 7.2798,-2.82019 z"
         id="path155"
         inkscape:connector-curvature="0" />
      <path
         d="m 629.28952,453.75273 -9.1888,-3.55973 5.762,-5.253 h 7.81499 z"
         id="path157"
         inkscape:connector-curvature="0" />
      <path
         d="m 612.83851,456.8137 -7.26202,-6.62004 7.26296,-2.81366 7.26127,2.813 z"
         id="path159"
         inkscape:connector-curvature="0" />
      <path
         d="M 596.39031,453.75237 592.00229,444.94 h 7.81107 l 5.76313,5.25366 z"
         id="path161"
         inkscape:connector-curvature="0" />
      <path
         d="m 582.15547,444.94 -0.90803,-9.7987 7.28002,2.82027 3.47483,6.97843 z"
         id="path163"
         inkscape:connector-curvature="0" />
      <path
         d="m 572.07048,431.58617 2.69676,-9.47813 5.75891,5.2498 0.72129,7.78346 z"
         id="path165"
         inkscape:connector-curvature="0" />
      <path
         d="m 567.4913,415.47531 5.92958,-7.85201 3.47945,6.98772 -2.13309,7.49702 z"
         id="path167"
         inkscape:connector-curvature="0" />
      <path
         d="m 569.03237,398.80994 8.36812,-5.18138 0.72016,7.77125 -4.69977,6.22349 z"
         id="path169"
         inkscape:connector-curvature="0" />
      <path
         d="m 576.49279,383.8334 9.67933,-1.80933 -2.13205,7.49339 -6.63958,4.1111 z"
         id="path171"
         inkscape:connector-curvature="0" />
      <path
         d="m 588.86647,372.55441 9.67189,1.80801 -4.70424,6.22942 -7.662,1.43223 z"
         id="path173"
         inkscape:connector-curvature="0" />
      <path
         d="m 604.46796,366.51038 8.3647,5.17924 -6.63043,4.10544 -7.66387,-1.43264 z"
         id="path175"
         inkscape:connector-curvature="0" />
    </g>
    <g
       id="d06"
       style="fill:#000000">
      <path
         d="m 612.83266,371.68962 6.63795,4.11007 -6.62196,1.23782 -6.64642,-1.24245 z"
         id="path178"
         inkscape:connector-curvature="0" />
      <path
         d="m 627.14385,374.36535 4.69932,6.2229 -6.645,-1.24218 -5.72756,-3.54638 z"
         id="path180"
         inkscape:connector-curvature="0" />
      <path
         d="m 639.50697,382.02088 2.13607,7.50748 -5.72594,-3.54537 -4.07393,-5.39474 z"
         id="path182"
         inkscape:connector-curvature="0" />
      <path
         d="m 648.27872,393.63703 -0.71937,7.76278 -4.0733,-5.39392 -1.84301,-6.47753 z"
         id="path184"
         inkscape:connector-curvature="0" />
      <path
         d="m 652.25912,407.6233 -3.47945,6.98772 -1.844,-6.48098 0.62368,-6.73023 z"
         id="path186"
         inkscape:connector-curvature="0" />
      <path
         d="m 650.91157,422.10387 -5.75723,5.24866 0.62177,-6.70951 3.00356,-6.032 z"
         id="path188"
         inkscape:connector-curvature="0" />
      <path
         d="m 644.4326,435.14086 -7.2798,2.82019 3.02183,-6.0687 4.97971,-4.53982 z"
         id="path190"
         inkscape:connector-curvature="0" />
      <path
         d="m 633.67771,444.94 h -7.81499 l 4.96923,-4.53026 6.32085,-2.44869 z"
         id="path192"
         inkscape:connector-curvature="0" />
      <path
         d="m 620.10072,450.193 -7.26127,-2.813 6.29843,-2.44 h 6.72484 z"
         id="path194"
         inkscape:connector-curvature="0" />
      <path
         d="M 605.57649,450.19366 599.81336,444.94 h 6.72767 l 6.29842,2.44 z"
         id="path196"
         inkscape:connector-curvature="0" />
      <path
         d="m 592.00229,444.94 -3.47483,-6.97843 6.31395,2.44602 4.97195,4.53241 z"
         id="path198"
         inkscape:connector-curvature="0" />
      <path
         d="m 581.24744,435.1413 -0.72129,-7.78346 4.98335,4.5428 3.01796,6.06093 z"
         id="path200"
         inkscape:connector-curvature="0" />
      <path
         d="m 574.76724,422.10804 2.13309,-7.49702 3.00356,6.032 0.62226,6.71482 z"
         id="path202"
         inkscape:connector-curvature="0" />
      <path
         d="m 573.42088,407.6233 4.69977,-6.22349 0.62368,6.73023 -1.844,6.48098 z"
         id="path204"
         inkscape:connector-curvature="0" />
      <path
         d="m 577.40049,393.62856 6.63958,-4.1111 -1.84612,6.48843 -4.0733,5.39392 z"
         id="path206"
         inkscape:connector-curvature="0" />
      <path
         d="m 586.17212,382.02407 7.662,-1.43223 -4.05845,5.37424 -5.7356,3.55138 z"
         id="path208"
         inkscape:connector-curvature="0" />
      <path
         d="m 598.53836,374.36242 7.66387,1.43264 -5.74856,3.55941 -6.61955,1.23737 z"
         id="path210"
         inkscape:connector-curvature="0" />
    </g>
    <g
       id="d07"
       style="fill:#ffffff">
      <path
         d="m 619.47061,375.79969 5.72756,3.54638 -12.34952,-2.30856 z"
         id="path213"
         inkscape:connector-curvature="0" />
      <path
         d="m 631.84317,380.58825 4.07393,5.39474 -10.71893,-6.63692 z"
         id="path215"
         inkscape:connector-curvature="0" />
      <path
         d="m 641.64304,389.52836 1.84301,6.47753 -7.56895,-10.0229 z"
         id="path217"
         inkscape:connector-curvature="0" />
      <path
         d="m 647.55935,401.39981 -0.62368,6.73023 -3.44962,-12.12415 z"
         id="path219"
         inkscape:connector-curvature="0" />
      <path
         d="m 648.77967,414.61102 -3.00356,6.032 1.15956,-12.51298 z"
         id="path221"
         inkscape:connector-curvature="0" />
      <path
         d="m 645.15434,427.35253 -4.97971,4.53982 5.60148,-11.24933 z"
         id="path223"
         inkscape:connector-curvature="0" />
      <path
         d="m 637.1528,437.96105 -6.32085,2.44869 9.34268,-8.51739 z"
         id="path225"
         inkscape:connector-curvature="0" />
      <path
         d="m 625.86272,444.94 h -6.72484 l 11.69407,-4.53026 z"
         id="path227"
         inkscape:connector-curvature="0" />
      <path
         d="m 612.83945,447.38 -6.29842,-2.44 h 12.59685 z"
         id="path229"
         inkscape:connector-curvature="0" />
      <path
         d="m 599.81336,444.94 -4.97195,-4.53241 11.69962,4.53241 z"
         id="path231"
         inkscape:connector-curvature="0" />
      <path
         d="m 588.52746,437.96157 -3.01796,-6.06093 9.33191,8.50695 z"
         id="path233"
         inkscape:connector-curvature="0" />
      <path
         d="m 580.52615,427.35784 -0.62226,-6.71482 5.60561,11.25762 z"
         id="path235"
         inkscape:connector-curvature="0" />
      <path
         d="m 576.90033,414.61102 1.844,-6.48098 1.15956,12.51298 z"
         id="path237"
         inkscape:connector-curvature="0" />
      <path
         d="m 578.12065,401.39981 4.0733,-5.39392 -3.44962,12.12415 z"
         id="path239"
         inkscape:connector-curvature="0" />
      <path
         d="m 584.04007,389.51746 5.7356,-3.55138 -7.58172,10.03981 z"
         id="path241"
         inkscape:connector-curvature="0" />
      <path
         d="m 593.83412,380.59184 6.61955,-1.23737 -10.678,6.61161 z"
         id="path243"
         inkscape:connector-curvature="0" />
      <path
         d="m 606.20223,375.79506 6.64642,1.24245 -12.39498,2.31696 z"
         id="path245"
         inkscape:connector-curvature="0" />
    </g>
    <path
       id="heptadecagon"
       style="fill:#000000"
       d="m 612.84865,377.03751 12.34952,2.30856 10.71893,6.63692 7.56895,10.0229 3.44962,12.12415 -1.15956,12.51298 -5.60148,11.24933 -9.34268,8.51739 -11.69407,4.53026 h -12.59685 l -11.69962,-4.53241 -9.33191,-8.50695 -5.60561,-11.25762 -1.15956,-12.51298 3.44962,-12.12415 7.58172,-10.03981 10.678,-6.61161 z"
       inkscape:connector-curvature="0" />
  </g>
  <g
     id="lines"
     style="stroke:#ffffff;stroke-width:1;stroke-miterlimit:4;stroke-dasharray:none"
     transform="matrix(1,0,0,-1,1390.1182,2386.0607)">
    <path
       id="n01"
       d="M 1209.6899,2386.0607 71.531323,-1614.1507"
       inkscape:connector-curvature="0"
       style="stroke-width:1;stroke-miterlimit:4;stroke-dasharray:none" />
    <path
       id="n02"
       d="M 463.64974,2386.0607 834.34518,-1614.1507"
       inkscape:connector-curvature="0"
       style="stroke-width:1;stroke-miterlimit:4;stroke-dasharray:none" />
    <path
       id="n03"
       d="M -332.87681,2386.0607 1658.9812,-1614.1507"
       inkscape:connector-curvature="0"
       style="stroke-width:1;stroke-miterlimit:4;stroke-dasharray:none" />
    <path
       id="n04"
       d="M -1390.1182,2282.8379 2610.1184,-1364.0324"
       inkscape:connector-curvature="0"
       style="stroke-width:0.99999976;stroke-miterlimit:4;stroke-dasharray:none" />
    <path
       id="n06"
       d="M -1390.1182,444.94 H 2610.1184"
       inkscape:connector-curvature="0"
       style="stroke-width:1;stroke-miterlimit:4;stroke-dasharray:none" />
    <path
       id="n07"
       d="M -1390.1182,-328.56253 2610.1184,1221.1226"
       inkscape:connector-curvature="0"
       style="stroke-width:1;stroke-miterlimit:4;stroke-dasharray:none" />
    <path
       id="n08"
       d="M -1390.1182,-1369.0746 2610.1184,2277.5291"
       inkscape:connector-curvature="0"
       style="stroke-width:1;stroke-miterlimit:4;stroke-dasharray:none" />
    <path
       id="n09"
       d="M 1558.5516,2386.0607 -433.30618,-1614.1507"
       inkscape:connector-curvature="0"
       style="stroke-width:1;stroke-miterlimit:4;stroke-dasharray:none" />
    <path
       id="n10"
       d="M 762.02989,2386.0607 391.33448,-1614.1507"
       inkscape:connector-curvature="0"
       style="stroke-width:1;stroke-miterlimit:4;stroke-dasharray:none" />
    <path
       id="n11"
       d="M 15.978114,2386.0607 1154.1368,-1614.1507"
       inkscape:connector-curvature="0"
       style="stroke-width:1;stroke-miterlimit:4;stroke-dasharray:none" />
    <path
       id="n12"
       d="M -920.594,2386.0607 2100.23,-1614.1507"
       inkscape:connector-curvature="0"
       style="stroke-width:1;stroke-miterlimit:4;stroke-dasharray:none" />
    <path
       id="n13"
       d="M -1390.1182,1611.8792 2610.1184,-864.99217"
       inkscape:connector-curvature="0"
       style="stroke-width:1;stroke-miterlimit:4;stroke-dasharray:none" />
    <path
       id="n14"
       d="M -1390.1182,751.44575 2610.1184,3.694213"
       inkscape:connector-curvature="0"
       style="stroke-width:1;stroke-miterlimit:4;stroke-dasharray:none" />
    <path
       id="n05"
       d="M -1390.1182,1223.3225 2610.1184,-326.3626"
       inkscape:connector-curvature="0"
       style="stroke-width:1;stroke-miterlimit:4;stroke-dasharray:none" />
    <path
       id="n15"
       d="M -1390.1182,2.6129853 2610.1184,750.39705"
       inkscape:connector-curvature="0"
       style="stroke-width:1;stroke-miterlimit:4;stroke-dasharray:none" />
    <path
       id="n16"
       d="M -1390.1182,-868.49291 2610.1184,1608.3644"
       inkscape:connector-curvature="0"
       style="stroke-width:1;stroke-miterlimit:4;stroke-dasharray:none" />
    <path
       id="n17"
       d="M 2146.3045,2386.0607 -874.51974,-1614.1507"
       inkscape:connector-curvature="0"
       style="stroke-width:1;stroke-miterlimit:4;stroke-dasharray:none" />
  </g>
</svg>
