<svg 
     version="1.1"
     baseProfile="full"
<style>
* {
  fill-rule: nonzero;
  stroke-linejoin: round;
  stroke-width: 0.1em;
  stroke-linecap: butt;

}

text {
  fill-opacity: 1.0000;
  font-style: normal;
  font-family: Helvetica;
  font-weight: normal;
  stroke: none;
  fill: #ffcc66;
  font-size: 1em;
  opacity: 0;
  x: 0;
  y: 0;
}
path {
  stroke-opacity: 0.5;
}

.point path {
  stroke: black;
  stroke-width: 2;
  stroke-opacity: 1;
  fill: white;
  fill-opacity: 1;
}

.point.bottom path {
  stroke: #FC0;
  stroke-width: 8;
  stroke-opacity: 0;
}

.line {
  stroke: #FFF;
  stroke-dasharray: 1.5 3;
  stroke-linejoin: round;
  stroke-linecap: butt;
}
.line > path {
  /* stroke-opacity: 0.5; */
}

.circle {
  stroke: #808080;
  stroke-width: 3;
  /* stroke-opacity: 0.3; */
  stroke-linejoin: round;
  stroke-linecap: butt;

  fill: none;
}

.polygon {
  stroke-width: 5;

  stroke-linejoin: round;
  stroke-linecap: butt;

  fill: #CCC;
  fill-opacity: 0.3;
  opacity: 1;
}
.bisector {
  stroke-dasharray: 13, 5, 3, 5;

}
.segment path {
  stroke-width: 5;
  stroke-linecap: round;
  stroke-opacity: 0.3;

  stroke: #C90;
  stroke-opacity: 0;
  fill-opacity: 0;
  opacity: 0;
}
.a path {
  stroke-width: 3;
}
.b path {
  stroke-width: 5;
}
[class~="a+b"] path {
  stroke-width: 8;
}
[class~="a+2b"] path {
  stroke-width: 13;
}

.golden path {
  stroke-opacity: 0.8;
}

.golden text {
  opacity: 0.8;
}

.s-ff6699 path {
  stroke: #ff6699;
  stroke-dasharray: none;
}

.s-66ccff path {
  stroke: #66ccff;
}

.s-cc66ff path {
  stroke: #cc66ff;
}

#c-d path {
  /* stroke: none; */
}

[id^="sg-g0"] .segment path {
  stroke-opacity: 0.8;
  opacity: 0.8;
}
[id^="sg-g0"] text {
  stroke-opacity: 0.8;
  opacity: 0.8;
}

#pt-A .bottom path{
  stroke-opacity: 0.8;
  opacity: 0.8;
}
#pt-B .bottom path{
  stroke-opacity: 0.8;
  opacity: 0.8;
}
</style>
     xmlns="http://www.w3.org/2000/svg"
     xmlns:xlink="http://www.w3.org/1999/xlink"
     xmlns:ev="http://www.w3.org/2001/xml-events"
     viewBox="0 0 947 680"
     >
<title>
</title>
<g stroke-linejoin="miter" stroke-dashoffset="0.0000" stroke-dasharray="none" stroke-width="1.0000" stroke-miterlimit="10.000" stroke-linecap="square">
<g>
<g class="circle s-000000">
  <path d="M 0.0000 0.0000 L 947.00 0.0000 L 947.00 680.00 L 0.0000 680.00 L 0.0000 0.0000 z"/>
</g> 
</g> 
<g id="misc">
</g>
<g id="base">
</g>
<g id="layer1">
</g>
<g id="layer2">
</g>
<g id="layer3">
</g>
<g id="layer4">
</g>
<g id="layer5">
<g id="i-a">
<g class="line s-808080">
  <path d="M -5.0000 309.09 L 952.00 309.09"/>
<title>Line a</title>
<desc>Line a: Line A, B</desc>
</g> 
</g> 
<g id="i-d">
<g class="line s-808080">
  <path d="M 473.50 685.00 L 473.50 -5.0000"/>
<title>Line d</title>
<desc>Line d: Line C, D</desc>
</g> 
</g> 
<g id="i-h">
<g class="line s-ff6699">
  <path d="M 628.71 685.00 L 230.34 -5.0000"/>
<title>Line h</title>
<desc>Line h: Line A, D</desc>
</g> 
</g> 
<g id="i-i">
<g class="line s-ff6699">
  <path d="M 318.29 685.00 L 716.66 -5.0000"/>
<title>Line i</title>
<desc>Line i: Line B, D</desc>
</g> 
</g> 
<g id="i-j">
<g class="line s-ff6699">
  <path d="M 194.65 685.00 L 593.02 -5.0000"/>
<title>Line j</title>
<desc>Line j: Line A, C</desc>
</g> 
</g> 
<g id="i-k">
<g class="line s-ff6699">
  <path d="M 752.35 685.00 L 353.98 -5.0000"/>
<title>Line k</title>
<desc>Line k: Line B, C</desc>
</g> 
</g> 
<g id="i-l">
<g class="line s-ff0000">
  <path d="M -5.0000 478.28 L 832.07 -5.0000"/>
<title>Line l</title>
<desc>Line l: Line F, C</desc>
</g> 
</g> 
<g id="i-m">
<g class="line s-ff0000">
  <path d="M -5.0000 139.90 L 939.14 685.00"/>
<title>Line m</title>
<desc>Line m: Line F, D</desc>
</g> 
</g> 
<g id="i-n">
<g class="line s-ff0000">
  <path d="M 114.93 -5.0000 L 952.00 478.28"/>
<title>Line n</title>
<desc>Line n: Line C, G</desc>
</g> 
</g> 
<g id="i-p">
<g class="line s-ff0000">
  <path d="M 7.8609 685.00 L 952.00 139.90"/>
<title>Line p</title>
<desc>Line p: Line G, D</desc>
</g> 
</g> 
<g id="i-q">
<g class="line s-ff6699">
  <path d="M 288.05 685.00 L 288.05 -5.0000"/>
<title>Line q</title>
<desc>Line q: Line O, Q</desc>
</g> 
</g> 
<g id="i-r">
<g class="line s-ff6699">
  <path d="M 658.95 685.00 L 658.95 -5.0000"/>
<title>Line r</title>
<desc>Line r: Line M, K</desc>
</g> 
</g> 
<g id="i-s">
<g class="line s-808080">
  <path d="M 411.68 685.00 L 411.68 -5.0000"/>
<title>Line s</title>
<desc>Line s: Line R, T</desc>
</g> 
</g> 
<g id="i-t">
<g class="line s-808080">
  <path d="M 535.32 685.00 L 535.32 -5.0000"/>
<title>Line t</title>
<desc>Line t: Line S, U</desc>
</g> 
</g> 
<g id="i-e">
<g class="line s-ff6699">
  <path d="M -5.0000 202.02 L 952.00 202.02"/>
<title>Line e</title>
<desc>Line e: Line B_1, C_1</desc>
</g> 
</g> 
<g id="i-f_1">
<g class="line s-ff6699">
  <path d="M -5.0000 416.16 L 952.00 416.16"/>
<title>Line f_1</title>
<desc>Line f_1: Line E_1, D_1</desc>
</g> 
</g> 
<g id="i-g_1">
<g class="line s-ff6699">
  <path d="M -5.0000 -2.8619 L 952.00 549.66"/>
<title>Line g_1</title>
<desc>Line g_1: Line B_1, B</desc>
</g> 
</g> 
<g id="i-h_1">
<g class="line s-ff6699">
  <path d="M -5.0000 549.66 L 952.00 -2.8619"/>
<title>Line h_1</title>
<desc>Line h_1: Line A, C_1</desc>
</g> 
</g> 
<g id="i-i_1">
<g class="line s-ff6699">
  <path d="M -5.0000 621.04 L 952.00 68.520"/>
<title>Line i_1</title>
<desc>Line i_1: Line E_1, B</desc>
</g> 
</g> 
<g id="i-j_1">
<g class="line s-ff6699">
  <path d="M -5.0000 68.520 L 952.00 621.04"/>
<title>Line j_1</title>
<desc>Line j_1: Line A, D_1</desc>
</g> 
</g> 
<g id="i-n_1">
<g class="line s-99cc00">
  <path d="M -5.0000 185.45 L 952.00 185.45"/>
<title>Line n_1</title>
<desc>Line n_1: Line V, Z</desc>
</g> 
</g> 
<g id="i-q_1">
<g class="line s-99cc00">
  <path d="M -5.0000 432.73 L 952.00 432.73"/>
<title>Line q_1</title>
<desc>Line q_1: Line W, A_1</desc>
</g> 
</g> 
<g id="i-t_1">
<g class="line s-99cc00">
  <path d="M 661.45 685.00 L 316.45 -5.0000"/>
<title>Line t_1</title>
<desc>Line t_1: Line V, A_1</desc>
</g> 
</g> 
<g id="i-f_2">
<g class="line s-99cc00">
  <path d="M 285.55 685.00 L 630.55 -5.0000"/>
<title>Line f_2</title>
<desc>Line f_2: Line Z, W</desc>
</g> 
</g> 
<g id="i-i_2">
<g class="line s-7d7dff">
  <path d="M -5.0000 73.805 L 952.00 330.23"/>
<title>Line i_2</title>
<desc>Line i_2: Line C, Q_1</desc>
</g> 
</g> 
<g id="i-q_3">
<g class="line s-7f00ff">
  <path d="M -5.0000 478.28 L 832.07 -5.0000"/>
<title>Line q_3</title>
<desc>Line q_3: Line C, J_1</desc>
</g> 
</g> 
<g id="i-j_2">
<g class="line s-7d7dff">
  <path d="M -5.0000 330.23 L 952.00 73.805"/>
<title>Line j_2</title>
<desc>Line j_2: Line C, L_1</desc>
</g> 
</g> 
<g id="i-k_2">
<g class="line s-7d7dff">
  <path d="M -5.0000 287.95 L 952.00 544.38"/>
<title>Line k_2</title>
<desc>Line k_2: Line D, M_1</desc>
</g> 
</g> 
<g id="i-l_2">
<g class="line s-7d7dff">
  <path d="M -5.0000 544.38 L 952.00 287.95"/>
<title>Line l_2</title>
<desc>Line l_2: Line D, P_1</desc>
</g> 
</g> 
<g id="i-m_2">
<g class="line s-ff9900">
  <path d="M 787.59 685.00 L 97.591 -5.0000"/>
<title>Line m_2</title>
<desc>Line m_2: Line R_1, A_1</desc>
</g> 
</g> 
<g id="i-n_2">
<g class="line s-ff9900">
  <path d="M 159.41 685.00 L 849.41 -5.0000"/>
<title>Line n_2</title>
<desc>Line n_2: Line W, B</desc>
</g> 
</g> 
<g id="i-p_2">
<g class="line s-ff9900">
  <path d="M 35.773 685.00 L 725.77 -5.0000"/>
<title>Line p_2</title>
<desc>Line p_2: Line Z, A</desc>
</g> 
</g> 
<g id="i-q_2">
<g class="line s-ff9900">
  <path d="M 221.23 -5.0000 L 911.23 685.00"/>
<title>Line q_2</title>
<desc>Line q_2: Line V, B</desc>
</g> 
</g> 
<g id="i-g_3">
<g class="line s-ff99cc">
  <path d="M -5.0000 585.35 L 952.00 32.829"/>
<title>Line g_3</title>
<desc>Line g_3: Line E, H_2</desc>
</g> 
</g> 
<g id="i-h_3">
<g class="line s-cc9900">
  <path d="M 952.00 602.14 L 344.86 -5.0000"/>
<title>Line h_3</title>
<desc>Line h_3: Line Z, G</desc>
</g> 
</g> 
<g id="i-j_3">
<g class="line s-7f00ff">
  <path d="M 335.27 685.00 L 335.27 -5.0000"/>
<title>Line j_3</title>
<desc>Line j_3: Line L_2, N_2</desc>
</g> 
</g> 
<g id="i-l_3">
<g class="line s-7f00ff">
  <path d="M 611.73 685.00 L 611.73 -5.0000"/>
<title>Line l_3</title>
<desc>Line l_3: Line O_2, M_2</desc>
</g> 
</g> 
<g id="i-m_3">
<g class="line s-7f00ff">
  <path d="M -5.0000 509.14 L 952.00 509.14"/>
<title>Line m_3</title>
<desc>Line m_3: Line M_2, N_2</desc>
</g> 
</g> 
<g id="i-n_3">
<g class="line s-7f00ff">
  <path d="M -5.0000 232.68 L 952.00 232.68"/>
<title>Line n_3</title>
<desc>Line n_3: Line L_2, O_2</desc>
</g> 
</g> 
</g>
<g id="layer6">
<g id="c-b">
<g class="circle s-808080">
  <path d="M 535.32 309.09 C 535.32 377.37 479.96 432.73 411.68 432.73 C 343.40 432.73 288.05 377.37 288.05 309.09 C 288.05 240.81 343.40 185.45 411.68 185.45 C 479.96 185.45 535.32 240.81 535.32 309.09 z"/>
<title>Circle b</title>
<desc>Circle b: Circle through B with center A</desc>
</g> 
</g> 
<g id="c-c">
<g class="circle s-808080">
  <path d="M 658.95 309.09 C 658.95 377.37 603.60 432.73 535.32 432.73 C 467.04 432.73 411.68 377.37 411.68 309.09 C 411.68 240.81 467.04 185.45 535.32 185.45 C 603.60 185.45 658.95 240.81 658.95 309.09 z"/>
<title>Circle c</title>
<desc>Circle c: Circle through A with center B</desc>
</g> 
</g> 
<g id="c-f">
<g class="circle s-808080">
  <path d="M 658.95 309.09 C 658.95 445.66 548.25 556.36 411.68 556.36 C 275.12 556.36 164.41 445.66 164.41 309.09 C 164.41 172.53 275.12 61.818 411.68 61.818 C 548.25 61.818 658.95 172.53 658.95 309.09 z"/>
<title>Circle f</title>
<desc>Circle f: Circle through G with center A</desc>
</g> 
</g> 
<g id="c-g">
<g class="circle s-808080">
  <path d="M 782.59 309.09 C 782.59 445.66 671.88 556.36 535.32 556.36 C 398.75 556.36 288.05 445.66 288.05 309.09 C 288.05 172.53 398.75 61.818 535.32 61.818 C 671.88 61.818 782.59 172.53 782.59 309.09 z"/>
<title>Circle g</title>
<desc>Circle g: Circle through F with center B</desc>
</g> 
</g> 
<g id="c-d_1">
<g class="circle s-ff6699">
  <path d="M 616.26 344.78 C 616.26 423.63 552.35 487.54 473.50 487.54 C 394.65 487.54 330.74 423.63 330.74 344.78 C 330.74 265.94 394.65 202.02 473.50 202.02 C 552.35 202.02 616.26 265.94 616.26 344.78 z"/>
<title>Circle d_1</title>
<desc>Circle d_1: Circle through D_1 with center G_1</desc>
</g> 
</g> 
<g id="c-e_1">
<g class="circle s-808080">
  <path d="M 597.14 202.02 C 597.14 270.30 541.78 325.66 473.50 325.66 C 405.22 325.66 349.86 270.30 349.86 202.02 C 349.86 133.74 405.22 78.382 473.50 78.382 C 541.78 78.382 597.14 133.74 597.14 202.02 z"/>
<title>Circle e_1</title>
<desc>Circle e_1: Circle through C_1 with center C</desc>
</g> 
</g> 
<g id="c-p_1">
<g class="circle s-808080">
  <path d="M 597.14 416.16 C 597.14 484.45 541.78 539.80 473.50 539.80 C 405.22 539.80 349.86 484.45 349.86 416.16 C 349.86 347.88 405.22 292.53 473.50 292.53 C 541.78 292.53 597.14 347.88 597.14 416.16 z"/>
<title>Circle p_1</title>
<desc>Circle p_1: Circle through B with center D</desc>
</g> 
</g> 
<g id="c-r_1">
<g class="circle s-99cc00">
  <path d="M 611.73 309.09 C 611.73 385.43 549.84 447.32 473.50 447.32 C 397.16 447.32 335.27 385.43 335.27 309.09 C 335.27 232.75 397.16 170.86 473.50 170.86 C 549.84 170.86 611.73 232.75 611.73 309.09 z"/>
<title>Circle r_1</title>
<desc>Circle r_1: Circle through V with center E</desc>
</g> 
</g> 
<g id="c-d_2">
<g class="circle s-7d7dff">
  <path d="M 648.35 202.02 C 648.35 298.58 570.07 376.87 473.50 376.87 C 376.93 376.87 298.65 298.58 298.65 202.02 C 298.65 105.45 376.93 27.170 473.50 27.170 C 570.07 27.170 648.35 105.45 648.35 202.02 z"/>
<title>Circle d_2</title>
<desc>Circle d_2: Circle through Q_1 with center C</desc>
</g> 
</g> 
<g id="c-e_2">
<g class="circle s-7d7dff">
  <path d="M 648.35 416.16 C 648.35 512.73 570.07 591.01 473.50 591.01 C 376.93 591.01 298.65 512.73 298.65 416.16 C 298.65 319.60 376.93 241.31 473.50 241.31 C 570.07 241.31 648.35 319.60 648.35 416.16 z"/>
<title>Circle e_2</title>
<desc>Circle e_2: Circle through P_1 with center D</desc>
</g> 
</g> 
<g id="c-r_2">
<g class="circle s-ff9900">
  <path d="M 658.95 185.45 C 658.95 287.88 575.92 370.91 473.50 370.91 C 371.08 370.91 288.05 287.88 288.05 185.45 C 288.05 83.031 371.08 0.0000 473.50 0.0000 C 575.92 0.0000 658.95 83.031 658.95 185.45 z"/>
<title>Circle r_2</title>
<desc>Circle r_2: Circle through S_1 with center V_1</desc>
</g> 
</g> 
<g id="c-s_2">
<g class="circle s-ff9900">
  <path d="M 658.95 432.73 C 658.95 535.15 575.92 618.18 473.50 618.18 C 371.08 618.18 288.05 535.15 288.05 432.73 C 288.05 330.30 371.08 247.27 473.50 247.27 C 575.92 247.27 658.95 330.30 658.95 432.73 z"/>
<title>Circle s_2</title>
<desc>Circle s_2: Circle through U_1 with center W_1</desc>
</g> 
</g> 
<g id="c-t_2">
<g class="circle s-808080">
  <path d="M 535.32 309.09 C 535.32 343.23 507.64 370.91 473.50 370.91 C 439.36 370.91 411.68 343.23 411.68 309.09 C 411.68 274.95 439.36 247.27 473.50 247.27 C 507.64 247.27 535.32 274.95 535.32 309.09 z"/>
<title>Circle t_2</title>
<desc>Circle t_2: Circle through A with center E</desc>
</g> 
</g> 
<g id="c-d_3">
<g class="circle s-ff00ff">
  <path d="M 511.75 416.16 C 511.75 573.85 383.92 701.69 226.23 701.69 C 68.536 701.69 -59.299 573.85 -59.299 416.16 C -59.299 258.47 68.536 130.64 226.23 130.64 C 383.92 130.64 511.75 258.47 511.75 416.16 z"/>
<title>Circle d_3</title>
<desc>Circle d_3: Circle through F_1 with center D_2</desc>
</g> 
</g> 
<g id="c-e_3">
<g class="circle s-ff00ff">
  <path d="M 759.03 273.40 C 759.03 431.09 631.19 558.93 473.50 558.93 C 315.81 558.93 187.97 431.09 187.97 273.40 C 187.97 115.71 315.81 -12.126 473.50 -12.126 C 631.19 -12.126 759.03 115.71 759.03 273.40 z"/>
<title>Circle e_3</title>
<desc>Circle e_3: Circle through D_2 with center F_1</desc>
</g> 
</g> 
<g id="c-f_3">
<g class="circle s-ff00ff">
  <path d="M 759.03 558.93 C 759.03 716.62 631.19 844.45 473.50 844.45 C 315.81 844.45 187.97 716.62 187.97 558.93 C 187.97 401.23 315.81 273.40 473.50 273.40 C 631.19 273.40 759.03 401.23 759.03 558.93 z"/>
<title>Circle f_3</title>
<desc>Circle f_3: Circle through F_1 with center F_2</desc>
</g> 
</g> 
<g id="c-k_3">
<g class="circle s-7f00ff">
  <path d="M 668.99 370.91 C 668.99 478.87 581.46 566.40 473.50 566.40 C 365.54 566.40 278.01 478.87 278.01 370.91 C 278.01 262.95 365.54 175.42 473.50 175.42 C 581.46 175.42 668.99 262.95 668.99 370.91 z"/>
<title>Circle k_3</title>
<desc>Circle k_3: Circle through V with center K_2</desc>
</g> 
</g> 
</g>
<g id="graphics">
<g>
<g class="circle s-ff6699">
  <path d="M 473.50 202.02 L 535.32 309.09 L 411.68 309.09 z"/>
<title>Triangle t1</title>
<desc>Triangle t1: Polygon C, B, A</desc>
</g> 
</g> 
<g>
<g class="circle s-99cc00">
  <path d="M 411.68 309.09 L 535.32 309.09 L 535.32 432.73 L 411.68 432.73 z"/>
<title>Quadrilateral q1</title>
<desc>Quadrilateral q1: Polygon A, B, A_1, W</desc>
</g> 
</g> 
<g>
<g class="circle s-7d7dff">
  <path d="M 473.50 202.02 L 580.57 140.20 L 642.39 247.27 L 535.32 309.09 z"/>
<title>Quadrilateral q2</title>
<desc>Quadrilateral q2: Polygon C, J_1, Q_1, B</desc>
</g> 
</g> 
<g id="sg-a_2">
<g class="segment s-ff6699 a">
  <path d="M 473.50 202.02 L 535.32 309.09"/>
<title>Segment a_2</title>
<desc>Segment a_2: Segment C, B</desc>
</g>
<g transform="matrix(1.0000, 0.0000, 0.0000, 1.0000, 490.00, 263.00)">
<text>a</text>
</g>
<g transform="matrix(1.0000, 0.0000, 0.0000, 1.0000, 497.35, 268.00)">
<text>2</text>
</g> 
</g> 
<g id="sg-c_3">
<g class="segment s-ff6699 c">
  <path d="M 535.32 309.09 L 411.68 309.09"/>
<title>Segment c_3</title>
<desc>Segment c_3: Segment B, A</desc>
</g>
<g transform="matrix(1.0000, 0.0000, 0.0000, 1.0000, 473.00, 293.00)">
<text>c</text>
</g>
<g transform="matrix(1.0000, 0.0000, 0.0000, 1.0000, 479.60, 298.00)">
<text>3</text>
</g> 
</g> 
<g id="sg-b_3">
<g class="segment s-ff6699 b">
  <path d="M 411.68 309.09 L 473.50 202.02"/>
<title>Segment b_3</title>
<desc>Segment b_3: Segment A, C</desc>
</g>
<g transform="matrix(1.0000, 0.0000, 0.0000, 1.0000, 456.00, 263.00)">
<text>b</text>
</g>
<g transform="matrix(1.0000, 0.0000, 0.0000, 1.0000, 463.62, 268.00)">
<text>3</text>
</g> 
</g> 
<g id="sg-r_3">
<g class="segment s-ff6699 r">
  <path d="M 473.50 344.78 L 597.14 416.16"/>
<title>Segment r_3</title>
<desc>Segment r_3: Segment G_1, D_1</desc>
</g>
<g transform="matrix(1.0000, 0.0000, 0.0000, 1.0000, 527.00, 394.00)">
<text>r</text>
</g>
<g transform="matrix(1.0000, 0.0000, 0.0000, 1.0000, 531.93, 399.00)">
<text>3</text>
</g> 
</g> 
<g id="sg-p_3">
<g class="segment s-66cc00">
  <path d="M 473.50 309.09 L 535.32 185.45"/>
<title>Segment p_3</title>
<desc>Segment p_3: Segment E, Z</desc>
</g> 
</g> 
<g id="sg-a_1">
<g class="segment s-99cc00">
  <path d="M 411.68 309.09 L 535.32 309.09"/>
<title>Segment a_1</title>
<desc>Segment a_1: Segment A, B</desc>
</g> 
</g> 
<g id="sg-b_1">
<g class="segment s-99cc00">
  <path d="M 535.32 309.09 L 535.32 432.73"/>
<title>Segment b_1</title>
<desc>Segment b_1: Segment B, A_1</desc>
</g> 
</g> 
<g id="sg-s_1">
<g class="segment s-99cc00">
  <path d="M 535.32 432.73 L 411.68 432.73"/>
<title>Segment s_1</title>
<desc>Segment s_1: Segment A_1, W</desc>
</g> 
</g> 
<g id="sg-w">
<g class="segment s-99cc00">
  <path d="M 411.68 432.73 L 411.68 309.09"/>
<title>Segment w</title>
<desc>Segment w: Segment W, A</desc>
</g> 
</g> 
<g id="sg-c_2">
<g class="segment s-7d7dff">
  <path d="M 473.50 202.02 L 580.57 140.20"/>
<title>Segment c_2</title>
<desc>Segment c_2: Segment C, J_1</desc>
</g> 
</g> 
<g id="sg-g_2">
<g class="segment s-7d7dff">
  <path d="M 580.57 140.20 L 642.39 247.27"/>
<title>Segment g_2</title>
<desc>Segment g_2: Segment J_1, Q_1</desc>
</g> 
</g> 
<g id="sg-h_2">
<g class="segment s-7d7dff">
  <path d="M 642.39 247.27 L 535.32 309.09"/>
<title>Segment h_2</title>
<desc>Segment h_2: Segment Q_1, B</desc>
</g> 
</g> 
<g id="sg-b_2">
<g class="segment s-7d7dff">
  <path d="M 535.32 309.09 L 473.50 202.02"/>
<title>Segment b_2</title>
<desc>Segment b_2: Segment B, C</desc>
</g> 
</g> 
<g id="sg-i_3">
<g class="segment s-00cc00">
  <path d="M 473.50 309.09 L 597.14 247.27"/>
<title>Segment i_3</title>
<desc>Segment i_3: Segment E, I_2</desc>
</g> 
</g> 
</g>
<g id="sections">
<g id="sg-g001a1">
<g class="segment s-ffcc66 a">
  <path d="M 473.50 69.670 L 473.50 202.02"/>
<title>Segment g001a1</title>
<desc>Segment g001a1: sectionABA(H, C, D, I)</desc>
</g>
<g transform="matrix(1.0000, 0.0000, 0.0000, 1.0000, 457.00, 135.00)">
<text>a</text>
</g> 
</g> 
<g id="sg-g001b">
<g class="segment s-ffcc66 b">
  <path d="M 473.50 202.02 L 473.50 416.16"/>
<title>Segment g001b</title>
<desc>Segment g001b: sectionABA(H, C, D, I)</desc>
</g>
<g transform="matrix(1.0000, 0.0000, 0.0000, 1.0000, 457.00, 309.00)">
<text>b</text>
</g> 
</g> 
<g id="sg-g001a2">
<g class="segment s-ffcc66 a">
  <path d="M 473.50 416.16 L 473.50 548.51"/>
<title>Segment g001a2</title>
<desc>Segment g001a2: sectionABA(H, C, D, I)</desc>
</g>
<g transform="matrix(1.0000, 0.0000, 0.0000, 1.0000, 457.00, 482.00)">
<text>a</text>
</g> 
</g> 
<g id="sg-g002a_1">
<g class="segment s-ffcc66 a">
  <path d="M 335.27 309.09 L 411.68 309.09"/>
<title>Segment g002a_1</title>
<desc>Segment g002a_1: sectionABA(H_1, A, B, I_1)</desc>
</g>
<g transform="matrix(1.0000, 0.0000, 0.0000, 1.0000, 373.00, 325.00)">
<text>a</text>
</g> 
</g> 
<g id="sg-g002b">
<g class="segment s-ffcc66 b">
  <path d="M 411.68 309.09 L 535.32 309.09"/>
<title>Segment g002b</title>
<desc>Segment g002b: sectionABA(H_1, A, B, I_1)</desc>
</g>
<g transform="matrix(1.0000, 0.0000, 0.0000, 1.0000, 473.00, 325.00)">
<text>b</text>
</g> 
</g> 
<g id="sg-g002a_2">
<g class="segment s-ffcc66 a">
  <path d="M 535.32 309.09 L 611.73 309.09"/>
<title>Segment g002a_2</title>
<desc>Segment g002a_2: sectionABA(H_1, A, B, I_1)</desc>
</g>
<g transform="matrix(1.0000, 0.0000, 0.0000, 1.0000, 573.00, 325.00)">
<text>a</text>
</g> 
</g> 
</g>
<g id="points">
<g id="pt-A">
<g class="point bottom">
  <path d="M 415.68 309.09 C 415.68 311.30 413.89 313.09 411.68 313.09 C 409.47 313.09 407.68 311.30 407.68 309.09 C 407.68 306.88 409.47 305.09 411.68 305.09 C 413.89 305.09 415.68 306.88 415.68 309.09 z"/>
<title>Point A</title>
<desc>Point A: Point on xAxis</desc>
</g>
<g class="point top">
  <path d="M 415.68 309.09 C 415.68 311.30 413.89 313.09 411.68 313.09 C 409.47 313.09 407.68 311.30 407.68 309.09 C 407.68 306.88 409.47 305.09 411.68 305.09 C 413.89 305.09 415.68 306.88 415.68 309.09 z"/>
<title>Point A</title>
<desc>Point A: Point on xAxis</desc>
</g> 
</g> 
<g id="pt-B">
<g class="point bottom">
  <path d="M 539.32 309.09 C 539.32 311.30 537.53 313.09 535.32 313.09 C 533.11 313.09 531.32 311.30 531.32 309.09 C 531.32 306.88 533.11 305.09 535.32 305.09 C 537.53 305.09 539.32 306.88 539.32 309.09 z"/>
<title>Point B</title>
<desc>Point B: Point on xAxis</desc>
</g>
<g class="point top">
  <path d="M 539.32 309.09 C 539.32 311.30 537.53 313.09 535.32 313.09 C 533.11 313.09 531.32 311.30 531.32 309.09 C 531.32 306.88 533.11 305.09 535.32 305.09 C 537.53 305.09 539.32 306.88 539.32 309.09 z"/>
<title>Point B</title>
<desc>Point B: Point on xAxis</desc>
</g> 
</g> 
<g id="pt-C">
<g class="point bottom">
  <path d="M 477.50 202.02 C 477.50 204.23 475.71 206.02 473.50 206.02 C 471.29 206.02 469.50 204.23 469.50 202.02 C 469.50 199.81 471.29 198.02 473.50 198.02 C 475.71 198.02 477.50 199.81 477.50 202.02 z"/>
<title>Point C</title>
<desc>Point C: Intersection point of b, c</desc>
</g>
<g class="point top">
  <path d="M 477.50 202.02 C 477.50 204.23 475.71 206.02 473.50 206.02 C 471.29 206.02 469.50 204.23 469.50 202.02 C 469.50 199.81 471.29 198.02 473.50 198.02 C 475.71 198.02 477.50 199.81 477.50 202.02 z"/>
<title>Point C</title>
<desc>Point C: Intersection point of b, c</desc>
</g> 
</g> 
<g id="pt-D">
<g class="point bottom">
  <path d="M 477.50 416.16 C 477.50 418.37 475.71 420.16 473.50 420.16 C 471.29 420.16 469.50 418.37 469.50 416.16 C 469.50 413.95 471.29 412.16 473.50 412.16 C 475.71 412.16 477.50 413.95 477.50 416.16 z"/>
<title>Point D</title>
<desc>Point D: Intersection point of b, c</desc>
</g>
<g class="point top">
  <path d="M 477.50 416.16 C 477.50 418.37 475.71 420.16 473.50 420.16 C 471.29 420.16 469.50 418.37 469.50 416.16 C 469.50 413.95 471.29 412.16 473.50 412.16 C 475.71 412.16 477.50 413.95 477.50 416.16 z"/>
<title>Point D</title>
<desc>Point D: Intersection point of b, c</desc>
</g> 
</g> 
<g id="pt-E">
<g class="point bottom">
  <path d="M 477.50 309.09 C 477.50 311.30 475.71 313.09 473.50 313.09 C 471.29 313.09 469.50 311.30 469.50 309.09 C 469.50 306.88 471.29 305.09 473.50 305.09 C 475.71 305.09 477.50 306.88 477.50 309.09 z"/>
<title>Point E</title>
<desc>Point E: Intersection of a and d</desc>
</g>
<g class="point top">
  <path d="M 477.50 309.09 C 477.50 311.30 475.71 313.09 473.50 313.09 C 471.29 313.09 469.50 311.30 469.50 309.09 C 469.50 306.88 471.29 305.09 473.50 305.09 C 475.71 305.09 477.50 306.88 477.50 309.09 z"/>
<title>Point E</title>
<desc>Point E: Intersection of a and d</desc>
</g> 
</g> 
<g id="pt-F">
<g class="point bottom">
  <path d="M 292.05 309.09 C 292.05 311.30 290.25 313.09 288.05 313.09 C 285.84 313.09 284.05 311.30 284.05 309.09 C 284.05 306.88 285.84 305.09 288.05 305.09 C 290.25 305.09 292.05 306.88 292.05 309.09 z"/>
<title>Point F</title>
<desc>Point F: Intersection of b and a</desc>
</g>
<g class="point top">
  <path d="M 292.05 309.09 C 292.05 311.30 290.25 313.09 288.05 313.09 C 285.84 313.09 284.05 311.30 284.05 309.09 C 284.05 306.88 285.84 305.09 288.05 305.09 C 290.25 305.09 292.05 306.88 292.05 309.09 z"/>
<title>Point F</title>
<desc>Point F: Intersection of b and a</desc>
</g> 
</g> 
<g id="pt-G">
<g class="point bottom">
  <path d="M 662.95 309.09 C 662.95 311.30 661.16 313.09 658.95 313.09 C 656.75 313.09 654.95 311.30 654.95 309.09 C 654.95 306.88 656.75 305.09 658.95 305.09 C 661.16 305.09 662.95 306.88 662.95 309.09 z"/>
<title>Point G</title>
<desc>Point G: Intersection of c and a</desc>
</g>
<g class="point top">
  <path d="M 662.95 309.09 C 662.95 311.30 661.16 313.09 658.95 313.09 C 656.75 313.09 654.95 311.30 654.95 309.09 C 654.95 306.88 656.75 305.09 658.95 305.09 C 661.16 305.09 662.95 306.88 662.95 309.09 z"/>
<title>Point G</title>
<desc>Point G: Intersection of c and a</desc>
</g> 
</g> 
<g id="pt-H">
<g class="point bottom">
  <path d="M 477.50 69.670 C 477.50 71.879 475.71 73.670 473.50 73.670 C 471.29 73.670 469.50 71.879 469.50 69.670 C 469.50 67.461 471.29 65.670 473.50 65.670 C 475.71 65.670 477.50 67.461 477.50 69.670 z"/>
<title>Point H</title>
<desc>Point H: Intersection point of f, g</desc>
</g>
<g class="point top">
  <path d="M 477.50 69.670 C 477.50 71.879 475.71 73.670 473.50 73.670 C 471.29 73.670 469.50 71.879 469.50 69.670 C 469.50 67.461 471.29 65.670 473.50 65.670 C 475.71 65.670 477.50 67.461 477.50 69.670 z"/>
<title>Point H</title>
<desc>Point H: Intersection point of f, g</desc>
</g> 
</g> 
<g id="pt-I">
<g class="point bottom">
  <path d="M 477.50 548.51 C 477.50 550.72 475.71 552.51 473.50 552.51 C 471.29 552.51 469.50 550.72 469.50 548.51 C 469.50 546.30 471.29 544.51 473.50 544.51 C 475.71 544.51 477.50 546.30 477.50 548.51 z"/>
<title>Point I</title>
<desc>Point I: Intersection point of f, g</desc>
</g>
<g class="point top">
  <path d="M 477.50 548.51 C 477.50 550.72 475.71 552.51 473.50 552.51 C 471.29 552.51 469.50 550.72 469.50 548.51 C 469.50 546.30 471.29 544.51 473.50 544.51 C 475.71 544.51 477.50 546.30 477.50 548.51 z"/>
<title>Point I</title>
<desc>Point I: Intersection point of f, g</desc>
</g> 
</g> 
<g id="pt-J">
<g class="point bottom">
  <path d="M 292.05 309.09 C 292.05 311.30 290.25 313.09 288.05 313.09 C 285.84 313.09 284.05 311.30 284.05 309.09 C 284.05 306.88 285.84 305.09 288.05 305.09 C 290.25 305.09 292.05 306.88 292.05 309.09 z"/>
<title>Point J</title>
<desc>Point J: Intersection point of g, l</desc>
</g>
<g class="point top">
  <path d="M 292.05 309.09 C 292.05 311.30 290.25 313.09 288.05 313.09 C 285.84 313.09 284.05 311.30 284.05 309.09 C 284.05 306.88 285.84 305.09 288.05 305.09 C 290.25 305.09 292.05 306.88 292.05 309.09 z"/>
<title>Point J</title>
<desc>Point J: Intersection point of g, l</desc>
</g> 
</g> 
<g id="pt-K">
<g class="point bottom">
  <path d="M 662.95 94.946 C 662.95 97.156 661.16 98.946 658.95 98.946 C 656.75 98.946 654.95 97.156 654.95 94.946 C 654.95 92.737 656.75 90.946 658.95 90.946 C 661.16 90.946 662.95 92.737 662.95 94.946 z"/>
<title>Point K</title>
<desc>Point K: Intersection point of g, l</desc>
</g>
<g class="point top">
  <path d="M 662.95 94.946 C 662.95 97.156 661.16 98.946 658.95 98.946 C 656.75 98.946 654.95 97.156 654.95 94.946 C 654.95 92.737 656.75 90.946 658.95 90.946 C 661.16 90.946 662.95 92.737 662.95 94.946 z"/>
<title>Point K</title>
<desc>Point K: Intersection point of g, l</desc>
</g> 
</g> 
<g id="pt-L">
<g class="point bottom">
  <path d="M 292.05 309.09 C 292.05 311.30 290.25 313.09 288.05 313.09 C 285.84 313.09 284.05 311.30 284.05 309.09 C 284.05 306.88 285.84 305.09 288.05 305.09 C 290.25 305.09 292.05 306.88 292.05 309.09 z"/>
<title>Point L</title>
<desc>Point L: Intersection point of g, m</desc>
</g>
<g class="point top">
  <path d="M 292.05 309.09 C 292.05 311.30 290.25 313.09 288.05 313.09 C 285.84 313.09 284.05 311.30 284.05 309.09 C 284.05 306.88 285.84 305.09 288.05 305.09 C 290.25 305.09 292.05 306.88 292.05 309.09 z"/>
<title>Point L</title>
<desc>Point L: Intersection point of g, m</desc>
</g> 
</g> 
<g id="pt-M">
<g class="point bottom">
  <path d="M 662.95 523.24 C 662.95 525.44 661.16 527.24 658.95 527.24 C 656.75 527.24 654.95 525.44 654.95 523.24 C 654.95 521.03 656.75 519.24 658.95 519.24 C 661.16 519.24 662.95 521.03 662.95 523.24 z"/>
<title>Point M</title>
<desc>Point M: Intersection point of g, m</desc>
</g>
<g class="point top">
  <path d="M 662.95 523.24 C 662.95 525.44 661.16 527.24 658.95 527.24 C 656.75 527.24 654.95 525.44 654.95 523.24 C 654.95 521.03 656.75 519.24 658.95 519.24 C 661.16 519.24 662.95 521.03 662.95 523.24 z"/>
<title>Point M</title>
<desc>Point M: Intersection point of g, m</desc>
</g> 
</g> 
<g id="pt-N">
<g class="point bottom">
  <path d="M 662.95 309.09 C 662.95 311.30 661.16 313.09 658.95 313.09 C 656.75 313.09 654.95 311.30 654.95 309.09 C 654.95 306.88 656.75 305.09 658.95 305.09 C 661.16 305.09 662.95 306.88 662.95 309.09 z"/>
<title>Point N</title>
<desc>Point N: Intersection point of f, n</desc>
</g>
<g class="point top">
  <path d="M 662.95 309.09 C 662.95 311.30 661.16 313.09 658.95 313.09 C 656.75 313.09 654.95 311.30 654.95 309.09 C 654.95 306.88 656.75 305.09 658.95 305.09 C 661.16 305.09 662.95 306.88 662.95 309.09 z"/>
<title>Point N</title>
<desc>Point N: Intersection point of f, n</desc>
</g> 
</g> 
<g id="pt-O">
<g class="point bottom">
  <path d="M 292.05 94.946 C 292.05 97.156 290.25 98.946 288.05 98.946 C 285.84 98.946 284.05 97.156 284.05 94.946 C 284.05 92.737 285.84 90.946 288.05 90.946 C 290.25 90.946 292.05 92.737 292.05 94.946 z"/>
<title>Point O</title>
<desc>Point O: Intersection point of f, n</desc>
</g>
<g class="point top">
  <path d="M 292.05 94.946 C 292.05 97.156 290.25 98.946 288.05 98.946 C 285.84 98.946 284.05 97.156 284.05 94.946 C 284.05 92.737 285.84 90.946 288.05 90.946 C 290.25 90.946 292.05 92.737 292.05 94.946 z"/>
<title>Point O</title>
<desc>Point O: Intersection point of f, n</desc>
</g> 
</g> 
<g id="pt-P">
<g class="point bottom">
  <path d="M 662.95 309.09 C 662.95 311.30 661.16 313.09 658.95 313.09 C 656.75 313.09 654.95 311.30 654.95 309.09 C 654.95 306.88 656.75 305.09 658.95 305.09 C 661.16 305.09 662.95 306.88 662.95 309.09 z"/>
<title>Point P</title>
<desc>Point P: Intersection point of f, p</desc>
</g>
<g class="point top">
  <path d="M 662.95 309.09 C 662.95 311.30 661.16 313.09 658.95 313.09 C 656.75 313.09 654.95 311.30 654.95 309.09 C 654.95 306.88 656.75 305.09 658.95 305.09 C 661.16 305.09 662.95 306.88 662.95 309.09 z"/>
<title>Point P</title>
<desc>Point P: Intersection point of f, p</desc>
</g> 
</g> 
<g id="pt-Q">
<g class="point bottom">
  <path d="M 292.05 523.24 C 292.05 525.44 290.25 527.24 288.05 527.24 C 285.84 527.24 284.05 525.44 284.05 523.24 C 284.05 521.03 285.84 519.24 288.05 519.24 C 290.25 519.24 292.05 521.03 292.05 523.24 z"/>
<title>Point Q</title>
<desc>Point Q: Intersection point of f, p</desc>
</g>
<g class="point top">
  <path d="M 292.05 523.24 C 292.05 525.44 290.25 527.24 288.05 527.24 C 285.84 527.24 284.05 525.44 284.05 523.24 C 284.05 521.03 285.84 519.24 288.05 519.24 C 290.25 519.24 292.05 521.03 292.05 523.24 z"/>
<title>Point Q</title>
<desc>Point Q: Intersection point of f, p</desc>
</g> 
</g> 
<g id="pt-R">
<g class="point bottom">
  <path d="M 415.68 94.946 C 415.68 97.156 413.89 98.946 411.68 98.946 C 409.47 98.946 407.68 97.156 407.68 94.946 C 407.68 92.737 409.47 90.946 411.68 90.946 C 413.89 90.946 415.68 92.737 415.68 94.946 z"/>
<title>Point R</title>
<desc>Point R: Intersection of g and k</desc>
</g>
<g class="point top">
  <path d="M 415.68 94.946 C 415.68 97.156 413.89 98.946 411.68 98.946 C 409.47 98.946 407.68 97.156 407.68 94.946 C 407.68 92.737 409.47 90.946 411.68 90.946 C 413.89 90.946 415.68 92.737 415.68 94.946 z"/>
<title>Point R</title>
<desc>Point R: Intersection of g and k</desc>
</g> 
</g> 
<g id="pt-S">
<g class="point bottom">
  <path d="M 539.32 94.946 C 539.32 97.156 537.53 98.946 535.32 98.946 C 533.11 98.946 531.32 97.156 531.32 94.946 C 531.32 92.737 533.11 90.946 535.32 90.946 C 537.53 90.946 539.32 92.737 539.32 94.946 z"/>
<title>Point S</title>
<desc>Point S: Intersection of f and j</desc>
</g>
<g class="point top">
  <path d="M 539.32 94.946 C 539.32 97.156 537.53 98.946 535.32 98.946 C 533.11 98.946 531.32 97.156 531.32 94.946 C 531.32 92.737 533.11 90.946 535.32 90.946 C 537.53 90.946 539.32 92.737 539.32 94.946 z"/>
<title>Point S</title>
<desc>Point S: Intersection of f and j</desc>
</g> 
</g> 
<g id="pt-T">
<g class="point bottom">
  <path d="M 415.68 523.24 C 415.68 525.44 413.89 527.24 411.68 527.24 C 409.47 527.24 407.68 525.44 407.68 523.24 C 407.68 521.03 409.47 519.24 411.68 519.24 C 413.89 519.24 415.68 521.03 415.68 523.24 z"/>
<title>Point T</title>
<desc>Point T: Intersection of g and i</desc>
</g>
<g class="point top">
  <path d="M 415.68 523.24 C 415.68 525.44 413.89 527.24 411.68 527.24 C 409.47 527.24 407.68 525.44 407.68 523.24 C 407.68 521.03 409.47 519.24 411.68 519.24 C 413.89 519.24 415.68 521.03 415.68 523.24 z"/>
<title>Point T</title>
<desc>Point T: Intersection of g and i</desc>
</g> 
</g> 
<g id="pt-U">
<g class="point bottom">
  <path d="M 539.32 523.24 C 539.32 525.44 537.53 527.24 535.32 527.24 C 533.11 527.24 531.32 525.44 531.32 523.24 C 531.32 521.03 533.11 519.24 535.32 519.24 C 537.53 519.24 539.32 521.03 539.32 523.24 z"/>
<title>Point U</title>
<desc>Point U: Intersection of f and h</desc>
</g>
<g class="point top">
  <path d="M 539.32 523.24 C 539.32 525.44 537.53 527.24 535.32 527.24 C 533.11 527.24 531.32 525.44 531.32 523.24 C 531.32 521.03 533.11 519.24 535.32 519.24 C 537.53 519.24 539.32 521.03 539.32 523.24 z"/>
<title>Point U</title>
<desc>Point U: Intersection of f and h</desc>
</g> 
</g> 
<g id="pt-V">
<g class="point bottom">
  <path d="M 415.68 185.45 C 415.68 187.66 413.89 189.45 411.68 189.45 C 409.47 189.45 407.68 187.66 407.68 185.45 C 407.68 183.25 409.47 181.45 411.68 181.45 C 413.89 181.45 415.68 183.25 415.68 185.45 z"/>
<title>Point V</title>
<desc>Point V: Intersection point of b, s</desc>
</g>
<g class="point top">
  <path d="M 415.68 185.45 C 415.68 187.66 413.89 189.45 411.68 189.45 C 409.47 189.45 407.68 187.66 407.68 185.45 C 407.68 183.25 409.47 181.45 411.68 181.45 C 413.89 181.45 415.68 183.25 415.68 185.45 z"/>
<title>Point V</title>
<desc>Point V: Intersection point of b, s</desc>
</g> 
</g> 
<g id="pt-W">
<g class="point bottom">
  <path d="M 415.68 432.73 C 415.68 434.94 413.89 436.73 411.68 436.73 C 409.47 436.73 407.68 434.94 407.68 432.73 C 407.68 430.52 409.47 428.73 411.68 428.73 C 413.89 428.73 415.68 430.52 415.68 432.73 z"/>
<title>Point W</title>
<desc>Point W: Intersection point of b, s</desc>
</g>
<g class="point top">
  <path d="M 415.68 432.73 C 415.68 434.94 413.89 436.73 411.68 436.73 C 409.47 436.73 407.68 434.94 407.68 432.73 C 407.68 430.52 409.47 428.73 411.68 428.73 C 413.89 428.73 415.68 430.52 415.68 432.73 z"/>
<title>Point W</title>
<desc>Point W: Intersection point of b, s</desc>
</g> 
</g> 
<g id="pt-Z">
<g class="point bottom">
  <path d="M 539.32 185.45 C 539.32 187.66 537.53 189.45 535.32 189.45 C 533.11 189.45 531.32 187.66 531.32 185.45 C 531.32 183.25 533.11 181.45 535.32 181.45 C 537.53 181.45 539.32 183.25 539.32 185.45 z"/>
<title>Point Z</title>
<desc>Point Z: Intersection point of c, t</desc>
</g>
<g class="point top">
  <path d="M 539.32 185.45 C 539.32 187.66 537.53 189.45 535.32 189.45 C 533.11 189.45 531.32 187.66 531.32 185.45 C 531.32 183.25 533.11 181.45 535.32 181.45 C 537.53 181.45 539.32 183.25 539.32 185.45 z"/>
<title>Point Z</title>
<desc>Point Z: Intersection point of c, t</desc>
</g> 
</g> 
<g id="pt-A_1">
<g class="point bottom">
  <path d="M 539.32 432.73 C 539.32 434.94 537.53 436.73 535.32 436.73 C 533.11 436.73 531.32 434.94 531.32 432.73 C 531.32 430.52 533.11 428.73 535.32 428.73 C 537.53 428.73 539.32 430.52 539.32 432.73 z"/>
<title>Point A_1</title>
<desc>Point A_1: Intersection point of c, t</desc>
</g>
<g class="point top">
  <path d="M 539.32 432.73 C 539.32 434.94 537.53 436.73 535.32 436.73 C 533.11 436.73 531.32 434.94 531.32 432.73 C 531.32 430.52 533.11 428.73 535.32 428.73 C 537.53 428.73 539.32 430.52 539.32 432.73 z"/>
<title>Point A_1</title>
<desc>Point A_1: Intersection point of c, t</desc>
</g> 
</g> 
<g id="pt-B_1">
<g class="point bottom">
  <path d="M 353.86 202.02 C 353.86 204.23 352.07 206.02 349.86 206.02 C 347.65 206.02 345.86 204.23 345.86 202.02 C 345.86 199.81 347.65 198.02 349.86 198.02 C 352.07 198.02 353.86 199.81 353.86 202.02 z"/>
<title>Point B_1</title>
<desc>Point B_1: Intersection of b and h</desc>
</g>
<g class="point top">
  <path d="M 353.86 202.02 C 353.86 204.23 352.07 206.02 349.86 206.02 C 347.65 206.02 345.86 204.23 345.86 202.02 C 345.86 199.81 347.65 198.02 349.86 198.02 C 352.07 198.02 353.86 199.81 353.86 202.02 z"/>
<title>Point B_1</title>
<desc>Point B_1: Intersection of b and h</desc>
</g> 
</g> 
<g id="pt-C_1">
<g class="point bottom">
  <path d="M 601.14 202.02 C 601.14 204.23 599.35 206.02 597.14 206.02 C 594.93 206.02 593.14 204.23 593.14 202.02 C 593.14 199.81 594.93 198.02 597.14 198.02 C 599.35 198.02 601.14 199.81 601.14 202.02 z"/>
<title>Point C_1</title>
<desc>Point C_1: Intersection of c and i</desc>
</g>
<g class="point top">
  <path d="M 601.14 202.02 C 601.14 204.23 599.35 206.02 597.14 206.02 C 594.93 206.02 593.14 204.23 593.14 202.02 C 593.14 199.81 594.93 198.02 597.14 198.02 C 599.35 198.02 601.14 199.81 601.14 202.02 z"/>
<title>Point C_1</title>
<desc>Point C_1: Intersection of c and i</desc>
</g> 
</g> 
<g id="pt-D_1">
<g class="point bottom">
  <path d="M 601.14 416.16 C 601.14 418.37 599.35 420.16 597.14 420.16 C 594.93 420.16 593.14 418.37 593.14 416.16 C 593.14 413.95 594.93 412.16 597.14 412.16 C 599.35 412.16 601.14 413.95 601.14 416.16 z"/>
<title>Point D_1</title>
<desc>Point D_1: Intersection of c and k</desc>
</g>
<g class="point top">
  <path d="M 601.14 416.16 C 601.14 418.37 599.35 420.16 597.14 420.16 C 594.93 420.16 593.14 418.37 593.14 416.16 C 593.14 413.95 594.93 412.16 597.14 412.16 C 599.35 412.16 601.14 413.95 601.14 416.16 z"/>
<title>Point D_1</title>
<desc>Point D_1: Intersection of c and k</desc>
</g> 
</g> 
<g id="pt-E_1">
<g class="point bottom">
  <path d="M 353.86 416.16 C 353.86 418.37 352.07 420.16 349.86 420.16 C 347.65 420.16 345.86 418.37 345.86 416.16 C 345.86 413.95 347.65 412.16 349.86 412.16 C 352.07 412.16 353.86 413.95 353.86 416.16 z"/>
<title>Point E_1</title>
<desc>Point E_1: Intersection of b and j</desc>
</g>
<g class="point top">
  <path d="M 353.86 416.16 C 353.86 418.37 352.07 420.16 349.86 420.16 C 347.65 420.16 345.86 418.37 345.86 416.16 C 345.86 413.95 347.65 412.16 349.86 412.16 C 352.07 412.16 353.86 413.95 353.86 416.16 z"/>
<title>Point E_1</title>
<desc>Point E_1: Intersection of b and j</desc>
</g> 
</g> 
<g id="pt-F_1">
<g class="point bottom">
  <path d="M 477.50 273.40 C 477.50 275.61 475.71 277.40 473.50 277.40 C 471.29 277.40 469.50 275.61 469.50 273.40 C 469.50 271.19 471.29 269.40 473.50 269.40 C 475.71 269.40 477.50 271.19 477.50 273.40 z"/>
<title>Point F_1</title>
<desc>Point F_1: Intersection of h_1 and g_1</desc>
</g>
<g class="point top">
  <path d="M 477.50 273.40 C 477.50 275.61 475.71 277.40 473.50 277.40 C 471.29 277.40 469.50 275.61 469.50 273.40 C 469.50 271.19 471.29 269.40 473.50 269.40 C 475.71 269.40 477.50 271.19 477.50 273.40 z"/>
<title>Point F_1</title>
<desc>Point F_1: Intersection of h_1 and g_1</desc>
</g> 
</g> 
<g id="pt-G_1">
<g class="point bottom">
  <path d="M 477.50 344.78 C 477.50 346.99 475.71 348.78 473.50 348.78 C 471.29 348.78 469.50 346.99 469.50 344.78 C 469.50 342.57 471.29 340.78 473.50 340.78 C 475.71 340.78 477.50 342.57 477.50 344.78 z"/>
<title>Point G_1</title>
<desc>Point G_1: Intersection of j_1 and i_1</desc>
</g>
<g class="point top">
  <path d="M 477.50 344.78 C 477.50 346.99 475.71 348.78 473.50 348.78 C 471.29 348.78 469.50 346.99 469.50 344.78 C 469.50 342.57 471.29 340.78 473.50 340.78 C 475.71 340.78 477.50 342.57 477.50 344.78 z"/>
<title>Point G_1</title>
<desc>Point G_1: Intersection of j_1 and i_1</desc>
</g> 
</g> 
<g id="pt-H_1">
<g class="point bottom">
  <path d="M 338.27 309.09 C 338.27 310.75 336.93 312.09 335.27 312.09 C 333.61 312.09 332.27 310.75 332.27 309.09 C 332.27 307.43 333.61 306.09 335.27 306.09 C 336.93 306.09 338.27 307.43 338.27 309.09 z"/>
<title>Point H_1</title>
<desc>Point H_1: Intersection point of d_1, a</desc>
</g> 
</g> 
<g id="pt-I_1">
<g class="point bottom">
  <path d="M 614.73 309.09 C 614.73 310.75 613.39 312.09 611.73 312.09 C 610.07 312.09 608.73 310.75 608.73 309.09 C 608.73 307.43 610.07 306.09 611.73 306.09 C 613.39 306.09 614.73 307.43 614.73 309.09 z"/>
<title>Point I_1</title>
<desc>Point I_1: Intersection point of d_1, a</desc>
</g> 
</g> 
<g id="pt-J_1">
<g class="point bottom">
  <path d="M 584.57 140.20 C 584.57 142.41 582.78 144.20 580.57 144.20 C 578.36 144.20 576.57 142.41 576.57 140.20 C 576.57 137.99 578.36 136.20 580.57 136.20 C 582.78 136.20 584.57 137.99 584.57 140.20 z"/>
<title>Point J_1</title>
<desc>Point J_1: Intersection of e_1 and l</desc>
</g>
<g class="point top">
  <path d="M 584.57 140.20 C 584.57 142.41 582.78 144.20 580.57 144.20 C 578.36 144.20 576.57 142.41 576.57 140.20 C 576.57 137.99 578.36 136.20 580.57 136.20 C 582.78 136.20 584.57 137.99 584.57 140.20 z"/>
<title>Point J_1</title>
<desc>Point J_1: Intersection of e_1 and l</desc>
</g> 
</g> 
<g id="pt-K_1">
<g class="point bottom">
  <path d="M 370.43 140.20 C 370.43 142.41 368.64 144.20 366.43 144.20 C 364.22 144.20 362.43 142.41 362.43 140.20 C 362.43 137.99 364.22 136.20 366.43 136.20 C 368.64 136.20 370.43 137.99 370.43 140.20 z"/>
<title>Point K_1</title>
<desc>Point K_1: Intersection of e_1 and n</desc>
</g>
<g class="point top">
  <path d="M 370.43 140.20 C 370.43 142.41 368.64 144.20 366.43 144.20 C 364.22 144.20 362.43 142.41 362.43 140.20 C 362.43 137.99 364.22 136.20 366.43 136.20 C 368.64 136.20 370.43 137.99 370.43 140.20 z"/>
<title>Point K_1</title>
<desc>Point K_1: Intersection of e_1 and n</desc>
</g> 
</g> 
<g id="pt-L_1">
<g class="point bottom">
  <path d="M 308.61 247.27 C 308.61 249.48 306.82 251.27 304.61 251.27 C 302.40 251.27 300.61 249.48 300.61 247.27 C 300.61 245.06 302.40 243.27 304.61 243.27 C 306.82 243.27 308.61 245.06 308.61 247.27 z"/>
<title>Point L_1</title>
<desc>Point L_1: Intersection of b and j_1</desc>
</g>
<g class="point top">
  <path d="M 308.61 247.27 C 308.61 249.48 306.82 251.27 304.61 251.27 C 302.40 251.27 300.61 249.48 300.61 247.27 C 300.61 245.06 302.40 243.27 304.61 243.27 C 306.82 243.27 308.61 245.06 308.61 247.27 z"/>
<title>Point L_1</title>
<desc>Point L_1: Intersection of b and j_1</desc>
</g> 
</g> 
<g id="pt-M_1">
<g class="point bottom">
  <path d="M 308.61 370.91 C 308.61 373.12 306.82 374.91 304.61 374.91 C 302.40 374.91 300.61 373.12 300.61 370.91 C 300.61 368.70 302.40 366.91 304.61 366.91 C 306.82 366.91 308.61 368.70 308.61 370.91 z"/>
<title>Point M_1</title>
<desc>Point M_1: Intersection of b and h_1</desc>
</g>
<g class="point top">
  <path d="M 308.61 370.91 C 308.61 373.12 306.82 374.91 304.61 374.91 C 302.40 374.91 300.61 373.12 300.61 370.91 C 300.61 368.70 302.40 366.91 304.61 366.91 C 306.82 366.91 308.61 368.70 308.61 370.91 z"/>
<title>Point M_1</title>
<desc>Point M_1: Intersection of b and h_1</desc>
</g> 
</g> 
<g id="pt-N_1">
<g class="point bottom">
  <path d="M 370.43 477.98 C 370.43 480.19 368.64 481.98 366.43 481.98 C 364.22 481.98 362.43 480.19 362.43 477.98 C 362.43 475.77 364.22 473.98 366.43 473.98 C 368.64 473.98 370.43 475.77 370.43 477.98 z"/>
<title>Point N_1</title>
<desc>Point N_1: Intersection of p_1 and p</desc>
</g>
<g class="point top">
  <path d="M 370.43 477.98 C 370.43 480.19 368.64 481.98 366.43 481.98 C 364.22 481.98 362.43 480.19 362.43 477.98 C 362.43 475.77 364.22 473.98 366.43 473.98 C 368.64 473.98 370.43 475.77 370.43 477.98 z"/>
<title>Point N_1</title>
<desc>Point N_1: Intersection of p_1 and p</desc>
</g> 
</g> 
<g id="pt-O_1">
<g class="point bottom">
  <path d="M 584.57 477.98 C 584.57 480.19 582.78 481.98 580.57 481.98 C 578.36 481.98 576.57 480.19 576.57 477.98 C 576.57 475.77 578.36 473.98 580.57 473.98 C 582.78 473.98 584.57 475.77 584.57 477.98 z"/>
<title>Point O_1</title>
<desc>Point O_1: Intersection of p_1 and m</desc>
</g>
<g class="point top">
  <path d="M 584.57 477.98 C 584.57 480.19 582.78 481.98 580.57 481.98 C 578.36 481.98 576.57 480.19 576.57 477.98 C 576.57 475.77 578.36 473.98 580.57 473.98 C 582.78 473.98 584.57 475.77 584.57 477.98 z"/>
<title>Point O_1</title>
<desc>Point O_1: Intersection of p_1 and m</desc>
</g> 
</g> 
<g id="pt-P_1">
<g class="point bottom">
  <path d="M 646.39 370.91 C 646.39 373.12 644.60 374.91 642.39 374.91 C 640.18 374.91 638.39 373.12 638.39 370.91 C 638.39 368.70 640.18 366.91 642.39 366.91 C 644.60 366.91 646.39 368.70 646.39 370.91 z"/>
<title>Point P_1</title>
<desc>Point P_1: Intersection of c and g_1</desc>
</g>
<g class="point top">
  <path d="M 646.39 370.91 C 646.39 373.12 644.60 374.91 642.39 374.91 C 640.18 374.91 638.39 373.12 638.39 370.91 C 638.39 368.70 640.18 366.91 642.39 366.91 C 644.60 366.91 646.39 368.70 646.39 370.91 z"/>
<title>Point P_1</title>
<desc>Point P_1: Intersection of c and g_1</desc>
</g> 
</g> 
<g id="pt-Q_1">
<g class="point bottom">
  <path d="M 646.39 247.27 C 646.39 249.48 644.60 251.27 642.39 251.27 C 640.18 251.27 638.39 249.48 638.39 247.27 C 638.39 245.06 640.18 243.27 642.39 243.27 C 644.60 243.27 646.39 245.06 646.39 247.27 z"/>
<title>Point Q_1</title>
<desc>Point Q_1: Intersection of c and i_1</desc>
</g>
<g class="point top">
  <path d="M 646.39 247.27 C 646.39 249.48 644.60 251.27 642.39 251.27 C 640.18 251.27 638.39 249.48 638.39 247.27 C 638.39 245.06 640.18 243.27 642.39 243.27 C 644.60 243.27 646.39 245.06 646.39 247.27 z"/>
<title>Point Q_1</title>
<desc>Point Q_1: Intersection of c and i_1</desc>
</g> 
</g> 
<g id="pt-R_1">
<g class="point bottom">
  <path d="M 292.05 185.45 C 292.05 187.66 290.25 189.45 288.05 189.45 C 285.84 189.45 284.05 187.66 284.05 185.45 C 284.05 183.25 285.84 181.45 288.05 181.45 C 290.25 181.45 292.05 183.25 292.05 185.45 z"/>
<title>Point R_1</title>
<desc>Point R_1: Intersection of q and n_1</desc>
</g>
<g class="point top">
  <path d="M 292.05 185.45 C 292.05 187.66 290.25 189.45 288.05 189.45 C 285.84 189.45 284.05 187.66 284.05 185.45 C 284.05 183.25 285.84 181.45 288.05 181.45 C 290.25 181.45 292.05 183.25 292.05 185.45 z"/>
<title>Point R_1</title>
<desc>Point R_1: Intersection of q and n_1</desc>
</g> 
</g> 
<g id="pt-S_1">
<g class="point bottom">
  <path d="M 662.95 185.45 C 662.95 187.66 661.16 189.45 658.95 189.45 C 656.75 189.45 654.95 187.66 654.95 185.45 C 654.95 183.25 656.75 181.45 658.95 181.45 C 661.16 181.45 662.95 183.25 662.95 185.45 z"/>
<title>Point S_1</title>
<desc>Point S_1: Intersection of r and n_1</desc>
</g>
<g class="point top">
  <path d="M 662.95 185.45 C 662.95 187.66 661.16 189.45 658.95 189.45 C 656.75 189.45 654.95 187.66 654.95 185.45 C 654.95 183.25 656.75 181.45 658.95 181.45 C 661.16 181.45 662.95 183.25 662.95 185.45 z"/>
<title>Point S_1</title>
<desc>Point S_1: Intersection of r and n_1</desc>
</g> 
</g> 
<g id="pt-T_1">
<g class="point bottom">
  <path d="M 292.05 432.73 C 292.05 434.94 290.25 436.73 288.05 436.73 C 285.84 436.73 284.05 434.94 284.05 432.73 C 284.05 430.52 285.84 428.73 288.05 428.73 C 290.25 428.73 292.05 430.52 292.05 432.73 z"/>
<title>Point T_1</title>
<desc>Point T_1: Intersection of q and q_1</desc>
</g>
<g class="point top">
  <path d="M 292.05 432.73 C 292.05 434.94 290.25 436.73 288.05 436.73 C 285.84 436.73 284.05 434.94 284.05 432.73 C 284.05 430.52 285.84 428.73 288.05 428.73 C 290.25 428.73 292.05 430.52 292.05 432.73 z"/>
<title>Point T_1</title>
<desc>Point T_1: Intersection of q and q_1</desc>
</g> 
</g> 
<g id="pt-U_1">
<g class="point bottom">
  <path d="M 662.95 432.73 C 662.95 434.94 661.16 436.73 658.95 436.73 C 656.75 436.73 654.95 434.94 654.95 432.73 C 654.95 430.52 656.75 428.73 658.95 428.73 C 661.16 428.73 662.95 430.52 662.95 432.73 z"/>
<title>Point U_1</title>
<desc>Point U_1: Intersection of r and q_1</desc>
</g>
<g class="point top">
  <path d="M 662.95 432.73 C 662.95 434.94 661.16 436.73 658.95 436.73 C 656.75 436.73 654.95 434.94 654.95 432.73 C 654.95 430.52 656.75 428.73 658.95 428.73 C 661.16 428.73 662.95 430.52 662.95 432.73 z"/>
<title>Point U_1</title>
<desc>Point U_1: Intersection of r and q_1</desc>
</g> 
</g> 
<g id="pt-V_1">
<g class="point bottom">
  <path d="M 477.50 185.45 C 477.50 187.66 475.71 189.45 473.50 189.45 C 471.29 189.45 469.50 187.66 469.50 185.45 C 469.50 183.25 471.29 181.45 473.50 181.45 C 475.71 181.45 477.50 183.25 477.50 185.45 z"/>
<title>Point V_1</title>
<desc>Point V_1: Intersection of d and n_1</desc>
</g>
<g class="point top">
  <path d="M 477.50 185.45 C 477.50 187.66 475.71 189.45 473.50 189.45 C 471.29 189.45 469.50 187.66 469.50 185.45 C 469.50 183.25 471.29 181.45 473.50 181.45 C 475.71 181.45 477.50 183.25 477.50 185.45 z"/>
<title>Point V_1</title>
<desc>Point V_1: Intersection of d and n_1</desc>
</g> 
</g> 
<g id="pt-W_1">
<g class="point bottom">
  <path d="M 477.50 432.73 C 477.50 434.94 475.71 436.73 473.50 436.73 C 471.29 436.73 469.50 434.94 469.50 432.73 C 469.50 430.52 471.29 428.73 473.50 428.73 C 475.71 428.73 477.50 430.52 477.50 432.73 z"/>
<title>Point W_1</title>
<desc>Point W_1: Intersection of q_1 and d</desc>
</g>
<g class="point top">
  <path d="M 477.50 432.73 C 477.50 434.94 475.71 436.73 473.50 436.73 C 471.29 436.73 469.50 434.94 469.50 432.73 C 469.50 430.52 471.29 428.73 473.50 428.73 C 475.71 428.73 477.50 430.52 477.50 432.73 z"/>
<title>Point W_1</title>
<desc>Point W_1: Intersection of q_1 and d</desc>
</g> 
</g> 
<g id="pt-Z_1">
<g class="point bottom">
  <path d="M 477.50 487.54 C 477.50 489.75 475.71 491.54 473.50 491.54 C 471.29 491.54 469.50 489.75 469.50 487.54 C 469.50 485.34 471.29 483.54 473.50 483.54 C 475.71 483.54 477.50 485.34 477.50 487.54 z"/>
<title>Point Z_1</title>
<desc>Point Z_1: Intersection of d_1 and d</desc>
</g>
<g class="point top">
  <path d="M 477.50 487.54 C 477.50 489.75 475.71 491.54 473.50 491.54 C 471.29 491.54 469.50 489.75 469.50 487.54 C 469.50 485.34 471.29 483.54 473.50 483.54 C 475.71 483.54 477.50 485.34 477.50 487.54 z"/>
<title>Point Z_1</title>
<desc>Point Z_1: Intersection of d_1 and d</desc>
</g> 
</g> 
<g id="pt-A_2">
<g class="point bottom">
  <path d="M 292.05 380.47 C 292.05 382.68 290.25 384.47 288.05 384.47 C 285.84 384.47 284.05 382.68 284.05 380.47 C 284.05 378.26 285.84 376.47 288.05 376.47 C 290.25 376.47 292.05 378.26 292.05 380.47 z"/>
<title>Point A_2</title>
<desc>Point A_2: Intersection of q and h_1</desc>
</g>
<g class="point top">
  <path d="M 292.05 380.47 C 292.05 382.68 290.25 384.47 288.05 384.47 C 285.84 384.47 284.05 382.68 284.05 380.47 C 284.05 378.26 285.84 376.47 288.05 376.47 C 290.25 376.47 292.05 378.26 292.05 380.47 z"/>
<title>Point A_2</title>
<desc>Point A_2: Intersection of q and h_1</desc>
</g> 
</g> 
<g id="pt-D_2">
<g class="point bottom">
  <path d="M 230.23 416.16 C 230.23 418.37 228.44 420.16 226.23 420.16 C 224.02 420.16 222.23 418.37 222.23 416.16 C 222.23 413.95 224.02 412.16 226.23 412.16 C 228.44 412.16 230.23 413.95 230.23 416.16 z"/>
<title>Point D_2</title>
<desc>Point D_2: Intersection of f_1 and h_1</desc>
</g>
<g class="point top">
  <path d="M 230.23 416.16 C 230.23 418.37 228.44 420.16 226.23 420.16 C 224.02 420.16 222.23 418.37 222.23 416.16 C 222.23 413.95 224.02 412.16 226.23 412.16 C 228.44 412.16 230.23 413.95 230.23 416.16 z"/>
<title>Point D_2</title>
<desc>Point D_2: Intersection of f_1 and h_1</desc>
</g> 
</g> 
<g id="pt-E_2">
<g class="point bottom">
  <path d="M 230.23 130.64 C 230.23 132.85 228.44 134.64 226.23 134.64 C 224.02 134.64 222.23 132.85 222.23 130.64 C 222.23 128.43 224.02 126.64 226.23 126.64 C 228.44 126.64 230.23 128.43 230.23 130.64 z"/>
<title>Point E_2</title>
<desc>Point E_2: Intersection point of d_3, e_3</desc>
</g>
<g class="point top">
  <path d="M 230.23 130.64 C 230.23 132.85 228.44 134.64 226.23 134.64 C 224.02 134.64 222.23 132.85 222.23 130.64 C 222.23 128.43 224.02 126.64 226.23 126.64 C 228.44 126.64 230.23 128.43 230.23 130.64 z"/>
<title>Point E_2</title>
<desc>Point E_2: Intersection point of d_3, e_3</desc>
</g> 
</g> 
<g id="pt-F_2">
<g class="point bottom">
  <path d="M 477.50 558.93 C 477.50 561.14 475.71 562.93 473.50 562.93 C 471.29 562.93 469.50 561.14 469.50 558.93 C 469.50 556.72 471.29 554.93 473.50 554.93 C 475.71 554.93 477.50 556.72 477.50 558.93 z"/>
<title>Point F_2</title>
<desc>Point F_2: Intersection point of d_3, e_3</desc>
</g>
<g class="point top">
  <path d="M 477.50 558.93 C 477.50 561.14 475.71 562.93 473.50 562.93 C 471.29 562.93 469.50 561.14 469.50 558.93 C 469.50 556.72 471.29 554.93 473.50 554.93 C 475.71 554.93 477.50 556.72 477.50 558.93 z"/>
<title>Point F_2</title>
<desc>Point F_2: Intersection point of d_3, e_3</desc>
</g> 
</g> 
<g id="pt-G_2">
<g class="point bottom">
  <path d="M 615.73 309.09 C 615.73 311.30 613.94 313.09 611.73 313.09 C 609.52 313.09 607.73 311.30 607.73 309.09 C 607.73 306.88 609.52 305.09 611.73 305.09 C 613.94 305.09 615.73 306.88 615.73 309.09 z"/>
<title>Point G_2</title>
<desc>Point G_2: Intersection of d_2 and r_2</desc>
</g>
<g class="point top">
  <path d="M 615.73 309.09 C 615.73 311.30 613.94 313.09 611.73 313.09 C 609.52 313.09 607.73 311.30 607.73 309.09 C 607.73 306.88 609.52 305.09 611.73 305.09 C 613.94 305.09 615.73 306.88 615.73 309.09 z"/>
<title>Point G_2</title>
<desc>Point G_2: Intersection of d_2 and r_2</desc>
</g> 
</g> 
<g id="pt-H_2">
<g class="point bottom">
  <path d="M 570.23 255.55 C 570.23 257.76 568.44 259.55 566.23 259.55 C 564.02 259.55 562.23 257.76 562.23 255.55 C 562.23 253.35 564.02 251.55 566.23 251.55 C 568.44 251.55 570.23 253.35 570.23 255.55 z"/>
<title>Point H_2</title>
<desc>Point H_2: Intersection of i and n</desc>
</g>
<g class="point top">
  <path d="M 570.23 255.55 C 570.23 257.76 568.44 259.55 566.23 259.55 C 564.02 259.55 562.23 257.76 562.23 255.55 C 562.23 253.35 564.02 251.55 566.23 251.55 C 568.44 251.55 570.23 253.35 570.23 255.55 z"/>
<title>Point H_2</title>
<desc>Point H_2: Intersection of i and n</desc>
</g> 
</g> 
<g id="pt-I_2">
<g class="point bottom">
  <path d="M 601.14 247.27 C 601.14 249.48 599.35 251.27 597.14 251.27 C 594.93 251.27 593.14 249.48 593.14 247.27 C 593.14 245.06 594.93 243.27 597.14 243.27 C 599.35 243.27 601.14 245.06 601.14 247.27 z"/>
<title>Point I_2</title>
<desc>Point I_2: Intersection of n_2 and h_3</desc>
</g>
<g class="point top">
  <path d="M 601.14 247.27 C 601.14 249.48 599.35 251.27 597.14 251.27 C 594.93 251.27 593.14 249.48 593.14 247.27 C 593.14 245.06 594.93 243.27 597.14 243.27 C 599.35 243.27 601.14 245.06 601.14 247.27 z"/>
<title>Point I_2</title>
<desc>Point I_2: Intersection of n_2 and h_3</desc>
</g> 
</g> 
<g id="pt-K_2">
<g class="point bottom">
  <path d="M 477.50 370.91 C 477.50 373.12 475.71 374.91 473.50 374.91 C 471.29 374.91 469.50 373.12 469.50 370.91 C 469.50 368.70 471.29 366.91 473.50 366.91 C 475.71 366.91 477.50 368.70 477.50 370.91 z"/>
<title>Point K_2</title>
<desc>Point K_2: Intersection of n_2 and m_2</desc>
</g>
<g class="point top">
  <path d="M 477.50 370.91 C 477.50 373.12 475.71 374.91 473.50 374.91 C 471.29 374.91 469.50 373.12 469.50 370.91 C 469.50 368.70 471.29 366.91 473.50 366.91 C 475.71 366.91 477.50 368.70 477.50 370.91 z"/>
<title>Point K_2</title>
<desc>Point K_2: Intersection of n_2 and m_2</desc>
</g> 
</g> 
<g id="pt-L_2">
<g class="point bottom">
  <path d="M 339.27 232.68 C 339.27 234.89 337.48 236.68 335.27 236.68 C 333.06 236.68 331.27 234.89 331.27 232.68 C 331.27 230.47 333.06 228.68 335.27 228.68 C 337.48 228.68 339.27 230.47 339.27 232.68 z"/>
<title>Point L_2</title>
<desc>Point L_2: Intersection point of k_3, m_2</desc>
</g>
<g class="point top">
  <path d="M 339.27 232.68 C 339.27 234.89 337.48 236.68 335.27 236.68 C 333.06 236.68 331.27 234.89 331.27 232.68 C 331.27 230.47 333.06 228.68 335.27 228.68 C 337.48 228.68 339.27 230.47 339.27 232.68 z"/>
<title>Point L_2</title>
<desc>Point L_2: Intersection point of k_3, m_2</desc>
</g> 
</g> 
<g id="pt-M_2">
<g class="point bottom">
  <path d="M 615.73 509.14 C 615.73 511.35 613.94 513.14 611.73 513.14 C 609.52 513.14 607.73 511.35 607.73 509.14 C 607.73 506.93 609.52 505.14 611.73 505.14 C 613.94 505.14 615.73 506.93 615.73 509.14 z"/>
<title>Point M_2</title>
<desc>Point M_2: Intersection point of k_3, m_2</desc>
</g>
<g class="point top">
  <path d="M 615.73 509.14 C 615.73 511.35 613.94 513.14 611.73 513.14 C 609.52 513.14 607.73 511.35 607.73 509.14 C 607.73 506.93 609.52 505.14 611.73 505.14 C 613.94 505.14 615.73 506.93 615.73 509.14 z"/>
<title>Point M_2</title>
<desc>Point M_2: Intersection point of k_3, m_2</desc>
</g> 
</g> 
<g id="pt-N_2">
<g class="point bottom">
  <path d="M 339.27 509.14 C 339.27 511.35 337.48 513.14 335.27 513.14 C 333.06 513.14 331.27 511.35 331.27 509.14 C 331.27 506.93 333.06 505.14 335.27 505.14 C 337.48 505.14 339.27 506.93 339.27 509.14 z"/>
<title>Point N_2</title>
<desc>Point N_2: Intersection point of k_3, n_2</desc>
</g>
<g class="point top">
  <path d="M 339.27 509.14 C 339.27 511.35 337.48 513.14 335.27 513.14 C 333.06 513.14 331.27 511.35 331.27 509.14 C 331.27 506.93 333.06 505.14 335.27 505.14 C 337.48 505.14 339.27 506.93 339.27 509.14 z"/>
<title>Point N_2</title>
<desc>Point N_2: Intersection point of k_3, n_2</desc>
</g> 
</g> 
<g id="pt-O_2">
<g class="point bottom">
  <path d="M 615.73 232.68 C 615.73 234.89 613.94 236.68 611.73 236.68 C 609.52 236.68 607.73 234.89 607.73 232.68 C 607.73 230.47 609.52 228.68 611.73 228.68 C 613.94 228.68 615.73 230.47 615.73 232.68 z"/>
<title>Point O_2</title>
<desc>Point O_2: Intersection point of k_3, n_2</desc>
</g>
<g class="point top">
  <path d="M 615.73 232.68 C 615.73 234.89 613.94 236.68 611.73 236.68 C 609.52 236.68 607.73 234.89 607.73 232.68 C 607.73 230.47 609.52 228.68 611.73 228.68 C 613.94 228.68 615.73 230.47 615.73 232.68 z"/>
<title>Point O_2</title>
<desc>Point O_2: Intersection point of k_3, n_2</desc>
</g> 
</g> 
</g>
</g> 
</svg> 
