<svg
     version="1.1"
     baseProfile="full"
     xmlns="http://www.w3.org/2000/svg"
     xmlns:xlink="http://www.w3.org/1999/xlink"
     xmlns:ev="http://www.w3.org/2001/xml-events"
     viewBox="0 0 1251 778"
     >
<style>
* {
  fill-rule: nonzero;
  stroke-linejoin: round;
  stroke-width: 0.1em;
  stroke-linecap: butt;

}

text {
  fill-opacity: 1.0000;
  font-style: normal;
  font-family: Helvetica;
  font-weight: normal;
  stroke: none;
  fill: #ffcc66;
  font-size: 1em;
  opacity: 0;
  x: 0;
  y: 0;
}
path {
  stroke-opacity: 0.5;
}

.point path {
  stroke: black;
  stroke-width: 2;
  stroke-opacity: 1;
  fill: white;
  fill-opacity: 1;
}

.point.bottom path {
  stroke: #FC0;
  stroke-width: 8;
  stroke-opacity: 0;
}

.line {
  stroke: #FFF;
  stroke-dasharray: 1.5 3;
  stroke-linejoin: round;
  stroke-linecap: butt;
}
.line > path {
  /* stroke-opacity: 0.5; */
}

.circle {
  stroke: #808080;
  stroke-width: 3;
  /* stroke-opacity: 0.3; */
  stroke-linejoin: round;
  stroke-linecap: butt;

  fill: none;
}

.polygon {
  stroke-width: 5;

  stroke-linejoin: round;
  stroke-linecap: butt;

  fill: #CCC;
  fill-opacity: 0.3;
  opacity: 1;
}
.bisector {
  stroke-dasharray: 13, 5, 3, 5;

}
.segment path {
  stroke-width: 5;
  stroke-linecap: round;
  stroke-opacity: 0.3;

  stroke: #C90;
  stroke-opacity: 0;
  fill-opacity: 0;
  opacity: 0;
}
.a path {
  stroke-width: 3;
}
.b path {
  stroke-width: 5;
}
[class~="a+b"] path {
  stroke-width: 8;
}
[class~="a+2b"] path {
  stroke-width: 13;
}

.golden path {
  stroke-opacity: 0.8;
}

.golden text {
  opacity: 0.8;
}

.s-ff6699 path {
  stroke: #ff6699;
  stroke-dasharray: none;
}

.s-66ccff path {
  stroke: #66ccff;
}

.s-cc66ff path {
  stroke: #cc66ff;
}

#c-d path {
  /* stroke: none; */
}

[id^="sg-g0"] .segment path {
  stroke-opacity: 0.8;
  opacity: 0.8;
}
[id^="sg-g0"] text {
  stroke-opacity: 0.8;
  opacity: 0.8;
}

#pt-A .bottom path{
  stroke-opacity: 0.8;
  opacity: 0.8;
}
#pt-B .bottom path{
  stroke-opacity: 0.8;
  opacity: 0.8;
}
</style>
<title>
</title>
<g stroke-linejoin="miter" stroke-dashoffset="0.0000" stroke-dasharray="none" stroke-width="1.0000" stroke-miterlimit="10.000" stroke-linecap="square">
<g>
<g class=" s-000000">
  <path d="M 0.0000 0.0000 L 1251.0 0.0000 L 1251.0 778.00 L 0.0000 778.00 L 0.0000 0.0000 z"/>
</g>
<g class="point top">
  <path d="M 485.03 2.0000 L 485.03 778.00"/>
</g>
<g class="point top">
  <path d="M 485.03 1.0000 L 482.03 4.0000"/>
</g>
<g class="point top">
  <path d="M 485.03 1.0000 L 488.03 4.0000"/>
</g>
<g class="point top">
  <path d="M 0.0000 439.08 L 1249.0 439.08"/>
</g>
<g class="point top">
  <path d="M 1250.0 439.08 L 1247.0 436.08"/>
</g>
<g class="point top">
  <path d="M 1250.0 439.08 L 1247.0 442.08"/>
</g>
<g transform="matrix(1.0000, 0.0000, 0.0000, 1.0000, 38.000, 453.00)">
<text>&#x2013;1.6</text>
</g>
<g class="point top">
  <path d="M 47.271 439.08 L 47.271 442.08"/>
</g>
</g>
<g transform="matrix(1.0000, 0.0000, 0.0000, 1.0000, 92.000, 453.00)">
<text>&#x2013;1.4</text>
</g>
<g class="point top">
  <path d="M 101.99 439.08 L 101.99 442.08"/>
</g>
</g>
<g transform="matrix(1.0000, 0.0000, 0.0000, 1.0000, 147.00, 453.00)">
<text>&#x2013;1.2</text>
</g>
<g class="point top">
  <path d="M 156.71 439.08 L 156.71 442.08"/>
</g>
</g>
<g transform="matrix(1.0000, 0.0000, 0.0000, 1.0000, 207.00, 453.00)">
<text>&#x2013;1</text>
</g>
<g class="point top">
  <path d="M 211.43 439.08 L 211.43 442.08"/>
</g>
</g>
<g transform="matrix(1.0000, 0.0000, 0.0000, 1.0000, 257.00, 453.00)">
<text>&#x2013;0.8</text>
</g>
<g class="point top">
  <path d="M 266.15 439.08 L 266.15 442.08"/>
</g>
</g>
<g transform="matrix(1.0000, 0.0000, 0.0000, 1.0000, 311.00, 453.00)">
<text>&#x2013;0.6</text>
</g>
<g class="point top">
  <path d="M 320.87 439.08 L 320.87 442.08"/>
</g>
</g>
<g transform="matrix(1.0000, 0.0000, 0.0000, 1.0000, 366.00, 453.00)">
<text>&#x2013;0.4</text>
</g>
<g class="point top">
  <path d="M 375.59 439.08 L 375.59 442.08"/>
</g>
</g>
<g transform="matrix(1.0000, 0.0000, 0.0000, 1.0000, 421.00, 453.00)">
<text>&#x2013;0.2</text>
</g>
<g class="point top">
  <path d="M 430.31 439.08 L 430.31 442.08"/>
</g>
<g class="point top">
  <path d="M 485.03 439.08 L 485.03 442.08"/>
</g>
<g transform="matrix(1.0000, 0.0000, 0.0000, 1.0000, 533.00, 453.00)">
<text>0.2</text>
</g>
<g class="point top">
  <path d="M 539.75 439.08 L 539.75 442.08"/>
</g>
</g>
<g transform="matrix(1.0000, 0.0000, 0.0000, 1.0000, 587.00, 453.00)">
<text>0.4</text>
</g>
<g class="point top">
  <path d="M 594.47 439.08 L 594.47 442.08"/>
</g>
</g>
<g transform="matrix(1.0000, 0.0000, 0.0000, 1.0000, 642.00, 453.00)">
<text>0.6</text>
</g>
<g class="point top">
  <path d="M 649.19 439.08 L 649.19 442.08"/>
</g>
</g>
<g transform="matrix(1.0000, 0.0000, 0.0000, 1.0000, 697.00, 453.00)">
<text>0.8</text>
</g>
<g class="point top">
  <path d="M 703.91 439.08 L 703.91 442.08"/>
</g>
</g>
<g transform="matrix(1.0000, 0.0000, 0.0000, 1.0000, 757.00, 453.00)">
<text>1</text>
</g>
<g class="point top">
  <path d="M 758.63 439.08 L 758.63 442.08"/>
</g>
</g>
<g transform="matrix(1.0000, 0.0000, 0.0000, 1.0000, 806.00, 453.00)">
<text>1.2</text>
</g>
<g class="point top">
  <path d="M 813.35 439.08 L 813.35 442.08"/>
</g>
</g>
<g transform="matrix(1.0000, 0.0000, 0.0000, 1.0000, 861.00, 453.00)">
<text>1.4</text>
</g>
<g class="point top">
  <path d="M 868.07 439.08 L 868.07 442.08"/>
</g>
</g>
<g transform="matrix(1.0000, 0.0000, 0.0000, 1.0000, 916.00, 453.00)">
<text>1.6</text>
</g>
<g class="point top">
  <path d="M 922.79 439.08 L 922.79 442.08"/>
</g>
</g>
<g transform="matrix(1.0000, 0.0000, 0.0000, 1.0000, 971.00, 453.00)">
<text>1.8</text>
</g>
<g class="point top">
  <path d="M 977.51 439.08 L 977.51 442.08"/>
</g>
</g>
<g transform="matrix(1.0000, 0.0000, 0.0000, 1.0000, 1030.0, 453.00)">
<text>2</text>
</g>
<g class="point top">
  <path d="M 1032.2 439.08 L 1032.2 442.08"/>
</g>
</g>
<g transform="matrix(1.0000, 0.0000, 0.0000, 1.0000, 1080.0, 453.00)">
<text>2.2</text>
</g>
<g class="point top">
  <path d="M 1086.9 439.08 L 1086.9 442.08"/>
</g>
</g>
<g transform="matrix(1.0000, 0.0000, 0.0000, 1.0000, 1135.0, 453.00)">
<text>2.4</text>
</g>
<g class="point top">
  <path d="M 1141.7 439.08 L 1141.7 442.08"/>
</g>
</g>
<g transform="matrix(1.0000, 0.0000, 0.0000, 1.0000, 1189.0, 453.00)">
<text>2.6</text>
</g>
<g class="point top">
  <path d="M 1196.4 439.08 L 1196.4 442.08"/>
</g>
<g class="point top">
  <path d="M 482.03 767.40 L 485.03 767.40"/>
</g>
<g class="point top">
  <path d="M 482.03 712.68 L 485.03 712.68"/>
</g>
<g class="point top">
  <path d="M 482.03 657.96 L 485.03 657.96"/>
</g>
<g class="point top">
  <path d="M 482.03 603.24 L 485.03 603.24"/>
</g>
<g class="point top">
  <path d="M 482.03 548.52 L 485.03 548.52"/>
</g>
<g class="point top">
  <path d="M 482.03 493.80 L 485.03 493.80"/>
</g>
<g class="point top">
  <path d="M 482.03 384.36 L 485.03 384.36"/>
</g>
<g class="point top">
  <path d="M 482.03 329.64 L 485.03 329.64"/>
</g>
<g class="point top">
  <path d="M 482.03 274.92 L 485.03 274.92"/>
</g>
<g class="point top">
  <path d="M 482.03 220.20 L 485.03 220.20"/>
</g>
<g class="point top">
  <path d="M 482.03 165.48 L 485.03 165.48"/>
</g>
<g class="point top">
  <path d="M 482.03 110.76 L 485.03 110.76"/>
</g>
<g class="point top">
  <path d="M 482.03 56.045 L 485.03 56.045"/>
</g>
<g transform="matrix(1.0000, 0.0000, 0.0000, 1.0000, 458.00, 771.00)">
<text>&#x2013;1.2</text>
</g>
<g transform="matrix(1.0000, 0.0000, 0.0000, 1.0000, 467.00, 716.00)">
<text>&#x2013;1</text>
</g>
<g transform="matrix(1.0000, 0.0000, 0.0000, 1.0000, 458.00, 661.00)">
<text>&#x2013;0.8</text>
</g>
<g transform="matrix(1.0000, 0.0000, 0.0000, 1.0000, 458.00, 607.00)">
<text>&#x2013;0.6</text>
</g>
<g transform="matrix(1.0000, 0.0000, 0.0000, 1.0000, 458.00, 552.00)">
<text>&#x2013;0.4</text>
</g>
<g transform="matrix(1.0000, 0.0000, 0.0000, 1.0000, 458.00, 497.00)">
<text>&#x2013;0.2</text>
</g>
<g transform="matrix(1.0000, 0.0000, 0.0000, 1.0000, 463.00, 388.00)">
<text>0.2</text>
</g>
<g transform="matrix(1.0000, 0.0000, 0.0000, 1.0000, 463.00, 333.00)">
<text>0.4</text>
</g>
<g transform="matrix(1.0000, 0.0000, 0.0000, 1.0000, 463.00, 278.00)">
<text>0.6</text>
</g>
<g transform="matrix(1.0000, 0.0000, 0.0000, 1.0000, 463.00, 224.00)">
<text>0.8</text>
</g>
<g transform="matrix(1.0000, 0.0000, 0.0000, 1.0000, 472.00, 169.00)">
<text>1</text>
</g>
<g transform="matrix(1.0000, 0.0000, 0.0000, 1.0000, 463.00, 114.00)">
<text>1.2</text>
</g>
<g transform="matrix(1.0000, 0.0000, 0.0000, 1.0000, 463.00, 60.000)">
<text>1.4</text>
</g>
<g transform="matrix(1.0000, 0.0000, 0.0000, 1.0000, 472.00, 453.00)">
<text>0</text>
</g>
</g>
<g id="misc">
</g>
<g id="base">
<g id="sg-sG01d">
<g stroke-width="3.5000" fill="none" stroke="#ff6699">
  <path d="M 348.23 202.14 L 724.43 571.54"/>
<title>Segment sG01d</title>
<desc>Segment sG01d: Segment W, V</desc>
</g>
</g>
<g id="sg-t_1">
<g stroke-width="3.5000" fill="none" stroke="#7f00ff">
  <path d="M 519.23 306.63 L 895.43 676.03"/>
<title>Segment t_1</title>
<desc>Segment t_1: Segment G_1, F_1</desc>
</g>
</g>
<g id="sg-sG02a">
<g stroke-width="3.5000" fill="none" stroke="#66ff00">
  <path d="M 519.23 571.54 L 895.43 202.14"/>
<title>Segment sG02a</title>
<desc>Segment sG02a: Segment C_1, D_1</desc>
</g>
</g>
<g id="sg-sG01b">
<g stroke-width="3.5000" fill="none" stroke="#ff6699">
  <path d="M 553.43 704.00 L 621.83 202.14"/>
<title>Segment sG01b</title>
<desc>Segment sG01b: Segment L, Cs</desc>
</g>
</g>
<g id="sg-sG02b">
<g stroke-width="3.5000" fill="none" stroke="#66ff00">
  <path d="M 621.83 676.03 L 690.23 174.17"/>
<title>Segment sG02b</title>
<desc>Segment sG02b: Segment Cn, A_1</desc>
</g>
</g>
<g id="sg-sG02c">
<g stroke-width="3.5000" fill="none" stroke="#66ff00">
  <path d="M 690.23 704.00 L 621.83 202.14"/>
<title>Segment sG02c</title>
<desc>Segment sG02c: Segment T, Cs</desc>
</g>
</g>
<g id="sg-sG01c">
<g stroke-width="3.5000" fill="none" stroke="#ff6699">
  <path d="M 621.83 676.03 L 553.43 174.17"/>
<title>Segment sG01c</title>
<desc>Segment sG01c: Segment Cn, U</desc>
</g>
</g>
<g id="sg-s_2">
<g stroke-width="3.5000" fill="none" stroke="#006400">
  <path d="M 947.45 546.44 L 387.42 343.24"/>
<title>Segment s_2</title>
<desc>Segment s_2: Segment Z_1, A_2</desc>
</g>
</g>
</g>
<g id="layer1">
</g>
<g id="layer2">
</g>
<g id="layer3">
</g>
<g id="layer4">
</g>
<g id="layer5">
<g id="i-t_2">
<g class="line s-a0a0a0">
  <path d="M -5.0000 296.79 L 1121.3 -5.0000"/>
<title>Line t_2</title>
<desc>Line t_2: Line Z, W</desc>
</g>
</g>
<g id="i-r_2">
<g class="line s-a0a0a0">
  <path d="M -5.0000 200.85 L 1256.0 658.40"/>
<title>Line r_2</title>
<desc>Line r_2: Line Z_1, A_2</desc>
</g>
</g>
<g id="i-r_1">
<g class="line s-a0a0a0">
  <path d="M 701.00 783.00 L 593.60 -5.0000"/>
<title>Line r_1</title>
<desc>Line r_1: Line T, Cs</desc>
</g>
</g>
<g id="i-q_2">
<g class="line s-a0a0a0">
  <path d="M -5.0000 165.56 L 412.14 -5.0000"/>
<title>Line q_2</title>
<desc>Line q_2: Line I, Q_1</desc>
</g>
</g>
<g id="i-q_1">
<g class="line s-a0a0a0">
  <path d="M 455.15 783.00 L 789.98 -5.0000"/>
<title>Line q_1</title>
<desc>Line q_1: Line I_1, K</desc>
</g>
</g>
<g id="i-p_2">
<g class="line s-a0a0a0">
  <path d="M 543.92 783.00 L 638.80 -5.0000"/>
<title>Line p_2</title>
<desc>Line p_2: Line L, P_1</desc>
</g>
</g>
<g id="i-p_1">
<g class="line s-a0a0a0">
  <path d="M 201.87 -5.0000 L 1004.4 783.00"/>
<title>Line p_1</title>
<desc>Line p_1: Line F_1, G_1</desc>
</g>
</g>
<g id="i-n_2">
<g class="line s-a0a0a0">
  <path d="M 767.56 783.00 L 667.47 -5.0000"/>
<title>Line n_2</title>
<desc>Line n_2: Line R, A_1</desc>
</g>
</g>
<g id="i-n_1">
<g class="line s-a0a0a0">
  <path d="M -5.0000 12.066 L 1040.5 783.00"/>
<title>Line n_1</title>
<desc>Line n_1: Line F_1, C_2</desc>
</g>
</g>
<g id="i-nG02a">
<g class="line s-a0a0a0">
  <path d="M 607.25 783.00 L 714.65 -5.0000"/>
<title>Line nG02a</title>
<desc>Line nG02a: Line Cn, A_1</desc>
</g>
</g>
<g id="i-m_2">
<g class="line s-a0a0a0">
  <path d="M -5.0000 103.24 L 1256.0 263.41"/>
<title>Line m_2</title>
<desc>Line m_2: Line Z, U</desc>
</g>
</g>
<g id="i-m_1">
<g class="line s-a0a0a0">
  <path d="M 523.33 783.00 L 823.59 -5.0000"/>
<title>Line m_1</title>
<desc>Line m_1: Line L, E_1</desc>
</g>
</g>
<g id="i-l_2">
<g class="line s-a0a0a0">
  <path d="M 924.09 783.00 L 712.95 -5.0000"/>
<title>Line l_2</title>
<desc>Line l_2: Line F_1, E_1</desc>
</g>
</g>
<g id="i-l_1">
<g class="line s-a0a0a0">
  <path d="M 303.88 783.00 L 1106.4 -5.0000"/>
<title>Line l_1</title>
<desc>Line l_1: Line C_1, D_1</desc>
</g>
</g>
<g id="i-l">
<g class="line s-a0a0a0">
  <path d="M 847.43 783.00 L 643.97 -5.0000"/>
<title>Line l</title>
<desc>Line l: Line O, P</desc>
</g>
</g>
<g id="i-k_2">
<g class="line s-a0a0a0">
  <path d="M 785.42 783.00 L 485.16 -5.0000"/>
<title>Line k_2</title>
<desc>Line k_2: Line R, U</desc>
</g>
</g>
<g id="i-k_1">
<g class="line s-a0a0a0">
  <path d="M -5.0000 144.74 L 1256.0 198.13"/>
<title>Line k_1</title>
<desc>Line k_1: Line Z, A_1</desc>
</g>
</g>
<g id="i-k">
<g class="line s-a0a0a0">
  <path d="M 542.66 783.00 L 650.06 -5.0000"/>
<title>Line k</title>
<desc>Line k: Line L, Cs</desc>
</g>
</g>
<g id="i-j_1">
<g class="line s-a0a0a0">
  <path d="M 137.28 -5.0000 L 939.78 783.00"/>
<title>Line j_1</title>
<desc>Line j_1: Line V, W</desc>
</g>
</g>
<g id="i-j">
<g class="line s-a0a0a0">
  <path d="M 485.03 783.00 L 485.03 -5.0000"/>
<title>Line j</title>
<desc>Line j: Line I, J</desc>
</g>
</g>
<g id="i-i_1">
<g class="line s-a0a0a0">
  <path d="M 636.41 783.00 L 529.01 -5.0000"/>
<title>Line i_1</title>
<desc>Line i_1: Line U, Cn</desc>
</g>
</g>
<g id="i-i">
<g class="line s-a0a0a0">
  <path d="M 758.63 783.00 L 758.63 -5.0000"/>
<title>Line i</title>
<desc>Line i: Line G, H</desc>
</g>
</g>
<g id="i-h_1">
<g class="line s-a0a0a0">
  <path d="M 720.26 783.00 L 420.74 -5.0000"/>
<title>Line h_1</title>
<desc>Line h_1: Line T, G01</desc>
</g>
</g>
<g id="i-h">
<g class="line s-a0a0a0">
  <path d="M 621.83 783.00 L 621.83 -5.0000"/>
<title>Line h</title>
<desc>Line h: Line Cn, Cs</desc>
</g>
</g>
<g id="i-g_1">
<g class="line s-a0a0a0">
  <path d="M -5.0000 582.27 L 1256.0 563.72"/>
<title>Line g_1</title>
<desc>Line g_1: Line V, N</desc>
</g>
</g>
<g id="i-f_1">
<g class="line s-a0a0a0">
  <path d="M 70.495 -5.0000 L 1127.1 783.00"/>
<title>Line f_1</title>
<desc>Line f_1: Line W, I_1</desc>
</g>
</g>
<g id="i-f">
<g class="line s-a0a0a0">
  <path d="M -5.0000 439.08 L 1256.0 439.08"/>
<title>Line f</title>
<desc>Line f: Line A, B</desc>
</g>
</g>
<g id="i-b_2">
<g class="line s-a0a0a0">
  <path d="M 683.59 783.00 L 228.64 -5.0000"/>
<title>Line b_2</title>
<desc>Line b_2: Line Cn, W</desc>
</g>
</g>
<g id="i-a_2">
<g class="line s-a0a0a0">
  <path d="M 585.73 783.00 L 263.53 -5.0000"/>
<title>Line a_2</title>
<desc>Line a_2: Line L, W</desc>
</g>
</g>
<g id="i-a">
<g class="line s-a0a0a0">
  <path d="M -5.0000 452.23 L 1256.0 101.99"/>
<title>Line a</title>
<desc>Line a: Line D_1, A_2</desc>
</g>
</g>
</g>
<g id="layer6">
<g id="c-r">
<g class="circle s-006400">
  <path d="M 895.43 676.03 C 895.43 827.13 772.93 949.63 621.83 949.63 C 470.73 949.63 348.23 827.13 348.23 676.03 C 348.23 524.92 470.73 402.43 621.83 402.43 C 772.93 402.43 895.43 524.92 895.43 676.03 z"/>
<title>Circle r</title>
<desc>Circle r: Circle through A with center Cn</desc>
</g>
</g>
<g id="c-q">
<g class="circle s-ff6699">
  <path d="M 621.83 439.08 C 621.83 514.64 560.58 575.88 485.03 575.88 C 409.48 575.88 348.23 514.64 348.23 439.08 C 348.23 363.53 409.48 302.28 485.03 302.28 C 560.58 302.28 621.83 363.53 621.83 439.08 z"/>
<title>Circle q</title>
<desc>Circle q: Circle through MAB with center A</desc>
</g>
</g>
<g id="c-p">
<g class="circle s-66ccff">
  <path d="M 895.43 439.08 C 895.43 514.64 834.18 575.88 758.63 575.88 C 683.08 575.88 621.83 514.64 621.83 439.08 C 621.83 363.53 683.08 302.28 758.63 302.28 C 834.18 302.28 895.43 363.53 895.43 439.08 z"/>
<title>Circle p</title>
<desc>Circle p: Circle through MAB with center B</desc>
</g>
</g>
<g>
<g stroke-dasharray="5.0000,4.0000" class="point top">
  <path d="M 1579.4 439.08 C 1579.4 741.29 1334.4 986.28 1032.2 986.28 C 730.02 986.28 485.03 741.29 485.03 439.08 C 485.03 136.87 730.02 -108.11 1032.2 -108.11 C 1334.4 -108.11 1579.4 136.87 1579.4 439.08 z"/>
<title>Circle g</title>
<desc>Circle g: Circle through A with center De</desc>
</g>
</g>
<g>
<g stroke-dasharray="5.0000,4.0000" class="point top">
  <path d="M 927.72 439.08 C 927.72 608.02 790.77 744.98 621.83 744.98 C 452.89 744.98 315.94 608.02 315.94 439.08 C 315.94 270.14 452.89 133.19 621.83 133.19 C 790.77 133.19 927.72 270.14 927.72 439.08 z"/>
<title>Circle e_2</title>
<desc>Circle e_2: Circle through Z with center MAB</desc>
</g>
</g>
<g>
<g stroke-dasharray="5.5000,4.0000" stroke-width="1.5000" fill="none" stroke="#800000">
  <path d="M 1032.2 439.08 C 1032.2 741.29 787.24 986.28 485.03 986.28 C 182.82 986.28 -62.169 741.29 -62.169 439.08 C -62.169 136.87 182.82 -108.11 485.03 -108.11 C 787.24 -108.11 1032.2 136.87 1032.2 439.08 z"/>
<title>Circle e</title>
<desc>Circle e: Circle through De with center A</desc>
</g>
</g>
<g>
<g stroke-dasharray="5.0000,4.0000" class="point top">
  <path d="M 1305.8 439.08 C 1305.8 590.19 1183.3 712.68 1032.2 712.68 C 881.12 712.68 758.63 590.19 758.63 439.08 C 758.63 287.98 881.12 165.48 1032.2 165.48 C 1183.3 165.48 1305.8 287.98 1305.8 439.08 z"/>
<title>Circle d_2</title>
<desc>Circle d_2: Circle through B with center De</desc>
</g>
</g>
<g>
<g stroke-dasharray="5.0000,4.0000" class="point top">
  <path d="M 1095.7 202.14 C 1095.7 463.86 883.55 676.03 621.83 676.03 C 360.11 676.03 147.94 463.86 147.94 202.14 C 147.94 -59.581 360.11 -271.75 621.83 -271.75 C 883.55 -271.75 1095.7 -59.581 1095.7 202.14 z"/>
<title>Circle d_1</title>
<desc>Circle d_1: Circle through Cn with center Cs</desc>
</g>
</g>
<g id="c-d">
<g class="circle s-800080">
  <path d="M 1305.8 439.08 C 1305.8 741.29 1060.8 986.28 758.63 986.28 C 456.42 986.28 211.43 741.29 211.43 439.08 C 211.43 136.87 456.42 -108.11 758.63 -108.11 C 1060.8 -108.11 1305.8 136.87 1305.8 439.08 z"/>
<title>Circle d</title>
<desc>Circle d: Circle through Dw with center B</desc>
</g>
</g>
<g>
<g stroke-dasharray="5.0000,4.0000" class="point top">
  <path d="M 1169.0 439.08 C 1169.0 514.64 1107.8 575.88 1032.2 575.88 C 956.68 575.88 895.43 514.64 895.43 439.08 C 895.43 363.53 956.68 302.28 1032.2 302.28 C 1107.8 302.28 1169.0 363.53 1169.0 439.08 z"/>
<title>Circle c_2</title>
<desc>Circle c_2: Circle through S with center De</desc>
</g>
</g>
<g id="c-c_1">
<g class="circle s-006400">
  <path d="M 895.43 202.14 C 895.43 353.24 772.93 475.74 621.83 475.74 C 470.73 475.74 348.23 353.24 348.23 202.14 C 348.23 51.035 470.73 -71.459 621.83 -71.459 C 772.93 -71.459 895.43 51.035 895.43 202.14 z"/>
<title>Circle c_1</title>
<desc>Circle c_1: Circle through A with center Cs</desc>
</g>
</g>
<g id="c-cBA">
<g class="circle s-66ccff">
  <path d="M 1032.2 439.08 C 1032.2 590.19 909.73 712.68 758.63 712.68 C 607.52 712.68 485.03 590.19 485.03 439.08 C 485.03 287.98 607.52 165.48 758.63 165.48 C 909.73 165.48 1032.2 287.98 1032.2 439.08 z"/>
<title>Circle cBA</title>
<desc>Circle cBA: Circle through A with center B</desc>
</g>
</g>
<g id="c-cAB">
<g class="circle s-ff6699">
  <path d="M 758.63 439.08 C 758.63 590.19 636.14 712.68 485.03 712.68 C 333.93 712.68 211.43 590.19 211.43 439.08 C 211.43 287.98 333.93 165.48 485.03 165.48 C 636.14 165.48 758.63 287.98 758.63 439.08 z"/>
<title>Circle cAB</title>
<desc>Circle cAB: Circle through B with center A</desc>
</g>
</g>
<g>
<g stroke-dasharray="5.0000,4.0000" class="point top">
  <path d="M 758.63 439.08 C 758.63 741.29 513.64 986.28 211.43 986.28 C -90.779 986.28 -335.77 741.29 -335.77 439.08 C -335.77 136.87 -90.779 -108.11 211.43 -108.11 C 513.64 -108.11 758.63 136.87 758.63 439.08 z"/>
<title>Circle c</title>
<desc>Circle c: Circle through B with center Dw</desc>
</g>
</g>
</g>
<g id="graphics">
</g>
<g id="sections">
</g>
<g id="points">
<g id="sg-g001b">
<g stroke-width="2.5000" fill="none" stroke="#996600">
  <path d="M 485.03 439.08 L 589.54 439.08"/>
<title>Segment g001b</title>
<desc>Segment g001b: Segment A, G01</desc>
</g>
</g>
<g id="sg-g001a">
<g stroke-width="2.5000" fill="none" stroke="#996600">
  <path d="M 589.54 439.08 L 758.63 439.08"/>
<title>Segment g001a</title>
<desc>Segment g001a: Segment G01, B</desc>
</g>
</g>
<g id="pt-Z_1">
<g class="point bottom">
  <path d="M 950.45 546.44 C 950.45 548.10 949.10 549.44 947.45 549.44 C 945.79 549.44 944.45 548.10 944.45 546.44 C 944.45 544.79 945.79 543.44 947.45 543.44 C 949.10 543.44 950.45 544.79 950.45 546.44 z"/>
<title>Point Z_1</title>
<desc>Point Z_1: Intersection of d_1 and c_2</desc>
</g>
<g class="point top">
  <path d="M 950.45 546.44 C 950.45 548.10 949.10 549.44 947.45 549.44 C 945.79 549.44 944.45 548.10 944.45 546.44 C 944.45 544.79 945.79 543.44 947.45 543.44 C 949.10 543.44 950.45 544.79 950.45 546.44 z"/>
<title>Point Z_1</title>
<desc>Point Z_1: Intersection of d_1 and c_2</desc>
</g>
</g>
<g id="pt-Z">
<g class="point bottom">
  <path d="M 488.03 165.48 C 488.03 167.14 486.69 168.48 485.03 168.48 C 483.37 168.48 482.03 167.14 482.03 165.48 C 482.03 163.83 483.37 162.48 485.03 162.48 C 486.69 162.48 488.03 163.83 488.03 165.48 z"/>
<title>Point Z</title>
<desc>Point Z: Intersection of cAB and j</desc>
</g>
<g class="point top">
  <path d="M 488.03 165.48 C 488.03 167.14 486.69 168.48 485.03 168.48 C 483.37 168.48 482.03 167.14 482.03 165.48 C 482.03 163.83 483.37 162.48 485.03 162.48 C 486.69 162.48 488.03 163.83 488.03 165.48 z"/>
<title>Point Z</title>
<desc>Point Z: Intersection of cAB and j</desc>
</g>
</g>
<g id="pt-W_1">
<g class="point bottom">
  <path d="M 886.78 597.05 C 886.78 598.70 885.44 600.05 883.78 600.05 C 882.12 600.05 880.78 598.70 880.78 597.05 C 880.78 595.39 882.12 594.05 883.78 594.05 C 885.44 594.05 886.78 595.39 886.78 597.05 z"/>
<title>Point W_1</title>
<desc>Point W_1: Intersection of r and d_1</desc>
</g>
<g class="point top">
  <path d="M 886.78 597.05 C 886.78 598.70 885.44 600.05 883.78 600.05 C 882.12 600.05 880.78 598.70 880.78 597.05 C 880.78 595.39 882.12 594.05 883.78 594.05 C 885.44 594.05 886.78 595.39 886.78 597.05 z"/>
<title>Point W_1</title>
<desc>Point W_1: Intersection of r and d_1</desc>
</g>
</g>
<g id="pt-W">
<g class="point bottom">
  <path d="M 351.23 202.14 C 351.23 203.80 349.89 205.14 348.23 205.14 C 346.57 205.14 345.23 203.80 345.23 202.14 C 345.23 200.48 346.57 199.14 348.23 199.14 C 349.89 199.14 351.23 200.48 351.23 202.14 z"/>
<title>Point W</title>
<desc>Point W: Intersection of cAB and c_1</desc>
</g>
<g class="point top">
  <path d="M 351.23 202.14 C 351.23 203.80 349.89 205.14 348.23 205.14 C 346.57 205.14 345.23 203.80 345.23 202.14 C 345.23 200.48 346.57 199.14 348.23 199.14 C 349.89 199.14 351.23 200.48 351.23 202.14 z"/>
<title>Point W</title>
<desc>Point W: Intersection of cAB and c_1</desc>
</g>
</g>
<g id="pt-V_1">
<g class="point bottom">
  <path d="M 362.88 597.05 C 362.88 598.70 361.54 600.05 359.88 600.05 C 358.22 600.05 356.88 598.70 356.88 597.05 C 356.88 595.39 358.22 594.05 359.88 594.05 C 361.54 594.05 362.88 595.39 362.88 597.05 z"/>
<title>Point V_1</title>
<desc>Point V_1: Intersection of r and d_1</desc>
</g>
<g class="point top">
  <path d="M 362.88 597.05 C 362.88 598.70 361.54 600.05 359.88 600.05 C 358.22 600.05 356.88 598.70 356.88 597.05 C 356.88 595.39 358.22 594.05 359.88 594.05 C 361.54 594.05 362.88 595.39 362.88 597.05 z"/>
<title>Point V_1</title>
<desc>Point V_1: Intersection of r and d_1</desc>
</g>
</g>
<g id="pt-V">
<g class="point bottom">
  <path d="M 727.43 571.54 C 727.43 573.20 726.09 574.54 724.43 574.54 C 722.77 574.54 721.43 573.20 721.43 571.54 C 721.43 569.88 722.77 568.54 724.43 568.54 C 726.09 568.54 727.43 569.88 727.43 571.54 z"/>
<title>Point V</title>
<desc>Point V: Intersection of cAB and p</desc>
</g>
<g class="point top">
  <path d="M 727.43 571.54 C 727.43 573.20 726.09 574.54 724.43 574.54 C 722.77 574.54 721.43 573.20 721.43 571.54 C 721.43 569.88 722.77 568.54 724.43 568.54 C 726.09 568.54 727.43 569.88 727.43 571.54 z"/>
<title>Point V</title>
<desc>Point V: Intersection of cAB and p</desc>
</g>
</g>
<g id="pt-U_1">
<g class="point bottom">
  <path d="M 930.72 439.08 C 930.72 440.74 929.38 442.08 927.72 442.08 C 926.07 442.08 924.72 440.74 924.72 439.08 C 924.72 437.43 926.07 436.08 927.72 436.08 C 929.38 436.08 930.72 437.43 930.72 439.08 z"/>
<title>Point U_1</title>
<desc>Point U_1: Intersection of e_2 and f</desc>
</g>
<g class="point top">
  <path d="M 930.72 439.08 C 930.72 440.74 929.38 442.08 927.72 442.08 C 926.07 442.08 924.72 440.74 924.72 439.08 C 924.72 437.43 926.07 436.08 927.72 436.08 C 929.38 436.08 930.72 437.43 930.72 439.08 z"/>
<title>Point U_1</title>
<desc>Point U_1: Intersection of e_2 and f</desc>
</g>
</g>
<g id="pt-U">
<g class="point bottom">
  <path d="M 556.43 174.17 C 556.43 175.83 555.09 177.17 553.43 177.17 C 551.77 177.17 550.43 175.83 550.43 174.17 C 550.43 172.52 551.77 171.17 553.43 171.17 C 555.09 171.17 556.43 172.52 556.43 174.17 z"/>
<title>Point U</title>
<desc>Point U: Intersection of cAB and g</desc>
</g>
<g class="point top">
  <path d="M 556.43 174.17 C 556.43 175.83 555.09 177.17 553.43 177.17 C 551.77 177.17 550.43 175.83 550.43 174.17 C 550.43 172.52 551.77 171.17 553.43 171.17 C 555.09 171.17 556.43 172.52 556.43 174.17 z"/>
<title>Point U</title>
<desc>Point U: Intersection of cAB and g</desc>
</g>
</g>
<g id="pt-T_1">
<g class="point bottom">
  <path d="M 318.94 439.08 C 318.94 440.74 317.59 442.08 315.94 442.08 C 314.28 442.08 312.94 440.74 312.94 439.08 C 312.94 437.43 314.28 436.08 315.94 436.08 C 317.59 436.08 318.94 437.43 318.94 439.08 z"/>
<title>Point T_1</title>
<desc>Point T_1: Intersection of e_2 and f</desc>
</g>
<g class="point top">
  <path d="M 318.94 439.08 C 318.94 440.74 317.59 442.08 315.94 442.08 C 314.28 442.08 312.94 440.74 312.94 439.08 C 312.94 437.43 314.28 436.08 315.94 436.08 C 317.59 436.08 318.94 437.43 318.94 439.08 z"/>
<title>Point T_1</title>
<desc>Point T_1: Intersection of e_2 and f</desc>
</g>
</g>
<g id="pt-T">
<g class="point bottom">
  <path d="M 693.23 704.00 C 693.23 705.65 691.89 707.00 690.23 707.00 C 688.57 707.00 687.23 705.65 687.23 704.00 C 687.23 702.34 688.57 701.00 690.23 701.00 C 691.89 701.00 693.23 702.34 693.23 704.00 z"/>
<title>Point T</title>
<desc>Point T: Intersection of cBA and c</desc>
</g>
<g class="point top">
  <path d="M 693.23 704.00 C 693.23 705.65 691.89 707.00 690.23 707.00 C 688.57 707.00 687.23 705.65 687.23 704.00 C 687.23 702.34 688.57 701.00 690.23 701.00 C 691.89 701.00 693.23 702.34 693.23 704.00 z"/>
<title>Point T</title>
<desc>Point T: Intersection of cBA and c</desc>
</g>
</g>
<g id="pt-S">
<g class="point bottom">
  <path d="M 898.43 439.08 C 898.43 440.74 897.09 442.08 895.43 442.08 C 893.77 442.08 892.43 440.74 892.43 439.08 C 892.43 437.43 893.77 436.08 895.43 436.08 C 897.09 436.08 898.43 437.43 898.43 439.08 z"/>
<title>Point S</title>
<desc>Point S: Intersection of p and f</desc>
</g>
<g class="point top">
  <path d="M 898.43 439.08 C 898.43 440.74 897.09 442.08 895.43 442.08 C 893.77 442.08 892.43 440.74 892.43 439.08 C 892.43 437.43 893.77 436.08 895.43 436.08 C 897.09 436.08 898.43 437.43 898.43 439.08 z"/>
<title>Point S</title>
<desc>Point S: Intersection of p and f</desc>
</g>
</g>
<g id="pt-R">
<g class="point bottom">
  <path d="M 761.63 712.68 C 761.63 714.34 760.29 715.68 758.63 715.68 C 756.97 715.68 755.63 714.34 755.63 712.68 C 755.63 711.03 756.97 709.68 758.63 709.68 C 760.29 709.68 761.63 711.03 761.63 712.68 z"/>
<title>Point R</title>
<desc>Point R: Intersection of cBA and i</desc>
</g>
<g class="point top">
  <path d="M 761.63 712.68 C 761.63 714.34 760.29 715.68 758.63 715.68 C 756.97 715.68 755.63 714.34 755.63 712.68 C 755.63 711.03 756.97 709.68 758.63 709.68 C 760.29 709.68 761.63 711.03 761.63 712.68 z"/>
<title>Point R</title>
<desc>Point R: Intersection of cBA and i</desc>
</g>
</g>
<g id="pt-P_1">
<g class="point bottom">
  <path d="M 620.60 171.10 C 620.60 172.75 619.26 174.10 617.60 174.10 C 615.94 174.10 614.60 172.75 614.60 171.10 C 614.60 169.44 615.94 168.10 617.60 168.10 C 619.26 168.10 620.60 169.44 620.60 171.10 z"/>
<title>Point P_1</title>
<desc>Point P_1: Intersection of k_1 and r_1</desc>
</g>
<g class="point top">
  <path d="M 620.60 171.10 C 620.60 172.75 619.26 174.10 617.60 174.10 C 615.94 174.10 614.60 172.75 614.60 171.10 C 614.60 169.44 615.94 168.10 617.60 168.10 C 619.26 168.10 620.60 169.44 620.60 171.10 z"/>
<title>Point P_1</title>
<desc>Point P_1: Intersection of k_1 and r_1</desc>
</g>
</g>
<g id="pt-P">
<g class="point bottom">
  <path d="M 727.43 306.63 C 727.43 308.29 726.09 309.63 724.43 309.63 C 722.77 309.63 721.43 308.29 721.43 306.63 C 721.43 304.97 722.77 303.63 724.43 303.63 C 726.09 303.63 727.43 304.97 727.43 306.63 z"/>
<title>Point P</title>
<desc>Point P: Intersection of cAB and p</desc>
</g>
<g class="point top">
  <path d="M 727.43 306.63 C 727.43 308.29 726.09 309.63 724.43 309.63 C 722.77 309.63 721.43 308.29 721.43 306.63 C 721.43 304.97 722.77 303.63 724.43 303.63 C 726.09 303.63 727.43 304.97 727.43 306.63 z"/>
<title>Point P</title>
<desc>Point P: Intersection of cAB and p</desc>
</g>
</g>
<g id="pt-O_1">
<g class="point bottom">
  <path d="M 507.99 585.52 C 507.99 587.18 506.65 588.52 504.99 588.52 C 503.33 588.52 501.99 587.18 501.99 585.52 C 501.99 583.87 503.33 582.52 504.99 582.52 C 506.65 582.52 507.99 583.87 507.99 585.52 z"/>
<title>Point O_1</title>
<desc>Point O_1: Intersection of g and l_1</desc>
</g>
<g class="point top">
  <path d="M 507.99 585.52 C 507.99 587.18 506.65 588.52 504.99 588.52 C 503.33 588.52 501.99 587.18 501.99 585.52 C 501.99 583.87 503.33 582.52 504.99 582.52 C 506.65 582.52 507.99 583.87 507.99 585.52 z"/>
<title>Point O_1</title>
<desc>Point O_1: Intersection of g and l_1</desc>
</g>
</g>
<g id="pt-O">
<g class="point bottom">
  <path d="M 761.63 439.08 C 761.63 440.74 760.29 442.08 758.63 442.08 C 756.97 442.08 755.63 440.74 755.63 439.08 C 755.63 437.43 756.97 436.08 758.63 436.08 C 760.29 436.08 761.63 437.43 761.63 439.08 z"/>
<title>Point O</title>
<desc>Point O: Intersection of cAB and r</desc>
</g>
<g class="point top">
  <path d="M 761.63 439.08 C 761.63 440.74 760.29 442.08 758.63 442.08 C 756.97 442.08 755.63 440.74 755.63 439.08 C 755.63 437.43 756.97 436.08 758.63 436.08 C 760.29 436.08 761.63 437.43 761.63 439.08 z"/>
<title>Point O</title>
<desc>Point O: Intersection of cAB and r</desc>
</g>
</g>
<g id="pt-N_1">
<g class="point bottom">
  <path d="M 624.83 470.79 C 624.83 472.45 623.49 473.79 621.83 473.79 C 620.17 473.79 618.83 472.45 618.83 470.79 C 618.83 469.14 620.17 467.79 621.83 467.79 C 623.49 467.79 624.83 469.14 624.83 470.79 z"/>
<title>Point N_1</title>
<desc>Point N_1: Intersection of h and j_1</desc>
</g>
<g class="point top">
  <path d="M 624.83 470.79 C 624.83 472.45 623.49 473.79 621.83 473.79 C 620.17 473.79 618.83 472.45 618.83 470.79 C 618.83 469.14 620.17 467.79 621.83 467.79 C 623.49 467.79 624.83 469.14 624.83 470.79 z"/>
<title>Point N_1</title>
<desc>Point N_1: Intersection of h and j_1</desc>
</g>
</g>
<g id="pt-N">
<g class="point bottom">
  <path d="M 505.13 574.81 C 505.13 576.47 503.79 577.81 502.13 577.81 C 500.47 577.81 499.13 576.47 499.13 574.81 C 499.13 573.15 500.47 571.81 502.13 571.81 C 503.79 571.81 505.13 573.15 505.13 574.81 z"/>
<title>Point N</title>
<desc>Point N: Intersection of g and q</desc>
</g>
<g class="point top">
  <path d="M 505.13 574.81 C 505.13 576.47 503.79 577.81 502.13 577.81 C 500.47 577.81 499.13 576.47 499.13 574.81 C 499.13 573.15 500.47 571.81 502.13 571.81 C 503.79 571.81 505.13 573.15 505.13 574.81 z"/>
<title>Point N</title>
<desc>Point N: Intersection of g and q</desc>
</g>
</g>
<g id="pt-M_1">
<g class="point bottom">
  <path d="M 610.09 485.27 C 610.09 486.92 608.75 488.27 607.09 488.27 C 605.43 488.27 604.09 486.92 604.09 485.27 C 604.09 483.61 605.43 482.27 607.09 482.27 C 608.75 482.27 610.09 483.61 610.09 485.27 z"/>
<title>Point M_1</title>
<desc>Point M_1: Intersection of h_1 and l_1</desc>
</g>
<g class="point top">
  <path d="M 610.09 485.27 C 610.09 486.92 608.75 488.27 607.09 488.27 C 605.43 488.27 604.09 486.92 604.09 485.27 C 604.09 483.61 605.43 482.27 607.09 482.27 C 608.75 482.27 610.09 483.61 610.09 485.27 z"/>
<title>Point M_1</title>
<desc>Point M_1: Intersection of h_1 and l_1</desc>
</g>
</g>
<g id="pt-MAB">
<g class="point bottom">
  <path d="M 624.83 439.08 C 624.83 440.74 623.49 442.08 621.83 442.08 C 620.17 442.08 618.83 440.74 618.83 439.08 C 618.83 437.43 620.17 436.08 621.83 436.08 C 623.49 436.08 624.83 437.43 624.83 439.08 z"/>
<title>Point MAB</title>
<desc>Point MAB: Intersection of f and h</desc>
</g>
<g class="point top">
  <path d="M 624.83 439.08 C 624.83 440.74 623.49 442.08 621.83 442.08 C 620.17 442.08 618.83 440.74 618.83 439.08 C 618.83 437.43 620.17 436.08 621.83 436.08 C 623.49 436.08 624.83 437.43 624.83 439.08 z"/>
<title>Point MAB</title>
<desc>Point MAB: Intersection of f and h</desc>
</g>
</g>
<g id="pt-M">
<g class="point bottom">
  <path d="M 668.93 439.08 C 668.93 440.74 667.58 442.08 665.93 442.08 C 664.27 442.08 662.93 440.74 662.93 439.08 C 662.93 437.43 664.27 436.08 665.93 436.08 C 667.58 436.08 668.93 437.43 668.93 439.08 z"/>
<title>Point M</title>
<desc>Point M: Intersection of f and f_1</desc>
</g>
<g class="point top">
  <path d="M 668.93 439.08 C 668.93 440.74 667.58 442.08 665.93 442.08 C 664.27 442.08 662.93 440.74 662.93 439.08 C 662.93 437.43 664.27 436.08 665.93 436.08 C 667.58 436.08 668.93 437.43 668.93 439.08 z"/>
<title>Point M</title>
<desc>Point M: Intersection of f and f_1</desc>
</g>
</g>
<g id="pt-L_1">
<g class="point bottom">
  <path d="M 600.16 495.02 C 600.16 496.68 598.82 498.02 597.16 498.02 C 595.50 498.02 594.16 496.68 594.16 495.02 C 594.16 493.36 595.50 492.02 597.16 492.02 C 598.82 492.02 600.16 493.36 600.16 495.02 z"/>
<title>Point L_1</title>
<desc>Point L_1: Intersection of i_1 and l_1</desc>
</g>
<g class="point top">
  <path d="M 600.16 495.02 C 600.16 496.68 598.82 498.02 597.16 498.02 C 595.50 498.02 594.16 496.68 594.16 495.02 C 594.16 493.36 595.50 492.02 597.16 492.02 C 598.82 492.02 600.16 493.36 600.16 495.02 z"/>
<title>Point L_1</title>
<desc>Point L_1: Intersection of i_1 and l_1</desc>
</g>
</g>
<g id="pt-L">
<g class="point bottom">
  <path d="M 556.43 704.00 C 556.43 705.65 555.09 707.00 553.43 707.00 C 551.77 707.00 550.43 705.65 550.43 704.00 C 550.43 702.34 551.77 701.00 553.43 701.00 C 555.09 701.00 556.43 702.34 556.43 704.00 z"/>
<title>Point L</title>
<desc>Point L: Intersection of cAB and g</desc>
</g>
<g class="point top">
  <path d="M 556.43 704.00 C 556.43 705.65 555.09 707.00 553.43 707.00 C 551.77 707.00 550.43 705.65 550.43 704.00 C 550.43 702.34 551.77 701.00 553.43 701.00 C 555.09 701.00 556.43 702.34 556.43 704.00 z"/>
<title>Point L</title>
<desc>Point L: Intersection of cAB and g</desc>
</g>
</g>
<g id="pt-K_1">
<g class="point bottom">
  <path d="M 582.56 512.30 C 582.56 513.96 581.21 515.30 579.56 515.30 C 577.90 515.30 576.56 513.96 576.56 512.30 C 576.56 510.65 577.90 509.30 579.56 509.30 C 581.21 509.30 582.56 510.65 582.56 512.30 z"/>
<title>Point K_1</title>
<desc>Point K_1: Intersection of k and l_1</desc>
</g>
<g class="point top">
  <path d="M 582.56 512.30 C 582.56 513.96 581.21 515.30 579.56 515.30 C 577.90 515.30 576.56 513.96 576.56 512.30 C 576.56 510.65 577.90 509.30 579.56 509.30 C 581.21 509.30 582.56 510.65 582.56 512.30 z"/>
<title>Point K_1</title>
<desc>Point K_1: Intersection of k and l_1</desc>
</g>
</g>
<g id="pt-K">
<g class="point bottom">
  <path d="M 488.03 712.68 C 488.03 714.34 486.69 715.68 485.03 715.68 C 483.37 715.68 482.03 714.34 482.03 712.68 C 482.03 711.03 483.37 709.68 485.03 709.68 C 486.69 709.68 488.03 711.03 488.03 712.68 z"/>
<title>Point K</title>
<desc>Point K: Intersection of cAB and j</desc>
</g>
<g class="point top">
  <path d="M 488.03 712.68 C 488.03 714.34 486.69 715.68 485.03 715.68 C 483.37 715.68 482.03 714.34 482.03 712.68 C 482.03 711.03 483.37 709.68 485.03 709.68 C 486.69 709.68 488.03 711.03 488.03 712.68 z"/>
<title>Point K</title>
<desc>Point K: Intersection of cAB and j</desc>
</g>
</g>
<g id="pt-J_1">
<g class="point bottom">
  <path d="M 917.25 183.66 C 917.25 185.31 915.91 186.66 914.25 186.66 C 912.60 186.66 911.25 185.31 911.25 183.66 C 911.25 182.00 912.60 180.66 914.25 180.66 C 915.91 180.66 917.25 182.00 917.25 183.66 z"/>
<title>Point J_1</title>
<desc>Point J_1: Intersection of k_1 and l_1</desc>
</g>
<g class="point top">
  <path d="M 917.25 183.66 C 917.25 185.31 915.91 186.66 914.25 186.66 C 912.60 186.66 911.25 185.31 911.25 183.66 C 911.25 182.00 912.60 180.66 914.25 180.66 C 915.91 180.66 917.25 182.00 917.25 183.66 z"/>
<title>Point J_1</title>
<desc>Point J_1: Intersection of k_1 and l_1</desc>
</g>
</g>
<g id="pt-I_1">
<g class="point bottom">
  <path d="M 619.84 402.47 C 619.84 404.13 618.50 405.47 616.84 405.47 C 615.18 405.47 613.84 404.13 613.84 402.47 C 613.84 400.82 615.18 399.47 616.84 399.47 C 618.50 399.47 619.84 400.82 619.84 402.47 z"/>
<title>Point I_1</title>
<desc>Point I_1: Intersection of q and r</desc>
</g>
<g class="point top">
  <path d="M 619.84 402.47 C 619.84 404.13 618.50 405.47 616.84 405.47 C 615.18 405.47 613.84 404.13 613.84 402.47 C 613.84 400.82 615.18 399.47 616.84 399.47 C 618.50 399.47 619.84 400.82 619.84 402.47 z"/>
<title>Point I_1</title>
<desc>Point I_1: Intersection of q and r</desc>
</g>
</g>
<g id="pt-H_1">
<g class="point bottom">
  <path d="M 657.12 439.08 C 657.12 440.74 655.78 442.08 654.12 442.08 C 652.47 442.08 651.12 440.74 651.12 439.08 C 651.12 437.43 652.47 436.08 654.12 436.08 C 655.78 436.08 657.12 437.43 657.12 439.08 z"/>
<title>Point H_1</title>
<desc>Point H_1: Intersection of f and l_1</desc>
</g>
<g class="point top">
  <path d="M 657.12 439.08 C 657.12 440.74 655.78 442.08 654.12 442.08 C 652.47 442.08 651.12 440.74 651.12 439.08 C 651.12 437.43 652.47 436.08 654.12 436.08 C 655.78 436.08 657.12 437.43 657.12 439.08 z"/>
<title>Point H_1</title>
<desc>Point H_1: Intersection of f and l_1</desc>
</g>
</g>
<g id="pt-G_1">
<g class="point bottom">
  <path d="M 522.23 306.63 C 522.23 308.29 520.89 309.63 519.23 309.63 C 517.57 309.63 516.23 308.29 516.23 306.63 C 516.23 304.97 517.57 303.63 519.23 303.63 C 520.89 303.63 522.23 304.97 522.23 306.63 z"/>
<title>Point G_1</title>
<desc>Point G_1: Intersection of cBA and q</desc>
</g>
<g class="point top">
  <path d="M 522.23 306.63 C 522.23 308.29 520.89 309.63 519.23 309.63 C 517.57 309.63 516.23 308.29 516.23 306.63 C 516.23 304.97 517.57 303.63 519.23 303.63 C 520.89 303.63 522.23 304.97 522.23 306.63 z"/>
<title>Point G_1</title>
<desc>Point G_1: Intersection of cBA and q</desc>
</g>
</g>
<g id="pt-G01">
<g class="point bottom">
  <path d="M 592.54 439.08 C 592.54 440.74 591.19 442.08 589.54 442.08 C 587.88 442.08 586.54 440.74 586.54 439.08 C 586.54 437.43 587.88 436.08 589.54 436.08 C 591.19 436.08 592.54 437.43 592.54 439.08 z"/>
<title>Point G01</title>
<desc>Point G01: Intersection of f and k</desc>
</g>
<g class="point top">
  <path d="M 592.54 439.08 C 592.54 440.74 591.19 442.08 589.54 442.08 C 587.88 442.08 586.54 440.74 586.54 439.08 C 586.54 437.43 587.88 436.08 589.54 436.08 C 591.19 436.08 592.54 437.43 592.54 439.08 z"/>
<title>Point G01</title>
<desc>Point G01: Intersection of f and k</desc>
</g>
</g>
<g id="pt-F_1">
<g class="point bottom">
  <path d="M 898.43 676.03 C 898.43 677.69 897.09 679.03 895.43 679.03 C 893.77 679.03 892.43 677.69 892.43 676.03 C 892.43 674.37 893.77 673.03 895.43 673.03 C 897.09 673.03 898.43 674.37 898.43 676.03 z"/>
<title>Point F_1</title>
<desc>Point F_1: Intersection of cBA and r</desc>
</g>
<g class="point top">
  <path d="M 898.43 676.03 C 898.43 677.69 897.09 679.03 895.43 679.03 C 893.77 679.03 892.43 677.69 892.43 676.03 C 892.43 674.37 893.77 673.03 895.43 673.03 C 897.09 673.03 898.43 674.37 898.43 676.03 z"/>
<title>Point F_1</title>
<desc>Point F_1: Intersection of cBA and r</desc>
</g>
</g>
<g id="pt-E_2">
<g class="point bottom">
  <path d="M 572.58 585.52 C 572.58 587.18 571.23 588.52 569.58 588.52 C 567.92 588.52 566.58 587.18 566.58 585.52 C 566.58 583.87 567.92 582.52 569.58 582.52 C 571.23 582.52 572.58 583.87 572.58 585.52 z"/>
<title>Point E_2</title>
<desc>Point E_2: Intersection of k and b_2</desc>
</g>
<g class="point top">
  <path d="M 572.58 585.52 C 572.58 587.18 571.23 588.52 569.58 588.52 C 567.92 588.52 566.58 587.18 566.58 585.52 C 566.58 583.87 567.92 582.52 569.58 582.52 C 571.23 582.52 572.58 583.87 572.58 585.52 z"/>
<title>Point E_2</title>
<desc>Point E_2: Intersection of k and b_2</desc>
</g>
</g>
<g id="pt-E_1">
<g class="point bottom">
  <path d="M 761.63 165.48 C 761.63 167.14 760.29 168.48 758.63 168.48 C 756.97 168.48 755.63 167.14 755.63 165.48 C 755.63 163.83 756.97 162.48 758.63 162.48 C 760.29 162.48 761.63 163.83 761.63 165.48 z"/>
<title>Point E_1</title>
<desc>Point E_1: Intersection of cBA and i</desc>
</g>
<g class="point top">
  <path d="M 761.63 165.48 C 761.63 167.14 760.29 168.48 758.63 168.48 C 756.97 168.48 755.63 167.14 755.63 165.48 C 755.63 163.83 756.97 162.48 758.63 162.48 C 760.29 162.48 761.63 163.83 761.63 165.48 z"/>
<title>Point E_1</title>
<desc>Point E_1: Intersection of cBA and i</desc>
</g>
</g>
<g id="pt-Dw">
<g class="point bottom">
  <path d="M 214.43 439.08 C 214.43 440.74 213.09 442.08 211.43 442.08 C 209.77 442.08 208.43 440.74 208.43 439.08 C 208.43 437.43 209.77 436.08 211.43 436.08 C 213.09 436.08 214.43 437.43 214.43 439.08 z"/>
<title>Point Dw</title>
<desc>Point Dw: Intersection of cAB and f</desc>
</g>
<g class="point top">
  <path d="M 214.43 439.08 C 214.43 440.74 213.09 442.08 211.43 442.08 C 209.77 442.08 208.43 440.74 208.43 439.08 C 208.43 437.43 209.77 436.08 211.43 436.08 C 213.09 436.08 214.43 437.43 214.43 439.08 z"/>
<title>Point Dw</title>
<desc>Point Dw: Intersection of cAB and f</desc>
</g>
</g>
<g id="pt-De">
<g class="point bottom">
  <path d="M 1035.2 439.08 C 1035.2 440.74 1033.9 442.08 1032.2 442.08 C 1030.6 442.08 1029.2 440.74 1029.2 439.08 C 1029.2 437.43 1030.6 436.08 1032.2 436.08 C 1033.9 436.08 1035.2 437.43 1035.2 439.08 z"/>
<title>Point De</title>
<desc>Point De: Intersection of cBA and f</desc>
</g>
<g class="point top">
  <path d="M 1035.2 439.08 C 1035.2 440.74 1033.9 442.08 1032.2 442.08 C 1030.6 442.08 1029.2 440.74 1029.2 439.08 C 1029.2 437.43 1030.6 436.08 1032.2 436.08 C 1033.9 436.08 1035.2 437.43 1035.2 439.08 z"/>
<title>Point De</title>
<desc>Point De: Intersection of cBA and f</desc>
</g>
</g>
<g id="pt-D_2">
<g class="point bottom">
  <path d="M 619.84 475.69 C 619.84 477.35 618.50 478.69 616.84 478.69 C 615.18 478.69 613.84 477.35 613.84 475.69 C 613.84 474.04 615.18 472.69 616.84 472.69 C 618.50 472.69 619.84 474.04 619.84 475.69 z"/>
<title>Point D_2</title>
<desc>Point D_2: Intersection of q and c_1</desc>
</g>
<g class="point top">
  <path d="M 619.84 475.69 C 619.84 477.35 618.50 478.69 616.84 478.69 C 615.18 478.69 613.84 477.35 613.84 475.69 C 613.84 474.04 615.18 472.69 616.84 472.69 C 618.50 472.69 619.84 474.04 619.84 475.69 z"/>
<title>Point D_2</title>
<desc>Point D_2: Intersection of q and c_1</desc>
</g>
</g>
<g id="pt-D_1">
<g class="point bottom">
  <path d="M 898.43 202.14 C 898.43 203.80 897.09 205.14 895.43 205.14 C 893.77 205.14 892.43 203.80 892.43 202.14 C 892.43 200.48 893.77 199.14 895.43 199.14 C 897.09 199.14 898.43 200.48 898.43 202.14 z"/>
<title>Point D_1</title>
<desc>Point D_1: Intersection of cBA and c_1</desc>
</g>
<g class="point top">
  <path d="M 898.43 202.14 C 898.43 203.80 897.09 205.14 895.43 205.14 C 893.77 205.14 892.43 203.80 892.43 202.14 C 892.43 200.48 893.77 199.14 895.43 199.14 C 897.09 199.14 898.43 200.48 898.43 202.14 z"/>
<title>Point D_1</title>
<desc>Point D_1: Intersection of cBA and c_1</desc>
</g>
</g>
<g id="pt-Cs">
<g class="point bottom">
  <path d="M 624.83 202.14 C 624.83 203.80 623.49 205.14 621.83 205.14 C 620.17 205.14 618.83 203.80 618.83 202.14 C 618.83 200.48 620.17 199.14 621.83 199.14 C 623.49 199.14 624.83 200.48 624.83 202.14 z"/>
<title>Point Cs</title>
<desc>Point Cs: Intersection of cAB and cBA</desc>
</g>
<g class="point top">
  <path d="M 624.83 202.14 C 624.83 203.80 623.49 205.14 621.83 205.14 C 620.17 205.14 618.83 203.80 618.83 202.14 C 618.83 200.48 620.17 199.14 621.83 199.14 C 623.49 199.14 624.83 200.48 624.83 202.14 z"/>
<title>Point Cs</title>
<desc>Point Cs: Intersection of cAB and cBA</desc>
</g>
</g>
<g id="pt-Cn">
<g class="point bottom">
  <path d="M 624.83 676.03 C 624.83 677.69 623.49 679.03 621.83 679.03 C 620.17 679.03 618.83 677.69 618.83 676.03 C 618.83 674.37 620.17 673.03 621.83 673.03 C 623.49 673.03 624.83 674.37 624.83 676.03 z"/>
<title>Point Cn</title>
<desc>Point Cn: Intersection of cAB and cBA</desc>
</g>
<g class="point top">
  <path d="M 624.83 676.03 C 624.83 677.69 623.49 679.03 621.83 679.03 C 620.17 679.03 618.83 677.69 618.83 676.03 C 618.83 674.37 620.17 673.03 621.83 673.03 C 623.49 673.03 624.83 674.37 624.83 676.03 z"/>
<title>Point Cn</title>
<desc>Point Cn: Intersection of cAB and cBA</desc>
</g>
</g>
<g id="pt-C_2">
<g class="point bottom">
  <path d="M 362.88 281.12 C 362.88 282.78 361.54 284.12 359.88 284.12 C 358.22 284.12 356.88 282.78 356.88 281.12 C 356.88 279.46 358.22 278.12 359.88 278.12 C 361.54 278.12 362.88 279.46 362.88 281.12 z"/>
<title>Point C_2</title>
<desc>Point C_2: Intersection of c_1 and e_2</desc>
</g>
<g class="point top">
  <path d="M 362.88 281.12 C 362.88 282.78 361.54 284.12 359.88 284.12 C 358.22 284.12 356.88 282.78 356.88 281.12 C 356.88 279.46 358.22 278.12 359.88 278.12 C 361.54 278.12 362.88 279.46 362.88 281.12 z"/>
<title>Point C_2</title>
<desc>Point C_2: Intersection of c_1 and e_2</desc>
</g>
</g>
<g id="pt-C_1">
<g class="point bottom">
  <path d="M 522.23 571.54 C 522.23 573.20 520.89 574.54 519.23 574.54 C 517.57 574.54 516.23 573.20 516.23 571.54 C 516.23 569.88 517.57 568.54 519.23 568.54 C 520.89 568.54 522.23 569.88 522.23 571.54 z"/>
<title>Point C_1</title>
<desc>Point C_1: Intersection of cBA and q</desc>
</g>
<g class="point top">
  <path d="M 522.23 571.54 C 522.23 573.20 520.89 574.54 519.23 574.54 C 517.57 574.54 516.23 573.20 516.23 571.54 C 516.23 569.88 517.57 568.54 519.23 568.54 C 520.89 568.54 522.23 569.88 522.23 571.54 z"/>
<title>Point C_1</title>
<desc>Point C_1: Intersection of cBA and q</desc>
</g>
</g>
<g id="pt-C">
<g class="point bottom">
  <path d="M 214.43 439.08 C 214.43 440.74 213.09 442.08 211.43 442.08 C 209.77 442.08 208.43 440.74 208.43 439.08 C 208.43 437.43 209.77 436.08 211.43 436.08 C 213.09 436.08 214.43 437.43 214.43 439.08 z"/>
<title>Point C</title>
<desc>Point C: Intersection of cAB and d</desc>
</g>
<g class="point top">
  <path d="M 214.43 439.08 C 214.43 440.74 213.09 442.08 211.43 442.08 C 209.77 442.08 208.43 440.74 208.43 439.08 C 208.43 437.43 209.77 436.08 211.43 436.08 C 213.09 436.08 214.43 437.43 214.43 439.08 z"/>
<title>Point C</title>
<desc>Point C: Intersection of cAB and d</desc>
</g>
</g>
<g id="pt-B_1">
<g class="point bottom">
  <path d="M 629.82 402.47 C 629.82 404.13 628.48 405.47 626.82 405.47 C 625.16 405.47 623.82 404.13 623.82 402.47 C 623.82 400.82 625.16 399.47 626.82 399.47 C 628.48 399.47 629.82 400.82 629.82 402.47 z"/>
<title>Point B_1</title>
<desc>Point B_1: Intersection of p and r</desc>
</g>
<g class="point top">
  <path d="M 629.82 402.47 C 629.82 404.13 628.48 405.47 626.82 405.47 C 625.16 405.47 623.82 404.13 623.82 402.47 C 623.82 400.82 625.16 399.47 626.82 399.47 C 628.48 399.47 629.82 400.82 629.82 402.47 z"/>
<title>Point B_1</title>
<desc>Point B_1: Intersection of p and r</desc>
</g>
</g>
<g id="pt-B">
<g class="point bottom">
  <path d="M 761.63 439.08 C 761.63 440.74 760.29 442.08 758.63 442.08 C 756.97 442.08 755.63 440.74 755.63 439.08 C 755.63 437.43 756.97 436.08 758.63 436.08 C 760.29 436.08 761.63 437.43 761.63 439.08 z"/>
<title>Point B</title>
<desc>B = (1, 0)</desc>
</g>
<g class="point top">
  <path d="M 761.63 439.08 C 761.63 440.74 760.29 442.08 758.63 442.08 C 756.97 442.08 755.63 440.74 755.63 439.08 C 755.63 437.43 756.97 436.08 758.63 436.08 C 760.29 436.08 761.63 437.43 761.63 439.08 z"/>
<title>Point B</title>
<desc>B = (1, 0)</desc>
</g>
</g>
<g id="pt-A_2">
<g class="point bottom">
  <path d="M 390.42 343.24 C 390.42 344.90 389.08 346.24 387.42 346.24 C 385.76 346.24 384.42 344.90 384.42 343.24 C 384.42 341.58 385.76 340.24 387.42 340.24 C 389.08 340.24 390.42 341.58 390.42 343.24 z"/>
<title>Point A_2</title>
<desc>Point A_2: Intersection of q and c_1</desc>
</g>
<g class="point top">
  <path d="M 390.42 343.24 C 390.42 344.90 389.08 346.24 387.42 346.24 C 385.76 346.24 384.42 344.90 384.42 343.24 C 384.42 341.58 385.76 340.24 387.42 340.24 C 389.08 340.24 390.42 341.58 390.42 343.24 z"/>
<title>Point A_2</title>
<desc>Point A_2: Intersection of q and c_1</desc>
</g>
</g>
<g id="pt-A_1">
<g class="point bottom">
  <path d="M 693.23 174.17 C 693.23 175.83 691.89 177.17 690.23 177.17 C 688.57 177.17 687.23 175.83 687.23 174.17 C 687.23 172.52 688.57 171.17 690.23 171.17 C 691.89 171.17 693.23 172.52 693.23 174.17 z"/>
<title>Point A_1</title>
<desc>Point A_1: Intersection of cBA and c</desc>
</g>
<g class="point top">
  <path d="M 693.23 174.17 C 693.23 175.83 691.89 177.17 690.23 177.17 C 688.57 177.17 687.23 175.83 687.23 174.17 C 687.23 172.52 688.57 171.17 690.23 171.17 C 691.89 171.17 693.23 172.52 693.23 174.17 z"/>
<title>Point A_1</title>
<desc>Point A_1: Intersection of cBA and c</desc>
</g>
</g>
<g id="pt-A">
<g class="point bottom">
  <path d="M 488.03 439.08 C 488.03 440.74 486.69 442.08 485.03 442.08 C 483.37 442.08 482.03 440.74 482.03 439.08 C 482.03 437.43 483.37 436.08 485.03 436.08 C 486.69 436.08 488.03 437.43 488.03 439.08 z"/>
<title>Point A</title>
<desc>A = (0, 0)</desc>
</g>
<g class="point top">
  <path d="M 488.03 439.08 C 488.03 440.74 486.69 442.08 485.03 442.08 C 483.37 442.08 482.03 440.74 482.03 439.08 C 482.03 437.43 483.37 436.08 485.03 436.08 C 486.69 436.08 488.03 437.43 488.03 439.08 z"/>
<title>Point A</title>
<desc>A = (0, 0)</desc>
</g>
</g>
</g>
</g>
</svg>
