<svg 
     version="1.1"
     baseProfile="full"
     xmlns="http://www.w3.org/2000/svg"
     xmlns:xlink="http://www.w3.org/1999/xlink"
     xmlns:ev="http://www.w3.org/2001/xml-events"
     viewBox="0 0 1287 823"
     >
<style>
* {
  fill-rule: nonzero;
  stroke-linejoin: round;
  stroke-width: 0.1em;
  stroke-linecap: butt;

}

text {
  fill-opacity: 1.0000;
  font-style: normal;
  font-family: Helvetica;
  font-weight: normal;
  stroke: none;
  fill: #ffcc66;
  font-size: 1em;
  opacity: 0;
  x: 0;
  y: 0;
}
path {
  stroke-opacity: 0.5;
}

.point path {
  stroke: black;
  stroke-width: 2;
  stroke-opacity: 1;
  fill: white;
  fill-opacity: 1;
}

.point.bottom path {
  stroke: #FC0;
  stroke-width: 8;
  stroke-opacity: 0;
}

.line {
  stroke: #FFF;
  stroke-dasharray: 1.5 3;
  stroke-linejoin: round;
  stroke-linecap: butt;
}
.line > path {
  /* stroke-opacity: 0.5; */
}

.circle {
  stroke: #808080;
  stroke-width: 3;
  /* stroke-opacity: 0.3; */
  stroke-linejoin: round;
  stroke-linecap: butt;

  fill: none;
}

.polygon {
  stroke-width: 5;

  stroke-linejoin: round;
  stroke-linecap: butt;

  fill: #CCC;
  fill-opacity: 0.3;
  opacity: 1;
}
.bisector {
  stroke-dasharray: 13, 5, 3, 5;

}
.segment path {
  stroke-width: 5;
  stroke-linecap: round;
  stroke-opacity: 0.3;

  stroke: #C90;
  stroke-opacity: 0;
  fill-opacity: 0;
  opacity: 0;
}
.a path {
  stroke-width: 3;
}
.b path {
  stroke-width: 5;
}
[class~="a+b"] path {
  stroke-width: 8;
}
[class~="a+2b"] path {
  stroke-width: 13;
}

.golden path {
  stroke-opacity: 0.8;
}

.golden text {
  opacity: 0.8;
}

.s-ff6699 path {
  stroke: #ff6699;
  stroke-dasharray: none;
}

.s-66ccff path {
  stroke: #66ccff;
}

.s-cc66ff path {
  stroke: #cc66ff;
}

#c-d path {
  /* stroke: none; */
}

[id^="sg-g0"] .segment path {
  stroke-opacity: 0.8;
  opacity: 0.8;
}
[id^="sg-g0"] text {
  stroke-opacity: 0.8;
  opacity: 0.8;
}

#pt-A .bottom path{
  stroke-opacity: 0.8;
  opacity: 0.8;
}
#pt-B .bottom path{
  stroke-opacity: 0.8;
  opacity: 0.8;
}
</style>
<title>
</title>
<g stroke-linejoin="miter" stroke-dashoffset="0.0000" stroke-dasharray="none" stroke-width="1.0000" stroke-miterlimit="10.000" stroke-linecap="square">
<g>
<g class="circle s-000000">
  <path d="M 0.0000 0.0000 L 1287.0 0.0000 L 1287.0 823.00 L 0.0000 823.00 L 0.0000 0.0000 z"/>
</g> 
</g> 
<g id="misc">
</g>
<g id="base">
<g>
<g class="circle s-99ff00">
  <path d="M 554.34 168.98 L 817.52 168.98 L 817.52 432.16 L 554.34 432.16 z"/>
<title>Quadrilateral y4</title>
<desc>Quadrilateral y4: Polygon p006nw, p006ne, p000e, p000w</desc>
</g> 
</g> 
<g>
<g class="circle s-339900">
  <path d="M 399.65 219.24 L 709.03 219.24 L 804.64 513.48 L 554.34 695.33 L 304.05 513.48 z"/>
<title>Pentagon y5</title>
<desc>Pentagon y5: Polygon p009a, p009b, p009c, p006sw, p009d</desc>
</g> 
</g> 
<g id="i-i000">
<g class="line s-808080">
  <path d="M -5.0000 432.16 L 1292.0 432.16"/>
<title>Line i000</title>
<desc>Line i000: Line p000w, p000e</desc>
</g> 
</g> 
<g id="i-i001">
<g class="line s-808080">
  <path d="M 685.93 828.00 L 685.93 -5.0000"/>
<title>Line i001</title>
<desc>Line i001: Line p001n, p001s</desc>
</g> 
</g> 
<g id="i-i002w">
<g class="line s-808080">
  <path d="M 554.34 828.00 L 554.34 -5.0000"/>
<title>Line i002w</title>
<desc>Line i002w: Line p005nw, p005sw</desc>
</g> 
</g> 
<g id="i-i002e">
<g class="line s-808080">
  <path d="M 817.52 828.00 L 817.52 -5.0000"/>
<title>Line i002e</title>
<desc>Line i002e: Line p005ne, p005se</desc>
</g> 
</g> 
<g id="i-i003n">
<g class="line s-808080">
  <path d="M -5.0000 168.98 L 1292.0 168.98"/>
<title>Line i003n</title>
<desc>Line i003n: Line p006nw, p006ne</desc>
</g> 
</g> 
<g id="i-i003s">
<g class="line s-808080">
  <path d="M -5.0000 695.33 L 1292.0 695.33"/>
<title>Line i003s</title>
<desc>Line i003s: Line p006sw, p006se</desc>
</g> 
</g> 
<g id="i-i004w">
<g class="line s-339900">
  <path d="M 883.85 828.00 L 467.35 -5.0000"/>
<title>Line i004w</title>
<desc>Line i004w: Line p006nw, p006se</desc>
</g> 
</g> 
<g>
<g stroke-dasharray="1.5000,3.0000" stroke-width="1.5000" fill="none" stroke="#339900">
  <path d="M 488.01 828.00 L 904.51 -5.0000"/>
<title>Line i004e</title>
<desc>Line i004e: Line p006ne, p006sw</desc>
</g> 
</g> 
<g id="i-f">
<g class="line s-ffff66">
  <path d="M -5.0000 677.33 L 1099.0 -5.0000"/>
<title>Line f</title>
<desc>Line f: Line p006ne, p007w</desc>
</g> 
</g> 
<g id="i-j">
<g class="line s-808080">
  <path d="M -5.0000 219.24 L 1292.0 219.24"/>
<title>Line j</title>
<desc>Line j: Line p009a, p009b</desc>
</g> 
</g> 
<g id="i-h">
<g class="line s-cc9900">
  <path d="M -5.0000 5.1370 L 1292.0 806.73"/>
<title>Line h</title>
<desc>Line h: bisector(p000w, p008nw)</desc>
</g> 
</g> 
<g id="i-m">
<g class="line s-808080">
  <path d="M -5.0000 513.48 L 1292.0 513.48"/>
<title>Line m</title>
<desc>Line m: Line p009d, p009c</desc>
</g> 
</g> 
<g id="i-g">
<g class="line s-808080">
  <path d="M -5.0000 314.46 L 1292.0 314.46"/>
<title>Line g</title>
<desc>Line g: Line p008nw, p008ne</desc>
</g> 
</g> 
<g id="i-n">
<g class="line s-808080">
  <path d="M 627.08 828.00 L 627.08 -5.0000"/>
<title>Line n</title>
<desc>Line n: Line p008nw, p008sw</desc>
</g> 
</g> 
<g id="i-k">
<g class="line s-808080">
  <path d="M -5.0000 269.50 L 1292.0 269.50"/>
<title>Line k</title>
<desc>Line k: Line P, N_1</desc>
</g> 
</g> 
<g id="i-i">
<g class="line s-ffff66">
  <path d="M 272.84 -5.0000 L 1292.0 624.88"/>
<title>Line i</title>
<desc>Line i: Line p006nw, p007e</desc>
</g> 
</g> 
<g>
<g stroke-dasharray="1.5000,3.0000" stroke-width="1.5000" fill="none" stroke="#66ccff">
  <path d="M 523.02 828.00 L 719.67 -5.0000"/>
<title>Line l</title>
<desc>Line l: Line S, p006sw</desc>
</g> 
</g> 
<g id="i-r">
<g class="line s-66ccff">
  <path d="M 848.84 828.00 L 652.19 -5.0000"/>
<title>Line r</title>
<desc>Line r: Line S, p006se</desc>
</g> 
</g> 
<g id="i-s">
<g class="line s-66ccff">
  <path d="M 709.92 828.00 L 513.27 -5.0000"/>
<title>Line s</title>
<desc>Line s: Line T, p006nw</desc>
</g> 
</g> 
<g id="i-t">
<g class="line s-66ccff">
  <path d="M 661.95 828.00 L 858.59 -5.0000"/>
<title>Line t</title>
<desc>Line t: Line T, p006ne</desc>
</g> 
</g> 
<g id="i-a">
<g class="line s-ffff66">
  <path d="M -5.0000 186.99 L 1032.2 828.00"/>
<title>Line a</title>
<desc>Line a: Line p007w, p006se</desc>
</g> 
</g> 
<g id="i-b">
<g class="line s-ffff66">
  <path d="M 339.68 828.00 L 1292.0 239.43"/>
<title>Line b</title>
<desc>Line b: Line p007e, p006sw</desc>
</g> 
</g> 
<g id="i-f_1">
<g class="line s-7f00ff">
  <path d="M 147.05 828.00 L 661.87 -5.0000"/>
<title>Line f_1</title>
<desc>Line f_1: Line p006nw, p007w</desc>
</g> 
</g> 
<g id="i-g_1">
<g class="line s-7f00ff">
  <path d="M 1224.8 828.00 L 709.99 -5.0000"/>
<title>Line g_1</title>
<desc>Line g_1: Line p006ne, p007e</desc>
</g> 
</g> 
<g id="i-h_1">
<g class="line s-7f00ff">
  <path d="M 636.34 828.00 L 121.52 -5.0000"/>
<title>Line h_1</title>
<desc>Line h_1: Line p007w, p006sw</desc>
</g> 
</g> 
<g id="i-i_1">
<g class="line s-7f00ff">
  <path d="M 735.52 828.00 L 1250.3 -5.0000"/>
<title>Line i_1</title>
<desc>Line i_1: Line p006se, p007e</desc>
</g> 
</g> 
<g id="sg-j_1">
<g stroke-width="4.0000" fill="none" stroke="#cc9900">
  <path d="M 616.47 432.16 L 627.08 387.20"/>
<title>Segment j_1</title>
<desc>Segment j_1: abSegment(R_2, Q_2, S_2)</desc>
</g>
<g transform="matrix(1.0000, 0.0000, 0.0000, 1.0000, 637.00, 413.00)">
<text>a</text>
</g> 
</g> 
<g id="sg-k_1">
<g stroke-width="6.5000" fill="none" stroke="#cc9900">
  <path d="M 627.08 387.20 L 644.25 314.46"/>
<title>Segment k_1</title>
<desc>Segment k_1: abSegment(R_2, Q_2, S_2)</desc>
</g>
<g transform="matrix(1.0000, 0.0000, 0.0000, 1.0000, 651.00, 354.00)">
<text>b</text>
</g> 
</g> 
<g id="pt-P_2">
<g class="point bottom">
  <path d="M 630.08 314.46 C 630.08 316.12 628.74 317.46 627.08 317.46 C 625.43 317.46 624.08 316.12 624.08 314.46 C 624.08 312.80 625.43 311.46 627.08 311.46 C 628.74 311.46 630.08 312.80 630.08 314.46 z"/>
<title>Point P_2</title>
<desc>Point P_2: Intersection point of c008, n</desc>
</g>
<g class="point top">
  <path d="M 630.08 314.46 C 630.08 316.12 628.74 317.46 627.08 317.46 C 625.43 317.46 624.08 316.12 624.08 314.46 C 624.08 312.80 625.43 311.46 627.08 311.46 C 628.74 311.46 630.08 312.80 630.08 314.46 z"/>
<title>Point P_2</title>
<desc>Point P_2: Intersection point of c008, n</desc>
</g> 
</g> 
<g id="pt-Q_2">
<g class="point bottom">
  <path d="M 630.08 387.20 C 630.08 388.86 628.74 390.20 627.08 390.20 C 625.43 390.20 624.08 388.86 624.08 387.20 C 624.08 385.54 625.43 384.20 627.08 384.20 C 628.74 384.20 630.08 385.54 630.08 387.20 z"/>
<title>Point Q_2</title>
<desc>Point Q_2: Intersection point of c008, n</desc>
</g>
<g class="point top">
  <path d="M 630.08 387.20 C 630.08 388.86 628.74 390.20 627.08 390.20 C 625.43 390.20 624.08 388.86 624.08 387.20 C 624.08 385.54 625.43 384.20 627.08 384.20 C 628.74 384.20 630.08 385.54 630.08 387.20 z"/>
<title>Point Q_2</title>
<desc>Point Q_2: Intersection point of c008, n</desc>
</g> 
</g> 
<g id="pt-R_2">
<g class="point bottom">
  <path d="M 619.47 432.16 C 619.47 433.81 618.13 435.16 616.47 435.16 C 614.81 435.16 613.47 433.81 613.47 432.16 C 613.47 430.50 614.81 429.16 616.47 429.16 C 618.13 429.16 619.47 430.50 619.47 432.16 z"/>
<title>Point R_2</title>
<desc>Point R_2: Intersection of l and i000</desc>
</g>
<g class="point top">
  <path d="M 619.47 432.16 C 619.47 433.81 618.13 435.16 616.47 435.16 C 614.81 435.16 613.47 433.81 613.47 432.16 C 613.47 430.50 614.81 429.16 616.47 429.16 C 618.13 429.16 619.47 430.50 619.47 432.16 z"/>
<title>Point R_2</title>
<desc>Point R_2: Intersection of l and i000</desc>
</g> 
</g> 
<g id="pt-S_2">
<g class="point bottom">
  <path d="M 647.25 314.46 C 647.25 316.12 645.91 317.46 644.25 317.46 C 642.60 317.46 641.25 316.12 641.25 314.46 C 641.25 312.80 642.60 311.46 644.25 311.46 C 645.91 311.46 647.25 312.80 647.25 314.46 z"/>
<title>Point S_2</title>
<desc>Point S_2: Intersection of g and l</desc>
</g>
<g class="point top">
  <path d="M 647.25 314.46 C 647.25 316.12 645.91 317.46 644.25 317.46 C 642.60 317.46 641.25 316.12 641.25 314.46 C 641.25 312.80 642.60 311.46 644.25 311.46 C 645.91 311.46 647.25 312.80 647.25 314.46 z"/>
<title>Point S_2</title>
<desc>Point S_2: Intersection of g and l</desc>
</g> 
</g> 
</g>
<g id="layer1">
</g>
<g id="layer2">
</g>
<g id="layer3">
</g>
<g id="layer4">
</g>
<g id="layer5">
</g>
<g id="layer6">
<g id="c-c000w">
<g class="circle s-808080">
  <path d="M 817.52 432.16 C 817.52 577.50 699.69 695.33 554.34 695.33 C 409.00 695.33 291.17 577.50 291.17 432.16 C 291.17 286.81 409.00 168.98 554.34 168.98 C 699.69 168.98 817.52 286.81 817.52 432.16 z"/>
<title>Circle c000w</title>
<desc>Circle c000w: Circle through p000e with center p000w</desc>
</g> 
</g> 
<g id="c-c000e">
<g class="circle s-808080">
  <path d="M 1080.7 432.16 C 1080.7 577.50 962.87 695.33 817.52 695.33 C 672.17 695.33 554.34 577.50 554.34 432.16 C 554.34 286.81 672.17 168.98 817.52 168.98 C 962.87 168.98 1080.7 286.81 1080.7 432.16 z"/>
<title>Circle c000e</title>
<desc>Circle c000e: Circle through p000w with center p000e</desc>
</g> 
</g> 
<g id="c-c001w">
<g class="circle s-808080">
  <path d="M 1080.7 432.16 C 1080.7 722.85 845.04 958.51 554.34 958.51 C 263.65 958.51 27.994 722.85 27.994 432.16 C 27.994 141.46 263.65 -94.194 554.34 -94.194 C 845.04 -94.194 1080.7 141.46 1080.7 432.16 z"/>
<title>Circle c001w</title>
<desc>Circle c001w: Circle through p003e with center p000w</desc>
</g> 
</g> 
<g id="c-c001e">
<g class="circle s-808080">
  <path d="M 1343.9 432.16 C 1343.9 722.85 1108.2 958.51 817.52 958.51 C 526.82 958.51 291.17 722.85 291.17 432.16 C 291.17 141.46 526.82 -94.194 817.52 -94.194 C 1108.2 -94.194 1343.9 141.46 1343.9 432.16 z"/>
<title>Circle c001e</title>
<desc>Circle c001e: Circle through p003w with center p000e</desc>
</g> 
</g> 
<g id="c-c002w">
<g class="circle s-808080">
  <path d="M 817.52 432.16 C 817.52 722.85 581.86 958.51 291.17 958.51 C .47348 958.51 -235.18 722.85 -235.18 432.16 C -235.18 141.46 .47348 -94.194 291.17 -94.194 C 581.86 -94.194 817.52 141.46 817.52 432.16 z"/>
<title>Circle c002w</title>
<desc>Circle c002w: Circle through p000e with center p003w</desc>
</g> 
</g> 
<g id="c-c002e">
<g class="circle s-808080">
  <path d="M 1607.0 432.16 C 1607.0 722.85 1371.4 958.51 1080.7 958.51 C 790.00 958.51 554.34 722.85 554.34 432.16 C 554.34 141.46 790.00 -94.194 1080.7 -94.194 C 1371.4 -94.194 1607.0 141.46 1607.0 432.16 z"/>
<title>Circle c002e</title>
<desc>Circle c002e: Circle through p000w with center p003e</desc>
</g> 
</g> 
<g id="c-c003">
<g class="circle s-339900">
  <path d="M 980.17 432.16 C 980.17 594.66 848.43 726.39 685.93 726.39 C 523.43 726.39 391.69 594.66 391.69 432.16 C 391.69 269.65 523.43 137.92 685.93 137.92 C 848.43 137.92 980.17 269.65 980.17 432.16 z"/>
<title>Circle c003</title>
<desc>Circle c003: Circle with center p002 and radius r003</desc>
</g> 
</g> 
<g id="c-c003">
<g class="circle s-339900">
  <path d="M 980.17 432.16 C 980.17 594.66 848.43 726.39 685.93 726.39 C 523.43 726.39 391.69 594.66 391.69 432.16 C 391.69 269.65 523.43 137.92 685.93 137.92 C 848.43 137.92 980.17 269.65 980.17 432.16 z"/>
<title>Circle c003</title>
<desc>Circle c003: Circle with center p002 and radius r003</desc>
</g> 
</g> 
<g id="c-cg001w">
<g class="circle s-cc9900">
  <path d="M 716.99 432.16 C 716.99 521.99 644.17 594.81 554.34 594.81 C 464.51 594.81 391.69 521.99 391.69 432.16 C 391.69 342.33 464.51 269.50 554.34 269.50 C 644.17 269.50 716.99 342.33 716.99 432.16 z"/>
<title>Circle cg001w</title>
<desc>Circle cg001w: Circle with center p000w and radius g002a2</desc>
</g> 
</g> 
<g id="c-cg001e">
<g class="circle s-cc9900">
  <path d="M 980.17 432.16 C 980.17 521.99 907.35 594.81 817.52 594.81 C 727.69 594.81 654.87 521.99 654.87 432.16 C 654.87 342.33 727.69 269.50 817.52 269.50 C 907.35 269.50 980.17 342.33 980.17 432.16 z"/>
<title>Circle cg001e</title>
<desc>Circle cg001e: Circle with center p000e and radius g002a1</desc>
</g> 
</g> 
<g id="c-c004">
<g class="circle s-808080">
  <path d="M 817.52 432.16 C 817.52 504.83 758.60 563.74 685.93 563.74 C 613.26 563.74 554.34 504.83 554.34 432.16 C 554.34 359.48 613.26 300.57 685.93 300.57 C 758.60 300.57 817.52 359.48 817.52 432.16 z"/>
<title>Circle c004</title>
<desc>Circle c004: Circle through p000w with center p002</desc>
</g> 
</g> 
<g id="c-c005">
<g class="circle s-339900">
  <path d="M 716.99 168.98 C 716.99 258.81 644.17 331.63 554.34 331.63 C 464.51 331.63 391.69 258.81 391.69 168.98 C 391.69 79.151 464.51 6.3297 554.34 6.3297 C 644.17 6.3297 716.99 79.151 716.99 168.98 z"/>
<title>Circle c005</title>
<desc>Circle c005: Circle with center p006nw and radius g003a2</desc>
</g> 
</g> 
<g id="c-c006">
<g class="circle s-339900">
  <path d="M 980.17 168.98 C 980.17 404.16 789.52 594.81 554.34 594.81 C 319.17 594.81 128.52 404.16 128.52 168.98 C 128.52 -66.196 319.17 -256.85 554.34 -256.85 C 789.52 -256.85 980.17 -66.196 980.17 168.98 z"/>
<title>Circle c006</title>
<desc>Circle c006: Circle through p008se with center p006nw</desc>
</g> 
</g> 
<g id="c-cb001a">
<g class="circle s-c0c0c0">
  <path d="M 692.70 432.16 C 692.70 508.57 630.76 570.52 554.34 570.52 C 477.93 570.52 415.98 508.57 415.98 432.16 C 415.98 355.74 477.93 293.80 554.34 293.80 C 630.76 293.80 692.70 355.74 692.70 432.16 z"/>
<title>Circle cb001a</title>
<desc>Circle cb001a: bisector(p000w, p008nw)</desc>
</g> 
</g> 
<g id="c-cb001b">
<g class="circle s-c0c0c0">
  <path d="M 765.44 314.46 C 765.44 390.87 703.50 452.82 627.08 452.82 C 550.67 452.82 488.72 390.87 488.72 314.46 C 488.72 238.05 550.67 176.10 627.08 176.10 C 703.50 176.10 765.44 238.05 765.44 314.46 z"/>
<title>Circle cb001b</title>
<desc>Circle cb001b: bisector(p000w, p008nw)</desc>
</g> 
</g> 
<g id="c-c007w">
<g class="circle s-808080">
  <path d="M 685.93 432.16 C 685.93 504.83 627.02 563.74 554.34 563.74 C 481.67 563.74 422.76 504.83 422.76 432.16 C 422.76 359.48 481.67 300.57 554.34 300.57 C 627.02 300.57 685.93 359.48 685.93 432.16 z"/>
<title>Circle c007w</title>
<desc>Circle c007w: Circle through p002 with center p000w</desc>
</g> 
</g> 
<g id="c-c007e">
<g class="circle s-808080">
  <path d="M 949.11 432.16 C 949.11 504.83 890.19 563.74 817.52 563.74 C 744.84 563.74 685.93 504.83 685.93 432.16 C 685.93 359.48 744.84 300.57 817.52 300.57 C 890.19 300.57 949.11 359.48 949.11 432.16 z"/>
<title>Circle c007e</title>
<desc>Circle c007e: Circle through p002 with center p000e</desc>
</g> 
</g> 
<g id="c-c008">
<g class="circle s-808080">
  <path d="M 635.67 350.83 C 635.67 395.75 599.26 432.16 554.34 432.16 C 509.43 432.16 473.02 395.75 473.02 350.83 C 473.02 305.92 509.43 269.50 554.34 269.50 C 599.26 269.50 635.67 305.92 635.67 350.83 z"/>
<title>Circle c008</title>
<desc>Circle c008: Circle through p000w with center G</desc>
</g> 
</g> 
<g id="c-c">
<g class="circle s-808080">
  <path d="M 716.99 695.33 C 716.99 785.16 644.17 857.98 554.34 857.98 C 464.51 857.98 391.69 785.16 391.69 695.33 C 391.69 605.50 464.51 532.68 554.34 532.68 C 644.17 532.68 716.99 605.50 716.99 695.33 z"/>
<title>Circle c</title>
<desc>Circle c: Circle through p008sw with center p006sw</desc>
</g> 
</g> 
<g id="c-d">
<g class="circle s-808080">
  <path d="M 980.17 695.33 C 980.17 930.51 789.52 1121.2 554.34 1121.2 C 319.17 1121.2 128.52 930.51 128.52 695.33 C 128.52 460.15 319.17 269.50 554.34 269.50 C 789.52 269.50 980.17 460.15 980.17 695.33 z"/>
<title>Circle d</title>
<desc>Circle d: Circle through p008ne with center p006sw</desc>
</g> 
</g> 
<g id="c-e">
<g class="circle s-808080">
  <path d="M 980.17 168.98 C 980.17 258.81 907.35 331.63 817.52 331.63 C 727.69 331.63 654.87 258.81 654.87 168.98 C 654.87 79.151 727.69 6.3297 817.52 6.3297 C 907.35 6.3297 980.17 79.151 980.17 168.98 z"/>
<title>Circle e</title>
<desc>Circle e: Circle through p008ne with center p006ne</desc>
</g> 
</g> 
<g id="c-p">
<g class="circle s-808080">
  <path d="M 980.17 695.33 C 980.17 785.16 907.35 857.98 817.52 857.98 C 727.69 857.98 654.87 785.16 654.87 695.33 C 654.87 605.50 727.69 532.68 817.52 532.68 C 907.35 532.68 980.17 605.50 980.17 695.33 z"/>
<title>Circle p</title>
<desc>Circle p: Circle through p008se with center p006se</desc>
</g> 
</g> 
<g id="c-q">
<g class="circle s-808080">
  <path d="M 1243.3 695.33 C 1243.3 930.51 1052.7 1121.2 817.52 1121.2 C 582.34 1121.2 391.69 930.51 391.69 695.33 C 391.69 460.15 582.34 269.50 817.52 269.50 C 1052.7 269.50 1243.3 460.15 1243.3 695.33 z"/>
<title>Circle q</title>
<desc>Circle q: Circle through p008nw with center p006se</desc>
</g> 
</g> 
</g>
<g id="graphics">
</g>
<g id="sections">
<g>
<g stroke-dasharray="2.0000,3.0000" stroke-width="2.0000" fill="none" stroke="#7f00ff">
  <path d="M 147.05 828.00 L 661.87 -5.0000"/>
<title>Line l_1</title>
<desc>Line l_1: Line p006nw, p007w</desc>
</g> 
</g> 
<g>
<g stroke-dasharray="2.0000,3.0000" stroke-width="2.0000" fill="none" stroke="#7f00ff">
  <path d="M 636.34 828.00 L 121.52 -5.0000"/>
<title>Line m_1</title>
<desc>Line m_1: Line p007w, p006sw</desc>
</g> 
</g> 
<g>
<g stroke-dasharray="2.0000,3.0000" stroke-width="2.0000" fill="none" stroke="#66ccff">
  <path d="M -4.1518 828.00 L 828.85 -5.0000"/>
<title>Line n_1</title>
<desc>Line n_1: Line S, p007w</desc>
</g> 
</g> 
<g>
<g stroke-dasharray="2.0000,3.0000" stroke-width="2.0000" fill="none" stroke="#66ccff">
  <path d="M -5.0000 301.02 L 1291.3 -5.0000"/>
<title>Line p_1</title>
<desc>Line p_1: Line S, p006nw</desc>
</g> 
</g> 
<g>
<g stroke-dasharray="2.0000,3.0000" stroke-width="2.0000" fill="none" stroke="#66ccff">
  <path d="M 1292.0 743.99 L 543.01 -5.0000"/>
<title>Line q_1</title>
<desc>Line q_1: Line S, p007e</desc>
</g> 
</g> 
<g>
<g stroke-dasharray="2.0000,3.0000" stroke-width="2.0000" fill="none" stroke="#66ccff">
  <path d="M 80.524 -5.0000 L 1292.0 280.99"/>
<title>Line r_1</title>
<desc>Line r_1: Line S, p006ne</desc>
</g> 
</g> 
<g>
<g stroke-dasharray="2.0000,3.0000" stroke-width="2.0000" fill="none" stroke="#66ccff">
  <path d="M 377.32 828.00 L 749.85 -5.0000"/>
<title>Line s_1</title>
<desc>Line s_1: Line S, p000w</desc>
</g> 
</g> 
<g>
<g stroke-dasharray="2.0000,3.0000" stroke-width="2.0000" fill="none" stroke="#66ccff">
  <path d="M 994.55 828.00 L 622.02 -5.0000"/>
<title>Line t_1</title>
<desc>Line t_1: Line S, p000e</desc>
</g> 
</g> 
<g id="sg-unit">
<g class="segment s-ffffff">
  <path d="M 554.34 432.16 L 817.52 432.16"/>
<title>Segment unit</title>
<desc>Segment unit: Segment p000w, p000e</desc>
</g> 
</g> 
<g id="sg-Q3">
<g class="segment s-ff6699">
  <path d="M 685.93 204.24 L 685.93 660.07"/>
<title>Segment Q3</title>
<desc>Segment Q3: Segment p001n, p001s</desc>
</g>
<g transform="matrix(1.0000, 0.0000, 0.0000, 1.0000, 696.00, 458.00)">
<text>Q: 3</text>
</g> 
</g> 
<g id="sg-g001a2">
<g class="segment s-cc9900 a">
  <path d="M 685.93 204.24 L 685.93 -5.0000"/>
<title>Segment g001a2</title>
<desc>Segment g001a2: abaSegments(p004n, p001n, p001s, p004s)</desc>
</g>
<g transform="matrix(1.0000, 0.0000, 0.0000, 1.0000, 666.00, 50.000)">
<text>a</text>
</g> 
</g> 
<g id="sg-g001b">
<g class="segment s-cc9900 b">
  <path d="M 685.93 204.24 L 685.93 660.07"/>
<title>Segment g001b</title>
<desc>Segment g001b: abaSegments(p004n, p001n, p001s, p004s)</desc>
</g>
<g transform="matrix(1.0000, 0.0000, 0.0000, 1.0000, 665.00, 395.00)">
<text>b</text>
</g> 
</g> 
<g id="sg-g001a1">
<g class="segment s-cc9900 a">
  <path d="M 685.93 660.07 L 685.93 828.00"/>
<title>Segment g001a1</title>
<desc>Segment g001a1: abaSegments(p004n, p001n, p001s, p004s)</desc>
</g>
<g transform="matrix(1.0000, 0.0000, 0.0000, 1.0000, 669.00, 800.00)">
<text>a</text>
</g> 
</g> 
<g id="sg-y4d">
<g class="segment s-99ff00">
  <path d="M 554.34 168.98 L 817.52 168.98"/>
<title>Segment y4d</title>
<desc>Segment y4d: Segment p006nw, p006ne</desc>
</g> 
</g> 
<g id="sg-y4c">
<g class="segment s-99ff00">
  <path d="M 817.52 168.98 L 817.52 432.16"/>
<title>Segment y4c</title>
<desc>Segment y4c: Segment p006ne, p000e</desc>
</g> 
</g> 
<g id="sg-y4b">
<g class="segment s-99ff00">
  <path d="M 817.52 432.16 L 554.34 432.16"/>
<title>Segment y4b</title>
<desc>Segment y4b: Segment p000e, p000w</desc>
</g> 
</g> 
<g id="sg-y4a">
<g class="segment s-99ff00">
  <path d="M 554.34 432.16 L 554.34 168.98"/>
<title>Segment y4a</title>
<desc>Segment y4a: Segment p000w, p006nw</desc>
</g> 
</g> 
<g id="sg-Q5">
<g class="segment s-99ff00 Q5">
  <path d="M 554.34 168.98 L 817.52 695.33"/>
<title>Segment Q5</title>
<desc>Segment Q5: Segment p006nw, p006se</desc>
</g>
<g transform="matrix(1.0000, 0.0000, 0.0000, 1.0000, 699.00, 419.00)">
<text>Q5</text>
</g> 
</g> 
<g id="sg-r003">
<g class="segment s-339900">
  <path d="M 685.93 432.16 L 554.34 168.98"/>
<title>Segment r003</title>
<desc>Segment r003: Segment p002, p006nw</desc>
</g> 
</g> 
<g id="sg-g002a2">
<g class="segment s-cc9900">
  <path d="M 391.69 432.16 L 554.34 432.16"/>
<title>Segment g002a2</title>
<desc>Segment g002a2: abaSegments(p007w, p000w, p000e, p007e)</desc>
</g>
<g transform="matrix(1.0000, 0.0000, 0.0000, 1.0000, 469.00, 452.00)">
<text>a</text>
</g> 
</g> 
<g id="sg-g002b">
<g class="segment s-cc9900 b">
  <path d="M 554.34 432.16 L 817.52 432.16"/>
<title>Segment g002b</title>
<desc>Segment g002b: abaSegments(p007w, p000w, p000e, p007e)</desc>
</g>
<g transform="matrix(1.0000, 0.0000, 0.0000, 1.0000, 703.00, 455.00)">
<text>b</text>
</g> 
</g> 
<g id="sg-g002a1">
<g class="segment s-cc9900 a">
  <path d="M 817.52 432.16 L 980.17 432.16"/>
<title>Segment g002a1</title>
<desc>Segment g002a1: abaSegments(p007w, p000w, p000e, p007e)</desc>
</g>
<g transform="matrix(1.0000, 0.0000, 0.0000, 1.0000, 897.00, 454.00)">
<text>a</text>
</g> 
</g> 
<g id="sg-g003a2">
<g class="segment s-cc9900 a">
  <path d="M 554.34 168.98 L 627.08 314.46"/>
<title>Segment g003a2</title>
<desc>Segment g003a2: abaSegments(p006nw, p008nw, p008se, p006se)</desc>
</g>
<g transform="matrix(1.0000, 0.0000, 0.0000, 1.0000, 600.00, 243.00)">
<text>a</text>
</g> 
</g> 
<g id="sg-g003b">
<g class="segment s-cc9900 b">
  <path d="M 627.08 314.46 L 744.78 549.85"/>
<title>Segment g003b</title>
<desc>Segment g003b: abaSegments(p006nw, p008nw, p008se, p006se)</desc>
</g>
<g transform="matrix(1.0000, 0.0000, 0.0000, 1.0000, 697.00, 426.00)">
<text>b</text>
</g> 
</g> 
<g id="sg-g003a1">
<g class="segment s-cc9900 a">
  <path d="M 744.78 549.85 L 817.52 695.33"/>
<title>Segment g003a1</title>
<desc>Segment g003a1: abaSegments(p006nw, p008nw, p008se, p006se)</desc>
</g>
<g transform="matrix(1.0000, 0.0000, 0.0000, 1.0000, 790.00, 624.00)">
<text>a</text>
</g> 
</g> 
<g id="sg-y5b">
<g class="segment s-339900">
  <path d="M 399.65 219.24 L 709.03 219.24"/>
<title>Segment y5b</title>
<desc>Segment y5b: Segment p009a, p009b</desc>
</g> 
</g> 
<g id="sg-y5c">
<g class="segment s-339900">
  <path d="M 709.03 219.24 L 804.64 513.48"/>
<title>Segment y5c</title>
<desc>Segment y5c: Segment p009b, p009c</desc>
</g> 
</g> 
<g id="sg-y5d">
<g class="segment s-339900">
  <path d="M 804.64 513.48 L 554.34 695.33"/>
<title>Segment y5d</title>
<desc>Segment y5d: Segment p009c, p006sw</desc>
</g> 
</g> 
<g id="sg-y5e">
<g class="segment s-339900">
  <path d="M 554.34 695.33 L 304.05 513.48"/>
<title>Segment y5e</title>
<desc>Segment y5e: Segment p006sw, p009d</desc>
</g> 
</g> 
<g id="sg-y5a">
<g class="segment s-339900">
  <path d="M 304.05 513.48 L 399.65 219.24"/>
<title>Segment y5a</title>
<desc>Segment y5a: Segment p009d, p009a</desc>
</g> 
</g> 
<g id="sg-g004a">
<g class="segment s-cc9900">
  <path d="M 554.34 432.16 L 554.34 331.63"/>
<title>Segment g004a</title>
<desc>Segment g004a: abSegment(p000w, p009s, p006nw)</desc>
</g>
<g transform="matrix(1.0000, 0.0000, 0.0000, 1.0000, 536.00, 387.00)">
<text>a</text>
</g> 
</g> 
<g id="sg-g004b">
<g class="segment s-cc9900 b">
  <path d="M 554.34 331.63 L 554.34 168.98"/>
<title>Segment g004b</title>
<desc>Segment g004b: abSegment(p000w, p009s, p006nw)</desc>
</g>
<g transform="matrix(1.0000, 0.0000, 0.0000, 1.0000, 531.00, 258.00)">
<text>b</text>
</g> 
</g> 
<g id="sg-g005a">
<g class="segment s-cc9900 a">
  <path d="M 391.69 432.16 L 554.34 331.63"/>
<title>Segment g005a</title>
<desc>Segment g005a: abSegment(p007w, p009s, p006ne)</desc>
</g>
<g transform="matrix(1.0000, 0.0000, 0.0000, 1.0000, 481.00, 395.00)">
<text>a</text>
</g> 
</g> 
<g id="sg-g005b">
<g class="segment s-cc9900 b">
  <path d="M 554.34 331.63 L 817.52 168.98"/>
<title>Segment g005b</title>
<desc>Segment g005b: abSegment(p007w, p009s, p006ne)</desc>
</g>
<g transform="matrix(1.0000, 0.0000, 0.0000, 1.0000, 700.00, 262.00)">
<text>b</text>
</g> 
</g> 
<g id="sg-g006a">
<g class="segment s-cc9900 a">
  <path d="M 291.17 432.16 L 391.69 432.16"/>
<title>Segment g006a</title>
<desc>Segment g006a: abSegment(p003w, p007w, p000w)</desc>
</g>
<g transform="matrix(1.0000, 0.0000, 0.0000, 1.0000, 338.00, 420.00)">
<text>a</text>
</g> 
</g> 
<g id="sg-g006b">
<g class="segment s-cc9900 b">
  <path d="M 391.69 432.16 L 554.34 432.16"/>
<title>Segment g006b</title>
<desc>Segment g006b: abSegment(p003w, p007w, p000w)</desc>
</g>
<g transform="matrix(1.0000, 0.0000, 0.0000, 1.0000, 472.00, 422.00)">
<text>b</text>
</g> 
</g> 
<g id="sg-g007a">
<g class="segment s-cc9900 a">
  <path d="M 554.34 695.33 L 554.34 594.81"/>
<title>Segment g007a</title>
<desc>Segment g007a: abSegment(p006sw, C, p000w)</desc>
</g>
<g transform="matrix(1.0000, 0.0000, 0.0000, 1.0000, 534.00, 646.00)">
<text>a</text>
</g> 
</g> 
<g id="sg-g007b">
<g class="segment s-cc9900 b">
  <path d="M 554.34 594.81 L 554.34 432.16"/>
<title>Segment g007b</title>
<desc>Segment g007b: abSegment(p006sw, C, p000w)</desc>
</g>
<g transform="matrix(1.0000, 0.0000, 0.0000, 1.0000, 532.00, 518.00)">
<text>b</text>
</g> 
</g> 
<g id="sg-g008a">
<g class="segment s-cc9900 a">
  <path d="M 554.34 350.83 L 554.34 432.16"/>
<title>Segment g008a</title>
<desc>Segment g008a: abSegment(G, p000w, H)</desc>
</g>
<g transform="matrix(1.0000, 0.0000, 0.0000, 1.0000, 538.00, 391.00)">
<text>a</text>
</g> 
</g> 
<g id="sg-g008b">
<g class="segment s-cc9900 b">
  <path d="M 554.34 432.16 L 554.34 563.74"/>
<title>Segment g008b</title>
<desc>Segment g008b: abSegment(G, p000w, H)</desc>
</g>
<g transform="matrix(1.0000, 0.0000, 0.0000, 1.0000, 538.00, 497.00)">
<text>b</text>
</g> 
</g> 
<g id="sg-g009a">
<g class="segment s-cc9900 a">
  <path d="M 554.34 350.83 L 554.34 331.63"/>
<title>Segment g009a</title>
<desc>Segment g009a: abSegment(G, p009s, D)</desc>
</g>
<g transform="matrix(1.0000, 0.0000, 0.0000, 1.0000, 538.00, 360.00)">
<text>a</text>
</g> 
</g> 
<g id="sg-g009b">
<g class="segment s-cc9900 b">
  <path d="M 554.34 331.63 L 554.34 300.57"/>
<title>Segment g009b</title>
<desc>Segment g009b: abSegment(G, p009s, D)</desc>
</g>
<g transform="matrix(1.0000, 0.0000, 0.0000, 1.0000, 537.00, 320.00)">
<text>b</text>
</g> 
</g> 
<g id="sg-g010a">
<g class="segment s-cc9900 a">
  <path d="M 554.34 168.98 L 554.34 219.24"/>
<title>Segment g010a</title>
<desc>Segment g010a: abSegment(p006nw, F, D)</desc>
</g>
<g transform="matrix(1.0000, 0.0000, 0.0000, 1.0000, 536.00, 202.00)">
<text>a</text>
</g> 
</g> 
<g id="sg-g010b">
<g class="segment s-cc9900 b">
  <path d="M 554.34 219.24 L 554.34 300.57"/>
<title>Segment g010b</title>
<desc>Segment g010b: abSegment(p006nw, F, D)</desc>
</g>
<g transform="matrix(1.0000, 0.0000, 0.0000, 1.0000, 536.00, 261.00)">
<text>b</text>
</g> 
</g> 
<g id="sg-g0102b2">
<g class="segment s-cc9900 b">
  <path d="M 554.34 432.16 L 654.87 432.16"/>
<title>Segment g0102b2</title>
<desc>Segment g0102b2: babSegment(p000w, L, O, p000e)</desc>
</g>
<g transform="matrix(1.0000, 0.0000, 0.0000, 1.0000, 603.00, 451.00)">
<text>b</text>
</g> 
</g> 
<g id="sg-g0102a">
<g class="segment s-cc9900 a">
  <path d="M 654.87 432.16 L 716.99 432.16"/>
<title>Segment g0102a</title>
<desc>Segment g0102a: babSegment(p000w, L, O, p000e)</desc>
</g>
<g transform="matrix(1.0000, 0.0000, 0.0000, 1.0000, 692.00, 453.00)">
<text>a</text>
</g> 
</g> 
<g id="sg-g0102b1">
<g class="segment s-cc9900 b">
  <path d="M 716.99 432.16 L 817.52 432.16"/>
<title>Segment g0102b1</title>
<desc>Segment g0102b1: babSegment(p000w, L, O, p000e)</desc>
</g>
<g transform="matrix(1.0000, 0.0000, 0.0000, 1.0000, 765.00, 452.00)">
<text>b</text>
</g> 
</g> 
<g id="sg-g011a">
<g class="segment s-cc9900 a">
  <path d="M 554.34 6.3297 L 554.34 168.98"/>
<title>Segment g011a</title>
<desc>Segment g011a: abSegment(p009n, p006nw, p000w)</desc>
</g>
<g transform="matrix(1.0000, 0.0000, 0.0000, 1.0000, 538.00, 87.000)">
<text>a</text>
</g> 
</g> 
<g id="sg-g011b">
<g class="segment s-cc9900 b">
  <path d="M 554.34 168.98 L 554.34 432.16"/>
<title>Segment g011b</title>
<desc>Segment g011b: abSegment(p009n, p006nw, p000w)</desc>
</g>
<g transform="matrix(1.0000, 0.0000, 0.0000, 1.0000, 538.00, 300.00)">
<text>b</text>
</g> 
</g> 
<g id="sg-g012a2">
<g class="segment s-cc9900 a">
  <path d="M 554.34 314.46 L 627.08 314.46"/>
<title>Segment g012a2</title>
<desc>Segment g012a2: abaSegments(W, p008nw, p008ne, Z)</desc>
</g>
<g transform="matrix(1.0000, 0.0000, 0.0000, 1.0000, 599.00, 338.00)">
<text>a</text>
</g> 
</g> 
<g id="sg-g012b">
<g class="segment s-cc9900 b">
  <path d="M 627.08 314.46 L 744.78 314.46"/>
<title>Segment g012b</title>
<desc>Segment g012b: abaSegments(W, p008nw, p008ne, Z)</desc>
</g>
<g transform="matrix(1.0000, 0.0000, 0.0000, 1.0000, 699.00, 339.00)">
<text>b</text>
</g> 
</g> 
<g id="sg-g012a1">
<g class="segment s-cc9900 a">
  <path d="M 744.78 314.46 L 817.52 314.46"/>
<title>Segment g012a1</title>
<desc>Segment g012a1: abaSegments(W, p008nw, p008ne, Z)</desc>
</g>
<g transform="matrix(1.0000, 0.0000, 0.0000, 1.0000, 764.00, 338.00)">
<text>a</text>
</g> 
</g> 
<g id="sg-g013a">
<g class="segment s-cc9900 a">
  <path d="M 554.34 331.63 L 582.13 314.46"/>
<title>Segment g013a</title>
<desc>Segment g013a: abSegment(p009s, C_1, A_1)</desc>
</g>
<g transform="matrix(1.0000, 0.0000, 0.0000, 1.0000, 559.00, 309.00)">
<text>a</text>
</g> 
</g> 
<g id="sg-g013b">
<g class="segment s-cc9900 b">
  <path d="M 582.13 314.46 L 627.08 286.68"/>
<title>Segment g013b</title>
<desc>Segment g013b: abSegment(p009s, C_1, A_1)</desc>
</g>
<g transform="matrix(1.0000, 0.0000, 0.0000, 1.0000, 596.00, 296.00)">
<text>b</text>
</g> 
</g> 
<g id="sg-g014a">
<g class="segment s-cc9900 a">
  <path d="M 554.34 314.46 L 582.13 314.46"/>
<title>Segment g014a</title>
<desc>Segment g014a: abSegment(W, C_1, p008nw)</desc>
</g>
<g transform="matrix(1.0000, 0.0000, 0.0000, 1.0000, 568.00, 330.00)">
<text>a</text>
</g> 
</g> 
<g id="sg-g014b">
<g class="segment s-cc9900 b">
  <path d="M 582.13 314.46 L 627.08 314.46"/>
<title>Segment g014b</title>
<desc>Segment g014b: abSegment(W, C_1, p008nw)</desc>
</g>
<g transform="matrix(1.0000, 0.0000, 0.0000, 1.0000, 604.00, 330.00)">
<text>b</text>
</g> 
</g> 
<g id="sg-g015a">
<g class="segment s-cc9900 a">
  <path d="M 554.34 513.48 L 554.34 432.16"/>
<title>Segment g015a</title>
<desc>Segment g015a: abSegment(D_1, p000w, D)</desc>
</g>
<g transform="matrix(1.0000, 0.0000, 0.0000, 1.0000, 532.00, 477.00)">
<text>a</text>
</g> 
</g> 
<g id="sg-g015b">
<g class="segment s-cc9900 b">
  <path d="M 554.34 432.16 L 554.34 300.57"/>
<title>Segment g015b</title>
<desc>Segment g015b: abSegment(D_1, p000w, D)</desc>
</g>
<g transform="matrix(1.0000, 0.0000, 0.0000, 1.0000, 535.00, 387.00)">
<text>b</text>
</g> 
</g> 
<g id="sg-g016a2">
<g class="segment s-cc9900 a">
  <path d="M 627.08 168.98 L 627.08 314.46"/>
<title>Segment g016a2</title>
<desc>Segment g016a2: abaSegments(F_1, p008nw, p008sw, G_1)</desc>
</g>
<g transform="matrix(1.0000, 0.0000, 0.0000, 1.0000, 610.00, 242.00)">
<text>a</text>
</g> 
</g> 
<g id="sg-g016b">
<g class="segment s-cc9900 b">
  <path d="M 627.08 314.46 L 627.08 549.85"/>
<title>Segment g016b</title>
<desc>Segment g016b: abaSegments(F_1, p008nw, p008sw, G_1)</desc>
</g>
<g transform="matrix(1.0000, 0.0000, 0.0000, 1.0000, 607.00, 426.00)">
<text>b</text>
</g> 
</g> 
<g id="sg-g016a1">
<g class="segment s-cc9900 a">
  <path d="M 627.08 549.85 L 627.08 695.33"/>
<title>Segment g016a1</title>
<desc>Segment g016a1: abaSegments(F_1, p008nw, p008sw, G_1)</desc>
</g>
<g transform="matrix(1.0000, 0.0000, 0.0000, 1.0000, 610.00, 629.00)">
<text>a</text>
</g> 
</g> 
<g id="sg-g017a">
<g class="segment s-cc9900 a">
  <path d="M 554.34 269.50 L 604.61 269.50"/>
<title>Segment g017a</title>
<desc>Segment g017a: abSegment(P, O_1, P_1)</desc>
</g>
<g transform="matrix(1.0000, 0.0000, 0.0000, 1.0000, 570.00, 259.00)">
<text>a</text>
</g> 
</g> 
<g id="sg-g017b">
<g class="segment s-cc9900 b">
  <path d="M 604.61 269.50 L 685.93 269.50"/>
<title>Segment g017b</title>
<desc>Segment g017b: abSegment(P, O_1, P_1)</desc>
</g>
<g transform="matrix(1.0000, 0.0000, 0.0000, 1.0000, 645.00, 259.00)">
<text>b</text>
</g> 
</g> 
<g id="sg-g018a">
<g class="segment s-cc9900 a">
  <path d="M 685.93 269.50 L 654.87 269.50"/>
<title>Segment g018a</title>
<desc>Segment g018a: abSegment(P_1, S_1, O_1)</desc>
</g>
<g transform="matrix(1.0000, 0.0000, 0.0000, 1.0000, 666.00, 254.00)">
<text>a</text>
</g> 
</g> 
<g id="sg-g018b">
<g class="segment s-cc9900 b">
  <path d="M 654.87 269.50 L 604.61 269.50"/>
<title>Segment g018b</title>
<desc>Segment g018b: abSegment(P_1, S_1, O_1)</desc>
</g>
<g transform="matrix(1.0000, 0.0000, 0.0000, 1.0000, 612.00, 256.00)">
<text>b</text>
</g> 
</g> 
<g id="sg-g019a">
<g class="segment s-cc9900 a">
  <path d="M 654.87 269.50 L 627.08 286.68"/>
<title>Segment g019a</title>
<desc>Segment g019a: abSegment(S_1, A_1, C_1)</desc>
</g>
<g transform="matrix(1.0000, 0.0000, 0.0000, 1.0000, 632.00, 264.00)">
<text>a</text>
</g> 
</g> 
<g id="sg-g019b">
<g class="segment s-cc9900 b">
  <path d="M 627.08 286.68 L 582.13 314.46"/>
<title>Segment g019b</title>
<desc>Segment g019b: abSegment(S_1, A_1, C_1)</desc>
</g>
<g transform="matrix(1.0000, 0.0000, 0.0000, 1.0000, 596.00, 286.00)">
<text>b</text>
</g> 
</g> 
<g id="sg-g020a">
<g class="segment s-cc9900 a">
  <path d="M 554.34 269.50 L 554.34 300.57"/>
<title>Segment g020a</title>
<desc>Segment g020a: abSegment(P, D, G)</desc>
</g>
<g transform="matrix(1.0000, 0.0000, 0.0000, 1.0000, 538.00, 285.00)">
<text>a</text>
</g> 
</g> 
<g id="sg-g020b">
<g class="segment s-cc9900 b">
  <path d="M 554.34 300.57 L 554.34 350.83"/>
<title>Segment g020b</title>
<desc>Segment g020b: abSegment(P, D, G)</desc>
</g>
<g transform="matrix(1.0000, 0.0000, 0.0000, 1.0000, 538.00, 325.00)">
<text>b</text>
</g> 
</g> 
<g id="sg-g021a">
<g class="segment s-cc9900 a">
  <path d="M 685.93 219.24 L 736.19 219.24"/>
<title>Segment g021a</title>
<desc>Segment g021a: abSegment(K, A_2, B_2)</desc>
</g>
<g transform="matrix(1.0000, 0.0000, 0.0000, 1.0000, 711.00, 235.00)">
<text>a</text>
</g> 
</g> 
<g id="sg-g021b">
<g class="segment s-cc9900 b">
  <path d="M 736.19 219.24 L 817.52 219.24"/>
<title>Segment g021b</title>
<desc>Segment g021b: abSegment(K, A_2, B_2)</desc>
</g>
<g transform="matrix(1.0000, 0.0000, 0.0000, 1.0000, 776.00, 235.00)">
<text>b</text>
</g> 
</g> 
<g id="sg-g022a">
<g class="segment s-cc9900 a">
  <path d="M 685.93 250.31 L 736.19 219.24"/>
<title>Segment g022a</title>
<desc>Segment g022a: abSegment(U, A_2, p006ne)</desc>
</g>
<g transform="matrix(1.0000, 0.0000, 0.0000, 1.0000, 719.00, 248.00)">
<text>a</text>
</g> 
</g> 
<g id="sg-g022b">
<g class="segment s-cc9900 b">
  <path d="M 736.19 219.24 L 817.52 168.98"/>
<title>Segment g022b</title>
<desc>Segment g022b: abSegment(U, A_2, p006ne)</desc>
</g>
<g transform="matrix(1.0000, 0.0000, 0.0000, 1.0000, 785.00, 207.00)">
<text>b</text>
</g> 
</g> 
<g id="sg-g023a">
<g class="segment s-cc9900 a">
  <path d="M 654.87 269.50 L 616.47 293.24"/>
<title>Segment g023a</title>
<desc>Segment g023a: abSegment(S_1, C_2, p009s)</desc>
</g>
<g transform="matrix(1.0000, 0.0000, 0.0000, 1.0000, 627.00, 267.00)">
<text>a</text>
</g> 
</g> 
<g id="sg-g023b">
<g class="segment s-cc9900 b">
  <path d="M 616.47 293.24 L 554.34 331.63"/>
<title>Segment g023b</title>
<desc>Segment g023b: abSegment(S_1, C_2, p009s)</desc>
</g>
<g transform="matrix(1.0000, 0.0000, 0.0000, 1.0000, 576.00, 298.00)">
<text>b</text>
</g> 
</g> 
<g id="sg-g024a">
<g class="segment s-cc9900 a">
  <path d="M 685.93 269.50 L 685.93 250.31"/>
<title>Segment g024a</title>
<desc>Segment g024a: abSegment(P_1, U, K)</desc>
</g>
<g transform="matrix(1.0000, 0.0000, 0.0000, 1.0000, 701.00, 259.00)">
<text>a</text>
</g> 
</g> 
<g id="sg-g024b">
<g class="segment s-cc9900 b">
  <path d="M 685.93 250.31 L 685.93 219.24"/>
<title>Segment g024b</title>
<desc>Segment g024b: abSegment(P_1, U, K)</desc>
</g>
<g transform="matrix(1.0000, 0.0000, 0.0000, 1.0000, 701.00, 234.00)">
<text>b</text>
</g> 
</g> 
<g id="sg-g025a">
<g class="segment s-cc9900 a">
  <path d="M 685.93 137.92 L 685.93 168.98"/>
<title>Segment g025a</title>
<desc>Segment g025a: abSegment(S, K_2, K)</desc>
</g>
<g transform="matrix(1.0000, 0.0000, 0.0000, 1.0000, 695.00, 158.00)">
<text>a</text>
</g> 
</g> 
<g id="sg-g025b">
<g class="segment s-cc9900 b">
  <path d="M 685.93 168.98 L 685.93 219.24"/>
<title>Segment g025b</title>
<desc>Segment g025b: abSegment(S, K_2, K)</desc>
</g>
<g transform="matrix(1.0000, 0.0000, 0.0000, 1.0000, 693.00, 197.00)">
<text>b</text>
</g> 
</g> 
<g id="sg-g026a">
<g class="segment s-cc9900 a">
  <path d="M 685.93 219.24 L 685.93 300.57"/>
<title>Segment g026a</title>
<desc>Segment g026a: abSegment(K, N_2, p002)</desc>
</g>
<g transform="matrix(1.0000, 0.0000, 0.0000, 1.0000, 669.00, 259.00)">
<text>a</text>
</g> 
</g> 
<g id="sg-g026b">
<g class="segment s-cc9900 b">
  <path d="M 685.93 300.57 L 685.93 432.16"/>
<title>Segment g026b</title>
<desc>Segment g026b: abSegment(K, N_2, p002)</desc>
</g>
<g transform="matrix(1.0000, 0.0000, 0.0000, 1.0000, 669.00, 366.00)">
<text>b</text>
</g> 
</g> 
<g id="sg-g027a">
<g class="segment s-cc9900 a">
  <path d="M 685.93 168.98 L 685.93 219.24"/>
<title>Segment g027a</title>
<desc>Segment g027a: abSegment(K_2, K, N_2)</desc>
</g>
<g transform="matrix(1.0000, 0.0000, 0.0000, 1.0000, 669.00, 194.00)">
<text>a</text>
</g> 
</g> 
<g id="sg-g027b">
<g class="segment s-cc9900 b">
  <path d="M 685.93 219.24 L 685.93 300.57"/>
<title>Segment g027b</title>
<desc>Segment g027b: abSegment(K_2, K, N_2)</desc>
</g>
<g transform="matrix(1.0000, 0.0000, 0.0000, 1.0000, 669.00, 259.00)">
<text>b</text>
</g> 
</g> 
<g id="pt-U_2">
<g class="point bottom">
  <path d="M 131.52 695.33 C 131.52 696.99 130.17 698.33 128.52 698.33 C 126.86 698.33 125.52 696.99 125.52 695.33 C 125.52 693.67 126.86 692.33 128.52 692.33 C 130.17 692.33 131.52 693.67 131.52 695.33 z"/>
<title>Point U_2</title>
<desc>Point U_2: Intersection of i003s and n_1</desc>
</g>
<g class="point top">
  <path d="M 131.52 695.33 C 131.52 696.99 130.17 698.33 128.52 698.33 C 126.86 698.33 125.52 696.99 125.52 695.33 C 125.52 693.67 126.86 692.33 128.52 692.33 C 130.17 692.33 131.52 693.67 131.52 695.33 z"/>
<title>Point U_2</title>
<desc>Point U_2: Intersection of i003s and n_1</desc>
</g> 
</g> 
<g id="pt-V_2">
<g class="point bottom">
  <path d="M 1246.3 695.33 C 1246.3 696.99 1245.0 698.33 1243.3 698.33 C 1241.7 698.33 1240.3 696.99 1240.3 695.33 C 1240.3 693.67 1241.7 692.33 1243.3 692.33 C 1245.0 692.33 1246.3 693.67 1246.3 695.33 z"/>
<title>Point V_2</title>
<desc>Point V_2: Intersection of i003s and q_1</desc>
</g>
<g class="point top">
  <path d="M 1246.3 695.33 C 1246.3 696.99 1245.0 698.33 1243.3 698.33 C 1241.7 698.33 1240.3 696.99 1240.3 695.33 C 1240.3 693.67 1241.7 692.33 1243.3 692.33 C 1245.0 692.33 1246.3 693.67 1246.3 695.33 z"/>
<title>Point V_2</title>
<desc>Point V_2: Intersection of i003s and q_1</desc>
</g> 
</g> 
</g>
<g id="points">
<g id="pt-p000w">
<g class="point bottom">
  <path d="M 558.34 432.16 C 558.34 434.36 556.55 436.16 554.34 436.16 C 552.13 436.16 550.34 434.36 550.34 432.16 C 550.34 429.95 552.13 428.16 554.34 428.16 C 556.55 428.16 558.34 429.95 558.34 432.16 z"/>
<title>Point p000w</title>
<desc>p000w = (-0.5, 0)</desc>
</g>
<g class="point top">
  <path d="M 558.34 432.16 C 558.34 434.36 556.55 436.16 554.34 436.16 C 552.13 436.16 550.34 434.36 550.34 432.16 C 550.34 429.95 552.13 428.16 554.34 428.16 C 556.55 428.16 558.34 429.95 558.34 432.16 z"/>
<title>Point p000w</title>
<desc>p000w = (-0.5, 0)</desc>
</g>
<g transform="matrix(1.0000, 0.0000, 0.0000, 1.0000, 489.00, 424.00)">
<text>p000w</text>
</g> 
</g> 
<g id="pt-p000e">
<g class="point bottom">
  <path d="M 821.52 432.16 C 821.52 434.36 819.73 436.16 817.52 436.16 C 815.31 436.16 813.52 434.36 813.52 432.16 C 813.52 429.95 815.31 428.16 817.52 428.16 C 819.73 428.16 821.52 429.95 821.52 432.16 z"/>
<title>Point p000e</title>
<desc>p000e = (0.5, 0)</desc>
</g>
<g class="point top">
  <path d="M 821.52 432.16 C 821.52 434.36 819.73 436.16 817.52 436.16 C 815.31 436.16 813.52 434.36 813.52 432.16 C 813.52 429.95 815.31 428.16 817.52 428.16 C 819.73 428.16 821.52 429.95 821.52 432.16 z"/>
<title>Point p000e</title>
<desc>p000e = (0.5, 0)</desc>
</g>
<g transform="matrix(1.0000, 0.0000, 0.0000, 1.0000, 833.00, 426.00)">
<text>p000e</text>
</g> 
</g> 
<g id="pt-p001n">
<g class="point bottom">
  <path d="M 689.93 204.24 C 689.93 206.45 688.14 208.24 685.93 208.24 C 683.72 208.24 681.93 206.45 681.93 204.24 C 681.93 202.03 683.72 200.24 685.93 200.24 C 688.14 200.24 689.93 202.03 689.93 204.24 z"/>
<title>Point p001n</title>
<desc>Point p001n: Intersection point of c000w, c000e</desc>
</g>
<g class="point top">
  <path d="M 689.93 204.24 C 689.93 206.45 688.14 208.24 685.93 208.24 C 683.72 208.24 681.93 206.45 681.93 204.24 C 681.93 202.03 683.72 200.24 685.93 200.24 C 688.14 200.24 689.93 202.03 689.93 204.24 z"/>
<title>Point p001n</title>
<desc>Point p001n: Intersection point of c000w, c000e</desc>
</g> 
</g> 
<g id="pt-p001s">
<g class="point bottom">
  <path d="M 689.93 660.07 C 689.93 662.28 688.14 664.07 685.93 664.07 C 683.72 664.07 681.93 662.28 681.93 660.07 C 681.93 657.86 683.72 656.07 685.93 656.07 C 688.14 656.07 689.93 657.86 689.93 660.07 z"/>
<title>Point p001s</title>
<desc>Point p001s: Intersection point of c000w, c000e</desc>
</g>
<g class="point top">
  <path d="M 689.93 660.07 C 689.93 662.28 688.14 664.07 685.93 664.07 C 683.72 664.07 681.93 662.28 681.93 660.07 C 681.93 657.86 683.72 656.07 685.93 656.07 C 688.14 656.07 689.93 657.86 689.93 660.07 z"/>
<title>Point p001s</title>
<desc>Point p001s: Intersection point of c000w, c000e</desc>
</g> 
</g> 
<g id="pt-p002">
<g class="point bottom">
  <path d="M 689.93 432.16 C 689.93 434.36 688.14 436.16 685.93 436.16 C 683.72 436.16 681.93 434.36 681.93 432.16 C 681.93 429.95 683.72 428.16 685.93 428.16 C 688.14 428.16 689.93 429.95 689.93 432.16 z"/>
<title>Point p002</title>
<desc>Point p002: Intersection of i000 and i001</desc>
</g>
<g class="point top">
  <path d="M 689.93 432.16 C 689.93 434.36 688.14 436.16 685.93 436.16 C 683.72 436.16 681.93 434.36 681.93 432.16 C 681.93 429.95 683.72 428.16 685.93 428.16 C 688.14 428.16 689.93 429.95 689.93 432.16 z"/>
<title>Point p002</title>
<desc>Point p002: Intersection of i000 and i001</desc>
</g> 
</g> 
<g id="pt-p003e">
<g class="point bottom">
  <path d="M 1084.7 432.16 C 1084.7 434.36 1082.9 436.16 1080.7 436.16 C 1078.5 436.16 1076.7 434.36 1076.7 432.16 C 1076.7 429.95 1078.5 428.16 1080.7 428.16 C 1082.9 428.16 1084.7 429.95 1084.7 432.16 z"/>
<title>Point p003e</title>
<desc>Point p003e: Intersection of c000e and i000</desc>
</g>
<g class="point top">
  <path d="M 1084.7 432.16 C 1084.7 434.36 1082.9 436.16 1080.7 436.16 C 1078.5 436.16 1076.7 434.36 1076.7 432.16 C 1076.7 429.95 1078.5 428.16 1080.7 428.16 C 1082.9 428.16 1084.7 429.95 1084.7 432.16 z"/>
<title>Point p003e</title>
<desc>Point p003e: Intersection of c000e and i000</desc>
</g> 
</g> 
<g id="pt-p003w">
<g class="point bottom">
  <path d="M 295.17 432.16 C 295.17 434.36 293.38 436.16 291.17 436.16 C 288.96 436.16 287.17 434.36 287.17 432.16 C 287.17 429.95 288.96 428.16 291.17 428.16 C 293.38 428.16 295.17 429.95 295.17 432.16 z"/>
<title>Point p003w</title>
<desc>Point p003w: Intersection of c000w and i000</desc>
</g>
<g class="point top">
  <path d="M 295.17 432.16 C 295.17 434.36 293.38 436.16 291.17 436.16 C 288.96 436.16 287.17 434.36 287.17 432.16 C 287.17 429.95 288.96 428.16 291.17 428.16 C 293.38 428.16 295.17 429.95 295.17 432.16 z"/>
<title>Point p003w</title>
<desc>Point p003w: Intersection of c000w and i000</desc>
</g> 
</g> 
<g id="pt-p006nw">
<g class="point bottom">
  <path d="M 558.34 168.98 C 558.34 171.19 556.55 172.98 554.34 172.98 C 552.13 172.98 550.34 171.19 550.34 168.98 C 550.34 166.77 552.13 164.98 554.34 164.98 C 556.55 164.98 558.34 166.77 558.34 168.98 z"/>
<title>Point p006nw</title>
<desc>Point p006nw: Intersection point of c000w, i002w</desc>
</g>
<g class="point top">
  <path d="M 558.34 168.98 C 558.34 171.19 556.55 172.98 554.34 172.98 C 552.13 172.98 550.34 171.19 550.34 168.98 C 550.34 166.77 552.13 164.98 554.34 164.98 C 556.55 164.98 558.34 166.77 558.34 168.98 z"/>
<title>Point p006nw</title>
<desc>Point p006nw: Intersection point of c000w, i002w</desc>
</g> 
</g> 
<g id="pt-p006sw">
<g class="point bottom">
  <path d="M 558.34 695.33 C 558.34 697.54 556.55 699.33 554.34 699.33 C 552.13 699.33 550.34 697.54 550.34 695.33 C 550.34 693.12 552.13 691.33 554.34 691.33 C 556.55 691.33 558.34 693.12 558.34 695.33 z"/>
<title>Point p006sw</title>
<desc>Point p006sw: Intersection point of c000w, i002w</desc>
</g>
<g class="point top">
  <path d="M 558.34 695.33 C 558.34 697.54 556.55 699.33 554.34 699.33 C 552.13 699.33 550.34 697.54 550.34 695.33 C 550.34 693.12 552.13 691.33 554.34 691.33 C 556.55 691.33 558.34 693.12 558.34 695.33 z"/>
<title>Point p006sw</title>
<desc>Point p006sw: Intersection point of c000w, i002w</desc>
</g> 
</g> 
<g id="pt-p006ne">
<g class="point bottom">
  <path d="M 821.52 168.98 C 821.52 171.19 819.73 172.98 817.52 172.98 C 815.31 172.98 813.52 171.19 813.52 168.98 C 813.52 166.77 815.31 164.98 817.52 164.98 C 819.73 164.98 821.52 166.77 821.52 168.98 z"/>
<title>Point p006ne</title>
<desc>Point p006ne: Intersection point of c000e, i002e</desc>
</g>
<g class="point top">
  <path d="M 821.52 168.98 C 821.52 171.19 819.73 172.98 817.52 172.98 C 815.31 172.98 813.52 171.19 813.52 168.98 C 813.52 166.77 815.31 164.98 817.52 164.98 C 819.73 164.98 821.52 166.77 821.52 168.98 z"/>
<title>Point p006ne</title>
<desc>Point p006ne: Intersection point of c000e, i002e</desc>
</g> 
</g> 
<g id="pt-p006se">
<g class="point bottom">
  <path d="M 821.52 695.33 C 821.52 697.54 819.73 699.33 817.52 699.33 C 815.31 699.33 813.52 697.54 813.52 695.33 C 813.52 693.12 815.31 691.33 817.52 691.33 C 819.73 691.33 821.52 693.12 821.52 695.33 z"/>
<title>Point p006se</title>
<desc>Point p006se: Intersection point of c000e, i002e</desc>
</g>
<g class="point top">
  <path d="M 821.52 695.33 C 821.52 697.54 819.73 699.33 817.52 699.33 C 815.31 699.33 813.52 697.54 813.52 695.33 C 813.52 693.12 815.31 691.33 817.52 691.33 C 819.73 691.33 821.52 693.12 821.52 695.33 z"/>
<title>Point p006se</title>
<desc>Point p006se: Intersection point of c000e, i002e</desc>
</g> 
</g> 
<g id="pt-p007w">
<g class="point bottom">
  <path d="M 395.69 432.16 C 395.69 434.36 393.90 436.16 391.69 436.16 C 389.48 436.16 387.69 434.36 387.69 432.16 C 387.69 429.95 389.48 428.16 391.69 428.16 C 393.90 428.16 395.69 429.95 395.69 432.16 z"/>
<title>Point p007w</title>
<desc>Point p007w: Intersection point of c003, i000</desc>
</g>
<g class="point top">
  <path d="M 395.69 432.16 C 395.69 434.36 393.90 436.16 391.69 436.16 C 389.48 436.16 387.69 434.36 387.69 432.16 C 387.69 429.95 389.48 428.16 391.69 428.16 C 393.90 428.16 395.69 429.95 395.69 432.16 z"/>
<title>Point p007w</title>
<desc>Point p007w: Intersection point of c003, i000</desc>
</g> 
</g> 
<g id="pt-p007e">
<g class="point bottom">
  <path d="M 984.17 432.16 C 984.17 434.36 982.38 436.16 980.17 436.16 C 977.96 436.16 976.17 434.36 976.17 432.16 C 976.17 429.95 977.96 428.16 980.17 428.16 C 982.38 428.16 984.17 429.95 984.17 432.16 z"/>
<title>Point p007e</title>
<desc>Point p007e: Intersection point of c003, i000</desc>
</g>
<g class="point top">
  <path d="M 984.17 432.16 C 984.17 434.36 982.38 436.16 980.17 436.16 C 977.96 436.16 976.17 434.36 976.17 432.16 C 976.17 429.95 977.96 428.16 980.17 428.16 C 982.38 428.16 984.17 429.95 984.17 432.16 z"/>
<title>Point p007e</title>
<desc>Point p007e: Intersection point of c003, i000</desc>
</g> 
</g> 
<g id="pt-p008nw">
<g class="point bottom">
  <path d="M 631.08 314.46 C 631.08 316.67 629.29 318.46 627.08 318.46 C 624.87 318.46 623.08 316.67 623.08 314.46 C 623.08 312.25 624.87 310.46 627.08 310.46 C 629.29 310.46 631.08 312.25 631.08 314.46 z"/>
<title>Point p008nw</title>
<desc>Point p008nw: Intersection point of c004, i004w</desc>
</g>
<g class="point top">
  <path d="M 631.08 314.46 C 631.08 316.67 629.29 318.46 627.08 318.46 C 624.87 318.46 623.08 316.67 623.08 314.46 C 623.08 312.25 624.87 310.46 627.08 310.46 C 629.29 310.46 631.08 312.25 631.08 314.46 z"/>
<title>Point p008nw</title>
<desc>Point p008nw: Intersection point of c004, i004w</desc>
</g> 
</g> 
<g id="pt-p008se">
<g class="point bottom">
  <path d="M 748.78 549.85 C 748.78 552.06 746.99 553.85 744.78 553.85 C 742.57 553.85 740.78 552.06 740.78 549.85 C 740.78 547.64 742.57 545.85 744.78 545.85 C 746.99 545.85 748.78 547.64 748.78 549.85 z"/>
<title>Point p008se</title>
<desc>Point p008se: Intersection point of c004, i004w</desc>
</g>
<g class="point top">
  <path d="M 748.78 549.85 C 748.78 552.06 746.99 553.85 744.78 553.85 C 742.57 553.85 740.78 552.06 740.78 549.85 C 740.78 547.64 742.57 545.85 744.78 545.85 C 746.99 545.85 748.78 547.64 748.78 549.85 z"/>
<title>Point p008se</title>
<desc>Point p008se: Intersection point of c004, i004w</desc>
</g> 
</g> 
<g id="pt-p008ne">
<g class="point bottom">
  <path d="M 748.78 314.46 C 748.78 316.67 746.99 318.46 744.78 318.46 C 742.57 318.46 740.78 316.67 740.78 314.46 C 740.78 312.25 742.57 310.46 744.78 310.46 C 746.99 310.46 748.78 312.25 748.78 314.46 z"/>
<title>Point p008ne</title>
<desc>Point p008ne: Intersection point of c004, i004e</desc>
</g>
<g class="point top">
  <path d="M 748.78 314.46 C 748.78 316.67 746.99 318.46 744.78 318.46 C 742.57 318.46 740.78 316.67 740.78 314.46 C 740.78 312.25 742.57 310.46 744.78 310.46 C 746.99 310.46 748.78 312.25 748.78 314.46 z"/>
<title>Point p008ne</title>
<desc>Point p008ne: Intersection point of c004, i004e</desc>
</g> 
</g> 
<g id="pt-p008sw">
<g class="point bottom">
  <path d="M 631.08 549.85 C 631.08 552.06 629.29 553.85 627.08 553.85 C 624.87 553.85 623.08 552.06 623.08 549.85 C 623.08 547.64 624.87 545.85 627.08 545.85 C 629.29 545.85 631.08 547.64 631.08 549.85 z"/>
<title>Point p008sw</title>
<desc>Point p008sw: Intersection point of c004, i004e</desc>
</g>
<g class="point top">
  <path d="M 631.08 549.85 C 631.08 552.06 629.29 553.85 627.08 553.85 C 624.87 553.85 623.08 552.06 623.08 549.85 C 623.08 547.64 624.87 545.85 627.08 545.85 C 629.29 545.85 631.08 547.64 631.08 549.85 z"/>
<title>Point p008sw</title>
<desc>Point p008sw: Intersection point of c004, i004e</desc>
</g> 
</g> 
<g id="pt-p009b">
<g class="point bottom">
  <path d="M 713.03 219.24 C 713.03 221.45 711.24 223.24 709.03 223.24 C 706.82 223.24 705.03 221.45 705.03 219.24 C 705.03 217.03 706.82 215.24 709.03 215.24 C 711.24 215.24 713.03 217.03 713.03 219.24 z"/>
<title>Point p009b</title>
<desc>Point p009b: Intersection point of c005, c000w</desc>
</g>
<g class="point top">
  <path d="M 713.03 219.24 C 713.03 221.45 711.24 223.24 709.03 223.24 C 706.82 223.24 705.03 221.45 705.03 219.24 C 705.03 217.03 706.82 215.24 709.03 215.24 C 711.24 215.24 713.03 217.03 713.03 219.24 z"/>
<title>Point p009b</title>
<desc>Point p009b: Intersection point of c005, c000w</desc>
</g> 
</g> 
<g id="pt-p009a">
<g class="point bottom">
  <path d="M 403.65 219.24 C 403.65 221.45 401.86 223.24 399.65 223.24 C 397.44 223.24 395.65 221.45 395.65 219.24 C 395.65 217.03 397.44 215.24 399.65 215.24 C 401.86 215.24 403.65 217.03 403.65 219.24 z"/>
<title>Point p009a</title>
<desc>Point p009a: Intersection point of c005, c000w</desc>
</g>
<g class="point top">
  <path d="M 403.65 219.24 C 403.65 221.45 401.86 223.24 399.65 223.24 C 397.44 223.24 395.65 221.45 395.65 219.24 C 395.65 217.03 397.44 215.24 399.65 215.24 C 401.86 215.24 403.65 217.03 403.65 219.24 z"/>
<title>Point p009a</title>
<desc>Point p009a: Intersection point of c005, c000w</desc>
</g> 
</g> 
<g id="pt-p009d">
<g class="point bottom">
  <path d="M 308.05 513.48 C 308.05 515.69 306.26 517.48 304.05 517.48 C 301.84 517.48 300.05 515.69 300.05 513.48 C 300.05 511.27 301.84 509.48 304.05 509.48 C 306.26 509.48 308.05 511.27 308.05 513.48 z"/>
<title>Point p009d</title>
<desc>Point p009d: Intersection point of c000w, c006</desc>
</g>
<g class="point top">
  <path d="M 308.05 513.48 C 308.05 515.69 306.26 517.48 304.05 517.48 C 301.84 517.48 300.05 515.69 300.05 513.48 C 300.05 511.27 301.84 509.48 304.05 509.48 C 306.26 509.48 308.05 511.27 308.05 513.48 z"/>
<title>Point p009d</title>
<desc>Point p009d: Intersection point of c000w, c006</desc>
</g> 
</g> 
<g id="pt-p009c">
<g class="point bottom">
  <path d="M 808.64 513.48 C 808.64 515.69 806.85 517.48 804.64 517.48 C 802.43 517.48 800.64 515.69 800.64 513.48 C 800.64 511.27 802.43 509.48 804.64 509.48 C 806.85 509.48 808.64 511.27 808.64 513.48 z"/>
<title>Point p009c</title>
<desc>Point p009c: Intersection point of c000w, c006</desc>
</g>
<g class="point top">
  <path d="M 808.64 513.48 C 808.64 515.69 806.85 517.48 804.64 517.48 C 802.43 517.48 800.64 515.69 800.64 513.48 C 800.64 511.27 802.43 509.48 804.64 509.48 C 806.85 509.48 808.64 511.27 808.64 513.48 z"/>
<title>Point p009c</title>
<desc>Point p009c: Intersection point of c000w, c006</desc>
</g> 
</g> 
<g id="pt-p009n">
<g class="point bottom">
  <path d="M 558.34 6.3297 C 558.34 8.5389 556.55 10.330 554.34 10.330 C 552.13 10.330 550.34 8.5389 550.34 6.3297 C 550.34 4.1206 552.13 2.3297 554.34 2.3297 C 556.55 2.3297 558.34 4.1206 558.34 6.3297 z"/>
<title>Point p009n</title>
<desc>Point p009n: Intersection point of c005, i002w</desc>
</g>
<g class="point top">
  <path d="M 558.34 6.3297 C 558.34 8.5389 556.55 10.330 554.34 10.330 C 552.13 10.330 550.34 8.5389 550.34 6.3297 C 550.34 4.1206 552.13 2.3297 554.34 2.3297 C 556.55 2.3297 558.34 4.1206 558.34 6.3297 z"/>
<title>Point p009n</title>
<desc>Point p009n: Intersection point of c005, i002w</desc>
</g> 
</g> 
<g id="pt-p009s">
<g class="point bottom">
  <path d="M 558.34 331.63 C 558.34 333.84 556.55 335.63 554.34 335.63 C 552.13 335.63 550.34 333.84 550.34 331.63 C 550.34 329.42 552.13 327.63 554.34 327.63 C 556.55 327.63 558.34 329.42 558.34 331.63 z"/>
<title>Point p009s</title>
<desc>Point p009s: Intersection point of c005, i002w</desc>
</g>
<g class="point top">
  <path d="M 558.34 331.63 C 558.34 333.84 556.55 335.63 554.34 335.63 C 552.13 335.63 550.34 333.84 550.34 331.63 C 550.34 329.42 552.13 327.63 554.34 327.63 C 556.55 327.63 558.34 329.42 558.34 331.63 z"/>
<title>Point p009s</title>
<desc>Point p009s: Intersection point of c005, i002w</desc>
</g> 
</g> 
<g id="pt-F">
<g class="point bottom">
  <path d="M 558.34 219.24 C 558.34 221.45 556.55 223.24 554.34 223.24 C 552.13 223.24 550.34 221.45 550.34 219.24 C 550.34 217.03 552.13 215.24 554.34 215.24 C 556.55 215.24 558.34 217.03 558.34 219.24 z"/>
<title>Point F</title>
<desc>Point F: Intersection of i002w and j</desc>
</g>
<g class="point top">
  <path d="M 558.34 219.24 C 558.34 221.45 556.55 223.24 554.34 223.24 C 552.13 223.24 550.34 221.45 550.34 219.24 C 550.34 217.03 552.13 215.24 554.34 215.24 C 556.55 215.24 558.34 217.03 558.34 219.24 z"/>
<title>Point F</title>
<desc>Point F: Intersection of i002w and j</desc>
</g> 
</g> 
<g id="pt-G">
<g class="point bottom">
  <path d="M 558.34 350.83 C 558.34 353.04 556.55 354.83 554.34 354.83 C 552.13 354.83 550.34 353.04 550.34 350.83 C 550.34 348.62 552.13 346.83 554.34 346.83 C 556.55 346.83 558.34 348.62 558.34 350.83 z"/>
<title>Point G</title>
<desc>Point G: Intersection of h and i002w</desc>
</g>
<g class="point top">
  <path d="M 558.34 350.83 C 558.34 353.04 556.55 354.83 554.34 354.83 C 552.13 354.83 550.34 353.04 550.34 350.83 C 550.34 348.62 552.13 346.83 554.34 346.83 C 556.55 346.83 558.34 348.62 558.34 350.83 z"/>
<title>Point G</title>
<desc>Point G: Intersection of h and i002w</desc>
</g> 
</g> 
<g id="pt-C">
<g class="point bottom">
  <path d="M 558.34 594.81 C 558.34 597.02 556.55 598.81 554.34 598.81 C 552.13 598.81 550.34 597.02 550.34 594.81 C 550.34 592.60 552.13 590.81 554.34 590.81 C 556.55 590.81 558.34 592.60 558.34 594.81 z"/>
<title>Point C</title>
<desc>Point C: Intersection point of c006, i002w</desc>
</g>
<g class="point top">
  <path d="M 558.34 594.81 C 558.34 597.02 556.55 598.81 554.34 598.81 C 552.13 598.81 550.34 597.02 550.34 594.81 C 550.34 592.60 552.13 590.81 554.34 590.81 C 556.55 590.81 558.34 592.60 558.34 594.81 z"/>
<title>Point C</title>
<desc>Point C: Intersection point of c006, i002w</desc>
</g> 
</g> 
<g id="pt-D">
<g class="point bottom">
  <path d="M 558.34 300.57 C 558.34 302.78 556.55 304.57 554.34 304.57 C 552.13 304.57 550.34 302.78 550.34 300.57 C 550.34 298.36 552.13 296.57 554.34 296.57 C 556.55 296.57 558.34 298.36 558.34 300.57 z"/>
<title>Point D</title>
<desc>Point D: Intersection point of c007w, i002w</desc>
</g>
<g class="point top">
  <path d="M 558.34 300.57 C 558.34 302.78 556.55 304.57 554.34 304.57 C 552.13 304.57 550.34 302.78 550.34 300.57 C 550.34 298.36 552.13 296.57 554.34 296.57 C 556.55 296.57 558.34 298.36 558.34 300.57 z"/>
<title>Point D</title>
<desc>Point D: Intersection point of c007w, i002w</desc>
</g> 
</g> 
<g id="pt-H">
<g class="point bottom">
  <path d="M 558.34 563.74 C 558.34 565.95 556.55 567.74 554.34 567.74 C 552.13 567.74 550.34 565.95 550.34 563.74 C 550.34 561.53 552.13 559.74 554.34 559.74 C 556.55 559.74 558.34 561.53 558.34 563.74 z"/>
<title>Point H</title>
<desc>Point H: Intersection point of c007w, i002w</desc>
</g>
<g class="point top">
  <path d="M 558.34 563.74 C 558.34 565.95 556.55 567.74 554.34 567.74 C 552.13 567.74 550.34 565.95 550.34 563.74 C 550.34 561.53 552.13 559.74 554.34 559.74 C 556.55 559.74 558.34 561.53 558.34 563.74 z"/>
<title>Point H</title>
<desc>Point H: Intersection point of c007w, i002w</desc>
</g> 
</g> 
<g id="pt-I">
<g class="point bottom">
  <path d="M 821.52 300.57 C 821.52 302.78 819.73 304.57 817.52 304.57 C 815.31 304.57 813.52 302.78 813.52 300.57 C 813.52 298.36 815.31 296.57 817.52 296.57 C 819.73 296.57 821.52 298.36 821.52 300.57 z"/>
<title>Point I</title>
<desc>Point I: Intersection point of c007e, i002e</desc>
</g>
<g class="point top">
  <path d="M 821.52 300.57 C 821.52 302.78 819.73 304.57 817.52 304.57 C 815.31 304.57 813.52 302.78 813.52 300.57 C 813.52 298.36 815.31 296.57 817.52 296.57 C 819.73 296.57 821.52 298.36 821.52 300.57 z"/>
<title>Point I</title>
<desc>Point I: Intersection point of c007e, i002e</desc>
</g> 
</g> 
<g id="pt-J">
<g class="point bottom">
  <path d="M 821.52 563.74 C 821.52 565.95 819.73 567.74 817.52 567.74 C 815.31 567.74 813.52 565.95 813.52 563.74 C 813.52 561.53 815.31 559.74 817.52 559.74 C 819.73 559.74 821.52 561.53 821.52 563.74 z"/>
<title>Point J</title>
<desc>Point J: Intersection point of c007e, i002e</desc>
</g>
<g class="point top">
  <path d="M 821.52 563.74 C 821.52 565.95 819.73 567.74 817.52 567.74 C 815.31 567.74 813.52 565.95 813.52 563.74 C 813.52 561.53 815.31 559.74 817.52 559.74 C 819.73 559.74 821.52 561.53 821.52 563.74 z"/>
<title>Point J</title>
<desc>Point J: Intersection point of c007e, i002e</desc>
</g> 
</g> 
<g id="pt-L">
<g class="point bottom">
  <path d="M 658.87 432.16 C 658.87 434.36 657.08 436.16 654.87 436.16 C 652.66 436.16 650.87 434.36 650.87 432.16 C 650.87 429.95 652.66 428.16 654.87 428.16 C 657.08 428.16 658.87 429.95 658.87 432.16 z"/>
<title>Point L</title>
<desc>Point L: Intersection point of cg001e, i000</desc>
</g>
<g class="point top">
  <path d="M 658.87 432.16 C 658.87 434.36 657.08 436.16 654.87 436.16 C 652.66 436.16 650.87 434.36 650.87 432.16 C 650.87 429.95 652.66 428.16 654.87 428.16 C 657.08 428.16 658.87 429.95 658.87 432.16 z"/>
<title>Point L</title>
<desc>Point L: Intersection point of cg001e, i000</desc>
</g> 
</g> 
<g id="pt-M">
<g class="point bottom">
  <path d="M 984.17 432.16 C 984.17 434.36 982.38 436.16 980.17 436.16 C 977.96 436.16 976.17 434.36 976.17 432.16 C 976.17 429.95 977.96 428.16 980.17 428.16 C 982.38 428.16 984.17 429.95 984.17 432.16 z"/>
<title>Point M</title>
<desc>Point M: Intersection point of cg001e, i000</desc>
</g>
<g class="point top">
  <path d="M 984.17 432.16 C 984.17 434.36 982.38 436.16 980.17 436.16 C 977.96 436.16 976.17 434.36 976.17 432.16 C 976.17 429.95 977.96 428.16 980.17 428.16 C 982.38 428.16 984.17 429.95 984.17 432.16 z"/>
<title>Point M</title>
<desc>Point M: Intersection point of cg001e, i000</desc>
</g> 
</g> 
<g id="pt-N">
<g class="point bottom">
  <path d="M 395.69 432.16 C 395.69 434.36 393.90 436.16 391.69 436.16 C 389.48 436.16 387.69 434.36 387.69 432.16 C 387.69 429.95 389.48 428.16 391.69 428.16 C 393.90 428.16 395.69 429.95 395.69 432.16 z"/>
<title>Point N</title>
<desc>Point N: Intersection point of cg001w, i000</desc>
</g>
<g class="point top">
  <path d="M 395.69 432.16 C 395.69 434.36 393.90 436.16 391.69 436.16 C 389.48 436.16 387.69 434.36 387.69 432.16 C 387.69 429.95 389.48 428.16 391.69 428.16 C 393.90 428.16 395.69 429.95 395.69 432.16 z"/>
<title>Point N</title>
<desc>Point N: Intersection point of cg001w, i000</desc>
</g> 
</g> 
<g id="pt-O">
<g class="point bottom">
  <path d="M 720.99 432.16 C 720.99 434.36 719.20 436.16 716.99 436.16 C 714.79 436.16 712.99 434.36 712.99 432.16 C 712.99 429.95 714.79 428.16 716.99 428.16 C 719.20 428.16 720.99 429.95 720.99 432.16 z"/>
<title>Point O</title>
<desc>Point O: Intersection point of cg001w, i000</desc>
</g>
<g class="point top">
  <path d="M 720.99 432.16 C 720.99 434.36 719.20 436.16 716.99 436.16 C 714.79 436.16 712.99 434.36 712.99 432.16 C 712.99 429.95 714.79 428.16 716.99 428.16 C 719.20 428.16 720.99 429.95 720.99 432.16 z"/>
<title>Point O</title>
<desc>Point O: Intersection point of cg001w, i000</desc>
</g> 
</g> 
<g id="pt-P">
<g class="point bottom">
  <path d="M 558.34 269.50 C 558.34 271.71 556.55 273.50 554.34 273.50 C 552.13 273.50 550.34 271.71 550.34 269.50 C 550.34 267.30 552.13 265.50 554.34 265.50 C 556.55 265.50 558.34 267.30 558.34 269.50 z"/>
<title>Point P</title>
<desc>Point P: Intersection point of c008, i002w</desc>
</g>
<g class="point top">
  <path d="M 558.34 269.50 C 558.34 271.71 556.55 273.50 554.34 273.50 C 552.13 273.50 550.34 271.71 550.34 269.50 C 550.34 267.30 552.13 265.50 554.34 265.50 C 556.55 265.50 558.34 267.30 558.34 269.50 z"/>
<title>Point P</title>
<desc>Point P: Intersection point of c008, i002w</desc>
</g> 
</g> 
<g id="pt-Q">
<g class="point bottom">
  <path d="M 558.34 432.16 C 558.34 434.36 556.55 436.16 554.34 436.16 C 552.13 436.16 550.34 434.36 550.34 432.16 C 550.34 429.95 552.13 428.16 554.34 428.16 C 556.55 428.16 558.34 429.95 558.34 432.16 z"/>
<title>Point Q</title>
<desc>Point Q: Intersection point of c008, i002w</desc>
</g>
<g class="point top">
  <path d="M 558.34 432.16 C 558.34 434.36 556.55 436.16 554.34 436.16 C 552.13 436.16 550.34 434.36 550.34 432.16 C 550.34 429.95 552.13 428.16 554.34 428.16 C 556.55 428.16 558.34 429.95 558.34 432.16 z"/>
<title>Point Q</title>
<desc>Point Q: Intersection point of c008, i002w</desc>
</g> 
</g> 
<g id="pt-S">
<g class="point bottom">
  <path d="M 689.93 137.92 C 689.93 140.13 688.14 141.92 685.93 141.92 C 683.72 141.92 681.93 140.13 681.93 137.92 C 681.93 135.71 683.72 133.92 685.93 133.92 C 688.14 133.92 689.93 135.71 689.93 137.92 z"/>
<title>Point S</title>
<desc>Point S: Intersection point of c003, i001</desc>
</g>
<g class="point top">
  <path d="M 689.93 137.92 C 689.93 140.13 688.14 141.92 685.93 141.92 C 683.72 141.92 681.93 140.13 681.93 137.92 C 681.93 135.71 683.72 133.92 685.93 133.92 C 688.14 133.92 689.93 135.71 689.93 137.92 z"/>
<title>Point S</title>
<desc>Point S: Intersection point of c003, i001</desc>
</g> 
</g> 
<g id="pt-T">
<g class="point bottom">
  <path d="M 689.93 726.39 C 689.93 728.60 688.14 730.39 685.93 730.39 C 683.72 730.39 681.93 728.60 681.93 726.39 C 681.93 724.19 683.72 722.39 685.93 722.39 C 688.14 722.39 689.93 724.19 689.93 726.39 z"/>
<title>Point T</title>
<desc>Point T: Intersection point of c003, i001</desc>
</g>
<g class="point top">
  <path d="M 689.93 726.39 C 689.93 728.60 688.14 730.39 685.93 730.39 C 683.72 730.39 681.93 728.60 681.93 726.39 C 681.93 724.19 683.72 722.39 685.93 722.39 C 688.14 722.39 689.93 724.19 689.93 726.39 z"/>
<title>Point T</title>
<desc>Point T: Intersection point of c003, i001</desc>
</g> 
</g> 
<g id="pt-U">
<g class="point bottom">
  <path d="M 689.93 250.31 C 689.93 252.52 688.14 254.31 685.93 254.31 C 683.72 254.31 681.93 252.52 681.93 250.31 C 681.93 248.10 683.72 246.31 685.93 246.31 C 688.14 246.31 689.93 248.10 689.93 250.31 z"/>
<title>Point U</title>
<desc>Point U: Intersection of i001 and f</desc>
</g>
<g class="point top">
  <path d="M 689.93 250.31 C 689.93 252.52 688.14 254.31 685.93 254.31 C 683.72 254.31 681.93 252.52 681.93 250.31 C 681.93 248.10 683.72 246.31 685.93 246.31 C 688.14 246.31 689.93 248.10 689.93 250.31 z"/>
<title>Point U</title>
<desc>Point U: Intersection of i001 and f</desc>
</g> 
</g> 
<g id="pt-K">
<g class="point bottom">
  <path d="M 689.93 219.24 C 689.93 221.45 688.14 223.24 685.93 223.24 C 683.72 223.24 681.93 221.45 681.93 219.24 C 681.93 217.03 683.72 215.24 685.93 215.24 C 688.14 215.24 689.93 217.03 689.93 219.24 z"/>
<title>Point K</title>
<desc>Point K: Intersection of i001 and j</desc>
</g>
<g class="point top">
  <path d="M 689.93 219.24 C 689.93 221.45 688.14 223.24 685.93 223.24 C 683.72 223.24 681.93 221.45 681.93 219.24 C 681.93 217.03 683.72 215.24 685.93 215.24 C 688.14 215.24 689.93 217.03 689.93 219.24 z"/>
<title>Point K</title>
<desc>Point K: Intersection of i001 and j</desc>
</g> 
</g> 
<g id="pt-R">
<g class="point bottom">
  <path d="M 689.93 84.008 C 689.93 86.217 688.14 88.008 685.93 88.008 C 683.72 88.008 681.93 86.217 681.93 84.008 C 681.93 81.799 683.72 80.008 685.93 80.008 C 688.14 80.008 689.93 81.799 689.93 84.008 z"/>
<title>Point R</title>
<desc>Point R: Intersection point of c002w, c002e</desc>
</g>
<g class="point top">
  <path d="M 689.93 84.008 C 689.93 86.217 688.14 88.008 685.93 88.008 C 683.72 88.008 681.93 86.217 681.93 84.008 C 681.93 81.799 683.72 80.008 685.93 80.008 C 688.14 80.008 689.93 81.799 689.93 84.008 z"/>
<title>Point R</title>
<desc>Point R: Intersection point of c002w, c002e</desc>
</g> 
</g> 
<g id="pt-V">
<g class="point bottom">
  <path d="M 689.93 780.30 C 689.93 782.51 688.14 784.30 685.93 784.30 C 683.72 784.30 681.93 782.51 681.93 780.30 C 681.93 778.09 683.72 776.30 685.93 776.30 C 688.14 776.30 689.93 778.09 689.93 780.30 z"/>
<title>Point V</title>
<desc>Point V: Intersection point of c002w, c002e</desc>
</g>
<g class="point top">
  <path d="M 689.93 780.30 C 689.93 782.51 688.14 784.30 685.93 784.30 C 683.72 784.30 681.93 782.51 681.93 780.30 C 681.93 778.09 683.72 776.30 685.93 776.30 C 688.14 776.30 689.93 778.09 689.93 780.30 z"/>
<title>Point V</title>
<desc>Point V: Intersection point of c002w, c002e</desc>
</g> 
</g> 
<g id="pt-W">
<g class="point bottom">
  <path d="M 558.34 314.46 C 558.34 316.67 556.55 318.46 554.34 318.46 C 552.13 318.46 550.34 316.67 550.34 314.46 C 550.34 312.25 552.13 310.46 554.34 310.46 C 556.55 310.46 558.34 312.25 558.34 314.46 z"/>
<title>Point W</title>
<desc>Point W: Intersection of g and i002w</desc>
</g>
<g class="point top">
  <path d="M 558.34 314.46 C 558.34 316.67 556.55 318.46 554.34 318.46 C 552.13 318.46 550.34 316.67 550.34 314.46 C 550.34 312.25 552.13 310.46 554.34 310.46 C 556.55 310.46 558.34 312.25 558.34 314.46 z"/>
<title>Point W</title>
<desc>Point W: Intersection of g and i002w</desc>
</g> 
</g> 
<g id="pt-Z">
<g class="point bottom">
  <path d="M 821.52 314.46 C 821.52 316.67 819.73 318.46 817.52 318.46 C 815.31 318.46 813.52 316.67 813.52 314.46 C 813.52 312.25 815.31 310.46 817.52 310.46 C 819.73 310.46 821.52 312.25 821.52 314.46 z"/>
<title>Point Z</title>
<desc>Point Z: Intersection of g and i002e</desc>
</g>
<g class="point top">
  <path d="M 821.52 314.46 C 821.52 316.67 819.73 318.46 817.52 318.46 C 815.31 318.46 813.52 316.67 813.52 314.46 C 813.52 312.25 815.31 310.46 817.52 310.46 C 819.73 310.46 821.52 312.25 821.52 314.46 z"/>
<title>Point Z</title>
<desc>Point Z: Intersection of g and i002e</desc>
</g> 
</g> 
<g id="pt-A_1">
<g class="point bottom">
  <path d="M 631.08 286.68 C 631.08 288.89 629.29 290.68 627.08 290.68 C 624.87 290.68 623.08 288.89 623.08 286.68 C 623.08 284.47 624.87 282.68 627.08 282.68 C 629.29 282.68 631.08 284.47 631.08 286.68 z"/>
<title>Point A_1</title>
<desc>Point A_1: Intersection point of cg001w, f</desc>
</g>
<g class="point top">
  <path d="M 631.08 286.68 C 631.08 288.89 629.29 290.68 627.08 290.68 C 624.87 290.68 623.08 288.89 623.08 286.68 C 623.08 284.47 624.87 282.68 627.08 282.68 C 629.29 282.68 631.08 284.47 631.08 286.68 z"/>
<title>Point A_1</title>
<desc>Point A_1: Intersection point of cg001w, f</desc>
</g> 
</g> 
<g id="pt-B_1">
<g class="point bottom">
  <path d="M 395.69 432.16 C 395.69 434.36 393.90 436.16 391.69 436.16 C 389.48 436.16 387.69 434.36 387.69 432.16 C 387.69 429.95 389.48 428.16 391.69 428.16 C 393.90 428.16 395.69 429.95 395.69 432.16 z"/>
<title>Point B_1</title>
<desc>Point B_1: Intersection point of cg001w, f</desc>
</g>
<g class="point top">
  <path d="M 395.69 432.16 C 395.69 434.36 393.90 436.16 391.69 436.16 C 389.48 436.16 387.69 434.36 387.69 432.16 C 387.69 429.95 389.48 428.16 391.69 428.16 C 393.90 428.16 395.69 429.95 395.69 432.16 z"/>
<title>Point B_1</title>
<desc>Point B_1: Intersection point of cg001w, f</desc>
</g> 
</g> 
<g id="pt-C_1">
<g class="point bottom">
  <path d="M 586.13 314.46 C 586.13 316.67 584.34 318.46 582.13 318.46 C 579.92 318.46 578.13 316.67 578.13 314.46 C 578.13 312.25 579.92 310.46 582.13 310.46 C 584.34 310.46 586.13 312.25 586.13 314.46 z"/>
<title>Point C_1</title>
<desc>Point C_1: Intersection of f and g</desc>
</g>
<g class="point top">
  <path d="M 586.13 314.46 C 586.13 316.67 584.34 318.46 582.13 318.46 C 579.92 318.46 578.13 316.67 578.13 314.46 C 578.13 312.25 579.92 310.46 582.13 310.46 C 584.34 310.46 586.13 312.25 586.13 314.46 z"/>
<title>Point C_1</title>
<desc>Point C_1: Intersection of f and g</desc>
</g> 
</g> 
<g id="pt-D_1">
<g class="point bottom">
  <path d="M 558.34 513.48 C 558.34 515.69 556.55 517.48 554.34 517.48 C 552.13 517.48 550.34 515.69 550.34 513.48 C 550.34 511.27 552.13 509.48 554.34 509.48 C 556.55 509.48 558.34 511.27 558.34 513.48 z"/>
<title>Point D_1</title>
<desc>Point D_1: Intersection of i002w and m</desc>
</g>
<g class="point top">
  <path d="M 558.34 513.48 C 558.34 515.69 556.55 517.48 554.34 517.48 C 552.13 517.48 550.34 515.69 550.34 513.48 C 550.34 511.27 552.13 509.48 554.34 509.48 C 556.55 509.48 558.34 511.27 558.34 513.48 z"/>
<title>Point D_1</title>
<desc>Point D_1: Intersection of i002w and m</desc>
</g> 
</g> 
<g id="pt-E_1">
<g class="point bottom">
  <path d="M 880.37 549.85 C 880.37 552.06 878.58 553.85 876.37 553.85 C 874.16 553.85 872.37 552.06 872.37 549.85 C 872.37 547.64 874.16 545.85 876.37 545.85 C 878.58 545.85 880.37 547.64 880.37 549.85 z"/>
<title>Point E_1</title>
<desc>Point E_1: Intersection of c007e and h</desc>
</g>
<g class="point top">
  <path d="M 880.37 549.85 C 880.37 552.06 878.58 553.85 876.37 553.85 C 874.16 553.85 872.37 552.06 872.37 549.85 C 872.37 547.64 874.16 545.85 876.37 545.85 C 878.58 545.85 880.37 547.64 880.37 549.85 z"/>
<title>Point E_1</title>
<desc>Point E_1: Intersection of c007e and h</desc>
</g> 
</g> 
<g id="pt-H_1">
<g class="point bottom">
  <path d="M 730.59 513.48 C 730.59 515.69 728.80 517.48 726.59 517.48 C 724.38 517.48 722.59 515.69 722.59 513.48 C 722.59 511.27 724.38 509.48 726.59 509.48 C 728.80 509.48 730.59 511.27 730.59 513.48 z"/>
<title>Point H_1</title>
<desc>Point H_1: Intersection of i004w and m</desc>
</g>
<g class="point top">
  <path d="M 730.59 513.48 C 730.59 515.69 728.80 517.48 726.59 517.48 C 724.38 517.48 722.59 515.69 722.59 513.48 C 722.59 511.27 724.38 509.48 726.59 509.48 C 728.80 509.48 730.59 511.27 730.59 513.48 z"/>
<title>Point H_1</title>
<desc>Point H_1: Intersection of i004w and m</desc>
</g> 
</g> 
<g id="pt-I_1">
<g class="point bottom">
  <path d="M 637.30 326.89 C 637.30 329.09 635.51 330.89 633.30 330.89 C 631.09 330.89 629.30 329.09 629.30 326.89 C 629.30 324.68 631.09 322.89 633.30 322.89 C 635.51 322.89 637.30 324.68 637.30 326.89 z"/>
<title>Point I_1</title>
<desc>Point I_1: Intersection point of c007w, i004w</desc>
</g>
<g class="point top">
  <path d="M 637.30 326.89 C 637.30 329.09 635.51 330.89 633.30 330.89 C 631.09 330.89 629.30 329.09 629.30 326.89 C 629.30 324.68 631.09 322.89 633.30 322.89 C 635.51 322.89 637.30 324.68 637.30 326.89 z"/>
<title>Point I_1</title>
<desc>Point I_1: Intersection point of c007w, i004w</desc>
</g> 
</g> 
<g id="pt-J_1">
<g class="point bottom">
  <path d="M 689.93 432.16 C 689.93 434.36 688.14 436.16 685.93 436.16 C 683.72 436.16 681.93 434.36 681.93 432.16 C 681.93 429.95 683.72 428.16 685.93 428.16 C 688.14 428.16 689.93 429.95 689.93 432.16 z"/>
<title>Point J_1</title>
<desc>Point J_1: Intersection point of c007w, i004w</desc>
</g>
<g class="point top">
  <path d="M 689.93 432.16 C 689.93 434.36 688.14 436.16 685.93 436.16 C 683.72 436.16 681.93 434.36 681.93 432.16 C 681.93 429.95 683.72 428.16 685.93 428.16 C 688.14 428.16 689.93 429.95 689.93 432.16 z"/>
<title>Point J_1</title>
<desc>Point J_1: Intersection point of c007w, i004w</desc>
</g> 
</g> 
<g id="pt-F_1">
<g class="point bottom">
  <path d="M 631.08 168.98 C 631.08 171.19 629.29 172.98 627.08 172.98 C 624.87 172.98 623.08 171.19 623.08 168.98 C 623.08 166.77 624.87 164.98 627.08 164.98 C 629.29 164.98 631.08 166.77 631.08 168.98 z"/>
<title>Point F_1</title>
<desc>Point F_1: Intersection of n and i003n</desc>
</g>
<g class="point top">
  <path d="M 631.08 168.98 C 631.08 171.19 629.29 172.98 627.08 172.98 C 624.87 172.98 623.08 171.19 623.08 168.98 C 623.08 166.77 624.87 164.98 627.08 164.98 C 629.29 164.98 631.08 166.77 631.08 168.98 z"/>
<title>Point F_1</title>
<desc>Point F_1: Intersection of n and i003n</desc>
</g> 
</g> 
<g id="pt-G_1">
<g class="point bottom">
  <path d="M 631.08 695.33 C 631.08 697.54 629.29 699.33 627.08 699.33 C 624.87 699.33 623.08 697.54 623.08 695.33 C 623.08 693.12 624.87 691.33 627.08 691.33 C 629.29 691.33 631.08 693.12 631.08 695.33 z"/>
<title>Point G_1</title>
<desc>Point G_1: Intersection of n and i003s</desc>
</g>
<g class="point top">
  <path d="M 631.08 695.33 C 631.08 697.54 629.29 699.33 627.08 699.33 C 624.87 699.33 623.08 697.54 623.08 695.33 C 623.08 693.12 624.87 691.33 627.08 691.33 C 629.29 691.33 631.08 693.12 631.08 695.33 z"/>
<title>Point G_1</title>
<desc>Point G_1: Intersection of n and i003s</desc>
</g> 
</g> 
<g id="pt-L_1">
<g class="point bottom">
  <path d="M 637.30 537.43 C 637.30 539.63 635.51 541.43 633.30 541.43 C 631.09 541.43 629.30 539.63 629.30 537.43 C 629.30 535.22 631.09 533.43 633.30 533.43 C 635.51 533.43 637.30 535.22 637.30 537.43 z"/>
<title>Point L_1</title>
<desc>Point L_1: Intersection of c007w and i004e</desc>
</g>
<g class="point top">
  <path d="M 637.30 537.43 C 637.30 539.63 635.51 541.43 633.30 541.43 C 631.09 541.43 629.30 539.63 629.30 537.43 C 629.30 535.22 631.09 533.43 633.30 533.43 C 635.51 533.43 637.30 535.22 637.30 537.43 z"/>
<title>Point L_1</title>
<desc>Point L_1: Intersection of c007w and i004e</desc>
</g> 
</g> 
<g id="pt-M_1">
<g class="point bottom">
  <path d="M 631.08 395.79 C 631.08 398.00 629.29 399.79 627.08 399.79 C 624.87 399.79 623.08 398.00 623.08 395.79 C 623.08 393.58 624.87 391.79 627.08 391.79 C 629.29 391.79 631.08 393.58 631.08 395.79 z"/>
<title>Point M_1</title>
<desc>Point M_1: Intersection of h and n</desc>
</g>
<g class="point top">
  <path d="M 631.08 395.79 C 631.08 398.00 629.29 399.79 627.08 399.79 C 624.87 399.79 623.08 398.00 623.08 395.79 C 623.08 393.58 624.87 391.79 627.08 391.79 C 629.29 391.79 631.08 393.58 631.08 395.79 z"/>
<title>Point M_1</title>
<desc>Point M_1: Intersection of h and n</desc>
</g> 
</g> 
<g id="pt-N_1">
<g class="point bottom">
  <path d="M 821.52 269.50 C 821.52 271.71 819.73 273.50 817.52 273.50 C 815.31 273.50 813.52 271.71 813.52 269.50 C 813.52 267.30 815.31 265.50 817.52 265.50 C 819.73 265.50 821.52 267.30 821.52 269.50 z"/>
<title>Point N_1</title>
<desc>Point N_1: Intersection of cg001e and i002e</desc>
</g>
<g class="point top">
  <path d="M 821.52 269.50 C 821.52 271.71 819.73 273.50 817.52 273.50 C 815.31 273.50 813.52 271.71 813.52 269.50 C 813.52 267.30 815.31 265.50 817.52 265.50 C 819.73 265.50 821.52 267.30 821.52 269.50 z"/>
<title>Point N_1</title>
<desc>Point N_1: Intersection of cg001e and i002e</desc>
</g> 
</g> 
<g id="pt-O_1">
<g class="point bottom">
  <path d="M 608.61 269.50 C 608.61 271.71 606.81 273.50 604.61 273.50 C 602.40 273.50 600.61 271.71 600.61 269.50 C 600.61 267.30 602.40 265.50 604.61 265.50 C 606.81 265.50 608.61 267.30 608.61 269.50 z"/>
<title>Point O_1</title>
<desc>Point O_1: Intersection of i004w and k</desc>
</g>
<g class="point top">
  <path d="M 608.61 269.50 C 608.61 271.71 606.81 273.50 604.61 273.50 C 602.40 273.50 600.61 271.71 600.61 269.50 C 600.61 267.30 602.40 265.50 604.61 265.50 C 606.81 265.50 608.61 267.30 608.61 269.50 z"/>
<title>Point O_1</title>
<desc>Point O_1: Intersection of i004w and k</desc>
</g> 
</g> 
<g id="pt-P_1">
<g class="point bottom">
  <path d="M 689.93 269.50 C 689.93 271.71 688.14 273.50 685.93 273.50 C 683.72 273.50 681.93 271.71 681.93 269.50 C 681.93 267.30 683.72 265.50 685.93 265.50 C 688.14 265.50 689.93 267.30 689.93 269.50 z"/>
<title>Point P_1</title>
<desc>Point P_1: Intersection of i001 and k</desc>
</g>
<g class="point top">
  <path d="M 689.93 269.50 C 689.93 271.71 688.14 273.50 685.93 273.50 C 683.72 273.50 681.93 271.71 681.93 269.50 C 681.93 267.30 683.72 265.50 685.93 265.50 C 688.14 265.50 689.93 267.30 689.93 269.50 z"/>
<title>Point P_1</title>
<desc>Point P_1: Intersection of i001 and k</desc>
</g> 
</g> 
<g id="pt-Q_1">
<g class="point bottom">
  <path d="M 821.52 695.33 C 821.52 697.54 819.73 699.33 817.52 699.33 C 815.31 699.33 813.52 697.54 813.52 695.33 C 813.52 693.12 815.31 691.33 817.52 691.33 C 819.73 691.33 821.52 693.12 821.52 695.33 z"/>
<title>Point Q_1</title>
<desc>Point Q_1: Intersection point of c000e, i004w</desc>
</g>
<g class="point top">
  <path d="M 821.52 695.33 C 821.52 697.54 819.73 699.33 817.52 699.33 C 815.31 699.33 813.52 697.54 813.52 695.33 C 813.52 693.12 815.31 691.33 817.52 691.33 C 819.73 691.33 821.52 693.12 821.52 695.33 z"/>
<title>Point Q_1</title>
<desc>Point Q_1: Intersection point of c000e, i004w</desc>
</g> 
</g> 
<g id="pt-R_1">
<g class="point bottom">
  <path d="M 610.98 274.25 C 610.98 276.46 609.19 278.25 606.98 278.25 C 604.77 278.25 602.98 276.46 602.98 274.25 C 602.98 272.04 604.77 270.25 606.98 270.25 C 609.19 270.25 610.98 272.04 610.98 274.25 z"/>
<title>Point R_1</title>
<desc>Point R_1: Intersection point of c000e, i004w</desc>
</g>
<g class="point top">
  <path d="M 610.98 274.25 C 610.98 276.46 609.19 278.25 606.98 278.25 C 604.77 278.25 602.98 276.46 602.98 274.25 C 602.98 272.04 604.77 270.25 606.98 270.25 C 609.19 270.25 610.98 272.04 610.98 274.25 z"/>
<title>Point R_1</title>
<desc>Point R_1: Intersection point of c000e, i004w</desc>
</g> 
</g> 
<g id="pt-K_1">
<g class="point bottom">
  <path d="M 542.81 341.23 C 542.81 343.44 541.02 345.23 538.81 345.23 C 536.60 345.23 534.81 343.44 534.81 341.23 C 534.81 339.02 536.60 337.23 538.81 337.23 C 541.02 337.23 542.81 339.02 542.81 341.23 z"/>
<title>Point K_1</title>
<desc>Point K_1: Intersection of h and f</desc>
</g>
<g class="point top">
  <path d="M 542.81 341.23 C 542.81 343.44 541.02 345.23 538.81 345.23 C 536.60 345.23 534.81 343.44 534.81 341.23 C 534.81 339.02 536.60 337.23 538.81 337.23 C 541.02 337.23 542.81 339.02 542.81 341.23 z"/>
<title>Point K_1</title>
<desc>Point K_1: Intersection of h and f</desc>
</g> 
</g> 
<g id="pt-S_1">
<g class="point bottom">
  <path d="M 658.87 269.50 C 658.87 271.71 657.08 273.50 654.87 273.50 C 652.66 273.50 650.87 271.71 650.87 269.50 C 650.87 267.30 652.66 265.50 654.87 265.50 C 657.08 265.50 658.87 267.30 658.87 269.50 z"/>
<title>Point S_1</title>
<desc>Point S_1: Intersection of k and f</desc>
</g>
<g class="point top">
  <path d="M 658.87 269.50 C 658.87 271.71 657.08 273.50 654.87 273.50 C 652.66 273.50 650.87 271.71 650.87 269.50 C 650.87 267.30 652.66 265.50 654.87 265.50 C 657.08 265.50 658.87 267.30 658.87 269.50 z"/>
<title>Point S_1</title>
<desc>Point S_1: Intersection of k and f</desc>
</g> 
</g> 
<g id="pt-T_1">
<g class="point bottom">
  <path d="M 631.08 143.86 C 631.08 146.07 629.29 147.86 627.08 147.86 C 624.87 147.86 623.08 146.07 623.08 143.86 C 623.08 141.65 624.87 139.86 627.08 139.86 C 629.29 139.86 631.08 141.65 631.08 143.86 z"/>
<title>Point T_1</title>
<desc>Point T_1: Intersection point of c003, n</desc>
</g>
<g class="point top">
  <path d="M 631.08 143.86 C 631.08 146.07 629.29 147.86 627.08 147.86 C 624.87 147.86 623.08 146.07 623.08 143.86 C 623.08 141.65 624.87 139.86 627.08 139.86 C 629.29 139.86 631.08 141.65 631.08 143.86 z"/>
<title>Point T_1</title>
<desc>Point T_1: Intersection point of c003, n</desc>
</g> 
</g> 
<g id="pt-U_1">
<g class="point bottom">
  <path d="M 631.08 720.45 C 631.08 722.66 629.29 724.45 627.08 724.45 C 624.87 724.45 623.08 722.66 623.08 720.45 C 623.08 718.24 624.87 716.45 627.08 716.45 C 629.29 716.45 631.08 718.24 631.08 720.45 z"/>
<title>Point U_1</title>
<desc>Point U_1: Intersection point of c003, n</desc>
</g>
<g class="point top">
  <path d="M 631.08 720.45 C 631.08 722.66 629.29 724.45 627.08 724.45 C 624.87 724.45 623.08 722.66 623.08 720.45 C 623.08 718.24 624.87 716.45 627.08 716.45 C 629.29 716.45 631.08 718.24 631.08 720.45 z"/>
<title>Point U_1</title>
<desc>Point U_1: Intersection point of c003, n</desc>
</g> 
</g> 
<g id="pt-V_1">
<g class="point bottom">
  <path d="M 631.08 322.50 C 631.08 324.71 629.29 326.50 627.08 326.50 C 624.87 326.50 623.08 324.71 623.08 322.50 C 623.08 320.29 624.87 318.50 627.08 318.50 C 629.29 318.50 631.08 320.29 631.08 322.50 z"/>
<title>Point V_1</title>
<desc>Point V_1: Intersection point of c007w, n</desc>
</g>
<g class="point top">
  <path d="M 631.08 322.50 C 631.08 324.71 629.29 326.50 627.08 326.50 C 624.87 326.50 623.08 324.71 623.08 322.50 C 623.08 320.29 624.87 318.50 627.08 318.50 C 629.29 318.50 631.08 320.29 631.08 322.50 z"/>
<title>Point V_1</title>
<desc>Point V_1: Intersection point of c007w, n</desc>
</g> 
</g> 
<g id="pt-W_1">
<g class="point bottom">
  <path d="M 631.08 541.81 C 631.08 544.02 629.29 545.81 627.08 545.81 C 624.87 545.81 623.08 544.02 623.08 541.81 C 623.08 539.60 624.87 537.81 627.08 537.81 C 629.29 537.81 631.08 539.60 631.08 541.81 z"/>
<title>Point W_1</title>
<desc>Point W_1: Intersection point of c007w, n</desc>
</g>
<g class="point top">
  <path d="M 631.08 541.81 C 631.08 544.02 629.29 545.81 627.08 545.81 C 624.87 545.81 623.08 544.02 623.08 541.81 C 623.08 539.60 624.87 537.81 627.08 537.81 C 629.29 537.81 631.08 539.60 631.08 541.81 z"/>
<title>Point W_1</title>
<desc>Point W_1: Intersection point of c007w, n</desc>
</g> 
</g> 
<g id="pt-Z_1">
<g class="point bottom">
  <path d="M 631.08 432.16 C 631.08 434.36 629.29 436.16 627.08 436.16 C 624.87 436.16 623.08 434.36 623.08 432.16 C 623.08 429.95 624.87 428.16 627.08 428.16 C 629.29 428.16 631.08 429.95 631.08 432.16 z"/>
<title>Point Z_1</title>
<desc>Point Z_1: Intersection of n and i000</desc>
</g>
<g class="point top">
  <path d="M 631.08 432.16 C 631.08 434.36 629.29 436.16 627.08 436.16 C 624.87 436.16 623.08 434.36 623.08 432.16 C 623.08 429.95 624.87 428.16 627.08 428.16 C 629.29 428.16 631.08 429.95 631.08 432.16 z"/>
<title>Point Z_1</title>
<desc>Point Z_1: Intersection of n and i000</desc>
</g> 
</g> 
<g id="pt-A_2">
<g class="point bottom">
  <path d="M 740.19 219.24 C 740.19 221.45 738.40 223.24 736.19 223.24 C 733.98 223.24 732.19 221.45 732.19 219.24 C 732.19 217.03 733.98 215.24 736.19 215.24 C 738.40 215.24 740.19 217.03 740.19 219.24 z"/>
<title>Point A_2</title>
<desc>Point A_2: Intersection of f and j</desc>
</g>
<g class="point top">
  <path d="M 740.19 219.24 C 740.19 221.45 738.40 223.24 736.19 223.24 C 733.98 223.24 732.19 221.45 732.19 219.24 C 732.19 217.03 733.98 215.24 736.19 215.24 C 738.40 215.24 740.19 217.03 740.19 219.24 z"/>
<title>Point A_2</title>
<desc>Point A_2: Intersection of f and j</desc>
</g> 
</g> 
<g id="pt-B_2">
<g class="point bottom">
  <path d="M 821.52 219.24 C 821.52 221.45 819.73 223.24 817.52 223.24 C 815.31 223.24 813.52 221.45 813.52 219.24 C 813.52 217.03 815.31 215.24 817.52 215.24 C 819.73 215.24 821.52 217.03 821.52 219.24 z"/>
<title>Point B_2</title>
<desc>Point B_2: Intersection of j and i002e</desc>
</g>
<g class="point top">
  <path d="M 821.52 219.24 C 821.52 221.45 819.73 223.24 817.52 223.24 C 815.31 223.24 813.52 221.45 813.52 219.24 C 813.52 217.03 815.31 215.24 817.52 215.24 C 819.73 215.24 821.52 217.03 821.52 219.24 z"/>
<title>Point B_2</title>
<desc>Point B_2: Intersection of j and i002e</desc>
</g> 
</g> 
<g id="pt-C_2">
<g class="point bottom">
  <path d="M 620.47 293.24 C 620.47 295.44 618.68 297.24 616.47 297.24 C 614.26 297.24 612.47 295.44 612.47 293.24 C 612.47 291.03 614.26 289.24 616.47 289.24 C 618.68 289.24 620.47 291.03 620.47 293.24 z"/>
<title>Point C_2</title>
<desc>Point C_2: Intersection of i004w and f</desc>
</g>
<g class="point top">
  <path d="M 620.47 293.24 C 620.47 295.44 618.68 297.24 616.47 297.24 C 614.26 297.24 612.47 295.44 612.47 293.24 C 612.47 291.03 614.26 289.24 616.47 289.24 C 618.68 289.24 620.47 291.03 620.47 293.24 z"/>
<title>Point C_2</title>
<desc>Point C_2: Intersection of i004w and f</desc>
</g> 
</g> 
<g id="pt-D_2">
<g class="point bottom">
  <path d="M 542.81 341.23 C 542.81 343.44 541.02 345.23 538.81 345.23 C 536.60 345.23 534.81 343.44 534.81 341.23 C 534.81 339.02 536.60 337.23 538.81 337.23 C 541.02 337.23 542.81 339.02 542.81 341.23 z"/>
<title>Point D_2</title>
<desc>Point D_2: Intersection of f and h</desc>
</g>
<g class="point top">
  <path d="M 542.81 341.23 C 542.81 343.44 541.02 345.23 538.81 345.23 C 536.60 345.23 534.81 343.44 534.81 341.23 C 534.81 339.02 536.60 337.23 538.81 337.23 C 541.02 337.23 542.81 339.02 542.81 341.23 z"/>
<title>Point D_2</title>
<desc>Point D_2: Intersection of f and h</desc>
</g> 
</g> 
<g id="pt-E_2">
<g class="point bottom">
  <path d="M 620.47 293.24 C 620.47 295.44 618.68 297.24 616.47 297.24 C 614.26 297.24 612.47 295.44 612.47 293.24 C 612.47 291.03 614.26 289.24 616.47 289.24 C 618.68 289.24 620.47 291.03 620.47 293.24 z"/>
<title>Point E_2</title>
<desc>Point E_2: Intersection of i004w and f</desc>
</g>
<g class="point top">
  <path d="M 620.47 293.24 C 620.47 295.44 618.68 297.24 616.47 297.24 C 614.26 297.24 612.47 295.44 612.47 293.24 C 612.47 291.03 614.26 289.24 616.47 289.24 C 618.68 289.24 620.47 291.03 620.47 293.24 z"/>
<title>Point E_2</title>
<desc>Point E_2: Intersection of i004w and f</desc>
</g> 
</g> 
<g id="pt-F_2">
<g class="point bottom">
  <path d="M 740.19 219.24 C 740.19 221.45 738.40 223.24 736.19 223.24 C 733.98 223.24 732.19 221.45 732.19 219.24 C 732.19 217.03 733.98 215.24 736.19 215.24 C 738.40 215.24 740.19 217.03 740.19 219.24 z"/>
<title>Point F_2</title>
<desc>Point F_2: Intersection of f and j</desc>
</g>
<g class="point top">
  <path d="M 740.19 219.24 C 740.19 221.45 738.40 223.24 736.19 223.24 C 733.98 223.24 732.19 221.45 732.19 219.24 C 732.19 217.03 733.98 215.24 736.19 215.24 C 738.40 215.24 740.19 217.03 740.19 219.24 z"/>
<title>Point F_2</title>
<desc>Point F_2: Intersection of f and j</desc>
</g> 
</g> 
<g id="pt-G_2">
<g class="point bottom">
  <path d="M 617.53 295.05 C 617.53 297.26 615.74 299.05 613.53 299.05 C 611.32 299.05 609.53 297.26 609.53 295.05 C 609.53 292.84 611.32 291.05 613.53 291.05 C 615.74 291.05 617.53 292.84 617.53 295.05 z"/>
<title>Point G_2</title>
<desc>Point G_2: Intersection point of c008, f</desc>
</g>
<g class="point top">
  <path d="M 617.53 295.05 C 617.53 297.26 615.74 299.05 613.53 299.05 C 611.32 299.05 609.53 297.26 609.53 295.05 C 609.53 292.84 611.32 291.05 613.53 291.05 C 615.74 291.05 617.53 292.84 617.53 295.05 z"/>
<title>Point G_2</title>
<desc>Point G_2: Intersection point of c008, f</desc>
</g> 
</g> 
<g id="pt-H_2">
<g class="point bottom">
  <path d="M 481.99 378.82 C 481.99 381.03 480.20 382.82 477.99 382.82 C 475.78 382.82 473.99 381.03 473.99 378.82 C 473.99 376.61 475.78 374.82 477.99 374.82 C 480.20 374.82 481.99 376.61 481.99 378.82 z"/>
<title>Point H_2</title>
<desc>Point H_2: Intersection point of c008, f</desc>
</g>
<g class="point top">
  <path d="M 481.99 378.82 C 481.99 381.03 480.20 382.82 477.99 382.82 C 475.78 382.82 473.99 381.03 473.99 378.82 C 473.99 376.61 475.78 374.82 477.99 374.82 C 480.20 374.82 481.99 376.61 481.99 378.82 z"/>
<title>Point H_2</title>
<desc>Point H_2: Intersection point of c008, f</desc>
</g> 
</g> 
<g id="pt-I_2">
<g class="point bottom">
  <path d="M 703.82 241.72 C 703.82 243.93 702.03 245.72 699.82 245.72 C 697.61 245.72 695.82 243.93 695.82 241.72 C 695.82 239.51 697.61 237.72 699.82 237.72 C 702.03 237.72 703.82 239.51 703.82 241.72 z"/>
<title>Point I_2</title>
<desc>Point I_2: Intersection point of c005, f</desc>
</g>
<g class="point top">
  <path d="M 703.82 241.72 C 703.82 243.93 702.03 245.72 699.82 245.72 C 697.61 245.72 695.82 243.93 695.82 241.72 C 695.82 239.51 697.61 237.72 699.82 237.72 C 702.03 237.72 703.82 239.51 703.82 241.72 z"/>
<title>Point I_2</title>
<desc>Point I_2: Intersection point of c005, f</desc>
</g> 
</g> 
<g id="pt-J_2">
<g class="point bottom">
  <path d="M 558.34 331.63 C 558.34 333.84 556.55 335.63 554.34 335.63 C 552.13 335.63 550.34 333.84 550.34 331.63 C 550.34 329.42 552.13 327.63 554.34 327.63 C 556.55 327.63 558.34 329.42 558.34 331.63 z"/>
<title>Point J_2</title>
<desc>Point J_2: Intersection point of c005, f</desc>
</g>
<g class="point top">
  <path d="M 558.34 331.63 C 558.34 333.84 556.55 335.63 554.34 335.63 C 552.13 335.63 550.34 333.84 550.34 331.63 C 550.34 329.42 552.13 327.63 554.34 327.63 C 556.55 327.63 558.34 329.42 558.34 331.63 z"/>
<title>Point J_2</title>
<desc>Point J_2: Intersection point of c005, f</desc>
</g> 
</g> 
<g id="pt-K_2">
<g class="point bottom">
  <path d="M 689.93 168.98 C 689.93 171.19 688.14 172.98 685.93 172.98 C 683.72 172.98 681.93 171.19 681.93 168.98 C 681.93 166.77 683.72 164.98 685.93 164.98 C 688.14 164.98 689.93 166.77 689.93 168.98 z"/>
<title>Point K_2</title>
<desc>Point K_2: Intersection of i001 and i003n</desc>
</g>
<g class="point top">
  <path d="M 689.93 168.98 C 689.93 171.19 688.14 172.98 685.93 172.98 C 683.72 172.98 681.93 171.19 681.93 168.98 C 681.93 166.77 683.72 164.98 685.93 164.98 C 688.14 164.98 689.93 166.77 689.93 168.98 z"/>
<title>Point K_2</title>
<desc>Point K_2: Intersection of i001 and i003n</desc>
</g> 
</g> 
<g id="pt-L_2">
<g class="point bottom">
  <path d="M 689.93 314.46 C 689.93 316.67 688.14 318.46 685.93 318.46 C 683.72 318.46 681.93 316.67 681.93 314.46 C 681.93 312.25 683.72 310.46 685.93 310.46 C 688.14 310.46 689.93 312.25 689.93 314.46 z"/>
<title>Point L_2</title>
<desc>Point L_2: Intersection of i001 and g</desc>
</g>
<g class="point top">
  <path d="M 689.93 314.46 C 689.93 316.67 688.14 318.46 685.93 318.46 C 683.72 318.46 681.93 316.67 681.93 314.46 C 681.93 312.25 683.72 310.46 685.93 310.46 C 688.14 310.46 689.93 312.25 689.93 314.46 z"/>
<title>Point L_2</title>
<desc>Point L_2: Intersection of i001 and g</desc>
</g> 
</g> 
<g id="pt-A">
<g class="point bottom">
  <path d="M 973.66 74.953 C 973.66 77.162 971.87 78.953 969.66 78.953 C 967.45 78.953 965.66 77.162 965.66 74.953 C 965.66 72.744 967.45 70.953 969.66 70.953 C 971.87 70.953 973.66 72.744 973.66 74.953 z"/>
<title>Point A</title>
<desc>Point A: Intersection point of c006, f</desc>
</g>
<g class="point top">
  <path d="M 973.66 74.953 C 973.66 77.162 971.87 78.953 969.66 78.953 C 967.45 78.953 965.66 77.162 965.66 74.953 C 965.66 72.744 967.45 70.953 969.66 70.953 C 971.87 70.953 973.66 72.744 973.66 74.953 z"/>
<title>Point A</title>
<desc>Point A: Intersection point of c006, f</desc>
</g> 
</g> 
<g id="pt-M_2">
<g class="point bottom">
  <path d="M 288.51 498.40 C 288.51 500.61 286.72 502.40 284.51 502.40 C 282.30 502.40 280.51 500.61 280.51 498.40 C 280.51 496.19 282.30 494.40 284.51 494.40 C 286.72 494.40 288.51 496.19 288.51 498.40 z"/>
<title>Point M_2</title>
<desc>Point M_2: Intersection point of c006, f</desc>
</g>
<g class="point top">
  <path d="M 288.51 498.40 C 288.51 500.61 286.72 502.40 284.51 502.40 C 282.30 502.40 280.51 500.61 280.51 498.40 C 280.51 496.19 282.30 494.40 284.51 494.40 C 286.72 494.40 288.51 496.19 288.51 498.40 z"/>
<title>Point M_2</title>
<desc>Point M_2: Intersection point of c006, f</desc>
</g> 
</g> 
<g id="pt-N_2">
<g class="point bottom">
  <path d="M 689.93 300.57 C 689.93 302.78 688.14 304.57 685.93 304.57 C 683.72 304.57 681.93 302.78 681.93 300.57 C 681.93 298.36 683.72 296.57 685.93 296.57 C 688.14 296.57 689.93 298.36 689.93 300.57 z"/>
<title>Point N_2</title>
<desc>Point N_2: Intersection point of c004, i001</desc>
</g>
<g class="point top">
  <path d="M 689.93 300.57 C 689.93 302.78 688.14 304.57 685.93 304.57 C 683.72 304.57 681.93 302.78 681.93 300.57 C 681.93 298.36 683.72 296.57 685.93 296.57 C 688.14 296.57 689.93 298.36 689.93 300.57 z"/>
<title>Point N_2</title>
<desc>Point N_2: Intersection point of c004, i001</desc>
</g> 
</g> 
<g id="pt-O_2">
<g class="point bottom">
  <path d="M 689.93 563.74 C 689.93 565.95 688.14 567.74 685.93 567.74 C 683.72 567.74 681.93 565.95 681.93 563.74 C 681.93 561.53 683.72 559.74 685.93 559.74 C 688.14 559.74 689.93 561.53 689.93 563.74 z"/>
<title>Point O_2</title>
<desc>Point O_2: Intersection point of c004, i001</desc>
</g>
<g class="point top">
  <path d="M 689.93 563.74 C 689.93 565.95 688.14 567.74 685.93 567.74 C 683.72 567.74 681.93 565.95 681.93 563.74 C 681.93 561.53 683.72 559.74 685.93 559.74 C 688.14 559.74 689.93 561.53 689.93 563.74 z"/>
<title>Point O_2</title>
<desc>Point O_2: Intersection point of c004, i001</desc>
</g> 
</g> 
</g>
</g> 
</svg> 
