<svg 
     version="1.1"
     baseProfile="full"
     xmlns="http://www.w3.org/2000/svg"
     xmlns:xlink="http://www.w3.org/1999/xlink"
     xmlns:ev="http://www.w3.org/2001/xml-events"
     viewBox="0 0 1287 823"
     >
<title>
</title>
<style>
* {
  fill-rule: nonzero;
  stroke-linejoin: round;
  stroke-width: 0.1em;
}

text {
  fill-opacity: 1.0000;
  font-style: normal;
  font-family: Helvetica;
  font-weight: normal;
  stroke: none;
  fill: #ffcc66;
  font-size: 1em;
  opacity: 0;
  x: 0;
  y: 0;
}
path {
  stroke-opacity: 0.5;
}

.point path {
  stroke: black;
  stroke-width: 2;
  stroke-opacity: 1;
  fill: white;
  fill-opacity: 1;
}

.point.bottom path {
  stroke: #FC0;
  stroke-width: 8;
  stroke-opacity: 0;
}

.line {
  stroke: #FFF;
  stroke-dasharray: 1.5 3;
  stroke-linejoin: round;
  stroke-linecap: butt;
}
.line > path {
  /* stroke-opacity: 0.5; */
}

.circle {
  stroke: #808080;
  stroke-width: 3;
  /* stroke-opacity: 0.3; */
  stroke-linejoin: round;
  stroke-linecap: butt;

  fill: none;
}

.polygon {
  stroke-width: 5;

  stroke-linejoin: round;
  stroke-linecap: butt;

  fill: #CCC;
  fill-opacity: 0.3;
  opacity: 1;
}
.bisector {
  stroke-dasharray: 13, 5, 3, 5;

}
.segment path {
  stroke-width: 5;
  stroke-linecap: round;
  stroke-opacity: 0.3;
  opacity: 0;
}
.a path {
  stroke-width: 3;
}
.b path {
  stroke-width: 5;
}
[class~="a+b"] path {
  stroke-width: 8;
}
[class~="a+2b"] path {
  stroke-width: 13;
}

.segment path {
  stroke: #C90;
  stroke-opacity: 0;
  fill-opacity: 0;
}
.golden path {
  stroke-opacity: 0.8;
}

.golden text {
  opacity: 0.8;
}

.s-ff6699 path {
  stroke: #ff6699;
  stroke-dasharray: none;
}

.s-66ccff path {
  stroke: #66ccff;
}

.s-cc66ff path {
  stroke: #cc66ff;
}

#c-d path {
  /* stroke: none; */
}

[id^="sg-g0"] .segment path {
  stroke-opacity: 0.8;
  opacity: 0.8;
}
[id^="sg-g0"] text {
  stroke-opacity: 0.8;
  opacity: 0.8;
}

#pt-A .bottom path{
  stroke-opacity: 0.8;
  opacity: 0.8;
}
#pt-B .bottom path{
  stroke-opacity: 0.8;
  opacity: 0.8;
}
</style>
<g stroke-linejoin="miter" stroke-dashoffset="0.0000" stroke-dasharray="none" stroke-width="1.0000" stroke-miterlimit="10.000" stroke-linecap="square">
<g>
<g fill-opacity="1.0000" fill-rule="nonzero" stroke="none" fill="#000000">
  <path d="M 0.0000 0.0000 L 1287.0 0.0000 L 1287.0 823.00 L 0.0000 823.00 L 0.0000 0.0000 z"/>
</g> 
</g> 
<g id="misc">
</g>
<g id="base">
<g id="y-y4">
<g class="polygon s-99ff00">
  <path d="M 554.34 168.98 L 817.52 168.98 L 817.52 432.16 L 554.34 432.16 z"/>
<title>Quadrilateral y4</title>
<desc>Quadrilateral y4: Polygon p006nw, p006ne, p000e, p000w</desc>
</g> 
</g> 
<g id="y-y5">
<g class="polygon s-339900">
  <path d="M 399.65 219.24 L 709.03 219.24 L 804.64 513.48 L 554.34 695.33 L 304.05 513.48 z"/>
<title>Pentagon y5</title>
<desc>Pentagon y5: Polygon p009a, p009b, p009c, p006sw, p009d</desc>
</g> 
</g> 
<g id="i-i000">
<g class="line s-808080">
  <path d="M -5.0000 432.16 L 1292.0 432.16"/>
<title>Line i000</title>
<desc>Line i000: Line p000w, p000e</desc>
</g> 
</g> 
<g id="i-i001">
<g class="line s-808080">
  <path d="M 685.93 828.00 L 685.93 -5.0000"/>
<title>Line i001</title>
<desc>Line i001: Line p001n, p001s</desc>
</g> 
</g> 
<g id="i-i002w">
<g class="line s-808080">
  <path d="M 554.34 828.00 L 554.34 -5.0000"/>
<title>Line i002w</title>
<desc>Line i002w: Line p005nw, p005sw</desc>
</g> 
</g> 
<g id="i-i002e">
<g class="line s-808080">
  <path d="M 817.52 828.00 L 817.52 -5.0000"/>
<title>Line i002e</title>
<desc>Line i002e: Line p005ne, p005se</desc>
</g> 
</g> 
<g id="i-i003n">
<g class="line s-808080">
  <path d="M -5.0000 168.98 L 1292.0 168.98"/>
<title>Line i003n</title>
<desc>Line i003n: Line p006nw, p006ne</desc>
</g> 
</g> 
<g id="i-i003s">
<g class="line s-808080">
  <path d="M -5.0000 695.33 L 1292.0 695.33"/>
<title>Line i003s</title>
<desc>Line i003s: Line p006sw, p006se</desc>
</g> 
</g> 
<g id="i-i004w">
<g class="line s-339900">
  <path d="M 883.85 828.00 L 467.35 -5.0000"/>
<title>Line i004w</title>
<desc>Line i004w: Line p006nw, p006se</desc>
</g> 
</g> 
<g>
<g stroke-dasharray="1.5000,3.0000" stroke-width="1.5000" fill="none" stroke="#339900">
  <path d="M 488.01 828.00 L 904.51 -5.0000"/>
<title>Line i004e</title>
<desc>Line i004e: Line p006ne, p006sw</desc>
</g> 
</g> 
<g id="i-f">
<g class="line s-ffff66">
  <path d="M -5.0000 677.33 L 1099.0 -5.0000"/>
<title>Line f</title>
<desc>Line f: Line p006ne, p007w</desc>
</g> 
</g> 
<g id="i-j">
<g class="line s-808080">
  <path d="M -5.0000 219.24 L 1292.0 219.24"/>
<title>Line j</title>
<desc>Line j: Line p009a, p009b</desc>
</g> 
</g> 
<g id="i-h">
<g class="line s-cc9900">
  <path d="M -5.0000 5.1370 L 1292.0 806.73"/>
<title>Line h</title>
<desc>Line h: bisector(p000w, p008nw)</desc>
</g> 
</g> 
</g>
<g id="layer1">
</g>
<g id="layer2">
</g>
<g id="layer3">
</g>
<g id="layer4">
</g>
<g id="layer5">
</g>
<g id="layer6">
<g id="c-c000w">
<g class="circle s-808080">
  <path d="M 817.52 432.16 C 817.52 577.50 699.69 695.33 554.34 695.33 C 409.00 695.33 291.17 577.50 291.17 432.16 C 291.17 286.81 409.00 168.98 554.34 168.98 C 699.69 168.98 817.52 286.81 817.52 432.16 z"/>
<title>Circle c000w</title>
<desc>Circle c000w: Circle through p000e with center p000w</desc>
</g> 
</g> 
<g id="c-c000e">
<g class="circle s-808080">
  <path d="M 1080.7 432.16 C 1080.7 577.50 962.87 695.33 817.52 695.33 C 672.17 695.33 554.34 577.50 554.34 432.16 C 554.34 286.81 672.17 168.98 817.52 168.98 C 962.87 168.98 1080.7 286.81 1080.7 432.16 z"/>
<title>Circle c000e</title>
<desc>Circle c000e: Circle through p000w with center p000e</desc>
</g> 
</g> 
<g id="c-c001w">
<g class="circle s-808080">
  <path d="M 1080.7 432.16 C 1080.7 722.85 845.04 958.51 554.34 958.51 C 263.65 958.51 27.994 722.85 27.994 432.16 C 27.994 141.46 263.65 -94.194 554.34 -94.194 C 845.04 -94.194 1080.7 141.46 1080.7 432.16 z"/>
<title>Circle c001w</title>
<desc>Circle c001w: Circle through p003e with center p000w</desc>
</g> 
</g> 
<g id="c-c001e">
<g class="circle s-808080">
  <path d="M 1343.9 432.16 C 1343.9 722.85 1108.2 958.51 817.52 958.51 C 526.82 958.51 291.17 722.85 291.17 432.16 C 291.17 141.46 526.82 -94.194 817.52 -94.194 C 1108.2 -94.194 1343.9 141.46 1343.9 432.16 z"/>
<title>Circle c001e</title>
<desc>Circle c001e: Circle through p003w with center p000e</desc>
</g> 
</g> 
<g id="c-c002w">
<g class="circle s-808080">
  <path d="M 817.52 432.16 C 817.52 722.85 581.86 958.51 291.17 958.51 C .47348 958.51 -235.18 722.85 -235.18 432.16 C -235.18 141.46 .47348 -94.194 291.17 -94.194 C 581.86 -94.194 817.52 141.46 817.52 432.16 z"/>
<title>Circle c002w</title>
<desc>Circle c002w: Circle through p000e with center p003w</desc>
</g> 
</g> 
<g id="c-c002e">
<g class="circle s-808080">
  <path d="M 1607.0 432.16 C 1607.0 722.85 1371.4 958.51 1080.7 958.51 C 790.00 958.51 554.34 722.85 554.34 432.16 C 554.34 141.46 790.00 -94.194 1080.7 -94.194 C 1371.4 -94.194 1607.0 141.46 1607.0 432.16 z"/>
<title>Circle c002e</title>
<desc>Circle c002e: Circle through p000w with center p003e</desc>
</g> 
</g> 
<g>
<g fill-opacity=".098039" fill-rule="nonzero" stroke="none" fill="#339900">
  <path d="M 980.17 432.16 C 980.17 594.66 848.43 726.39 685.93 726.39 C 523.43 726.39 391.69 594.66 391.69 432.16 C 391.69 269.65 523.43 137.92 685.93 137.92 C 848.43 137.92 980.17 269.65 980.17 432.16 z"/>
<title>Circle c003</title>
<desc>Circle c003: Circle with center p002 and radius r003</desc>
</g> 
</g> 
<g id="c-c003">
<g class="circle s-339900">
  <path d="M 980.17 432.16 C 980.17 594.66 848.43 726.39 685.93 726.39 C 523.43 726.39 391.69 594.66 391.69 432.16 C 391.69 269.65 523.43 137.92 685.93 137.92 C 848.43 137.92 980.17 269.65 980.17 432.16 z"/>
<title>Circle c003</title>
<desc>Circle c003: Circle with center p002 and radius r003</desc>
</g> 
</g> 
<g id="c-cg001w">
<g class="circle s-cc9900">
  <path d="M 716.99 432.16 C 716.99 521.99 644.17 594.81 554.34 594.81 C 464.51 594.81 391.69 521.99 391.69 432.16 C 391.69 342.33 464.51 269.50 554.34 269.50 C 644.17 269.50 716.99 342.33 716.99 432.16 z"/>
<title>Circle cg001w</title>
<desc>Circle cg001w: Circle with center p000w and radius g002a2</desc>
</g> 
</g> 
<g id="c-cg001e">
<g class="circle s-cc9900">
  <path d="M 980.17 432.16 C 980.17 521.99 907.35 594.81 817.52 594.81 C 727.69 594.81 654.87 521.99 654.87 432.16 C 654.87 342.33 727.69 269.50 817.52 269.50 C 907.35 269.50 980.17 342.33 980.17 432.16 z"/>
<title>Circle cg001e</title>
<desc>Circle cg001e: Circle with center p000e and radius g002a1</desc>
</g> 
</g> 
<g id="c-c004">
<g class="circle s-808080">
  <path d="M 817.52 432.16 C 817.52 504.83 758.60 563.74 685.93 563.74 C 613.26 563.74 554.34 504.83 554.34 432.16 C 554.34 359.48 613.26 300.57 685.93 300.57 C 758.60 300.57 817.52 359.48 817.52 432.16 z"/>
<title>Circle c004</title>
<desc>Circle c004: Circle through p000w with center p002</desc>
</g> 
</g> 
<g id="c-c005">
<g class="circle s-339900">
  <path d="M 716.99 168.98 C 716.99 258.81 644.17 331.63 554.34 331.63 C 464.51 331.63 391.69 258.81 391.69 168.98 C 391.69 79.151 464.51 6.3297 554.34 6.3297 C 644.17 6.3297 716.99 79.151 716.99 168.98 z"/>
<title>Circle c005</title>
<desc>Circle c005: Circle with center p006nw and radius g003a2</desc>
</g> 
</g> 
<g id="c-c006">
<g class="circle s-339900">
  <path d="M 980.17 168.98 C 980.17 404.16 789.52 594.81 554.34 594.81 C 319.17 594.81 128.52 404.16 128.52 168.98 C 128.52 -66.196 319.17 -256.85 554.34 -256.85 C 789.52 -256.85 980.17 -66.196 980.17 168.98 z"/>
<title>Circle c006</title>
<desc>Circle c006: Circle through p008se with center p006nw</desc>
</g> 
</g> 
<g id="c-cb001a">
<g class="circle s-c0c0c0">
  <path d="M 692.70 432.16 C 692.70 508.57 630.76 570.52 554.34 570.52 C 477.93 570.52 415.98 508.57 415.98 432.16 C 415.98 355.74 477.93 293.80 554.34 293.80 C 630.76 293.80 692.70 355.74 692.70 432.16 z"/>
<title>Circle cb001a</title>
<desc>Circle cb001a: bisector(p000w, p008nw)</desc>
</g> 
</g> 
<g id="c-cb001b">
<g class="circle s-c0c0c0">
  <path d="M 765.44 314.46 C 765.44 390.87 703.50 452.82 627.08 452.82 C 550.67 452.82 488.72 390.87 488.72 314.46 C 488.72 238.05 550.67 176.10 627.08 176.10 C 703.50 176.10 765.44 238.05 765.44 314.46 z"/>
<title>Circle cb001b</title>
<desc>Circle cb001b: bisector(p000w, p008nw)</desc>
</g> 
</g> 
</g>
<g id="graphics">
</g>
<g id="sections">
<g id="sg-unit">
<g class="segment s-ffffff">
  <path d="M 554.34 432.16 L 817.52 432.16"/>
<title>Segment unit</title>
<desc>Segment unit: Segment p000w, p000e</desc>
</g> 
</g> 
<g id="sg-Q3">
<g class="segment s-ff6699">
  <path d="M 685.93 204.24 L 685.93 660.07"/>
<title>Segment Q3</title>
<desc>Segment Q3: Segment p001n, p001s</desc>
</g>
<g transform="matrix(1.0000, 0.0000, 0.0000, 1.0000, 696.00, 458.00)">
<text>Q: 3</text>
</g> 
</g> 
<g id="sg-g001a2">
<g class="segment s-cc9900 a">
  <path d="M 685.93 204.24 L 685.93 -5.0000"/>
<title>Segment g001a2</title>
<desc>Segment g001a2: abaSegments(p004n, p001n, p001s, p004s)</desc>
</g>
<g transform="matrix(1.0000, 0.0000, 0.0000, 1.0000, 666.00, 50.000)">
<text>a</text>
</g> 
</g> 
<g id="sg-g001b">
<g class="segment s-cc9900 b">
  <path d="M 685.93 204.24 L 685.93 660.07"/>
<title>Segment g001b</title>
<desc>Segment g001b: abaSegments(p004n, p001n, p001s, p004s)</desc>
</g>
<g transform="matrix(1.0000, 0.0000, 0.0000, 1.0000, 665.00, 395.00)">
<text>b</text>
</g> 
</g> 
<g id="sg-g001a1">
<g class="segment s-cc9900 a">
  <path d="M 685.93 660.07 L 685.93 828.00"/>
<title>Segment g001a1</title>
<desc>Segment g001a1: abaSegments(p004n, p001n, p001s, p004s)</desc>
</g>
<g transform="matrix(1.0000, 0.0000, 0.0000, 1.0000, 669.00, 800.00)">
<text>a</text>
</g> 
</g> 
<g id="sg-y4d">
<g class="segment s-99ff00">
  <path d="M 554.34 168.98 L 817.52 168.98"/>
<title>Segment y4d</title>
<desc>Segment y4d: Segment p006nw, p006ne</desc>
</g> 
</g> 
<g id="sg-y4c">
<g class="segment s-99ff00">
  <path d="M 817.52 168.98 L 817.52 432.16"/>
<title>Segment y4c</title>
<desc>Segment y4c: Segment p006ne, p000e</desc>
</g> 
</g> 
<g id="sg-y4b">
<g class="segment s-99ff00">
  <path d="M 817.52 432.16 L 554.34 432.16"/>
<title>Segment y4b</title>
<desc>Segment y4b: Segment p000e, p000w</desc>
</g> 
</g> 
<g id="sg-y4a">
<g class="segment s-99ff00">
  <path d="M 554.34 432.16 L 554.34 168.98"/>
<title>Segment y4a</title>
<desc>Segment y4a: Segment p000w, p006nw</desc>
</g> 
</g> 
<g id="sg-Q5">
<g class="segment s-99ff00 Q5">
  <path d="M 554.34 168.98 L 817.52 695.33"/>
<title>Segment Q5</title>
<desc>Segment Q5: Segment p006nw, p006se</desc>
</g>
<g transform="matrix(1.0000, 0.0000, 0.0000, 1.0000, 699.00, 419.00)">
<text>Q5</text>
</g> 
</g> 
<g id="sg-r003">
<g class="segment s-339900">
  <path d="M 685.93 432.16 L 554.34 168.98"/>
<title>Segment r003</title>
<desc>Segment r003: Segment p002, p006nw</desc>
</g> 
</g> 
<g id="sg-g002a2">
<g class="segment s-cc9900">
  <path d="M 391.69 432.16 L 554.34 432.16"/>
<title>Segment g002a2</title>
<desc>Segment g002a2: abaSegments(p007w, p000w, p000e, p007e)</desc>
</g>
<g transform="matrix(1.0000, 0.0000, 0.0000, 1.0000, 469.00, 452.00)">
<text>a</text>
</g> 
</g> 
<g id="sg-g002b">
<g class="segment s-cc9900 b">
  <path d="M 554.34 432.16 L 817.52 432.16"/>
<title>Segment g002b</title>
<desc>Segment g002b: abaSegments(p007w, p000w, p000e, p007e)</desc>
</g>
<g transform="matrix(1.0000, 0.0000, 0.0000, 1.0000, 703.00, 455.00)">
<text>b</text>
</g> 
</g> 
<g id="sg-g002a1">
<g class="segment s-cc9900 a">
  <path d="M 817.52 432.16 L 980.17 432.16"/>
<title>Segment g002a1</title>
<desc>Segment g002a1: abaSegments(p007w, p000w, p000e, p007e)</desc>
</g>
<g transform="matrix(1.0000, 0.0000, 0.0000, 1.0000, 897.00, 454.00)">
<text>a</text>
</g> 
</g> 
<g id="sg-g003a2">
<g class="segment s-cc9900 a">
  <path d="M 554.34 168.98 L 627.08 314.46"/>
<title>Segment g003a2</title>
<desc>Segment g003a2: abaSegments(p006nw, p008nw, p008se, p006se)</desc>
</g>
<g transform="matrix(1.0000, 0.0000, 0.0000, 1.0000, 600.00, 243.00)">
<text>a</text>
</g> 
</g> 
<g id="sg-g003b">
<g class="segment s-cc9900 b">
  <path d="M 627.08 314.46 L 744.78 549.85"/>
<title>Segment g003b</title>
<desc>Segment g003b: abaSegments(p006nw, p008nw, p008se, p006se)</desc>
</g>
<g transform="matrix(1.0000, 0.0000, 0.0000, 1.0000, 697.00, 426.00)">
<text>b</text>
</g> 
</g> 
<g id="sg-g003a1">
<g class="segment s-cc9900 a">
  <path d="M 744.78 549.85 L 817.52 695.33"/>
<title>Segment g003a1</title>
<desc>Segment g003a1: abaSegments(p006nw, p008nw, p008se, p006se)</desc>
</g>
<g transform="matrix(1.0000, 0.0000, 0.0000, 1.0000, 790.00, 624.00)">
<text>a</text>
</g> 
</g> 
<g id="sg-y5b">
<g class="segment s-339900">
  <path d="M 399.65 219.24 L 709.03 219.24"/>
<title>Segment y5b</title>
<desc>Segment y5b: Segment p009a, p009b</desc>
</g> 
</g> 
<g id="sg-y5c">
<g class="segment s-339900">
  <path d="M 709.03 219.24 L 804.64 513.48"/>
<title>Segment y5c</title>
<desc>Segment y5c: Segment p009b, p009c</desc>
</g> 
</g> 
<g id="sg-y5d">
<g class="segment s-339900">
  <path d="M 804.64 513.48 L 554.34 695.33"/>
<title>Segment y5d</title>
<desc>Segment y5d: Segment p009c, p006sw</desc>
</g> 
</g> 
<g id="sg-y5e">
<g class="segment s-339900">
  <path d="M 554.34 695.33 L 304.05 513.48"/>
<title>Segment y5e</title>
<desc>Segment y5e: Segment p006sw, p009d</desc>
</g> 
</g> 
<g id="sg-y5a">
<g class="segment s-339900">
  <path d="M 304.05 513.48 L 399.65 219.24"/>
<title>Segment y5a</title>
<desc>Segment y5a: Segment p009d, p009a</desc>
</g> 
</g> 
<g id="sg-g004a">
<g class="segment s-cc9900">
  <path d="M 554.34 432.16 L 554.34 331.63"/>
<title>Segment g004a</title>
<desc>Segment g004a: abSegment(p000w, p009s, p006nw)</desc>
</g>
<g transform="matrix(1.0000, 0.0000, 0.0000, 1.0000, 536.00, 387.00)">
<text>a</text>
</g> 
</g> 
<g id="sg-g004b">
<g class="segment s-cc9900 b">
  <path d="M 554.34 331.63 L 554.34 168.98"/>
<title>Segment g004b</title>
<desc>Segment g004b: abSegment(p000w, p009s, p006nw)</desc>
</g>
<g transform="matrix(1.0000, 0.0000, 0.0000, 1.0000, 531.00, 258.00)">
<text>b</text>
</g> 
</g> 
<g id="sg-g005a">
<g class="segment s-cc9900 a">
  <path d="M 391.69 432.16 L 554.34 331.63"/>
<title>Segment g005a</title>
<desc>Segment g005a: abSegment(p007w, p009s, p006ne)</desc>
</g>
<g transform="matrix(1.0000, 0.0000, 0.0000, 1.0000, 481.00, 395.00)">
<text>a</text>
</g> 
</g> 
<g id="sg-g005b">
<g class="segment s-cc9900 b">
  <path d="M 554.34 331.63 L 817.52 168.98"/>
<title>Segment g005b</title>
<desc>Segment g005b: abSegment(p007w, p009s, p006ne)</desc>
</g>
<g transform="matrix(1.0000, 0.0000, 0.0000, 1.0000, 700.00, 262.00)">
<text>b</text>
</g> 
</g> 
<g id="sg-g006a">
<g class="segment s-cc9900 a">
  <path d="M 291.17 432.16 L 391.69 432.16"/>
<title>Segment g006a</title>
<desc>Segment g006a: abSegment(p003w, p007w, p000w)</desc>
</g>
<g transform="matrix(1.0000, 0.0000, 0.0000, 1.0000, 338.00, 420.00)">
<text>a</text>
</g> 
</g> 
<g id="sg-g006b">
<g class="segment s-cc9900 b">
  <path d="M 391.69 432.16 L 554.34 432.16"/>
<title>Segment g006b</title>
<desc>Segment g006b: abSegment(p003w, p007w, p000w)</desc>
</g>
<g transform="matrix(1.0000, 0.0000, 0.0000, 1.0000, 472.00, 422.00)">
<text>b</text>
</g> 
</g> 
</g>
<g id="points">
<g id="pt-p000w">
<g class="point bottom">
  <path d="M 558.34 432.16 C 558.34 434.36 556.55 436.16 554.34 436.16 C 552.13 436.16 550.34 434.36 550.34 432.16 C 550.34 429.95 552.13 428.16 554.34 428.16 C 556.55 428.16 558.34 429.95 558.34 432.16 z"/>
<title>Point p000w</title>
<desc>p000w = (-0.5, 0)</desc>
</g>
<g class="point top">
  <path d="M 558.34 432.16 C 558.34 434.36 556.55 436.16 554.34 436.16 C 552.13 436.16 550.34 434.36 550.34 432.16 C 550.34 429.95 552.13 428.16 554.34 428.16 C 556.55 428.16 558.34 429.95 558.34 432.16 z"/>
<title>Point p000w</title>
<desc>p000w = (-0.5, 0)</desc>
</g> 
</g> 
<g id="pt-p000e">
<g class="point bottom">
  <path d="M 821.52 432.16 C 821.52 434.36 819.73 436.16 817.52 436.16 C 815.31 436.16 813.52 434.36 813.52 432.16 C 813.52 429.95 815.31 428.16 817.52 428.16 C 819.73 428.16 821.52 429.95 821.52 432.16 z"/>
<title>Point p000e</title>
<desc>p000e = (0.5, 0)</desc>
</g>
<g class="point top">
  <path d="M 821.52 432.16 C 821.52 434.36 819.73 436.16 817.52 436.16 C 815.31 436.16 813.52 434.36 813.52 432.16 C 813.52 429.95 815.31 428.16 817.52 428.16 C 819.73 428.16 821.52 429.95 821.52 432.16 z"/>
<title>Point p000e</title>
<desc>p000e = (0.5, 0)</desc>
</g> 
</g> 
<g id="pt-p001n">
<g class="point bottom">
  <path d="M 689.93 204.24 C 689.93 206.45 688.14 208.24 685.93 208.24 C 683.72 208.24 681.93 206.45 681.93 204.24 C 681.93 202.03 683.72 200.24 685.93 200.24 C 688.14 200.24 689.93 202.03 689.93 204.24 z"/>
<title>Point p001n</title>
<desc>Point p001n: Intersection point of c000w, c000e</desc>
</g>
<g class="point top">
  <path d="M 689.93 204.24 C 689.93 206.45 688.14 208.24 685.93 208.24 C 683.72 208.24 681.93 206.45 681.93 204.24 C 681.93 202.03 683.72 200.24 685.93 200.24 C 688.14 200.24 689.93 202.03 689.93 204.24 z"/>
<title>Point p001n</title>
<desc>Point p001n: Intersection point of c000w, c000e</desc>
</g> 
</g> 
<g id="pt-p001s">
<g class="point bottom">
  <path d="M 689.93 660.07 C 689.93 662.28 688.14 664.07 685.93 664.07 C 683.72 664.07 681.93 662.28 681.93 660.07 C 681.93 657.86 683.72 656.07 685.93 656.07 C 688.14 656.07 689.93 657.86 689.93 660.07 z"/>
<title>Point p001s</title>
<desc>Point p001s: Intersection point of c000w, c000e</desc>
</g>
<g class="point top">
  <path d="M 689.93 660.07 C 689.93 662.28 688.14 664.07 685.93 664.07 C 683.72 664.07 681.93 662.28 681.93 660.07 C 681.93 657.86 683.72 656.07 685.93 656.07 C 688.14 656.07 689.93 657.86 689.93 660.07 z"/>
<title>Point p001s</title>
<desc>Point p001s: Intersection point of c000w, c000e</desc>
</g> 
</g> 
<g id="pt-p002">
<g class="point bottom">
  <path d="M 689.93 432.16 C 689.93 434.36 688.14 436.16 685.93 436.16 C 683.72 436.16 681.93 434.36 681.93 432.16 C 681.93 429.95 683.72 428.16 685.93 428.16 C 688.14 428.16 689.93 429.95 689.93 432.16 z"/>
<title>Point p002</title>
<desc>Point p002: Intersection of i000 and i001</desc>
</g>
<g class="point top">
  <path d="M 689.93 432.16 C 689.93 434.36 688.14 436.16 685.93 436.16 C 683.72 436.16 681.93 434.36 681.93 432.16 C 681.93 429.95 683.72 428.16 685.93 428.16 C 688.14 428.16 689.93 429.95 689.93 432.16 z"/>
<title>Point p002</title>
<desc>Point p002: Intersection of i000 and i001</desc>
</g> 
</g> 
<g id="pt-p003e">
<g class="point bottom">
  <path d="M 1084.7 432.16 C 1084.7 434.36 1082.9 436.16 1080.7 436.16 C 1078.5 436.16 1076.7 434.36 1076.7 432.16 C 1076.7 429.95 1078.5 428.16 1080.7 428.16 C 1082.9 428.16 1084.7 429.95 1084.7 432.16 z"/>
<title>Point p003e</title>
<desc>Point p003e: Intersection of c000e and i000</desc>
</g>
<g class="point top">
  <path d="M 1084.7 432.16 C 1084.7 434.36 1082.9 436.16 1080.7 436.16 C 1078.5 436.16 1076.7 434.36 1076.7 432.16 C 1076.7 429.95 1078.5 428.16 1080.7 428.16 C 1082.9 428.16 1084.7 429.95 1084.7 432.16 z"/>
<title>Point p003e</title>
<desc>Point p003e: Intersection of c000e and i000</desc>
</g> 
</g> 
<g id="pt-p003w">
<g class="point bottom">
  <path d="M 295.17 432.16 C 295.17 434.36 293.38 436.16 291.17 436.16 C 288.96 436.16 287.17 434.36 287.17 432.16 C 287.17 429.95 288.96 428.16 291.17 428.16 C 293.38 428.16 295.17 429.95 295.17 432.16 z"/>
<title>Point p003w</title>
<desc>Point p003w: Intersection of c000w and i000</desc>
</g>
<g class="point top">
  <path d="M 295.17 432.16 C 295.17 434.36 293.38 436.16 291.17 436.16 C 288.96 436.16 287.17 434.36 287.17 432.16 C 287.17 429.95 288.96 428.16 291.17 428.16 C 293.38 428.16 295.17 429.95 295.17 432.16 z"/>
<title>Point p003w</title>
<desc>Point p003w: Intersection of c000w and i000</desc>
</g> 
</g> 
<g id="pt-p006nw">
<g class="point bottom">
  <path d="M 558.34 168.98 C 558.34 171.19 556.55 172.98 554.34 172.98 C 552.13 172.98 550.34 171.19 550.34 168.98 C 550.34 166.77 552.13 164.98 554.34 164.98 C 556.55 164.98 558.34 166.77 558.34 168.98 z"/>
<title>Point p006nw</title>
<desc>Point p006nw: Intersection point of c000w, i002w</desc>
</g>
<g class="point top">
  <path d="M 558.34 168.98 C 558.34 171.19 556.55 172.98 554.34 172.98 C 552.13 172.98 550.34 171.19 550.34 168.98 C 550.34 166.77 552.13 164.98 554.34 164.98 C 556.55 164.98 558.34 166.77 558.34 168.98 z"/>
<title>Point p006nw</title>
<desc>Point p006nw: Intersection point of c000w, i002w</desc>
</g> 
</g> 
<g id="pt-p006sw">
<g class="point bottom">
  <path d="M 558.34 695.33 C 558.34 697.54 556.55 699.33 554.34 699.33 C 552.13 699.33 550.34 697.54 550.34 695.33 C 550.34 693.12 552.13 691.33 554.34 691.33 C 556.55 691.33 558.34 693.12 558.34 695.33 z"/>
<title>Point p006sw</title>
<desc>Point p006sw: Intersection point of c000w, i002w</desc>
</g>
<g class="point top">
  <path d="M 558.34 695.33 C 558.34 697.54 556.55 699.33 554.34 699.33 C 552.13 699.33 550.34 697.54 550.34 695.33 C 550.34 693.12 552.13 691.33 554.34 691.33 C 556.55 691.33 558.34 693.12 558.34 695.33 z"/>
<title>Point p006sw</title>
<desc>Point p006sw: Intersection point of c000w, i002w</desc>
</g> 
</g> 
<g id="pt-p006ne">
<g class="point bottom">
  <path d="M 821.52 168.98 C 821.52 171.19 819.73 172.98 817.52 172.98 C 815.31 172.98 813.52 171.19 813.52 168.98 C 813.52 166.77 815.31 164.98 817.52 164.98 C 819.73 164.98 821.52 166.77 821.52 168.98 z"/>
<title>Point p006ne</title>
<desc>Point p006ne: Intersection point of c000e, i002e</desc>
</g>
<g class="point top">
  <path d="M 821.52 168.98 C 821.52 171.19 819.73 172.98 817.52 172.98 C 815.31 172.98 813.52 171.19 813.52 168.98 C 813.52 166.77 815.31 164.98 817.52 164.98 C 819.73 164.98 821.52 166.77 821.52 168.98 z"/>
<title>Point p006ne</title>
<desc>Point p006ne: Intersection point of c000e, i002e</desc>
</g> 
</g> 
<g id="pt-p006se">
<g class="point bottom">
  <path d="M 821.52 695.33 C 821.52 697.54 819.73 699.33 817.52 699.33 C 815.31 699.33 813.52 697.54 813.52 695.33 C 813.52 693.12 815.31 691.33 817.52 691.33 C 819.73 691.33 821.52 693.12 821.52 695.33 z"/>
<title>Point p006se</title>
<desc>Point p006se: Intersection point of c000e, i002e</desc>
</g>
<g class="point top">
  <path d="M 821.52 695.33 C 821.52 697.54 819.73 699.33 817.52 699.33 C 815.31 699.33 813.52 697.54 813.52 695.33 C 813.52 693.12 815.31 691.33 817.52 691.33 C 819.73 691.33 821.52 693.12 821.52 695.33 z"/>
<title>Point p006se</title>
<desc>Point p006se: Intersection point of c000e, i002e</desc>
</g> 
</g> 
<g id="pt-p007w">
<g class="point bottom">
  <path d="M 395.69 432.16 C 395.69 434.36 393.90 436.16 391.69 436.16 C 389.48 436.16 387.69 434.36 387.69 432.16 C 387.69 429.95 389.48 428.16 391.69 428.16 C 393.90 428.16 395.69 429.95 395.69 432.16 z"/>
<title>Point p007w</title>
<desc>Point p007w: Intersection point of c003, i000</desc>
</g>
<g class="point top">
  <path d="M 395.69 432.16 C 395.69 434.36 393.90 436.16 391.69 436.16 C 389.48 436.16 387.69 434.36 387.69 432.16 C 387.69 429.95 389.48 428.16 391.69 428.16 C 393.90 428.16 395.69 429.95 395.69 432.16 z"/>
<title>Point p007w</title>
<desc>Point p007w: Intersection point of c003, i000</desc>
</g> 
</g> 
<g id="pt-p007e">
<g class="point bottom">
  <path d="M 984.17 432.16 C 984.17 434.36 982.38 436.16 980.17 436.16 C 977.96 436.16 976.17 434.36 976.17 432.16 C 976.17 429.95 977.96 428.16 980.17 428.16 C 982.38 428.16 984.17 429.95 984.17 432.16 z"/>
<title>Point p007e</title>
<desc>Point p007e: Intersection point of c003, i000</desc>
</g>
<g class="point top">
  <path d="M 984.17 432.16 C 984.17 434.36 982.38 436.16 980.17 436.16 C 977.96 436.16 976.17 434.36 976.17 432.16 C 976.17 429.95 977.96 428.16 980.17 428.16 C 982.38 428.16 984.17 429.95 984.17 432.16 z"/>
<title>Point p007e</title>
<desc>Point p007e: Intersection point of c003, i000</desc>
</g> 
</g> 
<g id="pt-p008nw">
<g class="point bottom">
  <path d="M 631.08 314.46 C 631.08 316.67 629.29 318.46 627.08 318.46 C 624.87 318.46 623.08 316.67 623.08 314.46 C 623.08 312.25 624.87 310.46 627.08 310.46 C 629.29 310.46 631.08 312.25 631.08 314.46 z"/>
<title>Point p008nw</title>
<desc>Point p008nw: Intersection point of c004, i004w</desc>
</g>
<g class="point top">
  <path d="M 631.08 314.46 C 631.08 316.67 629.29 318.46 627.08 318.46 C 624.87 318.46 623.08 316.67 623.08 314.46 C 623.08 312.25 624.87 310.46 627.08 310.46 C 629.29 310.46 631.08 312.25 631.08 314.46 z"/>
<title>Point p008nw</title>
<desc>Point p008nw: Intersection point of c004, i004w</desc>
</g> 
</g> 
<g id="pt-p008se">
<g class="point bottom">
  <path d="M 748.78 549.85 C 748.78 552.06 746.99 553.85 744.78 553.85 C 742.57 553.85 740.78 552.06 740.78 549.85 C 740.78 547.64 742.57 545.85 744.78 545.85 C 746.99 545.85 748.78 547.64 748.78 549.85 z"/>
<title>Point p008se</title>
<desc>Point p008se: Intersection point of c004, i004w</desc>
</g>
<g class="point top">
  <path d="M 748.78 549.85 C 748.78 552.06 746.99 553.85 744.78 553.85 C 742.57 553.85 740.78 552.06 740.78 549.85 C 740.78 547.64 742.57 545.85 744.78 545.85 C 746.99 545.85 748.78 547.64 748.78 549.85 z"/>
<title>Point p008se</title>
<desc>Point p008se: Intersection point of c004, i004w</desc>
</g> 
</g> 
<g id="pt-p008ne">
<g class="point bottom">
  <path d="M 748.78 314.46 C 748.78 316.67 746.99 318.46 744.78 318.46 C 742.57 318.46 740.78 316.67 740.78 314.46 C 740.78 312.25 742.57 310.46 744.78 310.46 C 746.99 310.46 748.78 312.25 748.78 314.46 z"/>
<title>Point p008ne</title>
<desc>Point p008ne: Intersection point of c004, i004e</desc>
</g>
<g class="point top">
  <path d="M 748.78 314.46 C 748.78 316.67 746.99 318.46 744.78 318.46 C 742.57 318.46 740.78 316.67 740.78 314.46 C 740.78 312.25 742.57 310.46 744.78 310.46 C 746.99 310.46 748.78 312.25 748.78 314.46 z"/>
<title>Point p008ne</title>
<desc>Point p008ne: Intersection point of c004, i004e</desc>
</g> 
</g> 
<g id="pt-p008sw">
<g class="point bottom">
  <path d="M 631.08 549.85 C 631.08 552.06 629.29 553.85 627.08 553.85 C 624.87 553.85 623.08 552.06 623.08 549.85 C 623.08 547.64 624.87 545.85 627.08 545.85 C 629.29 545.85 631.08 547.64 631.08 549.85 z"/>
<title>Point p008sw</title>
<desc>Point p008sw: Intersection point of c004, i004e</desc>
</g>
<g class="point top">
  <path d="M 631.08 549.85 C 631.08 552.06 629.29 553.85 627.08 553.85 C 624.87 553.85 623.08 552.06 623.08 549.85 C 623.08 547.64 624.87 545.85 627.08 545.85 C 629.29 545.85 631.08 547.64 631.08 549.85 z"/>
<title>Point p008sw</title>
<desc>Point p008sw: Intersection point of c004, i004e</desc>
</g> 
</g> 
<g id="pt-p009b">
<g class="point bottom">
  <path d="M 713.03 219.24 C 713.03 221.45 711.24 223.24 709.03 223.24 C 706.82 223.24 705.03 221.45 705.03 219.24 C 705.03 217.03 706.82 215.24 709.03 215.24 C 711.24 215.24 713.03 217.03 713.03 219.24 z"/>
<title>Point p009b</title>
<desc>Point p009b: Intersection point of c005, c000w</desc>
</g>
<g class="point top">
  <path d="M 713.03 219.24 C 713.03 221.45 711.24 223.24 709.03 223.24 C 706.82 223.24 705.03 221.45 705.03 219.24 C 705.03 217.03 706.82 215.24 709.03 215.24 C 711.24 215.24 713.03 217.03 713.03 219.24 z"/>
<title>Point p009b</title>
<desc>Point p009b: Intersection point of c005, c000w</desc>
</g> 
</g> 
<g id="pt-p009a">
<g class="point bottom">
  <path d="M 403.65 219.24 C 403.65 221.45 401.86 223.24 399.65 223.24 C 397.44 223.24 395.65 221.45 395.65 219.24 C 395.65 217.03 397.44 215.24 399.65 215.24 C 401.86 215.24 403.65 217.03 403.65 219.24 z"/>
<title>Point p009a</title>
<desc>Point p009a: Intersection point of c005, c000w</desc>
</g>
<g class="point top">
  <path d="M 403.65 219.24 C 403.65 221.45 401.86 223.24 399.65 223.24 C 397.44 223.24 395.65 221.45 395.65 219.24 C 395.65 217.03 397.44 215.24 399.65 215.24 C 401.86 215.24 403.65 217.03 403.65 219.24 z"/>
<title>Point p009a</title>
<desc>Point p009a: Intersection point of c005, c000w</desc>
</g> 
</g> 
<g id="pt-p009d">
<g class="point bottom">
  <path d="M 308.05 513.48 C 308.05 515.69 306.26 517.48 304.05 517.48 C 301.84 517.48 300.05 515.69 300.05 513.48 C 300.05 511.27 301.84 509.48 304.05 509.48 C 306.26 509.48 308.05 511.27 308.05 513.48 z"/>
<title>Point p009d</title>
<desc>Point p009d: Intersection point of c000w, c006</desc>
</g>
<g class="point top">
  <path d="M 308.05 513.48 C 308.05 515.69 306.26 517.48 304.05 517.48 C 301.84 517.48 300.05 515.69 300.05 513.48 C 300.05 511.27 301.84 509.48 304.05 509.48 C 306.26 509.48 308.05 511.27 308.05 513.48 z"/>
<title>Point p009d</title>
<desc>Point p009d: Intersection point of c000w, c006</desc>
</g> 
</g> 
<g id="pt-p009c">
<g class="point bottom">
  <path d="M 808.64 513.48 C 808.64 515.69 806.85 517.48 804.64 517.48 C 802.43 517.48 800.64 515.69 800.64 513.48 C 800.64 511.27 802.43 509.48 804.64 509.48 C 806.85 509.48 808.64 511.27 808.64 513.48 z"/>
<title>Point p009c</title>
<desc>Point p009c: Intersection point of c000w, c006</desc>
</g>
<g class="point top">
  <path d="M 808.64 513.48 C 808.64 515.69 806.85 517.48 804.64 517.48 C 802.43 517.48 800.64 515.69 800.64 513.48 C 800.64 511.27 802.43 509.48 804.64 509.48 C 806.85 509.48 808.64 511.27 808.64 513.48 z"/>
<title>Point p009c</title>
<desc>Point p009c: Intersection point of c000w, c006</desc>
</g> 
</g> 
<g id="pt-p009n">
<g class="point bottom">
  <path d="M 558.34 6.3297 C 558.34 8.5389 556.55 10.330 554.34 10.330 C 552.13 10.330 550.34 8.5389 550.34 6.3297 C 550.34 4.1206 552.13 2.3297 554.34 2.3297 C 556.55 2.3297 558.34 4.1206 558.34 6.3297 z"/>
<title>Point p009n</title>
<desc>Point p009n: Intersection point of c005, i002w</desc>
</g>
<g class="point top">
  <path d="M 558.34 6.3297 C 558.34 8.5389 556.55 10.330 554.34 10.330 C 552.13 10.330 550.34 8.5389 550.34 6.3297 C 550.34 4.1206 552.13 2.3297 554.34 2.3297 C 556.55 2.3297 558.34 4.1206 558.34 6.3297 z"/>
<title>Point p009n</title>
<desc>Point p009n: Intersection point of c005, i002w</desc>
</g> 
</g> 
<g id="pt-p009s">
<g class="point bottom">
  <path d="M 558.34 331.63 C 558.34 333.84 556.55 335.63 554.34 335.63 C 552.13 335.63 550.34 333.84 550.34 331.63 C 550.34 329.42 552.13 327.63 554.34 327.63 C 556.55 327.63 558.34 329.42 558.34 331.63 z"/>
<title>Point p009s</title>
<desc>Point p009s: Intersection point of c005, i002w</desc>
</g>
<g class="point top">
  <path d="M 558.34 331.63 C 558.34 333.84 556.55 335.63 554.34 335.63 C 552.13 335.63 550.34 333.84 550.34 331.63 C 550.34 329.42 552.13 327.63 554.34 327.63 C 556.55 327.63 558.34 329.42 558.34 331.63 z"/>
<title>Point p009s</title>
<desc>Point p009s: Intersection point of c005, i002w</desc>
</g> 
</g> 
<g id="pt-F">
<g class="point bottom">
  <path d="M 558.34 219.24 C 558.34 221.45 556.55 223.24 554.34 223.24 C 552.13 223.24 550.34 221.45 550.34 219.24 C 550.34 217.03 552.13 215.24 554.34 215.24 C 556.55 215.24 558.34 217.03 558.34 219.24 z"/>
<title>Point F</title>
<desc>Point F: Intersection of i002w and j</desc>
</g>
<g class="point top">
  <path d="M 558.34 219.24 C 558.34 221.45 556.55 223.24 554.34 223.24 C 552.13 223.24 550.34 221.45 550.34 219.24 C 550.34 217.03 552.13 215.24 554.34 215.24 C 556.55 215.24 558.34 217.03 558.34 219.24 z"/>
<title>Point F</title>
<desc>Point F: Intersection of i002w and j</desc>
</g> 
</g> 
</g>
</g> 
</svg> 
